<svg clip-rule="evenodd" fill-rule="evenodd" height="2500" image-rendering="optimizeQuality" shape-rendering="geometricPrecision" text-rendering="geometricPrecision" viewBox="0 0 1642.026 1932.23" width="2127" xmlns="http://www.w3.org/2000/svg"><g fill-rule="nonzero"><path d="m1372.2 617.48c0 310.273-249.144 561.758-556.498 561.758-307.328 0-556.531-251.485-556.531-561.758 0-310.307 249.203-561.79 556.531-561.79 307.355 0 556.498 251.484 556.498 561.79z" fill="#fff"/><path d="m897.963 1092.45c-87.452 72.844-167.466 7.256-167.466 7.256l-386.001-305.746v-87.297l334.865 269.25c109.194 65.71 182.099-14.607 182.099-14.607l298.369-247.447-58.297-58.211-276.602 232.9c-65.469 65.53-145.568 0-145.568 0l-334.865-269.49v-65.495l313.12 247.69c65.59 43.75 116.392-7.292 116.392-7.292l240.346-196.766c-43.641-50.922-87.333-7.136-87.333-7.136l-145.483 123.8c-58.331 65.435-131.083 0-131.083 0l-313.13-254.917 342.035-298.704c152.825-109.22 276.66-7.342 276.66-7.342l334.924 284.098v80.126l-334.923-276.807c-94.562-72.69-174.482 7.291-174.482 7.291l-313.276 269.516 65.563 43.7 254.729-218.542c80.135-65.555 167.466-7.257 167.466-7.257l334.924 276.937v58.082l-291.172-233.046c-80.196-65.564-152.825 0-152.825 0l-225.8 196.576c43.64 43.726 87.332 0 87.332 0l145.819-123.792c72.724-58.186 130.66 7.342 130.66 7.342l313.399 247.723-400.393 327.608zm-80.135-1092.45c-342.25 0-611.68 276.721-611.68 619.056 0 335.019 269.43 611.946 611.68 611.946 342 0 618.505-276.926 618.505-611.946 0-342.336-276.506-619.056-618.506-619.056z" fill="#005197"/><path d="m125.17 1506.63h73.964v89.24h-73.964zm-24.936 112.137.31 45.336c-.155 4.407-.31 9.718-.637 15.364-.43 5.957-.947 13.995-1.43 23.903 6.585-.37 11.449-.766 14.85-.766 3.364 0 8.047.25 14.15.766l-1.368-23.266-.698-14.512v-44.784l100.053.817.12-140.198-100.173-.396v-14.393c-.12-3.003.215-3.244.697-10.053.456-7.135.757-15.94 1.369-26.837-6.5.852-9.693-1.404-13.032-1.404-3.34 0-9.779-1.816-16.303-2.668l1.61 28.242c.482 7.41.482 12.385.637 15.062.154 2.91.154-.49.154-.06v12.11l-100.543.397v136.704zm-71.571-112.137h71.571v89.24h-71.571zm464.406 183.95-.336-247.112h-232.048l-.06 247.723 232.444-.61zm-47.34-89.088-30.419-30.97-17.284 12.783 29.79 31.09zm-58.204 17.13v-51.319l55.81.087v-21.588l-56.267-.094v-29.816h60.64v-21.166h-142.383v20.925l61.673-.241.12 30.298-53.96.094v21.588l53.478-.087v51.319l-69.204.145v20.71l158.567.061v-20.916h-68.473zm-100.965-147.428h181.825v194.915h-181.825zm343.186 202.806c5.156.06 14.875-.396 29.24-1.669 14.633-1.55 31.796-7.351 51.593-17.551-6.895-10.08-12.722-17.37-17.43-21.622l-7.076-6.189c2.73-1.67 5.191-2.918 7.437-4.373 2.066-1.187 4.132-2.676 10.777-8.322l4.622 6.077c.697 1.118 2.79 3.58 6.164 7.497l7.316 8.84 5.887 7.375c8.504-6.015 17.369-17.094 22.052-24.143 4.46-6.92 8.927-16.095 11.508-27.087h-55.604c-9.985 10.174-35.126 32.372-50.947 41.211l-19.47-16.43c1.644-.673 28.24-12.843 55.906-41.36 6.498-6.705 11.904-14.09 17.188-21.588-12.334 6.138-53.685 20.83-56.422 21.588l-16.879-22.525c11.965-1.92 27.596-4.433 35.498-6.714 7.858-2.488 17.06-6.077 27.328-11.388-4.828-5.862-10.51-11.87-16.793-17.791l-5.956-6.043c7.41-3.856 11.843-6.713 13.453-8.564l5.07-5.682 3.649 4.77c4.579 5.801 10.682 12.6 18.824 20.407 3.521-2.822 21.011-11.146 35.283-33.526l3.95-8.013h-65.924c-11.508 14.633-33.646 40.687-33.646 40.687-2.187-1.97-20.89-14.572-20.89-14.572 34.368-33.37 56.421-79.257 56.421-79.257l24.135 11.327-13.695 21.709h80.592c.577 14.004-13.358 59.34-57.455 82.691 2.187-1.068 10.055 4.372 20.108 7.341l-23.963 21.684s73.274-.181 73.395-.276l-5.465 15.88c-4.279 11.052-10.08 23.567-17.551 36.9-7.23 13.755-17.49 25.961-30.703 36.857-12.997 10.752-28.266 19.437-45.818 25.72-17.61 6.017-37.14 8.72-53.718 11.025l-11.99-24.901zm-99.295-58.848c1.696-1.696 4.433-4.183 7.532-8.049 28.025-36.581 41.358-64.16 42.968-69.866v-6.464l-46.248.3.181-20.408 46.79.215v-38.353l-35.919 7.96-9.046-19.16c60.062-7.41 85.627-21.957 85.627-21.957l18.402 19.522-36.806 9.382v42.606h37.563l.242 19.772-37.71-.154.24 16.732c1.12.241 35.653 33.853 35.653 33.853-6.378 10.114-7.049 12.902-11.637 21.286l-1.85-2.918c-2.006-4.183-4.614-7.892-8.41-13.118-3.435-5.25-5.921-8.616-7.17-10.079l-7.066-5.733v127.863h-22.474s-.241-125.866.481-126.107c-1.79 4.527-23.8 43.907-35.918 61.001l-3.857 5.56-15.94-19.315 4.372-4.372zm398.603-134.422v-24.506h-101.388v24.351zm-67.474 146.723c14.46-43.33 18.007-86.514 18.007-86.514h53.324v-23.92h-110.494v23.92h30.728c-.577 25.968-11.388 64.074-15.64 72.759-5.25 10.81-8.84 14.848-16.31 18.308 5.164 8.72 8.168 14.64 9.261 17.551 1.214 3.133 2.436 6.619 3.735 10.81l17.07-7.196c12.66-4.647 32.948-10.775 60.94-18.187l4.983 14.177 23.379-6.25-27.63-76.004-20.83 6.345 13.453 37.924s-13.453 6.318-43.975 16.277zm116.845-109.375c0 28.576-6.222 65.012-6.222 65.012-6.74 46.79-26.33 64.891-26.33 64.891-1.515 1.851-5.613 5.552-12.265 11.018-6.466 5.284-13.876 9.752-21.769 12.636l-14.272 5.68c9.778 6.584 15.882 11.052 18.214 13.359 2.341 2.307 5.078 5.13 8.443 8.771l10.871-7.738c29.094-20.434 47.402-40.842 55.415-59.15 7.653-18.282 9.838-34.585 11.82-45.37 1.815-10.811 4.122-58.54 4.122-58.54.06-2.28.516-5.466.973-9.717h37.503s-5.768 116.054-6.225 120.125c-.456 4.157-.456 8.625-1.97 13.875-.852 2.79-6.955 7.558-11.208 8.866-4.948 1.369-10.992 2.186-20.89 1.369 5.862 8.108 9.898 21.045 12.447 27.415 14.305.61 24.807-2.454 24.807-2.454 8.564-2.461 16.732-6.016 19.736-16.586 1.068-3.185 3.47-15.606 3.951-28.784l6.163-150.94-63.247-.094.878-11.354c0-1.067.335-9.322 1.248-24.841l1.274-24.385c-10.846-.576-20.53-1.73-29.456-3.494l1.275 33.311v14.546c0 4.554-.483 15.76-.483 15.76h-45.008l-.267 26.813zm149.335-56.358c2.462 2.402 6.585 7.05 11.93 13.61 5.465 6.652 9.597 12.996 12.42 19.065l3.917 8.443 11.749-8.168c1.067-.852 5.104-3.038 11.998-6.344l-37.743-49.527c-7.17 5.68-15.09 10.657-23.05 15.124zm152.61 58.368h43.304v21.106h-43.304zm0 43.966h43.304v22.285h-43.304zm-64.16-43.966h42.367v21.106h-42.367zm0 134.697v-47.978h42.331l-.396 49.347h21.958l.267-49.347h43.304v20.349c0 4.096-.276 6.524-1.188 7.832-.937 1.248-3.003 1.851-6.31 2.032-4.286.095-13.393-.456-27.663-2.032l8.35 13.454c1.73 2.428 3.244 8.047 4.587 16.819 11.844-1.154 21.372-2.943 28.844-5.431 7.47-2.436 12.058-5.526 13.333-9.177 1.238-3.734 1.97-6.98 1.97-10.138v-144.322l-51.86.422 6.585-7.687-5.767-3.7 35.86-33.733c-.423.326-9.168-17.801-9.168-17.801l-120.677.12v23.146h91.041l-19.1 17.37-37.02-14.28s-8.831 16.587-13.083 21.381c0 0 35.196 9.563 47.246 16.121l-79.74-.36-.3 157.593h26.597zm-44.88-6.773c-3.916-2.763-8.409-7.497-12.325-11.32v-118.059h-53.926v25.228l30.032-.396-.096 92.16-35.831 34.74s17.068 13.239 22.198 18.945c7.893-13.574 14.512-21.708 18.764-26.14 3.616-3.796 7.807-4.863 9.933-4.769 2.186 0 2.73 0 4.709 1.18 1.875.912 4.518 3.864 9.321 8.262 20.77 19.22 53.805 20.615 63.127 21.837 9.597 1.274 26.021.207 42.418.663 16.371.241 28.206-.215 43.64 0 15.691.095 25.658-.456 28.783-.301l17.49.542c2.858-8.409 6.775-24.988 10.931-29.876l-12.841 1.825c-5.26.912-13.49 1.755-24.72 3.063-10.932.818-18.645 1.576-22.957 1.73-4.339.276-14.728.276-31.22.276-13.9 0-25.143 0-34.033-.275-8.806 0-46.153 0-73.396-19.315zm44.88-83.958h42.367v22.285h-42.367zm183.81 15.486 3.46-5.887c2.917-4.924 8.168-12.937 12.326-20.865 4.226-7.712 10.475-18.127 13.608-23.498v116.57c-.215 6.283-.336 12.541-.671 18.739-.276 6.343-.879 14.39-1.516 24.711 5.742-.576 20.073-.422 25.324 0l-1.248-22.258c-.482-7.678-.603-14.91-.603-21.192v-160.873c10.441-22.5 13.239-28.543 13.876-29.695l7.806-13.118c-8.323-3.375-16.828-7.533-25.995-12.421l-2.185 9.046c-16.518 51.532-49.166 100.113-56.086 108.677l-5.406 6.835c4.923 4.519 15.003 21.347 17.31 25.228zm135.274-133.665c.792 2.126 1.911 5.466 3.796 9.778 1.584 4.4 2.547 8.349 3.4 11.474l.912 9.512c9.84-3.014 26.21.48 26.21.48-4.372-31.003-19.04-49.284-19.04-49.284s-10.354 3.218-22.93 7.866zm93.22 234.235v-79.042h-148.48l.456 79.042h148.023zm-150.606-138.399h146.963v-22.56h-146.963zm-1.824 40.325h148.788v-22.654h-148.788zm-14.822-84.482h180.764v-24.014h-180.764zm42.33 126.383h101.087v32.244h-101.086zm-1353.555 183.133c-8.47-22.26-35.041-32.193-53.6-32.193-34.61 0-62.576 22.139-62.576 65.323 0 38.862 16.002 68.532 63.489 68.532 16.828 0 43.304-8.625 54.597-30.522h25.082c-23.653 54.02-69.23 50.164-83.595 50.164-43.57 0-86.263-24.135-86.263-87.357 0-50.707 33.731-84.81 89.267-85.601 38.14-.663 68.352 20.133 78.895 51.654zm157.231-47.43h22.681v164.3h-22.681v-77.7h-99.054v77.7h-22.741v-164.3h22.741v65.61h99.054zm50.01 0h22.138v164.3h-22.138zm180.334 0h25.358v164.3h-22.319l-106.035-129.75-.542-2.83v132.58h-25.452v-164.3h23.601l104.752 129.35.637 3.58zm161.64 119.51 21.407 44.785h24.986l-78.49-170.221h-19.857l-77.372 170.221h25.692l20.675-44.785zm-75.702-20.287 33.25-79.826h.457l34.92 79.826zm356.004 65.077v-97.014c0-4.615.481-6.56.481-22.104h-.481l-59.366 116.536h-16.578l-59.304-116.114h-.697c0 15.122.697 17.067.697 21.682v97.014h-25.599v-164.3h28.3l64.833 129.715h.697l64.496-129.714h27.965v164.299h-25.443zm217.836-84.6c0-35.532-20.649-86.816-88.51-86.816-67.655 0-88.304 51.284-88.304 86.816 0 35.341 20.649 86.479 88.303 86.479 67.862 0 88.511-51.138 88.511-86.479zm-25.263 0c0 38.56-23.748 66.682-63.248 66.682-39.448 0-63.04-28.121-63.04-66.682 0-38.898 23.592-67.017 63.04-67.017 39.5 0 63.248 28.12 63.248 67.017zm65.413 3.86h46.971c19.617 2.73 40.876 7.437 40.937 31.005.18 15.062-11.207 26.57-36.925 27.844h-50.983zm-23.99 80.739h76.22c39.354 0 60.15-22.681 60.15-49.374 0-28.636-18.223-38.776-29.732-43.149 19.592-8.71 21.443-21.768 21.443-32.76 0-22.87-17.07-42.236-50.286-42.236h-77.794zm23.99-146.208h43.45c23.413 0 33.251 7.592 33.251 23.077 0 17.405-8.59 21.897-33.526 21.26h-43.175zm130.11-20.411h22.95v166.62h-22.95zm71.21 147.16h77.12v19.46h-98.38v-166.62h21.26zm200.14 19.46h-115.67v-168.98h113.96v20.46h-90.31v49.32h86.94v20.31h-86.94v58.75h92.02z" fill="#1f1a17"/></g></svg>