<svg viewBox="28.200000000000003 71.2 143.70000000000005 57.8" xmlns="http://www.w3.org/2000/svg" width="2500" height="-290"><linearGradient id="a" gradientTransform="rotate(75.522 -716.847 131.03)" gradientUnits="userSpaceOnUse" x1="-581.616" x2="-525.572" y1="-625.194" y2="-625.194"><stop offset="0" stop-color="#f9e93c"/><stop offset="1" stop-color="#ffc404"/></linearGradient><circle cx="56.2" cy="100" fill="url(#a)" r="28"/><path d="M80.2 114.6c0 .1-.1.2-.1.3-.8 1.2-1.6 2.4-2.5 3.5-4.2 5.1-9.5 8.1-15.9 9.3-7.1 1.3-14.3.2-20.3-3.8-2.9-1.9-5.2-3.9-7.3-6.6-.6-.8-1.1-1.6-1.6-2.4-1.1-1.8-.1-4.6 2.3-5.3 2.4-.6 4.5-.1 6.4 1.3 1.1.8 2.1 1.9 3.1 2.8 2.8 2.5 5.7 4.7 9.1 6.4 3.3 1.6 6.7 2.4 10.4 2.2 2.8-.1 5.5-.8 8-1.9 2.8-1.2 5.3-2.8 7.5-5l.9-.9c.2-.2.2-.3.2-.3-.1.1-.1.2-.2.4z" fill="#35a105"/><path d="M32.6 84.8c.6-.9 1.1-1.7 1.6-2.5 5.2-5.4 9.4-8.4 15.9-9.8 6.1-1.3 11.9-.8 17.5 1.8 3.7 1.7 7 4 9.8 7 .9 1 1.7 2.2 2.5 3.4 1.2 1.8.2 4.8-2.3 5.4s-4.7 0-6.6-1.6c-1.5-1.3-2.9-2.7-4.4-3.9-3.3-2.8-6.8-5.1-10.9-6.4-2.6-.8-5.3-1.1-8.1-.8-4.7.5-9 2.3-12.7 5.2-.9.7-1.5 1.4-2.3 2.2.1 0 0 .1 0 0 0 .1-.1.3-.1.3s0-.2.1-.3z" fill="#49bc17"/><path d="M52.4 96.3c0-.2.1-.4.1-.6 0-1.9 0-3.9.1-5.8 0-1.5.7-2.4 2.2-2.6.9-.1 1.9-.1 2.9 0 1.5.2 2.3 1.3 2.3 2.9v6h5.3c.5 0 1 0 1.4.1 1.2.2 1.8 1 2.1 2.1.3 1 .3 2.1 0 3.1-.4 1.2-1.2 2-2.5 2-1.4.1-2.8.1-4.2.1H60V109.5c0 1.2-.5 2.2-1.6 2.8-.9.4-1.8.6-2.8.4-.7-.1-1.3-.2-1.9-.7-.9-.7-1.2-1.6-1.2-2.6v-4.9-.8c-.3 0-.6-.1-.8-.1h-4.9c-.3 0-.6 0-.9-.1-1.2-.1-2-.8-2.3-2-.3-1.3-.3-2.6.2-3.8.3-.8.9-1.3 1.7-1.5.4-.1.9-.1 1.3-.1h5c.1.2.3.2.6.2z" fill="#6ea92d"/><g fill="#578419"><path d="M124.3 97.5H137.4c3.6 0 5.9 2.4 5.9 6v4.2c0 3.1-2.4 5.5-5.5 5.6-4.7.1-9.5 0-14.2 0-3.1 0-5.5-2.3-5.5-5.5-.1-4.8-.1-9.6 0-14.3 0-2.9 2.4-5.3 5.3-5.4 6.2-.1 12.4 0 18.6 0 .1 0 .3.1.5.1v5c-.4 0-.8.1-1.2.1h-13.8c-3.1-.1-4 .9-3.2 4.2zm-.3 5.3v2.5c0 1.8.8 2.6 2.6 2.6h7.8c2.1 0 3-.9 3-2.9 0-1.6-1-2.3-3.1-2.3h-8.8c-.4.1-.9.1-1.5.1zM89.3 103.4V98h18.8c1.1-3.6-.3-4.9-2.9-4.8-4.8.1-9.6 0-14.3 0h-1.5V88c.4 0 .8-.1 1.3-.1h17.8c3.3 0 6 2.3 5.9 5.8-.1 4.6 0 9.1 0 13.7 0 3.5-2.3 5.7-5.8 5.8H90.9c-.4 0-.9 0-1.4-.1V108c.5 0 1-.1 1.6-.1h13.8c3.4 0 4.2-.9 3.6-4.5H89.3zM171.8 100.6v7c0 3.1-2.3 5.5-5.5 5.6-4.7.1-9.5 0-14.2 0-3.1 0-5.4-2.3-5.5-5.6-.1-4.8-.1-9.6 0-14.3.1-3.1 2.4-5.3 5.5-5.4 4.6 0 9.3-.1 13.9 0 3.5 0 5.9 2.8 5.7 5.8.1 2.3.1 4.6.1 6.9zm-19.2-.1v5.1c0 1.4.9 2.3 2.3 2.4h8.6c1.6 0 2.5-1 2.5-2.5v-9.6c0-1.6-.8-2.5-2.4-2.5-2.9-.1-5.9-.1-8.8 0-1.5 0-2.2.9-2.3 2.4.1 1.4.1 3 .1 4.7z"/></g></svg>