<svg height="449" viewBox="2 0.344 480.5 86.30000000000001" width="2500" xmlns="http://www.w3.org/2000/svg"><path d="M2.496 47.483l.496-39.16L6.727 4.59 10.462.855 63.256.597c51.564-.253 52.871-.212 56.075 1.756 1.885 1.157 4.092 3.8 5.185 6.209 1.767 3.892 1.906 6.853 1.926 41.137l.022 36.942h-17.852v-34.64c0-30.169-.2-34.841-1.558-36.199-1.29-1.29-4.362-1.558-17.851-1.558H72.91v72.398H56.05V14.243H39.344c-14.925 0-16.88.193-18.347 1.813-1.461 1.615-1.642 5.595-1.642 36.2V86.64h-8.677L2 86.644l.496-39.16zm149 37.18c-1.777-1.084-4.119-3.425-5.203-5.203-1.861-3.053-1.97-5.048-1.97-35.96 0-30.911.109-32.907 1.97-35.96 1.084-1.777 3.426-4.119 5.203-5.202C154.576.46 156.562.367 193.654.363L232.58.36v13.885H164.263l-1.544 2.204c-1.112 1.588-1.544 4.634-1.544 10.896v8.692l33.83.26 33.83.262v13.884l-33.83.261-33.83.261v8.692c0 6.262.432 9.308 1.544 10.896l1.544 2.204H232.58v13.885l-38.926-.004c-37.092-.004-39.078-.097-42.158-1.975zM251.424 43.5V.36h17.851V86.64h-17.851zm38.043 41.693c-3.36-2.354-4.719-6.747-3.36-10.865 1.174-3.556 4.859-7.059 40.139-38.155 7.666-6.757 16.318-14.456 19.225-17.108l5.287-4.821h-62.64V.359h79.492l2.9 2.9c3.542 3.542 3.881 8.475.848 12.332-1.128 1.433-13.288 12.54-27.023 24.68-13.736 12.14-27.429 24.406-30.43 27.26l-5.456 5.186 31.984.02 31.983.02V86.64h-40.44c-33.853 0-40.778-.236-42.509-1.448zm105.658-.803c-6.793-4.539-6.837-4.838-6.84-46.592L388.285.359h16.86v34.216c0 32.892.076 34.291 1.983 36.198 1.885 1.885 3.306 1.984 28.607 1.984 24.533 0 26.752-.143 28.265-1.814 1.46-1.614 1.64-5.595 1.64-36.199V.36h16.86v38.313c0 36.682-.084 38.451-1.999 41.548-3.898 6.308-4.7 6.421-45.36 6.421-36.447 0-36.664-.012-40.015-2.251z" fill="#21bbef"/></svg>