<svg width="104px" height="28px" viewBox="0 0 103 28" version="1.1" xmlns="http://www.w3.org/2000/svg" xmlns:xlink="http://www.w3.org/1999/xlink">
    <g id="海外一期" stroke="none" stroke-width="1" fill="none" fill-rule="evenodd">
        <g id="F14-PC-返回顶部Normal" transform="translate(-241.000000, -29.000000)">
            <g id="编组-6">
                <g id="vivo" transform="translate(240.000000, 29.000000)">
                    <g id="vivo-LOGO" transform="translate(1.000000, 0.000000)" fill="#242933">
                        <path class="vep-pc-logo-path" d="M92.1201187,22.7773568 L83.3531521,22.7773568 C78.4247857,22.7773568 77.9864276,18.7356293 77.9864276,17.5007165 C77.9864276,16.2658037 78.4247857,12.2240763 83.3531521,12.2240763 L92.1201187,12.2240763 C97.0484851,12.2240763 97.4868432,16.2658037 97.4868432,17.5007165 C97.4868432,18.7356293 97.0484851,22.7773568 92.1201187,22.7773568 M92.1201187,7.77940186 L83.3531521,7.77940186 C74.2419976,7.77940186 73.4316287,15.2256518 73.4316287,17.5007165 C73.4316287,19.7759758 74.2419976,27.2222258 83.3531521,27.2222258 L92.1201187,27.2222258 C101.231468,27.2222258 102.041837,19.7759758 102.041837,17.5007165 C102.041837,15.2256518 101.231468,7.77940186 92.1201187,7.77940186" id="Fill-1"></path>
                        <path class="vep-pc-logo-path" d="M71.6722232,8.23532926 L68.8307758,8.23532926 C67.6137631,8.23532926 67.362967,8.44312615 66.8934784,9.13947923 C66.4241842,9.83602688 58.2963682,22.2443033 58.2963682,22.2443033 C58.0372058,22.6258479 57.7622835,22.7801391 57.4200413,22.7801391 C57.0779936,22.7801391 56.8028767,22.6258479 56.5437143,22.2443033 C56.5437143,22.2443033 48.4158983,9.83602688 47.9466042,9.13947923 C47.4771155,8.44312615 47.2263194,8.23532926 46.0095013,8.23532926 L43.1678593,8.23532926 C42.5139217,8.23532926 42.2146786,8.74664971 42.6257973,9.37101323 C43.0369161,9.99537674 52.3331032,24.1107786 52.3331032,24.1107786 C53.8394361,26.3265005 54.9449623,27.2222841 57.4200413,27.2222841 C59.8951202,27.2222841 61.0008409,26.3265005 62.5073684,24.1107786 C62.5073684,24.1107786 71.8031664,9.99537674 72.2142852,9.37101323 C72.6254039,8.74664971 72.3263554,8.23532926 71.6722232,8.23532926" id="Fill-4"></path>
                        <path class="vep-pc-logo-path" d="M33.9316764,9.43928657 C33.9316764,8.57716293 34.273335,8.2353098 35.1354586,8.2353098 L37.2832769,8.2353098 C38.1454005,8.2353098 38.4872537,8.57716293 38.4872537,9.43928657 L38.4872537,26.0182879 C38.4872537,26.8804115 38.1454005,27.2222647 37.2832769,27.2222647 L35.1354586,27.2222647 C34.273335,27.2222647 33.9316764,26.8804115 33.9316764,26.0182879 L33.9316764,9.43928657 Z" id="Fill-7"></path>
                        <path class="vep-pc-logo-path" d="M29.2512459,8.23532926 L26.4097985,8.23532926 C25.1925912,8.23532926 24.9417952,8.44312615 24.4723065,9.13947923 C24.0030124,9.83602688 15.8753909,22.2443033 15.8753909,22.2443033 C15.6160339,22.6256534 15.3411116,22.7801391 14.9988694,22.7801391 C14.6566271,22.7801391 14.3817048,22.6256534 14.1225424,22.2443033 C14.1225424,22.2443033 5.9947264,9.83602688 5.52543229,9.13947923 C5.05613818,8.44312615 4.80514754,8.23532926 3.5883294,8.23532926 L0.746492834,8.23532926 C0.0162852061,8.23532926 -0.206687867,8.74664971 0.204625463,9.37101323 C0.615744226,9.99537674 9.91193135,24.1107786 9.91193135,24.1107786 C11.4180697,26.3265005 12.5237904,27.2222841 14.9988694,27.2222841 C17.4741429,27.2222841 18.5796691,26.3265005 20.0861965,24.1107786 C20.0861965,24.1107786 29.3821891,9.99537674 29.7931133,9.37101323 C30.2044266,8.74664971 29.9814536,8.23532926 29.2512459,8.23532926" id="Fill-13"></path>
                        <path class="vep-pc-logo-path" d="M33.7359621,4.43800671 C33.0359123,3.73815144 33.0359123,3.18324812 33.7359621,2.48319828 L35.231983,0.987177377 C35.9318383,0.287127538 36.4869362,0.287127538 37.1867914,0.986982811 L38.6830069,2.48319828 C39.3828622,3.18324812 39.3828622,3.73815144 38.6830069,4.43800671 L37.1867914,5.93422218 C36.4869362,6.63427202 35.9318383,6.63427202 35.231983,5.93422218 L33.7359621,4.43800671 Z" id="Fill-10"></path>
                    </g>
                </g>
            </g>
        </g>
    </g>
</svg>
