<svg class="dynamic" width="1057" viewBox="0 0 1057 640" fill="none" xmlns="http://www.w3.org/2000/svg">
  <g class="dynamic">
    <g class="lcard">
      <g class="lcard-pic" stroke="#000" stroke-linecap="round">
        <path class="lcard-pic-net" d="M378 377l6-7M26 184l5-4-5 4zm-1 2l5-7-5 7zm2 4l8-12-8 12zm-1 1c4-4 7-10 10-12l-10 12zm1 6c0-3 7-7 16-17l-16 17zm-2 1l15-19-15 19zm2 5c4-4 9-8 20-23l-20 23zm-1 0l21-24-21 24zm-2 8c7-10 15-14 26-32l-26 32zm2-3c6-4 11-12 26-29l-26 29zm0 9c6-12 17-21 30-39l-30 39zm-1-1l32-38-32 38zm0 7c11-14 20-27 36-45l-36 45zm0-2l37-42-37 42zm-1 8c16-19 34-39 42-52l-42 52zm1-2c9-9 17-18 42-49l-42 49zm-1 8l51-57-51 57zm2-1l46-54-46 54zm1 4c14-14 28-33 50-58l-50 58zm-1 2c17-21 35-42 53-61l-53 61zm0 8c18-25 37-46 59-71l-59 71zm-1-2c16-16 31-33 59-67l-59 67zm0 4l64-71-64 71zm1 1c13-13 27-30 63-71l-63 71zm-1 6c24-24 46-53 70-78l-70 78zm1 0c25-29 51-60 69-79l-69 79zm1 5c22-24 44-49 71-82l-71 82zm-2 2c27-28 50-56 75-85l-75 85zm1 7c25-31 52-65 81-91l-81 91zm0 0c15-21 33-38 78-92l-78 92zm-1 5c17-22 38-44 86-99l-86 99zm0 1c29-33 56-67 85-99l-85 99zm0 4l92-100-92 100zm0 1c35-39 71-78 91-103L25 282zm1 8l95-110-95 110zm0-2c34-41 71-83 95-110L26 288zm0 4c32-34 65-73 101-113L26 292zm0 2l101-115L26 294zm-1 8c36-45 73-86 108-123L25 302zm1-1c35-42 71-84 106-122L26 301zm0 7c38-47 78-93 110-130L26 308zm-1-1c42-46 83-92 111-128L25 307zm2 6c28-35 57-65 115-134L27 313zm-1 0l116-135L26 313zm-1 7c30-37 62-73 121-141L25 320zm0 0c30-37 61-71 123-140L25 320zm0 4c51-53 95-109 126-147L25 324zm0 0l128-146L25 324zm0 9l131-156L25 333zm1-2c33-40 67-80 131-153L26 331zm-2 5c45-50 90-104 138-156L24 336zm0 1l140-157L24 337zm0 7c53-57 104-116 145-165L24 344zm2-1l142-164L26 343zm-1 8c47-53 90-107 147-172L25 351zm0-1c58-66 117-133 148-171L25 350zm1 5c35-45 72-85 154-175L26 355zm-1 1l154-178L25 356zm-1 7l159-184L24 363zm1-1l158-183L25 362zm1 5c60-71 124-142 165-188L26 367zm-1 1l166-190L25 368zm1 6l167-194L26 374zm-1 0c43-52 87-103 170-196L25 374zm2 4c48-53 90-102 173-200L27 378zm1 0c48-57 94-111 172-200L28 378zm6 0c35-40 69-82 171-198L34 378zm-1-1c48-57 98-114 172-198L33 377zm7 0c63-74 124-145 169-200L40 377zm-2 0c44-51 90-102 172-198L38 377zm5 0c40-42 75-84 173-197L43 377zm1 0c52-59 101-115 171-199L44 377zm4-1c64-68 123-139 174-196L48 376zm1 1l173-199L49 377zm7 1c58-66 114-133 172-198L56 378zm-1-1l171-198L55 377zm4-2c46-51 92-103 172-197L59 375zm0 2l174-198L59 377zm8-1l169-196L67 376zm-2 1c60-68 120-136 172-198L65 377zm5-1c58-62 113-128 173-199L70 376zm1 1l171-199L71 377zm4 0c66-76 132-154 172-198L75 377zm1 0c39-47 79-93 173-199L76 377zm5 0c55-61 109-125 173-197L81 377zm0-1c53-60 105-119 172-198L81 376zm5 1c38-46 77-91 171-197L86 377zm1 0c67-78 134-155 172-197L87 377zm6 0c42-49 85-100 172-197L93 377zm-1-1c51-57 102-115 172-197L92 376zm4 1c69-78 134-152 173-199L96 377zm1-1c41-44 81-89 172-197L97 376zm6 1c46-54 92-109 170-197L103 377zm-1 0c65-76 130-150 173-197L102 377zm7 1c42-51 86-104 172-200L109 378zm-2-2l173-198-173 198zm6 1c57-70 114-137 171-198L113 377zm0-1c50-56 100-116 171-197L113 376zm6 0c39-46 80-93 172-196L119 376zm-1 1l173-199-173 199zm4-1c66-74 128-147 173-196L122 376zm2 1c55-62 109-124 172-199L124 377zm4 0l173-197-173 197zm1 0l172-198-172 198zm5 0c50-58 99-115 173-196L134 377zm1 0c34-41 72-84 171-198L135 377zm3 0c64-73 131-147 173-197L138 377zm1 1c66-75 130-148 173-199L139 378zm7-3c61-69 124-143 171-195L146 375zm-2 2c51-61 104-119 172-198L144 377zm6-1c37-40 74-84 172-196L150 376zm-1 1c48-54 94-105 174-199L149 377zm7-1c46-55 94-108 171-197L156 376zm-1 0c69-76 135-153 173-197L155 376zm5 2l172-200-172 200zm0 0c44-49 85-97 174-200L160 378zm8-1c45-55 93-111 170-198L168 377zm-2-1l171-197-171 197zm5 0l171-196-171 196zm0 0l172-197-172 197zm6 1c33-45 70-85 172-197L177 377zm-1 0l172-198-172 198zm5 1c44-54 93-110 172-199L181 378zm1-1c65-76 131-152 173-198L182 377zm4 1c50-58 98-113 175-198L186 378zm2-2c50-60 101-118 171-198L188 376zm4 0c44-48 90-101 173-198L192 376zm0 1l173-199-173 199zm5 1c52-58 99-114 172-199L197 378zm1-1l171-198-171 198zm4 1c65-73 130-148 171-198L202 378zm1-2l172-197-172 197zm4 1c37-42 70-84 173-198L207 377zm1 0c70-79 139-157 172-197L208 377zm4 1c42-46 78-90 171-197L212 378zm2-2l170-196-170 196zm5-1c66-73 129-148 165-189L219 375zm1 2c33-41 70-83 163-190L220 377zm5 0c36-39 70-81 158-185L225 377zm-1 0c32-40 66-78 160-184L224 377zm6-2c62-68 122-137 153-175L230 375zm1 2l153-178-153 178zm5 0c53-60 103-121 148-173L236 377zm-1 0l150-173-150 173zm6 1c46-56 93-111 145-167L241 378zm0-2l144-165-144 165zm6 2c48-60 99-118 137-162L247 378zm-1-1c31-38 64-77 138-160L246 377zm3 0c42-44 82-90 134-155L249 377zm2 0l134-154-134 154zm4-1c51-59 105-117 131-145L255 376zm0 2c36-39 69-76 130-147L255 378zm8-1c42-55 91-107 122-141L263 377zm-3 1c51-57 99-112 124-144L260 378zm6-2c45-53 90-106 119-133L266 376zm0 2c25-27 49-55 117-137L266 378zm6-2c26-32 56-65 113-127L272 376zm0 0l113-128-113 128zm5 2l106-123-106 123zm0-2c33-36 65-72 108-123L277 376zm5 1c34-40 71-80 100-115L282 377zm-1-1c36-39 70-78 103-116L281 376zm6-1c21-27 45-53 97-111l-97 111zm1 1c30-33 60-69 96-111l-96 111zm6 1c28-33 55-65 91-103l-91 103zm-1 0c23-28 48-54 92-104l-92 104zm4-1c25-25 46-48 87-98l-87 98zm1 1l85-98-85 98zm5-1c26-31 55-60 81-92l-81 92zm1 1l81-92-81 92zm3-1c26-27 51-55 77-85l-77 85zm3 1l74-86-74 86zm2 0l74-79-74 79zm2 0l70-81-70 81zm4 1c23-24 40-44 65-75l-65 75zm2-1l65-75-65 75zm5 0c20-19 38-42 58-70l-58 70zm-1 1c22-24 42-50 60-70l-60 70zm8-3c18-23 38-45 52-61l-52 61zm-1 2c18-23 38-44 53-63l-53 63zm5-2c8-10 17-22 46-54l-46 54zm-1 2c11-14 24-26 50-56l-50 56zm7-1l42-51-42 51zm-1 0l44-50-44 50zm5 1c17-19 29-36 39-45l-39 45zm1 1c7-10 15-20 38-46l-38 46zm4-1c11-14 25-29 32-36l-32 36zm1 0l32-38-32 38zm6-2c5-5 13-12 27-29l-27 29zm0 2l26-31-26 31zm5 2c6-7 11-17 22-29l-22 29zm-1-2c9-9 16-20 21-25l-21 25zm4-2c8-4 13-11 18-18l-18 18zm1 1c5-3 8-10 18-18l-18 18zm6 2c2-4 8-11 11-13l-11 13zm-1-1l12-13-12 13zm6-1c2-1 3-4 6-5l-6 5z" stroke-width=".5"/>
        <path class="lcard-pic-box" d="M25 375c-1-51-1-101 1-197m0 0c119 3 238 2 355 0H26zm0 1c108-2 218-1 356 0H26zm355 0c2 54 4 111 2 195l-2-195zm2 0c-2 67-3 132-2 196l2-196zm-2 197c-73-4-145-3-356-2l356 2zm1-2H25h357zm-358-1c1-60 3-119 0-196v196z"/>
        <path class="random-pic" d="M94 329c10-10 44-58 64-58 19 1 47 57 53 59 5 2-25-29-20-46 6-17 34-63 55-55s59 85 71 102m-222-1c11-10 44-60 63-60 20 0 48 57 54 59 5 3-26-29-20-46s34-63 56-55c21 9 59 87 71 104l-224-2z"/>
      </g>
      <g class="lcard-content" stroke-linecap="round">
        <path class="lcard-content-text4" d="M284 507l3-4m-258 2l-1-15m0 6l6-5-6 5zm0 0c2-2 4-5 6-5l-6 5zm0 6l11-12-11 12zm1 0l9-12-9 12zm3 6c4-6 5-11 11-19l-11 19zm-2-2l14-15-14 15zm6 3c4-6 6-13 13-19l-13 19zm-1-3l15-17-15 17zm7 2c2-8 8-16 12-17l-12 17zm-2-2l14-15-14 15zm6 1c4-7 12-13 15-17l-15 17zm-1 1c4-7 9-10 16-18l-16 18zm6-3c4-6 12-12 15-17l-15 17zm-1 3l15-19-15 19zm6-2c4-7 9-12 14-16l-14 16zm0 2c3-6 7-10 16-19l-16 19zm7-1c6-8 10-14 15-17l-15 17zm0 0c3-6 10-13 13-16l-13 16zm3 0l17-17-17 17zm0 0l16-17-16 17zm6 1l13-19-13 19zm1-1l14-17-14 17zm3 1c4-4 6-10 15-17l-15 17zm1-2c3-2 7-6 14-17l-14 17zm6-1c4-2 8-4 16-14l-16 14zm0 2l14-16-14 16zm6 0c0-3 6-9 13-19l-13 19zm-1 0l16-17-16 17zm4-2c8-3 9-8 17-14l-17 14zm2 2l14-17-14 17zm5-1l15-17-15 17zm-1 0c5-5 11-10 15-17l-15 17zm7 0c4-2 8-9 13-16l-13 16zm-1 1c5-5 7-11 14-17l-14 17zm6 0c4-5 12-11 15-16l-15 16zm-1 0l15-17-15 17zm4 1c6-4 7-7 15-17l-15 17zm1-1l16-17-16 17zm6-2c7-4 12-10 14-15l-14 15zm-1 2l16-17-16 17zm6-1c4-5 11-11 14-16l-14 16zm1 2c2-6 7-11 14-17l-14 17zm5 1c4-7 6-11 14-17l-14 17zm-1-1c5-7 9-12 16-18l-16 18zm5-1l16-18-16 18zm0 1l16-19-16 19zm5-2c3-5 8-7 17-16l-17 16zm2 0c2-4 4-7 15-16l-15 16zm2 3c6-10 13-14 19-18l-19 18zm1-2c4-4 8-7 16-18l-16 18zm5-2c4-1 7-7 18-16l-18 16zm1 2c6-4 9-10 15-18l-15 18zm6 1l14-18-14 18zm0 0c3-5 7-11 15-18l-15 18zm4-2l15-16-15 16zm2 0l15-16-15 16zm4 2c6-4 9-9 14-20l-14 20zm1-1l15-18-15 18zm6-1c3-6 11-10 14-16l-14 16zm-2 0l15-15-15 15zm7-1c4-2 9-7 14-15l-14 15zm-1 2l15-17-15 17zm5 0c3-5 9-10 17-17l-17 17zm1 0l13-17-13 17zm3 1c6-8 11-12 19-19l-19 19zm2-1c4-7 10-13 14-17l-14 17zm5-2c5-3 10-11 16-17l-16 17zm1 1l14-15-14 15zm3 2c4-8 10-12 18-18l-18 18zm2 0c2-5 6-10 14-19l-14 19zm4 0c5-5 9-13 17-19l-17 19zm1-1c3-6 8-10 14-18l-14 18zm3 0c6-3 10-7 18-19l-18 19zm2 0l15-17-15 17zm4 0c9-5 11-14 16-16l-16 16zm1-1l16-16-16 16zm4 2c3-5 10-8 16-19l-16 19zm2-2c5-4 8-10 14-16l-14 16zm5 1l15-17-15 17zm1-1c4-6 10-13 14-16l-14 16zm6-1c2-4 7-7 13-15l-13 15zm-3 1c4-4 10-7 16-17l-16 17zm5 1c5-5 9-11 17-17l-17 17zm1 0l14-17-14 17zm5 1c6-5 10-13 17-20l-17 20zm0 0c3-6 6-8 16-19l-16 19zm4-1l18-16-18 16zm2 0c7-6 11-14 15-16l-15 16zm5-1c6-3 9-10 14-16l-14 16zm0 1l16-18-16 18zm6 1c4-8 8-13 13-18l-13 18zm0 0l14-18-14 18zm4-3c4-2 12-9 17-16l-17 16zm1 3l14-17-14 17zm5-2c8-6 11-11 14-18l-14 18zm0 2l16-18-16 18zm4-3c5-3 10-6 14-13l-14 13zm1 1l14-15-14 15zm5 1l11-11-11 11zm1 1l9-12-9 12zm5-1l4-4-4 4zM28 489c66-1 134 1 260 2l-260-2zm1 1c91 1 183 2 258-1l-258 1zm259 0l-2 17 2-17zm-2 0v15-15zm1 17c-103-3-204-1-258-2l258 2zm0-1c-60 0-119 1-259-1l259 1zm-258 1c-2-7-1-7-1-17l1 17z" stroke="#495057"/>
        <path class="lcard-content-text3" d="M375 481l6-7m-353 5l-1-12m1 6l5-6-5 6zm-1 0l5-6-5 6zm0 5l11-10-11 10zm0 1l11-13-11 13zm5 3c1-6 6-12 12-14l-12 14zm-2-1l13-13-13 13zm6 2c3-8 7-11 12-17l-12 17zm-1-2l15-15-15 15zm5 0c2-5 5-5 12-12l-12 12zm1 1l13-16-13 16zm4-1c6-4 8-6 14-13l-14 13zm1 0l14-14-14 14zm4-1c5-3 9-8 13-12l-13 12zm1 1l14-15-14 15zm4-1l14-12-14 12zm1 1l15-14-15 14zm8-1c2-4 7-8 13-14l-13 14zm-3 3l13-16-13 16zm5 0l16-17-16 17zm2-1l13-16-13 16zm6-2c1-4 4-7 10-13l-10 13zm-2 2c5-4 9-9 13-15l-13 15zm6 0c2-6 6-6 12-17l-12 17zm0 0c6-5 10-13 12-15l-12 15zm6 0c5-4 9-9 10-15l-10 15zm0-1l11-14-11 14zm3 1l14-14-14 14zm2 0l13-16-13 16zm7 1c1-6 9-11 12-17l-12 17zm-3-1c3-4 7-7 13-16l-13 16zm7-2l13-13-13 13zm-1 1c6-4 8-9 13-14l-13 14zm7 3l11-19-11 19zm-1-2c3-6 8-10 13-14l-13 14zm5 1c5-4 8-8 12-18l-12 18zm0-3c5-4 9-9 12-14l-12 14zm6 2l12-17-12 17zm0 0c4-7 10-12 13-16l-13 16zm6 0c2-3 3-6 12-16l-12 16zm-1 0l13-16-13 16zm4-1l13-13-13 13zm0 1l14-15-14 15zm6-1l13-13-13 13zm1 0c3-4 8-8 12-15l-12 15zm3 1c4-3 9-10 16-15l-16 15zm2 1l12-15-12 15zm4-3c5-3 11-9 12-12l-12 12zm1 1c2-4 8-8 13-14l-13 14zm3-1c6-2 12-7 13-13l-13 13zm1 1c6-4 10-10 13-15l-13 15zm6 2c4-8 11-13 13-16l-13 16zm1-1c3-5 5-9 12-15l-12 15zm5 0c3-5 8-11 12-13l-12 13zm-1 1c5-8 10-12 14-16l-14 16zm4-1l16-16-16 16zm1 0c4-4 10-9 13-16l-13 16zm7 1c2-3 3-9 14-18l-14 18zm-1-2l14-15-14 15zm4 0c8-3 11-10 15-15l-15 15zm0 1c7-5 11-10 14-15l-14 15zm8 0c4-4 5-7 11-17l-11 17zm0-1l12-14-12 14zm2 2c4-3 10-9 15-17l-15 17zm2-2l13-13-13 13zm5-1c3-1 8-5 15-12l-15 12zm0 1l14-14-14 14zm5 2l15-18-15 18zm0-1l14-15-14 15zm4-2c5-3 10-6 14-15l-14 15zm1 2c5-6 9-12 14-15l-14 15zm6 2c4-8 9-12 13-16l-13 16zm-1-3c5-3 6-7 13-14l-13 14zm8 2l11-16-11 16zm-1-2l14-14-14 14zm6 3c2-8 9-12 13-18l-13 18zm-2-2c4-4 8-8 13-16l-13 16zm5-1c7-4 9-10 15-13l-15 13zm2 1l12-15-12 15zm2 1l17-17-17 17zm1-1l14-14-14 14zm7-2c5-4 8-7 12-14l-12 14zm-1 1c6-3 9-9 14-15l-14 15zm4 1c6-6 13-11 15-16l-15 16zm3-1l12-14-12 14zm5 2l11-17-11 17zm-1-3l14-14-14 14zm4 3c8-7 11-9 17-17l-17 17zm2 0c4-7 10-12 13-16l-13 16zm6 0c4-7 7-12 11-16l-11 16zm0-2l12-13-12 13zm4 0c2-4 5-7 12-14l-12 14zm0 1l14-15-14 15zm5 1l14-15-14 15zm2-1l12-15-12 15zm6-1c3-3 7-13 11-14l-11 14zm-2 0l13-14-13 14zm4 1c4-2 5-6 12-13l-12 13zm1-1l13-14-13 14zm6 2c2-6 8-10 14-17l-14 17zm0-2c5-4 9-11 12-14l-12 14zm3 2c5-7 9-9 14-15l-14 15zm2-2l12-14-12 14zm5 2c1-5 7-6 12-16l-12 16zm0 0l13-16-13 16zm6 1c1-5 5-9 12-18l-12 18zm-1-2l13-16-13 16zm5 1l15-15-15 15zm1-1l12-16-12 16zm5 1l12-17-12 17zm-1-1l13-15-13 15zm6 1c4-8 11-14 12-15l-12 15zm1-2l12-15-12 15zm3 1c7-6 8-10 13-15l-13 15zm2 0c4-5 7-11 13-15l-13 15zm4-1c4-5 8-10 16-13l-16 13zm2 0l13-15-13 15zm4 0l12-15-12 15zm-1 1c6-4 9-9 13-15l-13 15zm5 1c7-7 10-12 13-18l-13 18zm1-1l14-16-14 16zm6 1c2-3 4-10 13-14l-13 14zm-1-1l14-16-14 16zm5 0c8-6 11-13 13-17l-13 17zm2 0c2-5 5-9 13-16l-13 16zm6 1c1-5 6-8 10-18l-10 18zm-3-2l14-15-14 15zm6 0c7-4 8-11 15-13l-15 13zm1 0c3-3 5-8 14-14l-14 14zm4 0l16-13-16 13zm0 1l14-16-14 16zm5 0c8-5 8-12 13-15l-13 15zm2-1l12-14-12 14zm3 1c7-6 8-10 16-14l-16 14zm1 1c2-5 6-8 14-15l-14 15zm5-1c3-3 5-4 7-9l-7 9zM27 466c111 2 222 3 355 0H27zm0 0h354H27zm354 1c0 2-1 7 1 12l-1-12zm-1 0l1 12-1-12zm0 11c-94 3-187 2-353 1l353-1zm1 1H27h354zm-355-1l2-10-2 10z" stroke="#495057"/>
        <path class="lcard-content-text2" d="M375 457l6-7m-354 5v-13m0 6l6-5-6 5zm1 1l4-6-4 6zm-1 5c5-5 8-8 10-12l-10 12zm1 0l10-12-10 12zm3 5c5-5 9-14 12-18l-12 18zm0-2c2-4 5-8 13-14l-13 14zm5 2c6-6 10-13 12-18l-12 18zm0-1l12-15-12 15zm4 1l12-18-12 18zm2-2l12-15-12 15zm3 1c5-7 9-9 14-15l-14 15zm1-1c5-5 7-9 14-15l-14 15zm5 1c2-6 6-8 13-15l-13 15zm0-1c4-3 5-5 13-15l-13 15zm7 1c1-6 3-10 12-17l-12 17zm-1-1l12-14-12 14zm5 2c2-3 4-7 12-15l-12 15zm0 0c3-7 8-10 13-17l-13 17zm7-2c4-7 10-11 13-14l-13 14zm-1 0l13-15-13 15zm4 0c7-3 8-11 12-16l-12 16zm0 1l14-15-14 15zm5-2c6-4 10-9 12-15l-12 15zm2 1c3-6 10-11 13-16l-13 16zm4 1c2-4 7-7 14-13l-14 13zm1 0l12-16-12 16zm4 0c6-8 11-11 12-16l-12 16zm1-1l13-14-13 14zm6-1c1-1 8-10 13-12l-13 12zm-2 2l14-15-14 15zm5 0l14-16-14 16zm1-2l13-15-13 15zm7 3c1-4 7-8 10-17l-10 17zm-1-1l12-16-12 16zm5 0c4-6 10-10 14-15l-14 15zm1-1l12-15-12 15zm5 0c4-3 8-10 13-16l-13 16zm0 1l11-15-11 15zm3 0c4-3 10-9 16-17l-16 17zm2-2c4-4 9-8 12-14l-12 14zm4 1c3-5 9-8 12-15l-12 15zm1 1l12-15-12 15zm4-1c8-5 11-13 14-14l-14 14zm1 0c6-5 9-12 12-14l-12 14zm5 0l15-15-15 15zm0 0c4-3 8-7 13-14l-13 14zm7-1c2-4 4-7 12-12l-12 12zm-1 2c2-5 6-10 12-14l-12 14zm6-3c4-4 5-7 13-11l-13 11zm-1 2l13-15-13 15zm6-1c1-3 6-6 11-12l-11 12zm-1 0c4-1 7-5 13-14l-13 14zm7 2c2-3 5-9 13-17l-13 17zm-1 0l12-15-12 15zm6-2c1-4 6-5 10-14l-10 14zm-1 3c2-6 7-11 13-15l-13 15zm3-2c7-3 12-9 17-16l-17 16zm2 1c3-3 5-7 14-15l-14 15zm6 1c2-6 4-6 13-16l-13 16zm0-2l12-15-12 15zm3 2c5-6 12-11 15-17l-15 17zm3-1l12-16-12 16zm3-1c5-6 10-10 16-13l-16 13zm1 1l12-16-12 16zm3-2c7-3 8-7 16-12l-16 12zm2 1l13-15-13 15zm6 0c2-5 10-10 12-13l-12 13zm0 1c1-4 5-6 12-15l-12 15zm4-2c7-6 9-11 14-13l-14 13zm1 2l13-16-13 16zm5-1c4-2 8-6 11-13l-11 13zm-1 1l13-16-13 16zm7-2c3-1 7-4 13-13l-13 13zm0 2l12-15-12 15zm6-1c4-3 10-13 12-14l-12 14zm-2 0l13-14-13 14zm7-1l13-14-13 14zm-1 1l14-15-14 15zm5 0c6-7 12-10 12-15l-12 15zm0 1c3-6 8-9 12-15l-12 15zm6 1c2-6 6-9 13-17l-13 17zm0-2c4-6 9-9 14-15l-14 15zm7-1c1-4 5-8 11-13l-11 13zm-2 1c4-3 8-9 13-15l-13 15zm7 0c4-4 9-9 11-14l-11 14zm-1-1c4-3 5-7 13-13l-13 13zm5 0c2-4 7-4 12-12l-12 12zm0 2l12-15-12 15zm6-1c3-4 10-11 11-15l-11 15zm-1 0l12-13-12 13zm4 1l13-17-13 17zm1 0l14-16-14 16zm6-2c3-5 10-8 13-12l-13 12zm0 2l13-15-13 15zm7-1c1-4 7-11 13-16l-13 16zm-3 1l15-15-15 15zm5-3c4-3 10-7 16-14l-16 14zm2 1l12-14-12 14zm4 0c5-3 10-10 13-12l-13 12zm1 2c4-4 6-9 13-15l-13 15zm4-2c3-3 7-4 12-13l-12 13zm1 2c4-4 6-9 13-16l-13 16zm3 1c4-6 11-12 15-16l-15 16zm2-2l13-14-13 14zm5 2l15-18-15 18zm0-1l13-15-13 15zm7-1c3-4 6-5 10-14l-10 14zm-2 1c5-5 9-9 13-16l-13 16zm7 1c2-6 9-12 13-15l-13 15zm-2 0l14-16-14 16zm8 0c1-6 8-11 10-15l-10 15zm-2-1c4-3 5-7 13-15l-13 15zm5-2c7-4 8-6 12-14l-12 14zm1 1l13-15-13 15zm6-1l12-16-12 16zm-1 1l14-15-14 15zm5-1c6-4 10-12 14-15l-14 15zm0 1l14-14-14 14zm6 1c3-7 9-9 12-16l-12 16zm-1 0l15-15-15 15zm4-2c6-3 12-9 16-15l-16 15zm1 2l15-15-15 15zm8 0c1-5 5-6 12-16l-12 16zm-2-1c4-3 8-8 13-15l-13 15zm4 0c3-1 8-6 14-13l-14 13zm1 0l13-15-13 15zm7 1c1-5 5-7 13-17l-13 17zm-2 0l14-17-14 17zm5-2c3-3 6-7 15-14l-15 14zm0 1l13-14-13 14zm8 2c1-7 6-7 12-18l-12 18zm-2-2l13-13-13 13zm5-1c1-3 6-3 11-14l-11 14zm0 2l12-15-12 15zm6-2l6-6-6 6zM28 442c110-1 221 0 353 1l-353-1zm-1 1h354H27zm353 1v10-10zm1-2v12-12zm-1 13c-81-2-166-2-352 0h352zm1 0l-354-1 354 1zm-354 0c1-4-1-7 2-13l-2 13z" stroke="#495057"/>
        <path class="lcard-content-text1" d="M219 424l8-8m-199 8v-30m0 7c0-1 3-2 4-5l-4 5zm0 1l4-7-4 7zm1 5c1-3 4-7 11-13l-11 13zm-1 1l10-13-10 13zm-2 7c7-4 10-8 16-20l-16 20zm2-1l14-18-14 18zm1 6c6-5 11-13 19-26l-19 26zm-2-1l21-25-21 25zm1 4c11-7 16-18 24-29l-24 29zm1 3c5-8 11-14 25-31l-25 31zm4-3c7-5 10-12 29-29l-29 29zm2 1l24-28-24 28zm4 1c8-11 14-20 26-30l-26 30zm0-1c8-7 16-18 26-29l-26 29zm4 1l25-30-25 30zm2 0l25-31-25 31zm6 0l24-31-24 31zm-2 0l26-29-26 29zm7 1c5-9 11-15 26-30l-26 30zm-1-1c8-11 18-21 26-29l-26 29zm5-1c8-7 18-20 25-30l-25 30zm0 1c7-6 12-13 26-29l-26 29zm6-2c7-8 17-18 24-30l-24 30zm-1 2c6-8 12-13 27-29l-27 29zm7 0c4-7 10-12 26-28l-26 28zm-1 1l25-31-25 31zm6-3c7-6 11-13 26-30l-26 30zm0 1l25-29-25 29zm4 2c9-14 22-23 24-30l-24 30zm0-2c10-9 18-21 25-29l-25 29zm4-1l28-28-28 28zm3 2c6-11 15-20 26-30l-26 30zm4 1c7-8 13-12 27-32l-27 32zm-1-1c8-8 16-17 26-31l-26 31zm8-1l26-28-26 28zm-2 1l27-30-27 30zm5 1c7-9 17-18 26-30l-26 30zm0 0l27-32-27 32zm5-4l28-26-28 26zm1 2c6-7 14-14 26-30l-26 30zm4 0l28-30-28 30zm2 1l24-30-24 30zm5-1c8-7 16-18 23-28l-23 28zm0 1l24-30-24 30zm3 0l27-28-27 28zm2-1l26-29-26 29zm7 2c6-12 15-23 24-30l-24 30zm-2-1l25-29-25 29zm7 0c7-11 17-26 23-29l-23 29zm-1 0c8-12 18-23 25-30l-25 30zm4 1c7-11 15-17 25-32l-25 32zm1-2c8-10 20-20 26-29l-26 29zm5 2l24-30-24 30zm1-1l25-31-25 31zm5 1c7-13 16-23 27-32l-27 32zm-1-1l25-29-25 29zm5-2c10-9 22-20 27-27l-27 27zm0 2l26-29-26 29zm5 1c12-13 19-24 28-29l-28 29zm0 0c8-11 16-20 27-30l-27 30zm6-3l28-28-28 28zm0 2l27-30-27 30zm6-1l24-27-24 27zm-1 1l26-30-26 30zm8-2c3-4 10-14 23-28l-23 28zm-1 1l24-29-24 29zm4 1c6-10 12-14 25-30l-25 30zm-1 1l27-31-27 31zm7-2c8-10 17-23 24-29l-24 29zm-1 1c11-10 18-22 26-30l-26 30zm7-1c5-5 11-11 24-30l-24 30zm0 0c8-10 17-22 25-29l-25 29zm5 1c4-7 12-13 27-29l-27 29zm0 0l25-31-25 31zm6 1c5-10 16-18 20-29l-20 29zm-2-2l24-27-24 27zm4 1c7-7 13-15 22-21l-22 21zm3-1l16-20-16 20zm4 0l14-16-14 16zm0 1l13-16-13 16zm7-1c2-3 3-6 7-8l-7 8zM28 395h196H28zm-1 0c72-1 142-1 197 1l-197-1zm196-1c3 12 2 21 2 28l-2-28zm1 2l-1 28 1-28zm-1 27c-40 4-83 1-196 2l196-2zm1 1c-59-1-118-2-196-1l196 1zm-198-1c2-4 0-13 1-26l-1 26z" stroke="#000"/>
      </g>
      <g class="lcard-boundary" stroke="#000" stroke-linecap="round">
        <path class="lcard-net" d="M402 634l6-7M1 150l7-6-7 6zm1-1l5-6-5 6zm0 5l11-12-11 12zm0 1l11-12-11 12zm0 8c4-8 7-12 14-19L2 163zm-1-2l17-18-17 18zm3 7c7-11 13-20 20-26L4 168zm-3-1l21-23-21 23zm2 5c6-9 12-17 26-30L3 172zm-2 2c11-13 21-25 28-30L1 174zm0 5c7-6 15-16 33-36L1 179zm1 0l32-35-32 35zm-2 5c12-12 25-25 37-42L0 184zm3 1l35-41-35 41zm-3 5l44-48-44 48zm3 1l40-47-40 47zm-1 9c16-22 33-40 47-55L2 200zm0-3l48-55-48 55zm0 5c19-18 37-38 54-58L2 202zm0 3l54-61-54 61zm1 7c15-22 32-43 56-70L3 212zm-1-2l58-68-58 68zm1 6c19-23 36-45 64-75L3 216zm-2-1c16-15 30-33 64-73L1 215zm-1 8c26-27 51-55 71-82L0 223zm2 0c18-24 39-48 69-81L2 223zm0 4c27-28 50-59 73-85L2 227zm0 2l75-86-75 86zm-2 7l82-92-82 92zm3-2l78-91-78 91zm-3 8c19-22 39-43 86-99L0 242zm1-1c30-33 61-70 86-99L1 241zm1 7c30-33 56-68 90-105L2 248zm1-1c19-25 39-48 89-103L3 247zm-1 6c38-41 75-85 97-111L2 253zm0 0c22-27 47-56 96-111L2 253zm0 7c27-33 54-64 102-117L2 260zm0-1l100-115L2 259zm-2 8c30-32 57-64 109-124L0 267zm2-2c33-36 64-73 106-122L2 265zm-2 6c27-27 51-58 113-128L0 271zm3-1c41-49 82-96 111-127L3 270zm1 7c35-43 72-84 116-134L4 277zm-1 0c36-44 75-86 115-133L3 277zm-1 6c25-29 51-57 121-139L2 283zm0 1c39-43 75-86 121-142L2 284zm0 4c48-56 101-113 126-146L2 288zm-1 1c43-51 87-98 128-145L1 289zm2 5c43-51 91-102 133-152L3 294zm-2 1c44-50 90-102 133-153L1 295zm-1 6c38-41 71-80 138-158L0 301zm2 2c45-50 87-101 137-159L2 303zm0 5c42-52 86-101 144-166L2 308zm1-1c56-65 112-131 142-164L3 307zm-2 5c53-57 105-120 149-167L1 312zm0 1l149-170L1 313zm2 8c39-44 77-89 151-177L3 321zm-1-1c30-37 62-71 153-177L2 320zm0 5l159-181L2 325zm-1 0c37-40 75-84 160-182L1 325zm-1 8c47-51 92-104 167-191L0 333zm1 0c36-44 75-89 165-190L1 333zm1 3c56-60 110-120 169-192L2 336zm0 2c42-50 85-100 169-195L2 338zm1 6c67-78 137-154 173-200L3 344zm-1 0l175-201L2 344zm-1 5c57-62 110-123 180-205L1 349zm0 1l181-207L1 350zm2 5c60-69 123-139 185-213L3 355zm-1 1c45-54 91-106 185-213L2 356zm0 7c73-82 141-163 190-220L2 363zm0-1c72-81 144-165 190-220L2 362zm0 7c69-77 137-156 195-227L2 369zm0 0c61-72 124-144 197-226L2 369zm0 7c77-91 153-179 202-232L2 376zm-1-1c51-56 99-111 202-233L1 375zm2 5l205-237L3 380zm-1 1l207-239L2 381zm0 5c68-76 133-153 212-242L2 386zm-1 0l213-243L1 386zm-1 7l220-251L0 393zm1 0c57-63 115-129 218-250L1 393zm1 5l223-255L2 398zm0 1l223-256L2 399zm0 7l227-265L2 406zm0-1c69-79 140-159 228-262L2 405zm0 5c56-61 111-126 234-266L2 410zm0 1c67-78 133-155 233-268L2 411zm0 7c67-78 134-157 238-275L2 418zm0 0l237-274L2 418zm0 5l244-281L2 423zm0 1c75-88 152-176 244-281L2 424zm-1 5c91-101 180-204 249-285L1 429zm2 1c83-99 167-195 248-286L3 430zm-2 7c84-100 171-199 254-294L1 437zm1-1l254-293L2 436zm-1 5c79-86 157-176 261-299L1 441zm1 0l259-298L2 441zm0 7l265-304L2 448zm0 0l264-305L2 448zm0 6c102-115 202-231 270-311L2 454zm0 0c88-105 179-208 270-311L2 454zm-1 6c86-97 167-191 277-318L1 460zm1 0c91-102 180-205 276-317L2 460zm-1 7l282-324L1 467zm0-1l281-323L1 466zm2 5l285-328L3 471zm-1 1l286-330L2 472zm-1 6l291-335L1 478zm1 0l291-335L2 478zm-1 7c96-112 190-221 297-343L1 485zm1 0c112-131 225-260 297-343L2 485zm1 5c74-84 148-170 300-348L3 490zm-1 1l302-348L2 491zm0 5l307-352L2 496zm0 1l308-354L2 497zm0 5l312-359L2 502zm0 0c89-101 179-203 312-359L2 502zm0 6l318-366L2 508zm0 1l318-366L2 509zm0 6c73-82 145-165 322-372L2 515zm-1 0l324-372L1 515zm1 5l329-378L2 520zm0 1l328-378L2 521zm0 7c98-112 194-222 334-386L2 528zm0-1c78-88 155-177 334-384L2 527zm0 6c73-85 147-171 339-390L2 533zm0 0l339-390L2 533zm0 6l345-395L2 539zm0 0c122-138 244-278 344-396L2 539zm-1 6c92-105 183-212 350-402L1 545zm0 1c113-128 225-255 350-403L1 546zm0 5c124-139 246-281 355-407L1 551zm1 0l355-408L2 551zm0 6c136-154 271-310 360-414L2 557zm0 1l360-415L2 558zm-1 6l367-421L1 564zm0 0l367-421L1 564zm1 5c116-134 235-269 370-426L2 569zm0 1c83-93 164-187 371-427L2 570zm0 6l377-433L2 576zm0 0c107-125 216-250 377-433L2 576zm-1 6l382-438L1 582zm1 0l381-438L2 582zm-1 7l388-446L1 589zm1 0l387-446L2 589zm-1 6c124-145 249-286 393-452L1 595zm0-1l393-451L1 594zm1 6l398-457L2 600zm0 0c154-176 308-353 397-457L2 600zm0 7c113-132 225-262 402-463L2 607zm0 0c143-163 285-327 403-464L2 607zm0 5c86-96 169-194 406-466L2 612zm0 0l406-467L2 612zm-1 7c123-138 242-275 407-467L1 619zm1-1c113-132 227-263 406-467L2 618zm-1 8l407-469L1 626zm1-1c147-167 293-334 406-468L2 625zm0 5l406-467L2 630zm0 1l406-468L2 631zm3 2l403-464L5 633zm-1 1c127-144 253-288 404-465L4 634zm6 0c81-92 162-184 398-459L10 634zm0-1c149-174 301-347 398-457L10 633zm5 2c156-181 310-359 393-453L15 635zm0-1l393-452L15 634zm6 0l387-446L21 634zm0-1c99-111 197-224 387-446L21 633zm5 1l382-440L26 634zm0 0c138-157 275-315 382-440L26 634zm6-1l377-433L32 633zm-1 1l377-434L31 634zm5 0c76-89 151-176 372-428L36 634zm0 0l372-428L36 634zm6-1c147-167 292-335 366-420L42 633zm0 1c137-156 273-312 366-422L42 634zm5 0c138-163 280-325 361-415L47 634zm-1 0l363-416L46 634zm6 0c95-107 189-217 357-409L52 634zm0 0c75-84 149-168 356-410L52 634zm5-1c92-103 184-208 351-403L57 633zm0 1l352-404L57 634zm6 0l345-398L63 634zm-1 1l346-398L62 635zm6-1l341-391L68 634zm0 0c105-123 212-245 340-391L68 634zm5 0l336-385L73 634zm0 0c91-108 184-214 336-386L73 634zm6 0c91-106 182-211 330-379L79 634zm0 0l329-379L79 634zm4 1c119-139 239-277 325-373L83 635zm0-1l325-373L83 634zm7 0l318-367L90 634zm-1 0l319-367L89 634zm5 0l313-361L94 634zm0 0l314-361L94 634zm6 0c84-97 167-194 309-354L100 634zm0 0c115-134 232-268 309-355L100 634zm5 0c117-132 232-266 302-349L105 634zm0 0c101-114 201-229 303-349L105 634zm6-1c108-126 218-252 296-341L111 633zm-1 1c65-72 128-145 298-342L110 634zm6 1c65-77 133-154 292-337L116 635zm0-1c93-110 188-219 292-337L116 634zm5-1c108-122 214-245 286-328L121 633zm0 0l287-329-287 329zm5 0l282-324-282 324zm0 1l283-324-283 324zm6-1c105-119 209-238 275-318L132 633zm0 1l276-318-276 318zm4-1c82-91 163-185 271-311L136 633zm0 0l272-310-272 310zm7 0c101-119 203-235 265-305L143 633zm-1 0l266-305-266 305zm6 2c58-70 115-137 260-302L148 635zm0-1l260-299-260 299zm5 0c81-97 164-192 256-295L153 634zm0-1l256-293-256 293zm6 2c71-85 143-168 249-288L159 635zm-1-2l250-287-250 287zm4 2c57-66 115-133 247-281L162 635zm0 0l246-282-246 282zm7-2c83-94 166-189 238-274L169 633zm0 1l239-276-239 276zm6-1c61-73 128-149 233-268L175 633zm-1 1l234-270-234 270zm6-1l229-263-229 263zm-1 1l229-264-229 264zm6 1c76-87 151-172 223-258L185 635zm-1-1c81-91 160-182 224-257L184 634zm5-1c48-52 93-106 218-250L189 633zm1 1c61-71 121-142 218-250L190 634zm4-1l215-244-215 244zm1 1c56-67 113-133 213-245L195 634zm6-1l207-237-207 237zm0 1c64-71 125-143 207-238L201 634zm5 1l201-235-201 235zm0-1c41-50 83-97 202-233L206 634zm5 0c45-54 89-103 197-227L211 634zm1 0c62-71 124-142 196-227L212 634zm5-1c72-79 144-161 191-220L217 633zm-1 1l192-221-192 221zm5-2c70-73 137-154 187-212L221 632zm1 2l185-214-185 214zm6 0c46-55 97-111 180-207L228 634zm-1 0c58-69 117-137 181-208L227 634zm6 0l177-202-177 202zm0 0c49-57 97-113 176-202L233 634zm6 0c57-69 118-140 170-196L239 634zm-1 0c56-66 114-133 170-196L238 634zm5-1c48-54 97-109 165-190L243 633zm1 0c53-65 109-129 163-188L244 633zm5 2l158-186-158 186zm-1-1c40-48 79-94 160-184L248 634zm6 1l154-179-154 179zm-1-2l155-176-155 176zm6 3c29-38 62-72 148-176L259 636zm-1-2c37-40 72-80 151-173L258 634zm6 1c37-45 74-89 145-165L264 635zm0-2l144-164-144 164zm4 0c46-50 93-101 141-157L268 633zm1 1l139-159-139 159zm7-2c52-58 105-120 131-153L276 632zm-1 1l132-153-132 153zm4 0c41-44 81-89 130-148L279 633zm1 2c49-58 98-114 129-148L280 635zm6-2c40-44 79-90 122-142L286 633zm-1 2c45-51 89-101 123-143L285 635zm4-3c30-31 59-68 121-131L289 632zm2 2l117-135-117 135zm6-1c36-43 72-84 111-127L297 633zm-1 1l113-129-113 129zm4-1c36-39 72-79 107-120L300 633zm2 1l106-123-106 123zm4-1l102-115-102 115zm1 2c38-47 78-92 101-118L307 635zm6-3l95-110-95 110zm-1 2l96-112-96 112zm5-1c25-27 49-57 91-105l-91 105zm0 1c24-30 50-59 90-105l-90 105zm4 1l86-98-86 98zm1 0c28-35 59-71 85-99l-85 99zm4-2c29-31 60-64 82-92l-82 92zm1 1c26-28 49-55 81-93l-81 93zm8 0c14-21 32-37 73-88l-73 88zm-3 1l75-87-75 87zm5 1c17-21 35-39 72-84l-72 84zm1-1l71-82-71 82zm7-1c19-23 37-41 61-72l-61 72zm-2-1c17-17 33-37 65-73l-65 73zm7 1c19-22 39-45 57-69l-57 69zm-1-1l59-67-59 67zm5 1c23-25 41-47 52-64l-52 64zm0 0l54-63-54 63zm5 0c12-16 26-29 50-55l-50 55zm0 0l50-56-50 56zm5 1l43-51-43 51zm1-2c18-19 35-38 43-50l-43 50zm3 1c14-17 28-32 41-45l-41 45zm2 0c14-15 27-29 38-44l-38 44zm6-2c10-7 16-19 31-36l-31 36zm0 2c9-11 15-20 32-38l-32 38zm3-2c8-3 12-14 29-30l-29 30zm2 3c5-8 12-15 27-32l-27 32zm6 0c6-10 15-20 22-26l-22 26zm-1-2c9-8 17-18 21-25l-21 25zm4 2l18-20-18 20zm1-1c3-5 8-9 17-19l-17 19zm7 0c0-4 4-8 10-13l-10 13zm-3 1l14-14-14 14zm7-2c2-2 5-3 6-6l-6 6z" stroke-width=".5"/>
        <path class="lcard-border" d="M1 632l1-489m-1-1c131 2 263 3 406 2L1 142zm1 1h403H2zm404 0c-2 127-2 252 0 489V143zm0 0c1 154 1 309-1 489l1-489zm0 488H1h405zm0 1L2 631l404 1zM2 631V143v488z"/>
      </g>
      <g class="lcard-btn">
        <path class="Vector" d="M233 599l8-8M29 561c3-4 4-7 9-11l-9 11zm0 0l9-11-9 11zm0 5c4-3 6-8 15-17l-15 17zm0 0l15-17-15 17zm0 7c6-7 8-12 20-24l-20 24zm0 0c6-9 14-16 20-24l-20 24zm0 5c8-9 14-18 26-29l-26 29zm0 0c7-6 12-15 26-29l-26 29zm1 6l30-35-30 35zm0 0c10-13 20-26 30-35l-30 35zm-1 6l36-41-36 41zm0 0c9-11 19-20 36-41l-36 41zm2 4c12-14 26-27 39-45l-39 45zm0 0l39-45-39 45zm2 4c17-18 33-34 42-48l-42 48zm0 0l42-48-42 48zm4 2c9-11 20-25 44-51l-44 51zm0 0l44-51-44 51zm4 2c11-15 23-28 45-52l-45 52zm0 0l45-52-45 52zm5-1c18-22 36-43 46-52l-46 52zm0 0c12-13 21-26 46-52l-46 52zm5 1l46-53-46 53zm0 0c16-18 30-37 46-53l-46 53zm5 0l46-53-46 53zm0 0l46-53-46 53zm6 0c14-17 25-31 45-53l-45 53zm0 0l45-53-45 53zm5 0c11-14 22-27 46-53l-46 53zm0 0l46-53-46 53zm6 0c18-22 38-43 45-53l-45 53zm0 0c9-13 21-24 45-53l-45 53zm5 0c12-15 24-32 46-53l-46 53zm0 0l46-53-46 53zm5-1c11-13 23-25 45-52l-45 52zm0 0l45-52-45 52zm5 1l46-53-46 53zm0 0l46-53-46 53zm6-1c12-10 21-22 45-52l-45 52zm0 0l45-52-45 52zm5 1l46-53-46 53zm0 0l46-53-46 53zm5-1c14-12 26-26 46-52l-46 52zm0 0l46-52-46 52zm5 1c14-14 28-31 46-52l-46 52zm0 0c14-16 25-30 46-52l-46 52zm6-1c11-11 21-21 45-52l-45 52zm0 0l45-52-45 52zm5 1l45-52-45 52zm0 0c9-12 20-23 45-52l-45 52zm6-1c10-9 17-22 45-52l-45 52zm0 0c9-12 20-22 45-52l-45 52zm5 1c17-22 34-38 45-52l-45 52zm0 0c12-16 25-31 45-52l-45 52zm5 0l46-53-46 53zm0 0l46-53-46 53zm5 0c15-15 29-32 46-52l-46 52zm0 0c17-19 34-41 46-52l-46 52zm5 0c19-19 38-41 46-53l-46 53zm0 0l46-53-46 53zm6 0c12-17 25-30 45-52l-45 52zm0 0l45-52-45 52zm5 0c12-18 28-34 46-53l-46 53zm0 0c18-21 37-41 46-53l-46 53zm6 0c18-17 31-38 45-52l-45 52zm0 0l45-52-45 52zm5 0c12-13 26-26 46-53l-46 53zm0 0l46-53-46 53zm5 0l46-53-46 53zm0 0l46-53-46 53zm5 0c13-13 25-29 46-53l-46 53zm0 0c16-19 32-35 46-53l-46 53zm6 0c14-18 29-33 46-54l-46 54zm0 0c18-21 37-41 46-54l-46 54zm5 0l45-52-45 52zm0 0l45-52-45 52zm6-1c13-16 26-32 43-49l-43 49zm0 0l43-49-43 49zm5 1c10-15 24-31 40-46l-40 46zm0 0c12-16 25-29 40-46l-40 46zm5-1c11-12 23-24 35-40l-35 40zm0 0c12-12 22-26 35-40l-35 40zm5 1l30-34-30 34zm0 0l30-34-30 34zm6-1c8-8 18-18 24-28l-24 28zm0 0c9-11 19-20 24-28l-24 28zm5 1c3-6 10-10 19-23l-19 23zm0 0l19-23-19 23zm6-1c5-4 8-6 13-15l-13 15zm0 0l13-15-13 15zm6-2l8-8-8 8z" stroke="#000" stroke-width=".5" stroke-linecap="round"/>
        <path class="Vector_2" d="M29 561c1-8 2-12 13-14m0 0h185H42zm0 0c42 2 83 1 185 0H42zm185 0c9 2 14 6 13 14l-13-14zm0 0c7-1 11 6 13 14l-13-14zm13 14v26-26zm0 0v26-26zm0 26c2 7-3 13-13 13l13-13zm0 0c-2 10-5 14-13 13l13-13zm-13 13c-68-3-133 0-185 0h185zm0 0H42h185zm-185 0c-11-1-13-6-13-13l13 13zm0 0c-8 2-13-5-13-13l13 13zm-13-13v-26 26zm0 0v-26 26zm0-26c-1-8 2-14 13-14l-13 14z" stroke="#495057" stroke-linecap="round"/>
        <path class="Vector_3" d="M199 587c2-2 12-9 12-13 1-4-8-9-10-11m-1 23c3-2 13-9 13-13 0-3-11-9-13-10v23z" stroke="#000" stroke-linecap="round"/>
        <text class="Read more" fill="#000" xml:space="preserve" style="white-space:pre" font-family="Roboto" font-size="18.9" letter-spacing="0em">
          <tspan x="72.4" y="579">Read more</tspan>
        </text>
      </g>
      <text class="ellipsis" fill="#000" xml:space="preserve" style="white-space:pre" font-family="Roboto" font-size="91.2" letter-spacing="0em">
        <tspan x="37.2" y="84.7">...</tspan>
      </text>
    </g>
    <g class="rcard">
      <g class="rcard-pic">
        <path class="rcard-pic-net" d="M1011 366l6-7M658 174l6-6-6 6zm0 0l5-5-5 5zm0 6c1-2 6-4 12-11l-12 11zm0 0l11-11-11 11zm-1 8l15-20-15 20zm2-1l15-19-15 19zm-2 6c5-5 9-13 21-23l-21 23zm1-2c5-3 10-9 20-23l-20 23zm0 6c7-5 13-10 28-28l-28 28zm0 2l26-30-26 30zm1 6c4-6 12-17 30-38l-30 38zm-1 0l33-37-33 37zm-1 4c15-11 23-24 39-40l-39 40zm2 3c11-16 24-31 36-44l-36 44zm-1 4c12-12 22-23 43-49l-43 49zm-1 0c14-15 28-29 43-48l-43 48zm3 6c11-11 24-28 45-54l-45 54zm-1 1c13-16 25-31 46-54l-46 54zm0 6l53-60-53 60zm-1 1c14-18 28-33 53-62l-53 62zm-1 6c15-15 25-28 58-66l-58 66zm1-1l59-67-59 67zm1 5c26-26 49-53 62-72l-62 72zm-2 1c23-24 45-50 65-73l-65 73zm1 5c23-25 47-51 69-78l-69 78zm1 2c17-23 37-46 68-79l-68 79zm0 7c21-26 40-50 73-85l-73 85zm-1-1c23-28 45-53 75-86l-75 86zm0 5l80-91-80 91zm0 1l80-92-80 92zm-1 6c20-27 42-49 88-99l-88 99zm2-1c18-21 35-42 85-97l-85 97zm-3 8c35-43 70-80 94-103l-94 103zm2-2l90-104-90 104zm-1 5c23-22 44-50 98-110l-98 110zm0 2c28-30 55-61 96-111l-96 111zm2 6l99-115-99 115zm0 1c24-31 50-63 100-117L659 285zm-2 4c37-44 79-89 107-121L657 289zm2 0l106-121-106 121zm-1 8c32-33 62-68 110-131L658 297zm0-1c45-50 87-98 112-129L658 296zm2 6c40-50 85-96 115-133L660 302zm-2-1c41-46 83-92 116-132L658 301zm1 6c32-34 65-70 121-139L659 307zm-1 1l122-140-122 140zm0 7l129-147-129 147zm0-1l126-146-126 146zm-1 8l135-155-135 155zm1-2l132-152-132 152zm0 5c49-54 99-113 139-158L658 325zm0 1l138-157-138 157zm-1 7c44-53 91-104 145-165L657 333zm2 0l142-166-142 166zm-1 7c43-50 87-104 150-172L658 340zm0-1c40-49 84-97 148-171L658 339zm-1 5c34-36 67-74 156-177L657 344zm2 0c39-46 79-92 153-175L659 344zm-2 8c63-72 122-145 160-183L657 352zm0-1c56-62 110-125 160-183L657 351zm0 7c34-39 70-77 165-191L657 358zm1-1l164-189-164 189zm0 6l170-195-170 195zm1-1l169-194-169 194zm3 3c41-50 85-99 171-197L662 365zm-2 1c44-50 89-99 173-198L660 366zm5-1c56-63 111-127 174-196L665 365zm1 1c53-60 105-119 172-198L666 366zm5 1l173-200-173 200zm0 0c35-42 71-82 173-200L671 367zm5-1l174-197-174 197zm1 0c69-79 136-159 172-197L677 366zm5 0c53-59 103-120 172-198L682 366zm0 1l173-200-173 200zm6-1c53-64 108-128 170-198L688 366zm0 1l171-198-171 198zm4-2c56-64 116-130 174-198L692 365zm1 2l172-199-172 199zm5-2c67-77 132-151 171-198L698 365zm1 1l172-198-172 198zm3-1c52-57 104-114 172-197L702 365zm1 1c37-45 75-88 172-198L703 366zm5 0l174-198-174 198zm1 0l172-199-172 199zm4 0c45-52 92-107 174-198L713 366zm1 1c49-60 99-116 172-199L714 367zm7-3l171-195-171 195zm-2 2l173-198-173 198zm6-1c50-55 97-113 170-195L725 365zm0 1l171-198-171 198zm5 1l173-199-173 199zm1-1c58-69 119-139 171-198L731 366zm5-1l172-198-172 198zm0 1l171-198-171 198zm6-2c43-49 87-102 172-197L742 364zm-1 2c39-47 78-92 172-198L741 366zm4 2c40-47 82-93 172-201L745 368zm0-1l172-199-172 199zm5-1l172-198-172 198zm1 0l172-197-172 197zm4 0c62-70 121-138 172-199L755 366zm1 0c40-46 82-92 173-198L756 366zm6 0l172-199-172 199zm0 0l173-198-173 198zm4 0c62-67 122-136 172-199L766 366zm1 0l173-198-173 198zm6 0c57-67 117-133 171-198L773 366zm-1 0c46-49 89-101 172-199L772 366zm5 0c69-74 133-152 174-197L777 366zm0 0c40-44 79-89 172-198L777 366zm6-1c42-47 85-94 171-198L783 365zm0 1l172-199-172 199zm4 0c68-78 135-156 173-197L787 366zm0 0l173-198-173 198zm7 0c56-66 117-133 170-199L794 366zm-1 0c41-45 80-91 173-199L793 366zm5-2c53-59 108-122 172-197L798 364zm1 2l172-198-172 198zm4 0c64-75 132-152 174-197L803 366zm1 0c39-44 77-87 173-199L804 366zm4 0l172-196-172 196zm2-1l171-197-171 197zm3 2c56-67 112-130 175-200L813 367zm1 0c51-56 101-114 173-199L814 367zm6 0c36-43 75-88 173-197L820 367zm1-1c62-73 125-145 171-197L821 366zm4-1c48-56 96-113 173-198L825 365zm1 1l172-198-172 198zm5-1l172-197-172 197zm0 1l172-197-172 197zm6-1c62-73 125-144 171-196L837 365zm-2 1l172-198-172 198zm7-1c50-61 105-120 172-196L842 365zm-1 1l173-199-173 199zm7 0c46-51 90-107 168-197L848 366zm-2 1l171-196-171 196zm6-1c46-50 92-103 165-191L852 366zm0 1c62-75 126-147 164-191L852 367zm4-2c41-42 78-89 161-183L856 365zm2 1c60-72 122-142 159-184L858 366zm5-2c43-45 83-91 152-175L863 364zm-1 3l155-179-155 179zm7 0c50-61 104-123 148-174L869 367zm-2 0l150-173-150 173zm6 0l144-168-144 168zm0-2c32-36 64-71 144-165L873 365zm4 0c33-34 63-66 139-157L877 365zm2 1c34-44 72-84 138-159L879 366zm6 1c37-44 75-92 133-155L885 367zm-1-1c40-44 79-91 133-154L884 366zm6 1c30-38 63-76 127-150L890 367zm-2-1c39-43 79-87 129-147L888 366zm8 0l122-141-122 141zm-2 1l123-144-123 144zm6 0l116-134-116 134zm-1-1c34-40 67-81 118-136L899 366zm6-1c34-34 62-73 113-129L905 365zm-1 2c41-47 81-91 112-131L904 367zm7 0c39-49 84-99 108-123L911 367zm-1 0l106-124-106 124zm7 0c28-40 61-74 100-119L917 367zm-3-2c38-44 77-87 103-115L914 365zm6 0c23-24 47-50 95-108l-95 108zm0 2l98-112-98 112zm4-1c22-24 43-46 93-105l-93 105zm3 0l91-104-91 104zm4 2c24-32 49-60 86-100l-86 100zm0-3l86-97-86 97zm4 0l82-90-82 90zm2 1c29-35 60-68 80-93l-80 93zm5 1c23-27 46-55 76-86l-76 86zm1-1c26-32 52-63 74-86l-74 86zm5 0l69-79-69 79zm0 1c19-24 39-47 69-81l-69 81zm5-3c24-28 48-55 65-72l-65 72zm-1 1c20-23 42-47 64-74l-64 74zm4 3l61-70-61 70zm1-2l60-68-60 68zm8-2c18-19 38-42 52-62l-52 62zm-1 2l54-62-54 62zm3 0c15-14 26-32 50-54l-50 54zm1 1c18-22 34-42 50-56l-50 56zm5-1l46-52-46 52zm1-1c10-11 23-24 44-49l-44 49zm7 2c6-11 15-19 35-46l-35 46zm-2-1l38-43-38 43zm4 1l35-39-35 39zm2-1c10-13 20-25 32-37l-32 37zm5-1l28-32-28 32zm1 0l26-31-26 31zm3 1l21-25-21 25zm0 0c4-6 10-11 23-24l-23 24zm8 1c2-6 11-13 17-23l-17 23zm-1 0l16-22-16 22zm5-1c2-5 9-9 10-15l-10 15zm-1 0c3-4 7-9 13-13l-13 13zm6 0l6-7-6 7z" stroke="#FE7F80" stroke-width=".5" stroke-linecap="round"/>
        <path class="rcard-pic-box" d="M658 365V167m1 2c103-1 205-2 355-1l-355 1zm0-2l356 1-356-1zm358 3c-4 74-4 149-3 195l3-195zm-2-2c2 41 1 82-1 196l1-196zm0 195c-128-1-254-1-357 1l357-1zm-1 1c-102-2-205-1-356 0h356zm-356-2c-2-78 0-155 0-196v196z" stroke="#000" stroke-linecap="round"/>
        <g class="apisix">
          <path fill-rule="evenodd" clip-rule="evenodd" d="M815 247l-37 79 45 3 14-48 17 47 41-2-54-131-24 52" fill="#FA5252"/>
          <path fill-rule="evenodd" clip-rule="evenodd" d="M816 244c-14 33-32 65-39 85l39-85zm1 2l-41 81 41-81zm-40 81h44-44zm1 0c14 0 26 2 44 1l-44-1zm46-1c0-11 7-19 17-41l-17 41zm-2 3c5-16 11-30 18-46l-18 46zm16-45c8 14 12 26 17 43l-17-43zm0-2l18 46-18-46zm17 45c16 0 28 2 41 1l-41-1zm0 1h39-39zm39 0l-52-135 52 135zm0 1l-52-134 52 134zm-52-137c-8 22-18 39-26 52l26-52zm0 2c-9 15-15 31-26 52l26-52z" fill="#FA5252"/>
          <path d="M778 326h-1l-1 1h2v-1zm45 3v1h1l-1-1zm14-48h1l-1-3-1 3h1zm17 47h-1v1h1v-1zm41-2v1h1v-2l-1 1zm-54-131l1-1-1-2-1 2 1 1zm-25 49h1-2 1zm-39 85h-1 2-1zm40-83h1l-2-1 1 1zm-41 81h-1l2 1-1-1zm1 0v-1 2-1zm44 0v1-2 1zm-43 0v-1 2-1zm44 1v1-2 1zm2-2h-1 2-1zm17-41h1l-2-1 1 1zm-19 44l-1-1 2 1h-1zm18-46l1 1-2-1h1zm-2 1v-1l-1 1h1zm17 43h-1 2-1zm-17-45l1-1-1 1zm18 46l-1 1 2-1h-1zm-1-1v-1 2-1zm41 1v1-2 1zm-41 0v-1 2-1zm39 0l1 1-1-2v1zm0 0h-1l2-1-1 1zm-52-135l1-1-2 1h1zm52 136h-1l2-1-1 1zm-52-134h1-2 1zm0-3l1 1-2-1h1zm-26 52h-1l2 1-1-1zm26-50l1 1-1-1zm-26 52l-1-1 2 1h-1zm-2 1l-37 79 2 1 37-79-2-1zm-36 80l45 3v-2l-45-3v2zm46 3l14-49h-2l-14 48 2 1zm12-48l17 46h1l-16-47-2 1zm18 47l41-2v-2l-42 2 1 2zm42-4l-54-131-2 1 54 131 2-1zm-56-131l-24 53 1 1 25-53-2-1zm-25 50l-22 47-17 38h2l17-37 22-48h-2zm-37 85l39-85h-2l-39 84 2 1zm38-84l-41 82 2 1 41-82-2-1zm-39 83l41-82-2-1-41 82 2 1zm0 0h44v-2h-44v2zm44-2h-44v2h44v-2zm-43 2l21 1h23v-2h-23l-21-1v2zm44-1l-44-1v2l44 1v-2zm3-1c0-5 2-10 5-16l12-25-2-1-12 25c-3 6-5 11-5 17h2zm15-42l-17 42h2l17-41-2-1zm-17 45l17-45-1-1-18 45 2 1zm16-46l-18 45 2 1 18-45-2-1zm-2 1c8 14 12 26 17 43h2c-5-17-9-30-18-44l-1 1zm18 43l-16-44-2 1 17 43h1zm-17-45l7 20 10 27 2-1-10-27-8-19h-1zm19 46l-18-47-1 1 17 47 2-1zm-2 0l21 1h20l-1-2h-18l-22-1v2zm41-1l-41-1v2l41 1v-2zm-41 2h40l-1-2h-39v2zm39-2h-39v2h39v-2zm1 0l-52-135-2 1 52 135 2-1zm-54-134l52 135 2-1-52-135-2 1zm54 135c-14-33-26-64-52-133h-2c26 70 38 101 52 134l2-1zm-54-133l52 134 2-1-52-133h-2zm0-3c-8 21-17 38-26 52l2 1c8-14 18-31 26-52l-2-1zm-24 53l26-52-2-1-26 52 2 1zm25-51l-13 23-14 28 2 1 14-28 12-23-1-1zm-25 52l26-51-1-1-27 51 2 1z" fill="#000"/>
        </g>
      </g>
      <g class="rcard-content">
        <g class="rcard-content-text4">
          <path d="M661 485l6-5-6 5zm0 1l6-7-6 7zm1 6l11-14-11 14zm0-1l10-12-10 12zm0 3l15-14-15 14zm1 2l14-17-14 17zm3-1c5-3 10-12 19-17l-19 17zm2 2c2-5 5-8 15-18l-15 18zm7 0c3-4 3-9 15-18l-15 18zm-2-2l14-15-14 15zm6-1c3-4 8-7 14-15l-14 15zm0 3l15-19-15 19zm3 0c6-4 9-9 15-16l-15 16zm1-1l15-17-15 17zm7 0l14-19-14 19zm0 0c1-4 5-7 15-17l-15 17zm6-1c2-4 6-10 14-15l-14 15zm-2 0c5-5 12-10 15-15l-15 15zm7 3c4-5 6-13 15-19l-15 19zm-1-2l15-18-15 18zm5 0c4-4 9-12 16-17l-16 17zm1-1l13-16-13 16zm5 2l14-20-14 20zm0-1l14-17-14 17zm6-2l14-13-14 13zm-2 2c7-6 12-13 15-17l-15 17zm4 1c7-6 14-14 17-20l-17 20zm1-1l16-17-16 17zm5 1c6-7 11-11 15-18l-15 18zm2-2l14-16-14 16zm4 2c6-6 7-10 15-17l-15 17zm-1-1c6-3 9-7 17-18l-17 18zm6 1c8-6 11-13 16-19l-16 19zm1-1l15-18-15 18zm4-1c6-4 7-6 15-18l-15 18zm2 1c3-7 9-12 15-17l-15 17zm3 2c5-7 10-11 17-18l-17 18zm1-2c7-7 13-13 16-18l-16 18zm7-1l14-15-14 15zm-2 2l15-18-15 18zm6 1c3-9 11-15 15-18l-15 18zm-1-1l16-17-16 17zm8 0l14-19-14 19zm-1-1l13-16-13 16zm6 1c1-4 4-10 15-17l-15 17zm-1-1l14-17-14 17zm4 2c8-8 11-14 17-19l-17 19zm1-3c4-4 9-8 13-16l-13 16zm4 2c8-8 14-12 15-18l-15 18zm0-1c5-4 11-10 16-17l-16 17zm6 0c5-5 8-9 17-16l-17 16zm1-1l14-16-14 16zm4 1c7-6 10-13 17-16l-17 16zm0 0c6-7 12-12 15-17l-15 17zm6-2c7-5 10-9 13-15l-13 15zm1 1c3-5 7-9 14-16l-14 16zm6 2c4-7 6-11 14-17l-14 17zm-2-1c5-3 9-8 16-18l-16 18zm4 0c7-4 12-13 15-19l-15 19zm1-1c5-4 7-9 15-16l-15 16zm8 1c3-7 9-10 12-17l-12 17zm-3 1l16-18-16 18zm7-3l14-13-14 13zm0 1l14-15-14 15zm6 1l13-18-13 18zm-1 1l15-19-15 19zm4-1c6-4 9-10 16-17l-16 17zm1 0l15-17-15 17zm5-1l15-18-15 18zm-1 1c8-7 14-14 16-18l-16 18zm8-1l15-15-15 15zm-2 0c6-4 10-10 16-16l-16 16zm6 1l14-18-14 18zm0-1l14-16-14 16zm4 0c4-4 9-10 16-15l-16 15zm1 2l15-18-15 18zm7 0c3-6 6-8 14-17l-14 17zm-2 0l16-18-16 18zm6 1c2-8 6-10 13-18l-13 18zm0-2l14-18-14 18zm5 2c1-5 5-8 16-21l-16 21zm-1-1l16-19-16 19zm5-1c7-5 12-11 17-17l-17 17zm2 1l14-19-14 19zm5-2c4-4 8-9 16-15l-16 15zm0 1l14-16-14 16zm3 0c6-2 7-7 16-19l-16 19zm1 1l15-17-15 17zm4 0c4-3 8-10 18-16l-18 16zm3-1l14-17-14 17zm6-1c5-5 11-10 12-14l-12 14zm-1 1c4-5 9-12 15-17l-15 17zm5 1c4-6 5-10 13-16l-13 16zm-1-1l16-16-16 16zm5-1c6-4 6-5 16-15l-16 15zm1 1l15-18-15 18zm7-1c4-7 8-12 13-16l-13 16zm-1 2c4-7 11-13 14-18l-14 18zm4-1c2-3 8-6 9-11l-9 11zm0 1l10-12-10 12zm6-1l3-4-3 4zm0 0l3-4-3 4z" fill="#FE7F80"/>
          <path d="M661 478c101 0 203-1 258 2l-258-2zm0 0l258 2-258-2zm257 0c0 8 0 15 3 17l-3-17zm1 1v16-16zm2 16l-261-1 261 1zm-2 1c-91-3-182-2-258-1l258 1zm-257-1l-2-17 2 17zm0 0v-16 16z" fill="#FE7F80"/>
          <path d="M917 496l3-4m-258 3v-16m-1 6l6-5-6 5zm0 1l6-7-6 7zm1 6l11-14-11 14zm0-1l10-12-10 12zm0 3l15-14-15 14zm1 2l14-17-14 17zm3-1c5-3 10-12 19-17l-19 17zm2 2c2-5 5-8 15-18l-15 18zm7 0c3-4 3-9 15-18l-15 18zm-2-2l14-15-14 15zm6-1c3-4 8-7 14-15l-14 15zm0 3l15-19-15 19zm3 0c6-4 9-9 15-16l-15 16zm1-1l15-17-15 17zm7 0l14-19-14 19zm0 0c1-4 5-7 15-17l-15 17zm6-1c2-4 6-10 14-15l-14 15zm-2 0c5-5 12-10 15-15l-15 15zm7 3c4-5 6-13 15-19l-15 19zm-1-2l15-18-15 18zm5 0c4-4 9-12 16-17l-16 17zm1-1l13-16-13 16zm5 2l14-20-14 20zm0-1l14-17-14 17zm6-2l14-13-14 13zm-2 2c7-6 12-13 15-17l-15 17zm4 1c7-6 14-14 17-20l-17 20zm1-1l16-17-16 17zm5 1c6-7 11-11 15-18l-15 18zm2-2l14-16-14 16zm4 2c6-6 7-10 15-17l-15 17zm-1-1c6-3 9-7 17-18l-17 18zm6 1c8-6 11-13 16-19l-16 19zm1-1l15-18-15 18zm4-1c6-4 7-6 15-18l-15 18zm2 1c3-7 9-12 15-17l-15 17zm3 2c5-7 10-11 17-18l-17 18zm1-2c7-7 13-13 16-18l-16 18zm7-1l14-15-14 15zm-2 2l15-18-15 18zm6 1c3-9 11-15 15-18l-15 18zm-1-1l16-17-16 17zm8 0l14-19-14 19zm-1-1l13-16-13 16zm6 1c1-4 4-10 15-17l-15 17zm-1-1l14-17-14 17zm4 2c8-8 11-14 17-19l-17 19zm1-3c4-4 9-8 13-16l-13 16zm4 2c8-8 14-12 15-18l-15 18zm0-1c5-4 11-10 16-17l-16 17zm6 0c5-5 8-9 17-16l-17 16zm1-1l14-16-14 16zm4 1c7-6 10-13 17-16l-17 16zm0 0c6-7 12-12 15-17l-15 17zm6-2c7-5 10-9 13-15l-13 15zm1 1c3-5 7-9 14-16l-14 16zm6 2c4-7 6-11 14-17l-14 17zm-2-1c5-3 9-8 16-18l-16 18zm4 0c7-4 12-13 15-19l-15 19zm1-1c5-4 7-9 15-16l-15 16zm8 1c3-7 9-10 12-17l-12 17zm-3 1l16-18-16 18zm7-3l14-13-14 13zm0 1l14-15-14 15zm6 1l13-18-13 18zm-1 1l15-19-15 19zm4-1c6-4 9-10 16-17l-16 17zm1 0l15-17-15 17zm5-1l15-18-15 18zm-1 1c8-7 14-14 16-18l-16 18zm8-1l15-15-15 15zm-2 0c6-4 10-10 16-16l-16 16zm6 1l14-18-14 18zm0-1l14-16-14 16zm4 0c4-4 9-10 16-15l-16 15zm1 2l15-18-15 18zm7 0c3-6 6-8 14-17l-14 17zm-2 0l16-18-16 18zm6 1c2-8 6-10 13-18l-13 18zm0-2l14-18-14 18zm5 2c1-5 5-8 16-21l-16 21zm-1-1l16-19-16 19zm5-1c7-5 12-11 17-17l-17 17zm2 1l14-19-14 19zm5-2c4-4 8-9 16-15l-16 15zm0 1l14-16-14 16zm3 0c6-2 7-7 16-19l-16 19zm1 1l15-17-15 17zm4 0c4-3 8-10 18-16l-18 16zm3-1l14-17-14 17zm6-1c5-5 11-10 12-14l-12 14zm-1 1c4-5 9-12 15-17l-15 17zm5 1c4-6 5-10 13-16l-13 16zm-1-1l16-16-16 16zm5-1c6-4 6-5 16-15l-16 15zm1 1l15-18-15 18zm7-1c4-7 8-12 13-16l-13 16zm-1 2c4-7 11-13 14-18l-14 18zm4-1c2-3 8-6 9-11l-9 11zm0 1l10-12-10 12zm6-1l3-4-3 4zm-256-18c101 0 203-1 258 2l-258-2zm0 0l258 2-258-2zm257 0c0 8 0 15 3 17l-3-17zm1 1v16-16zm2 16l-261-1 261 1zm-2 1c-91-3-182-2-258-1l258 1zm-257-1l-2-17 2 17z" stroke="#495057" stroke-linecap="round"/>
        </g>
        <g class="rcard-content-text3">
          <path d="M661 462l4-6-4 6zm-1 1l5-7-5 7zm1 5l10-11-10 11zm0 1l10-13-10 13zm1 1c3-2 7-5 15-14l-15 14zm2 1c2-5 6-10 12-15l-12 15zm3 2c4-8 12-13 13-18l-13 18zm0-2l14-15-14 15zm9 0c0-5 7-9 11-13l-11 13zm-2 0l13-16-13 16zm4-1c5-3 10-10 15-13l-15 13zm2 1l11-14-11 14zm5 1l14-18-14 18zm-1-1l12-14-12 14zm6-1c3-1 6-8 11-14l-11 14zm-1 0c3-2 7-5 14-14l-14 14zm5 1c5-7 12-11 15-14l-15 14zm0 1c5-4 8-8 14-16l-14 16zm7 0c3-8 10-12 13-17l-13 17zm-1-1l14-15-14 15zm4 1c5-7 11-10 14-14l-14 14zm2-1l12-14-12 14zm4 0c6-5 9-12 14-15l-14 15zm1 0l12-16-12 16zm4 0c4-2 9-6 16-17l-16 17zm1 1l14-16-14 16zm5 1c5-6 9-13 15-16l-15 16zm1-2l13-16-13 16zm5-1c5-4 7-9 14-13l-14 13zm0 1l12-16-12 16zm7-1c-1-2 3-4 10-14l-10 14zm-1 1l13-16-13 16zm6 2c-1-5 5-10 10-18l-10 18zm-2-3l12-14-12 14zm7-1c3-4 8-11 13-12l-13 12zm-2 1l14-14-14 14zm5 2l16-17-16 17zm1-1c5-5 11-12 12-16l-12 16zm4 0c7-6 10-8 13-16l-13 16zm2 0c3-6 7-10 13-15l-13 15zm3-2c8-6 12-8 14-12l-14 12zm2 1c3-2 5-5 12-15l-12 15zm5 1c4-6 8-10 11-17l-11 17zm0 0l12-14-12 14zm5 0c3-6 10-9 12-13l-12 13zm0 0l13-16-13 16zm7-1l11-14-11 14zm-2 0c4-2 5-6 14-14l-14 14zm8 0c2-1 3-6 11-16l-11 16zm-3 1c5-4 8-8 13-16l-13 16zm8-2c5-6 9-8 9-14l-9 14zm-1 2l12-16-12 16zm6 0c0-5 5-6 13-17l-13 17zm-2-1l14-14-14 14zm7 0c3-3 7-11 12-15l-12 15zm-2 1l13-14-13 14zm7-2c3-3 9-8 11-13l-11 13zm-1 3l13-15-13 15zm5 1c6-9 10-16 12-17l-12 17zm0-2c3-6 9-10 13-16l-13 16zm5-1c4-2 7-7 12-13l-12 13zm0 2l14-17-14 17zm6-1c6-6 9-10 11-17l-11 17zm0 0c3-3 8-8 12-15l-12 15zm5 1c2-5 6-9 12-18l-12 18zm0-2l13-15-13 15zm6 2c3-6 8-11 13-14l-13 14zm-2-1l15-15-15 15zm8-1c2-5 9-13 14-15l-14 15zm-1 0l13-15-13 15zm6 3l12-15-12 15zm-1-1l13-15-13 15zm4-1c5-6 11-12 15-14l-15 14zm2-1l13-15-13 15zm3 1l16-14-16 14zm1 1l13-17-13 17zm8-3l13-12-13 12zm-2 3l13-15-13 15zm4-3l15-12-15 12zm2 2l11-16-11 16zm3 0c4-4 11-11 13-17l-13 17zm1 0l14-15-14 15zm7 0c5-6 9-10 14-13l-14 13zm-1-1l13-15-13 15zm6 1c4-5 10-9 14-15l-14 15zm-1-1l13-15-13 15zm6 3c3-7 9-15 14-17l-14 17zm0-2l12-14-12 14zm4 1c6-8 12-12 12-15l-12 15zm1-2l13-14-13 14zm6 1c5-4 7-9 13-15l-13 15zm-1 1c3-6 9-11 12-16l-12 16zm7-3c2-5 6-7 11-14l-11 14zm-1 2c3-5 9-9 11-15l-11 15zm6-2l14-12-14 12zm-1 2c2-4 5-7 14-16l-14 16zm5-2c2-3 8-8 14-11l-14 11zm-1 1c5-3 8-8 14-14l-14 14zm4 0c7-1 9-8 17-12l-17 12zm2 2l14-16-14 16zm4-2c4-3 9-8 15-16l-15 16zm2 1l12-16-12 16zm5-1c3-6 9-9 12-15l-12 15zm1 1c4-7 8-12 12-15l-12 15zm3-1c6-2 9-9 13-15l-13 15zm2 1l12-15-12 15zm4-1c4-5 8-9 14-12l-14 12zm0 0c6-5 9-11 13-13l-13 13zm7 2c2-8 7-13 12-17l-12 17zm-2-1l13-15-13 15zm5-1c5-1 7-5 15-14l-15 14zm0 0c6-3 8-9 14-15l-14 15zm5 2c7-4 8-11 14-17l-14 17zm1-1c4-5 9-8 13-16l-13 16zm4-1l13-13-13 13zm2 0c4-3 7-9 12-15l-12 15zm4-1c7-2 7-6 14-14l-14 14zm1 1c6-4 10-11 13-15l-13 15zm6 2c2-8 9-12 12-16l-12 16zm0-2l12-14-12 14zm3 3c5-6 8-8 13-18l-13 18zm1-2l14-16-14 16zm7-2c2-4 5-7 14-13l-14 13zm-1 2l14-16-14 16zm6 2c5-8 9-12 13-16l-13 16zm-1-1l12-16-12 16zm7-2c4-3 4-6 11-13l-11 13zm-1 1l12-15-12 15zm5 0c3-4 6-8 12-13l-12 13zm1 1l11-16-11 16zm4 0l12-16-12 16zm0-2c3-2 6-5 13-15l-13 15zm6 2c2-3 5-8 12-14l-12 14zm0-2l12-13-12 13zm4 0l8-6-8 6zm1 1l6-8-6 8z" fill="#FE7F80"/>
          <path d="M660 456c123 0 247 2 352 0H660zm0-1c99 3 197 4 354 0H660zm353 2c-1 4 2 6 0 11v-11zm0-1l1 12-1-12zm1 12H661h353zm0 0c-76 2-153 2-354 0h354zm-354-1c0-1-1-5 1-11l-1 11zm0 1v-13 13z" fill="#FE7F80"/>
          <path d="M1008 471l6-8m-354 5v-13m1 7l4-6-4 6zm-1 1l5-7-5 7zm1 5l10-11-10 11zm0 1l10-13-10 13zm1 1c3-2 7-5 15-14l-15 14zm2 1c2-5 6-10 12-15l-12 15zm3 2c4-8 12-13 13-18l-13 18zm0-2l14-15-14 15zm9 0c0-5 7-9 11-13l-11 13zm-2 0l13-16-13 16zm4-1c5-3 10-10 15-13l-15 13zm2 1l11-14-11 14zm5 1l14-18-14 18zm-1-1l12-14-12 14zm6-1c3-1 6-8 11-14l-11 14zm-1 0c3-2 7-5 14-14l-14 14zm5 1c5-7 12-11 15-14l-15 14zm0 1c5-4 8-8 14-16l-14 16zm7 0c3-8 10-12 13-17l-13 17zm-1-1l14-15-14 15zm4 1c5-7 11-10 14-14l-14 14zm2-1l12-14-12 14zm4 0c6-5 9-12 14-15l-14 15zm1 0l12-16-12 16zm4 0c4-2 9-6 16-17l-16 17zm1 1l14-16-14 16zm5 1c5-6 9-13 15-16l-15 16zm1-2l13-16-13 16zm5-1c5-4 7-9 14-13l-14 13zm0 1l12-16-12 16zm7-1c-1-2 3-4 10-14l-10 14zm-1 1l13-16-13 16zm6 2c-1-5 5-10 10-18l-10 18zm-2-3l12-14-12 14zm7-1c3-4 8-11 13-12l-13 12zm-2 1l14-14-14 14zm5 2l16-17-16 17zm1-1c5-5 11-12 12-16l-12 16zm4 0c7-6 10-8 13-16l-13 16zm2 0c3-6 7-10 13-15l-13 15zm3-2c8-6 12-8 14-12l-14 12zm2 1c3-2 5-5 12-15l-12 15zm5 1c4-6 8-10 11-17l-11 17zm0 0l12-14-12 14zm5 0c3-6 10-9 12-13l-12 13zm0 0l13-16-13 16zm7-1l11-14-11 14zm-2 0c4-2 5-6 14-14l-14 14zm8 0c2-1 3-6 11-16l-11 16zm-3 1c5-4 8-8 13-16l-13 16zm8-2c5-6 9-8 9-14l-9 14zm-1 2l12-16-12 16zm6 0c0-5 5-6 13-17l-13 17zm-2-1l14-14-14 14zm7 0c3-3 7-11 12-15l-12 15zm-2 1l13-14-13 14zm7-2c3-3 9-8 11-13l-11 13zm-1 3l13-15-13 15zm5 1c6-9 10-16 12-17l-12 17zm0-2c3-6 9-10 13-16l-13 16zm5-1c4-2 7-7 12-13l-12 13zm0 2l14-17-14 17zm6-1c6-6 9-10 11-17l-11 17zm0 0c3-3 8-8 12-15l-12 15zm5 1c2-5 6-9 12-18l-12 18zm0-2l13-15-13 15zm6 2c3-6 8-11 13-14l-13 14zm-2-1l15-15-15 15zm8-1c2-5 9-13 14-15l-14 15zm-1 0l13-15-13 15zm6 3l12-15-12 15zm-1-1l13-15-13 15zm4-1c5-6 11-12 15-14l-15 14zm2-1l13-15-13 15zm3 1l16-14-16 14zm1 1l13-17-13 17zm8-3l13-12-13 12zm-2 3l13-15-13 15zm4-3l15-12-15 12zm2 2l11-16-11 16zm3 0c4-4 11-11 13-17l-13 17zm1 0l14-15-14 15zm7 0c5-6 9-10 14-13l-14 13zm-1-1l13-15-13 15zm6 1c4-5 10-9 14-15l-14 15zm-1-1l13-15-13 15zm6 3c3-7 9-15 14-17l-14 17zm0-2l12-14-12 14zm4 1c6-8 12-12 12-15l-12 15zm1-2l13-14-13 14zm6 1c5-4 7-9 13-15l-13 15zm-1 1c3-6 9-11 12-16l-12 16zm7-3c2-5 6-7 11-14l-11 14zm-1 2c3-5 9-9 11-15l-11 15zm6-2l14-12-14 12zm-1 2c2-4 5-7 14-16l-14 16zm5-2c2-3 8-8 14-11l-14 11zm-1 1c5-3 8-8 14-14l-14 14zm4 0c7-1 9-8 17-12l-17 12zm2 2l14-16-14 16zm4-2c4-3 9-8 15-16l-15 16zm2 1l12-16-12 16zm5-1c3-6 9-9 12-15l-12 15zm1 1c4-7 8-12 12-15l-12 15zm3-1c6-2 9-9 13-15l-13 15zm2 1l12-15-12 15zm4-1c4-5 8-9 14-12l-14 12zm0 0c6-5 9-11 13-13l-13 13zm7 2c2-8 7-13 12-17l-12 17zm-2-1l13-15-13 15zm5-1c5-1 7-5 15-14l-15 14zm0 0c6-3 8-9 14-15l-14 15zm5 2c7-4 8-11 14-17l-14 17zm1-1c4-5 9-8 13-16l-13 16zm4-1l13-13-13 13zm2 0c4-3 7-9 12-15l-12 15zm4-1c7-2 7-6 14-14l-14 14zm1 1c6-4 10-11 13-15l-13 15zm6 2c2-8 9-12 12-16l-12 16zm0-2l12-14-12 14zm3 3c5-6 8-8 13-18l-13 18zm1-2l14-16-14 16zm7-2c2-4 5-7 14-13l-14 13zm-1 2l14-16-14 16zm6 2c5-8 9-12 13-16l-13 16zm-1-1l12-16-12 16zm7-2c4-3 4-6 11-13l-11 13zm-1 1l12-15-12 15zm5 0c3-4 6-8 12-13l-12 13zm1 1l11-16-11 16zm4 0l12-16-12 16zm0-2c3-2 6-5 13-15l-13 15zm6 2c2-3 5-8 12-14l-12 14zm0-2l12-13-12 13zm4 0l8-6-8 6zm-347-14c123 0 247 2 352 0H660zm0-1c99 3 197 4 354 0H660zm353 2c-1 4 2 6 0 11v-11zm0-1l1 12-1-12zm1 12H661h353zm0 0c-76 2-153 2-354 0h354zm-354-1c0-1-1-5 1-11l-1 11z" stroke="#495057" stroke-linecap="round"/>
        </g>
        <g class="rcard-content-text2">
          <path d="M659 438l6-6-6 6zm1 0l5-6-5 6zm2 6l8-11-8 11zm-2 0c3-3 6-5 11-13l-11 13zm2 1l14-13-14 13zm1 2c5-5 9-12 13-15l-13 15zm6-2c0-3 7-7 11-11l-11 11zm0 2c4-5 6-9 13-15l-13 15zm5 1c5-4 8-12 12-14l-12 14zm-1-2l14-15-14 15zm7 1c2-6 7-11 13-15l-13 15zm0 0l12-15-12 15zm5-2c3-1 6-4 11-14l-11 14zm-1 1c5-4 9-10 12-15l-12 15zm4 1c6-5 9-10 16-15l-16 15zm1 1c3-5 6-8 14-16l-14 16zm8 1c1-8 7-13 9-16l-9 16zm-3-3l15-14-15 14zm7 2l11-15-11 15zm-2-1l14-15-14 15zm6-1l12-12-12 12zm0 1c3-4 8-8 13-16l-13 16zm7 0l12-16-12 16zm-1 0l12-16-12 16zm4 1c3-6 9-10 16-16l-16 16zm1-2c5-5 11-11 13-15l-13 15zm6-1l13-13-13 13zm-1 1c3-2 7-6 13-15l-13 15zm6 0c5-3 6-6 13-15l-13 15zm0 2c3-5 6-10 14-16l-14 16zm3-1c6-3 8-10 16-16l-16 16zm1-1c6-4 11-10 15-14l-15 14zm4 0c6-1 9-7 16-13l-16 13zm2 1l13-15-13 15zm7-2c0-1 3-6 12-15l-12 15zm-1 2c2-4 5-7 13-15l-13 15zm5-2c5-4 9-9 15-12l-15 12zm1 2l12-15-12 15zm4 1c2-6 6-7 12-16l-12 16zm1-2c5-4 10-11 12-16l-12 16zm6 1l10-15-10 15zm-3 0c7-5 10-10 14-15l-14 15zm6 1c7-6 10-11 12-15l-12 15zm1-1l12-16-12 16zm5 2c5-8 10-15 12-15l-12 15zm-1-1l14-17-14 17zm8-2c4-2 5-7 10-13l-10 13zm-2 0l14-15-14 15zm4 0c5-1 7-5 16-15l-16 15zm1 0c4-4 9-7 14-14l-14 14zm8 0l9-13-9 13zm-1 1l12-15-12 15zm3-1c4-1 7-7 13-14l-13 14zm1 0l14-15-14 15zm7 1c0-3 5-9 13-16l-13 16zm-3 1c4-6 8-10 15-16l-15 16zm8 0c3-4 4-9 12-16l-12 16zm-2-1l15-15-15 15zm8-2c1-2 6-5 10-14l-10 14zm-2 2l12-15-12 15zm5 1l15-17-15 17zm1-2l13-15-13 15zm6 2c1-5 6-8 11-16l-11 16zm-1-1c4-6 9-12 14-15l-14 15zm4 1l14-17-14 17zm1-1l13-15-13 15zm6-1l12-14-12 14zm-1 1l13-14-13 14zm8 0c1-4 4-11 11-16l-11 16zm-3-1c4-2 5-5 13-14l-13 14zm7 3c1-4 6-7 12-16l-12 16zm0-3l12-14-12 14zm6 0c2-5 6-9 11-15l-11 15zm-2 1l14-16-14 16zm4-2l15-13-15 13zm1 2l14-15-14 15zm8 1c2-4 4-8 12-16l-12 16zm-1-2l13-14-13 14zm4 1c6-6 6-9 14-17l-14 17zm0 0l13-16-13 16zm6-1c4-5 6-7 15-14l-15 14zm-1 0l14-15-14 15zm7 0l11-13-11 13zm-2 2c5-6 8-11 15-17l-15 17zm7-1c1-4 5-8 13-14l-13 14zm-1-1l13-16-13 16zm7-1c3-3 11-11 12-14l-12 14zm-1 2l13-16-13 16zm7-2l10-12-10 12zm-2 2l12-15-12 15zm6 1c1-5 7-9 14-17l-14 17zm-1-1l13-15-13 15zm6-1c5-3 7-10 11-15l-11 15zm0-1l12-12-12 12zm6 1c3-4 7-12 13-15l-13 15zm-2 0c5-4 10-11 13-15l-13 15zm6 2c2-5 5-10 13-15l-13 15zm0-2l13-14-13 14zm4 0c4-5 7-5 16-15l-16 15zm1 0c4-4 8-7 13-14l-13 14zm5 0c4-4 5-7 13-14l-13 14zm0 2c4-4 6-9 13-16l-13 16zm7 0c3-7 7-14 11-17l-11 17zm0-2c4-4 8-9 11-15l-11 15zm5 0c3-4 3-6 14-15l-14 15zm-1 1c5-4 8-9 12-14l-12 14zm6 1l11-18-11 18zm0-2l12-15-12 15zm6 1l10-16-10 16zm-2-1l13-14-13 14zm5 2l16-18-16 18zm1-2l14-15-14 15zm5-1c4-2 7-3 14-14l-14 14zm0 3l13-16-13 16zm7 0c5-9 8-14 12-18l-12 18zm-1-2l13-15-13 15zm5 3c1-6 4-7 13-19l-13 19zm1-3l13-15-13 15zm5 1c1-3 7-9 11-14l-11 14zm-1 0c3-4 7-9 14-15l-14 15zm4-2c6-3 9-5 14-13l-14 13zm1 1l14-14-14 14zm5-1c5-1 5-5 13-15l-13 15zm1 2c3-4 6-9 14-16l-14 16zm6 0c3-4 9-9 12-15l-12 15zm-2 0l15-16-15 16zm6-2c3-2 8-6 14-16l-14 16zm0 2l13-16-13 16zm5-1l14-15-14 15zm1 1c4-4 8-8 13-16l-13 16zm4-2c8-4 12-10 13-12l-13 12zm1 1l13-14-13 14zm4 2l15-16-15 16zm1 0c4-4 6-10 13-16l-13 16zm7-2c0-3 3-5 6-8l-6 8zm-1 1l6-9-6 9z" fill="#FE7F80"/>
          <path d="M661 431c134-1 270-1 352 1l-352-1zm-1 0h354-354zm354 0c-1 5 0 9 1 14l-1-14zm0 0l-1 13 1-13zm-1 14c-116-2-232-2-352-2l352 2zm0-1H660h353zm-354 0c1-3 0-8 2-13l-2 13zm1 1v-13 13z" fill="#FE7F80"/>
          <path d="M1008 447l6-9m-354 7v-13m-1 6l6-6-6 6zm1 0l5-6-5 6zm2 6l8-11-8 11zm-2 0c3-3 6-5 11-13l-11 13zm2 1l14-13-14 13zm1 2c5-5 9-12 13-15l-13 15zm6-2c0-3 7-7 11-11l-11 11zm0 2c4-5 6-9 13-15l-13 15zm5 1c5-4 8-12 12-14l-12 14zm-1-2l14-15-14 15zm7 1c2-6 7-11 13-15l-13 15zm0 0l12-15-12 15zm5-2c3-1 6-4 11-14l-11 14zm-1 1c5-4 9-10 12-15l-12 15zm4 1c6-5 9-10 16-15l-16 15zm1 1c3-5 6-8 14-16l-14 16zm8 1c1-8 7-13 9-16l-9 16zm-3-3l15-14-15 14zm7 2l11-15-11 15zm-2-1l14-15-14 15zm6-1l12-12-12 12zm0 1c3-4 8-8 13-16l-13 16zm7 0l12-16-12 16zm-1 0l12-16-12 16zm4 1c3-6 9-10 16-16l-16 16zm1-2c5-5 11-11 13-15l-13 15zm6-1l13-13-13 13zm-1 1c3-2 7-6 13-15l-13 15zm6 0c5-3 6-6 13-15l-13 15zm0 2c3-5 6-10 14-16l-14 16zm3-1c6-3 8-10 16-16l-16 16zm1-1c6-4 11-10 15-14l-15 14zm4 0c6-1 9-7 16-13l-16 13zm2 1l13-15-13 15zm7-2c0-1 3-6 12-15l-12 15zm-1 2c2-4 5-7 13-15l-13 15zm5-2c5-4 9-9 15-12l-15 12zm1 2l12-15-12 15zm4 1c2-6 6-7 12-16l-12 16zm1-2c5-4 10-11 12-16l-12 16zm6 1l10-15-10 15zm-3 0c7-5 10-10 14-15l-14 15zm6 1c7-6 10-11 12-15l-12 15zm1-1l12-16-12 16zm5 2c5-8 10-15 12-15l-12 15zm-1-1l14-17-14 17zm8-2c4-2 5-7 10-13l-10 13zm-2 0l14-15-14 15zm4 0c5-1 7-5 16-15l-16 15zm1 0c4-4 9-7 14-14l-14 14zm8 0l9-13-9 13zm-1 1l12-15-12 15zm3-1c4-1 7-7 13-14l-13 14zm1 0l14-15-14 15zm7 1c0-3 5-9 13-16l-13 16zm-3 1c4-6 8-10 15-16l-15 16zm8 0c3-4 4-9 12-16l-12 16zm-2-1l15-15-15 15zm8-2c1-2 6-5 10-14l-10 14zm-2 2l12-15-12 15zm5 1l15-17-15 17zm1-2l13-15-13 15zm6 2c1-5 6-8 11-16l-11 16zm-1-1c4-6 9-12 14-15l-14 15zm4 1l14-17-14 17zm1-1l13-15-13 15zm6-1l12-14-12 14zm-1 1l13-14-13 14zm8 0c1-4 4-11 11-16l-11 16zm-3-1c4-2 5-5 13-14l-13 14zm7 3c1-4 6-7 12-16l-12 16zm0-3l12-14-12 14zm6 0c2-5 6-9 11-15l-11 15zm-2 1l14-16-14 16zm4-2l15-13-15 13zm1 2l14-15-14 15zm8 1c2-4 4-8 12-16l-12 16zm-1-2l13-14-13 14zm4 1c6-6 6-9 14-17l-14 17zm0 0l13-16-13 16zm6-1c4-5 6-7 15-14l-15 14zm-1 0l14-15-14 15zm7 0l11-13-11 13zm-2 2c5-6 8-11 15-17l-15 17zm7-1c1-4 5-8 13-14l-13 14zm-1-1l13-16-13 16zm7-1c3-3 11-11 12-14l-12 14zm-1 2l13-16-13 16zm7-2l10-12-10 12zm-2 2l12-15-12 15zm6 1c1-5 7-9 14-17l-14 17zm-1-1l13-15-13 15zm6-1c5-3 7-10 11-15l-11 15zm0-1l12-12-12 12zm6 1c3-4 7-12 13-15l-13 15zm-2 0c5-4 10-11 13-15l-13 15zm6 2c2-5 5-10 13-15l-13 15zm0-2l13-14-13 14zm4 0c4-5 7-5 16-15l-16 15zm1 0c4-4 8-7 13-14l-13 14zm5 0c4-4 5-7 13-14l-13 14zm0 2c4-4 6-9 13-16l-13 16zm7 0c3-7 7-14 11-17l-11 17zm0-2c4-4 8-9 11-15l-11 15zm5 0c3-4 3-6 14-15l-14 15zm-1 1c5-4 8-9 12-14l-12 14zm6 1l11-18-11 18zm0-2l12-15-12 15zm6 1l10-16-10 16zm-2-1l13-14-13 14zm5 2l16-18-16 18zm1-2l14-15-14 15zm5-1c4-2 7-3 14-14l-14 14zm0 3l13-16-13 16zm7 0c5-9 8-14 12-18l-12 18zm-1-2l13-15-13 15zm5 3c1-6 4-7 13-19l-13 19zm1-3l13-15-13 15zm5 1c1-3 7-9 11-14l-11 14zm-1 0c3-4 7-9 14-15l-14 15zm4-2c6-3 9-5 14-13l-14 13zm1 1l14-14-14 14zm5-1c5-1 5-5 13-15l-13 15zm1 2c3-4 6-9 14-16l-14 16zm6 0c3-4 9-9 12-15l-12 15zm-2 0l15-16-15 16zm6-2c3-2 8-6 14-16l-14 16zm0 2l13-16-13 16zm5-1l14-15-14 15zm1 1c4-4 8-8 13-16l-13 16zm4-2c8-4 12-10 13-12l-13 12zm1 1l13-14-13 14zm4 2l15-16-15 16zm1 0c4-4 6-10 13-16l-13 16zm7-2c0-3 3-5 6-8l-6 8zm-348-15c134-1 270-1 352 1l-352-1zm-1 0h354-354zm354 0c-1 5 0 9 1 14l-1-14zm0 0l-1 13 1-13zm-1 14c-116-2-232-2-352-2l352 2zm0-1H660h353zm-354 0c1-3 0-8 2-13l-2 13z" stroke="#495057" stroke-linecap="round"/>
        </g>
        <g class="rcard-content-text1">
          <path d="M661 390l5-5-5 5zm-1 1l5-6-5 6zm-1 7l13-14-13 14zm2-2l11-12-11 12zm1 5c2-5 6-9 13-16l-13 16zm-2 2c6-5 10-11 15-18l-15 18zm0 6c4-8 10-11 20-26l-20 26zm0 0c10-9 17-20 21-24l-21 24zm2 5c9-8 17-18 23-29l-23 29zm0-1l24-28-24 28zm3 2c9-10 14-17 27-29l-27 29zm2-1l25-30-25 30zm7 1c6-11 18-22 24-31l-24 31zm-3-1l26-30-26 30zm7-2c6-5 12-13 25-27l-25 27zm-1 1c10-8 16-18 26-29l-26 29zm7 3l23-33-23 33zm-1-2c7-11 17-20 26-28l-26 28zm5 1c9-8 15-16 25-32l-25 32zm0-2l25-29-25 29zm6 1l25-31-25 31zm0 0l25-30-25 30zm6 0c5-5 8-12 25-30l-25 30zm-1 0l26-31-26 31zm4 0l26-28-26 28zm0 0l26-29-26 29zm6 0l26-29-26 29zm1-1c7-9 16-17 25-30l-25 30zm3 1l28-29-28 29zm2 1c6-9 12-16 24-29l-24 29zm4-3c10-8 21-20 25-27l-25 27zm1 1c6-8 15-16 26-28l-26 28zm3-1c10-7 21-17 26-27l-26 27zm1 1c10-9 18-20 26-29l-26 29zm6 2c9-13 20-23 26-31l-26 31zm1-1c7-8 12-16 25-30l-25 30zm5 0l24-28-24 28zm-1 1l27-30-27 30zm5-2c13-11 19-21 28-30l-28 30zm1 1c8-9 18-19 25-30l-25 30zm6 1c5-6 9-15 26-33l-26 33zm0-2l25-29-25 29zm3 1c12-9 20-21 28-30l-28 30zm0 0c12-10 20-21 26-29l-26 29zm8 0c7-7 11-14 23-31l-23 31zm0-1l25-28-25 28zm2 2c7-6 16-16 28-31l-28 31zm2-2c9-10 18-21 26-27l-26 27zm5 0l27-27-27 27zm0 0l27-29-27 29zm5 3l28-33-28 33zm0-1c11-12 21-22 26-30l-26 30zm4-3c8-6 17-14 27-29l-27 29zm1 2c9-11 18-22 27-29l-27 29zm6 2c7-12 16-20 25-30l-25 30zm-1-3c8-7 12-14 26-28l-26 28zm8 2c9-10 17-22 23-30l-23 30zm-1-2l26-28-26 28zm6 3c7-14 19-23 25-32l-25 32zm-2-2c7-8 15-15 25-30l-25 30zm5-1c11-9 17-19 27-27l-27 27zm2 1l25-30-25 30zm2 2l29-32-29 32zm1-2l26-28-26 28zm7-2c9-8 15-16 25-29l-25 29zm-1 2c9-8 16-18 27-30l-27 30zm4 0c11-11 22-22 28-30l-28 30zm3-1l25-28-25 28zm5 2c9-13 20-25 23-31l-23 31zm-1-2l27-29-27 29zm4 2c12-11 19-18 29-31l-29 31zm2 0c9-13 19-22 25-31l-25 31zm7 0l23-31-23 31zm-1-2l25-28-25 28zm4 0l22-26-22 26zm1 1l23-27-23 27zm4 1l20-21-20 21zm2-1l17-20-17 20zm6-1c3-3 7-13 11-14l-11 14zm-1 0l12-14-12 14zm4 1l7-8-7 8zm0-1l8-8-8 8z" fill="#FE7F80"/>
          <path d="M661 385c65-3 131-2 195-2l-195 2zm-1-1c58 1 117 2 198 0H660zm195 0v31-31zm2 1c0 10-1 22 1 27l-1-27zm-1 27l-196 3 196-3zm1 0c-47 3-94 2-196 1l196-1zm-198-1c2-7 2-16 1-26l-1 26zm1 2l1-29-1 29z" fill="#FE7F80"/>
          <path d="M852 413l8-8m-200 8l1-29m0 6l5-5-5 5zm-1 1l5-6-5 6zm-1 7l13-14-13 14zm2-2l11-12-11 12zm1 5c2-5 6-9 13-16l-13 16zm-2 2c6-5 10-11 15-18l-15 18zm0 6c4-8 10-11 20-26l-20 26zm0 0c10-9 17-20 21-24l-21 24zm2 5c9-8 17-18 23-29l-23 29zm0-1l24-28-24 28zm3 2c9-10 14-17 27-29l-27 29zm2-1l25-30-25 30zm7 1c6-11 18-22 24-31l-24 31zm-3-1l26-30-26 30zm7-2c6-5 12-13 25-27l-25 27zm-1 1c10-8 16-18 26-29l-26 29zm7 3l23-33-23 33zm-1-2c7-11 17-20 26-28l-26 28zm5 1c9-8 15-16 25-32l-25 32zm0-2l25-29-25 29zm6 1l25-31-25 31zm0 0l25-30-25 30zm6 0c5-5 8-12 25-30l-25 30zm-1 0l26-31-26 31zm4 0l26-28-26 28zm0 0l26-29-26 29zm6 0l26-29-26 29zm1-1c7-9 16-17 25-30l-25 30zm3 1l28-29-28 29zm2 1c6-9 12-16 24-29l-24 29zm4-3c10-8 21-20 25-27l-25 27zm1 1c6-8 15-16 26-28l-26 28zm3-1c10-7 21-17 26-27l-26 27zm1 1c10-9 18-20 26-29l-26 29zm6 2c9-13 20-23 26-31l-26 31zm1-1c7-8 12-16 25-30l-25 30zm5 0l24-28-24 28zm-1 1l27-30-27 30zm5-2c13-11 19-21 28-30l-28 30zm1 1c8-9 18-19 25-30l-25 30zm6 1c5-6 9-15 26-33l-26 33zm0-2l25-29-25 29zm3 1c12-9 20-21 28-30l-28 30zm0 0c12-10 20-21 26-29l-26 29zm8 0c7-7 11-14 23-31l-23 31zm0-1l25-28-25 28zm2 2c7-6 16-16 28-31l-28 31zm2-2c9-10 18-21 26-27l-26 27zm5 0l27-27-27 27zm0 0l27-29-27 29zm5 3l28-33-28 33zm0-1c11-12 21-22 26-30l-26 30zm4-3c8-6 17-14 27-29l-27 29zm1 2c9-11 18-22 27-29l-27 29zm6 2c7-12 16-20 25-30l-25 30zm-1-3c8-7 12-14 26-28l-26 28zm8 2c9-10 17-22 23-30l-23 30zm-1-2l26-28-26 28zm6 3c7-14 19-23 25-32l-25 32zm-2-2c7-8 15-15 25-30l-25 30zm5-1c11-9 17-19 27-27l-27 27zm2 1l25-30-25 30zm2 2l29-32-29 32zm1-2l26-28-26 28zm7-2c9-8 15-16 25-29l-25 29zm-1 2c9-8 16-18 27-30l-27 30zm4 0c11-11 22-22 28-30l-28 30zm3-1l25-28-25 28zm5 2c9-13 20-25 23-31l-23 31zm-1-2l27-29-27 29zm4 2c12-11 19-18 29-31l-29 31zm2 0c9-13 19-22 25-31l-25 31zm7 0l23-31-23 31zm-1-2l25-28-25 28zm4 0l22-26-22 26zm1 1l23-27-23 27zm4 1l20-21-20 21zm2-1l17-20-17 20zm6-1c3-3 7-13 11-14l-11 14zm-1 0l12-14-12 14zm4 1l7-8-7 8zm-191-29c65-3 131-2 195-2l-195 2zm-1-1c58 1 117 2 198 0H660zm195 0v31-31zm2 1c0 10-1 22 1 27l-1-27zm-1 27l-196 3 196-3zm1 0c-47 3-94 2-196 1l196-1zm-198-1c2-7 2-16 1-26l-1 26z" stroke="#000" stroke-linecap="round"/>
        </g>
      </g>
      <g class="rcard-boundary" stroke-linecap="round">
        <path class="rcard-net" d="M1034 623l7-7M634 139l6-6-6 6zm1-1l5-5-5 5zm1 7l8-13-8 13zm-1-1l10-11-10 11zm-2 5l18-15-18 15zm2 2c4-7 9-12 14-18l-14 18zm-2 4c9-7 12-10 22-25l-22 25zm3 0l20-24-20 24zm0 10c8-15 16-21 25-32l-25 32zm-2-3l27-29-27 29zm-1 7c7-9 17-16 33-36l-33 36zm2 1l31-39-31 39zm1 6c14-17 27-36 37-42l-37 42zm-1-1c7-9 14-18 37-43l-37 43zm-1 6c15-17 32-34 41-50l-41 50zm0-1l44-48-44 48zm0 6c18-20 33-38 49-52l-49 52zm0 1c19-19 36-40 49-55l-49 55zm2 7c15-20 28-36 52-61l-52 61zm-2-1c17-18 31-34 53-61l-53 61zm1 6l58-67-58 67zm-1 1c23-26 45-54 59-68l-59 68zm2 4l61-72-61 72zm-2 1l64-74-64 74zm-1 6c21-22 42-43 72-77l-72 77zm1 1c16-16 29-33 70-79l-70 79zm1 5c24-25 46-51 73-83l-73 83zm0 1l74-86-74 86zm1 6c18-22 40-48 78-90l-78 90zm-2 0c26-32 53-61 80-92l-80 92zm1 8c19-26 40-47 86-102l-86 102zm-1-1c29-31 57-64 85-98l-85 98zm2 6c20-24 38-43 88-106l-88 106zm-1-1l89-105-89 105zm-2 8c24-31 51-60 96-111l-96 111zm1-2l97-110-97 110zm2 5c33-38 67-74 100-113L636 247zm-2 1l101-116-101 116zm-1 5c25-25 47-53 109-123L633 253zm2 2l106-123-106 123zm1 4c37-44 77-92 111-127L636 259zm-1 2c38-43 76-86 112-129L635 261zm1 6l113-136-113 136zm-1-1l117-134-117 134zm0 6c43-52 85-99 122-140L635 272zm-1 0l122-140-122 140zm3 8c23-30 47-58 125-147L637 280zm-3-2c41-45 82-91 127-145L634 278zm1 8l132-154-132 154zm-1-2c30-31 59-64 133-153L634 284zm0 9c33-41 69-82 139-162L634 293zm0-1c34-40 67-79 138-159L634 292zm1 6l144-164-144 164zm0-2l143-163-143 163zm-2 8c46-55 95-109 150-171L633 304zm1-2c35-39 69-76 148-170L634 302zm2 8c50-65 105-125 153-178L636 310zm-2-1c54-59 105-117 154-177L634 309zm1 6c61-69 120-141 157-183L635 315zm-1 1c45-52 88-103 159-183L634 316zm1 5l164-190-164 190zm0 0l164-189-164 189zm-1 6c34-40 69-81 171-196L634 327zm0 0l171-195-171 195zm0 6c56-63 109-125 175-202L634 333zm1 1c39-47 79-92 174-202L635 334zm0 6l179-207-179 207zm0-1l180-206-180 206zm-1 7c59-71 120-140 185-212L634 346zm1 0c48-53 95-108 185-214L635 346zm-1 7c42-49 83-97 192-220L634 353zm0-1l191-220-191 220zm1 5c71-84 143-166 196-224L635 357zm-1 1l197-226-197 226zm0 5c57-62 111-124 203-230L634 363zm1 1l201-232-201 232zm0 7c47-59 98-116 207-238L635 371zm0-1l207-239-207 239zm1 5c81-95 166-192 211-242L636 375zm-1 2l211-245-211 245zm1 4c54-63 109-125 215-250L636 381zm-1 1c51-57 101-115 217-250L635 382zm-1 7l223-256-223 256zm1-1c86-100 174-199 222-256L635 388zm-1 7l230-262-230 262zm1-1c78-88 155-178 229-263L635 394zm0 7l232-268-232 268zm0 0c64-76 130-152 233-269L635 401zm1 5c87-101 174-202 238-274L636 406zm-1 1c77-92 156-182 238-274L635 407zm-2 7c60-70 121-140 247-281L633 414zm1-1c78-91 155-180 245-281L634 413zm1 6c75-90 153-179 250-286L635 419zm0 0l249-287-249 287zm-1 7c76-90 155-179 256-293L634 426zm0-1c91-102 178-203 255-292L634 425zm0 5c65-76 131-150 259-296L634 430zm1 0l259-297-259 297zm0 6c69-76 138-156 264-303L635 436zm0 1c106-120 210-241 264-305L635 437zm0 6l269-310-269 310zm0 1c57-69 115-135 270-312L635 444zm0 5c61-73 123-144 276-317L635 449zm0 1l275-318-275 318zm0 5c83-97 170-195 281-323L635 455zm0 1c68-80 137-160 281-324L635 456zm0 5c70-83 141-165 286-329L635 461zm0 0l286-329-286 329zm0 7c114-133 228-265 290-335L635 468zm0-1c65-74 130-148 291-335L635 467zm0 6l298-341-298 341zm-1 1l297-342-297 342zm1 5c75-83 150-170 301-347L635 479zm-1 1l303-348-303 348zm1 5c62-74 126-147 307-354L635 485zm0 1l307-354-307 354zm-1 5c77-89 156-180 314-359L634 491zm1 1l312-360-312 360zm-1 6l319-366-319 366zm0 0l319-366-319 366zm1 6c99-111 196-223 323-372L635 504zm-1 0c82-92 164-185 324-371L634 504zm1 6l328-377-328 377zm0 0c100-118 201-234 329-378L635 510zm0 7c77-90 155-180 334-384L635 517zm-1-1c120-136 238-272 334-384L634 516zm0 6c93-104 186-212 341-390L634 522zm1 0l339-390-339 390zm0 6l344-396-344 396zm0 1c132-153 264-306 345-397L635 529zm0 6c107-121 212-242 349-403L635 535zm-1 0l350-402-350 402zm1 6l355-409-355 409zm0 0l355-409-355 409zm-1 5c139-160 281-323 361-413L634 546zm1 1c142-166 284-331 360-414L635 547zm-1 7c114-134 231-267 367-421L634 554zm1-1l365-421-365 421zm-1 6l372-426-372 426zm1 0c84-95 167-190 370-427L635 559zm0 6c139-162 280-323 375-432L635 565zm0 1c138-159 277-318 376-434L635 566zm0 5c81-95 164-189 381-438L635 571zm0 0l381-438-381 438zm-1 7c79-95 161-188 387-446L634 578zm1 0c131-150 261-300 386-446L635 578zm0 6c115-131 228-261 392-452L635 584zm0 0l392-451-392 451zm-1 6c143-165 287-331 399-458L634 590zm1-1l397-457-397 457zm-1 7l403-464-403 464zm1 0c91-107 183-213 403-464L635 596zm0 6c116-135 232-269 406-467L635 602zm0-1c138-161 279-322 406-467L635 601zm0 6l405-466-405 466zm-1 1c120-137 241-275 407-468L634 608zm0 7c142-165 286-331 407-468L634 615zm1-1l406-467-406 467zm-1 7l407-468-407 468zm1-1c161-184 322-368 406-467L635 620zm2 3c107-122 214-244 404-465L637 623zm0 0c110-125 217-249 404-465L637 623zm5-1c125-142 247-285 398-457L642 622zm1 1c102-115 202-230 398-458L643 623zm5 0l393-452-393 452zm0 0c140-162 281-324 393-451L648 623zm5 0c103-116 205-233 388-447L653 623zm0 0l388-446-388 446zm6 0c138-155 273-312 382-440L659 623zm0 0l382-440-382 440zm5 0l378-434-378 434zm0 0c108-122 214-244 377-434L664 623zm5 0l372-427-372 427zm0 0l372-428-372 428zm5 0c128-146 255-291 366-422L674 623zm1-1l365-420-365 420zm5 1c104-119 208-238 360-416L680 623zm-1 0c118-137 237-274 362-416L679 623zm6 0c108-127 219-254 356-409L685 623zm-1 1c89-105 179-208 357-410L684 624zm6-1l351-403-351 403zm0 0c118-134 236-270 351-404L690 623zm5 1c85-100 171-198 346-399L695 624zm1 0c74-89 150-175 345-398L696 624zm6-1c91-107 184-215 339-391L702 623zm-1 0l339-391-339 391zm5 1l335-386-335 386zm0-1c114-129 227-259 335-385L706 623zm5 0l331-380-331 380zm1 0l329-379-329 379zm5 0c69-80 140-160 323-373L717 623zm-1 0c67-75 133-151 325-372L716 623zm6 1c72-87 145-172 319-367L722 624zm0-1c90-102 180-206 319-367L722 623zm6 0c71-84 144-168 313-361L728 623zm-1 1c64-72 127-144 314-361L727 624zm6 0l309-356-309 356zm0-1c73-85 147-171 308-354L733 623zm5 0l302-348-302 348zm0 1c90-102 177-203 303-349L738 624zm5-1c114-129 225-257 297-342L743 623zm0 0l297-342-297 342zm5 0c113-128 225-257 293-337L748 623zm0 1l293-338-293 338zm6-1c116-132 230-264 287-331L754 623zm0 0l287-330-287 330zm5 0l281-325-281 325zm0 0c86-97 171-193 282-324L759 623zm6-1c65-73 131-148 276-317L765 622zm0 1l276-318-276 318zm4 0c60-67 119-134 271-312L769 623zm0 0l272-311-272 311zm7 0c83-98 169-197 265-306L776 623zm-1-1c62-69 123-141 266-305L775 622zm4 1l262-300-262 300zm2 0c90-105 181-211 260-300L781 623zm5 0l256-294-256 294zm0 0c62-73 126-146 256-294L786 623zm6 1c58-69 117-137 249-288L792 624zm-1-1c67-80 136-160 250-287L791 623zm6 0c94-111 189-219 244-281L797 623zm-1 1l245-282-245 282zm6 0l238-276-238 276zm0 0c64-76 128-149 239-276L802 624zm6 1c54-67 108-130 232-271L808 625zm-1-2l233-269-233 269zm5-1c50-57 98-115 229-262L812 622zm0 1l229-263-229 263zm6 0c62-69 124-140 223-257L818 623zm0 0l223-257-223 257zm6 0c72-83 142-166 217-250L824 623zm-1 0c80-90 160-181 218-250L823 623zm4-1c73-79 142-158 213-243L827 622zm1 1l213-245-213 245zm6 1c55-65 110-127 208-239L834 624zm-1-1c58-64 115-130 208-238L833 623zm4 1c71-83 142-161 205-235L837 624zm1-1c66-74 131-150 203-233L838 623zm7-1l196-226-196 226zm-2 0c53-59 104-118 197-225L843 622zm6 3l192-223-192 223zm1-2l190-220-190 220zm4-1c69-76 139-155 186-214L854 622zm1 1l187-215-187 215zm6 1c49-56 95-113 180-210L861 624zm-2 0c56-61 110-124 182-209L859 624zm6-2c37-43 75-83 176-201L865 622zm1 0c49-56 99-111 175-202L866 622zm5 3c43-54 88-104 171-198L871 625zm0-1c60-71 120-141 169-196L871 624zm5-2l165-189-165 189zm0 1l164-190-164 190zm3-1c37-35 67-73 160-182L879 622zm2 1c46-53 91-106 160-183L881 623zm5-1c38-39 75-84 154-177L886 622zm0 2c38-43 75-85 155-179L886 624zm6 1c34-42 73-87 151-173L892 625zm0-1l149-173-149 173zm4 0c32-35 64-70 144-166L896 624zm1-2l145-164-145 164zm4 1c33-37 63-74 140-160L901 623zm0 1c41-46 80-89 139-160L901 624zm7-2l133-153-133 153zm-1 2l134-155-134 155zm5-2c46-50 94-103 130-148L912 622zm1 0c49-55 98-110 127-147L913 622zm5 3l123-145-123 145zm-1-1c38-45 75-89 124-142L917 624zm6 0c38-44 74-84 119-138L923 624zm1-1l117-136-117 136zm6 0c44-51 89-101 111-129L930 623zm-1 1c40-48 79-94 112-129L929 624zm7 0c30-38 65-78 106-125L936 624zm-1-1c26-34 55-66 106-122L935 623zm6 1c28-37 58-70 99-118l-99 118zm-2 0l101-118-101 118zm4-1c30-37 62-71 99-113l-99 113zm1 0l97-111-97 111zm4 2c32-33 58-67 92-107l-92 107zm2-2c23-27 45-54 91-105l-91 105zm4 0l88-99-88 99zm1 1c20-25 41-48 86-100l-86 100zm4-1c26-26 49-53 81-92l-81 92zm2 1c20-25 40-49 80-94l-80 94zm4-2c16-19 32-38 78-84l-78 84zm0 1l76-87-76 87zm5-2l72-79-72 79zm1 2l71-80-71 80zm4 1c28-29 53-59 65-75l-65 75zm2-2c14-18 31-35 63-74l-63 74zm4 3c23-26 43-55 59-70l-59 70zm1-2c19-20 38-44 58-67l-58 67zm4-1c16-15 31-33 56-63l-56 63zm1 1l55-62-55 62zm7 2c10-15 20-27 47-56l-47 56zm-2-2l48-56-48 56zm7 1c8-10 17-24 43-52l-43 52zm0-2l43-49-43 49zm6 1c9-11 17-22 37-42l-37 42zm-2 1c15-17 29-32 38-44l-38 44zm7-1c6-10 15-21 30-37l-30 37zm-2-1l32-36-32 36zm4 3c9-6 14-16 31-33l-31 33zm2-3l27-31-27 31zm4-1c8-6 17-16 23-22l-23 22zm1 2c10-9 18-19 21-25l-21 25zm5 1c8-9 14-17 19-21l-19 21zm1-1l16-19-16 19zm3 2l12-17-12 17zm1-2l12-13-12 13zm6 1c1-3 3-4 6-7l-6 7z" stroke="#FE7F80" stroke-width=".5"/>
        <path class="rcard-border" d="M635 621V132m-1 0c140 1 277 1 405-1l-405 1zm0 0c119 2 237 1 405 1l-405-1zm404 0v489-489zm0 0l1 489-1-489zm0 489c-101 2-202 1-404 1l404-1zm1 0H635h404zm-405 0c2-113 3-226 0-488v488z" stroke="#000"/>
      </g>
      <g class="rcard-btn">
        <path class="Vector_4" d="M870 598c2-2 3-5 7-8m-212-31l9-11-9 11zm0 0l9-11-9 11zm0 6c4-3 6-9 15-18l-15 18zm0 0l15-18-15 18zm0 6c6-6 8-11 20-23l-20 23zm0 0l20-23-20 23zm0 6c8-10 14-19 26-30l-26 30zm0 0c7-7 12-16 26-30l-26 30zm1 5l30-34-30 34zm0 0l30-34-30 34zm0 7l36-42-36 42zm0 0c8-11 18-21 36-42l-36 42zm1 4l40-45-40 45zm0 0c10-12 19-23 40-45l-40 45zm3 3c16-17 32-33 42-48l-42 48zm0 0c13-17 27-33 42-48l-42 48zm3 2l44-50-44 50zm0 0l44-50-44 50zm4 2c11-15 23-28 45-52l-45 52zm0 0l45-52-45 52zm6 0c18-23 35-43 45-52l-45 52zm0 0c11-13 21-27 45-52l-45 52zm5 0l45-52-45 52zm0 0c15-18 29-36 45-52l-45 52zm5 0l45-52-45 52zm0 0l45-52-45 52zm5 0l45-52-45 52zm0 0l45-52-45 52zm5 0l46-53-46 53zm0 0c17-18 33-38 46-53l-46 53zm6 0l45-52-45 52zm0 0c9-12 21-24 45-52l-45 52zm5 0c12-15 24-31 46-53l-46 53zm0 0l46-53-46 53zm5 0c11-14 23-26 46-52l-46 52zm0 0l46-52-46 52zm5 0l46-53-46 53zm0 0l46-53-46 53zm6 0c12-11 21-23 45-52l-45 52zm0 0l45-52-45 52zm5 0c20-20 33-39 46-53l-46 53zm0 0l46-53-46 53zm6 0c13-13 25-27 45-52l-45 52zm0 0l45-52-45 52zm5 0l45-52-45 52zm0 0c13-15 24-30 45-52l-45 52zm5 0c11-12 22-22 46-52l-46 52zm0 0l46-52-46 52zm5 0l46-52-46 52zm0 0c9-12 21-22 46-52l-46 52zm6 0c10-10 17-23 45-52l-45 52zm0 0l45-52-45 52zm5 0l45-52-45 52zm0 0l45-52-45 52zm5 0c16-17 33-39 46-52l-46 52zm0 0l46-52-46 52zm6 0c15-15 28-32 45-52l-45 52zm0 0c16-19 33-40 45-52l-45 52zm5 0c19-19 37-40 46-52l-46 52zm0 0l46-52-46 52zm5 0c12-17 25-30 46-52l-46 52zm0 0l46-52-46 52zm5 0c12-17 28-34 46-52l-46 52zm0 0c18-21 37-40 46-52l-46 52zm6 0c18-17 31-38 45-52l-45 52zm0 0c14-15 28-30 45-52l-45 52zm5 0c12-12 26-25 46-52l-46 52zm0 0l46-52-46 52zm6 0l45-52-45 52zm0 0l45-52-45 52zm4 0c13-12 25-29 46-53l-46 53zm0 0c16-18 32-35 46-53l-46 53zm6 0c14-18 29-32 47-54l-47 54zm0 0c18-21 37-40 47-54l-47 54zm5 0l45-52-45 52zm0 0c11-11 20-23 45-52l-45 52zm6 0c13-16 26-33 43-50l-43 50zm0 0l43-50-43 50zm5 0c10-15 24-30 40-46l-40 46zm0 0l40-46-40 46zm5 0c11-12 24-24 35-40l-35 40zm0 0c13-13 22-27 35-40l-35 40zm5 0l30-34-30 34zm0 0l30-34-30 34zm6 0c8-9 18-19 24-28l-24 28zm0 0l24-28-24 28zm5 0c3-5 11-10 20-22l-20 22zm0 0l20-22-20 22zm6-1c5-3 8-6 13-15l-13 15zm0 0l13-15-13 15zm7-1c3-3 4-7 7-8l-7 8z" stroke="#000" stroke-width=".5" stroke-linecap="round"/>
        <path class="Vector_5" d="M665 559c1-7 3-12 13-13m0 0h185-185zm0 0h185-185zm185 0c9 2 14 5 13 13l-13-13zm0 0c8-1 11 5 13 13l-13-13zm13 13v26-26zm0 0v26-26zm0 26c2 8-3 14-13 13l13-13zm0 0c-2 11-5 15-13 13l13-13zm-13 13c-67-3-133 1-185 0h185zm0 0H678h185zm-185 0c-10 0-13-5-13-13l13 13zm0 0c-7 3-12-5-13-13l13 13zm-13-13c1-5 2-12 0-26v26zm0 0v-26 26zm0-26c-1-8 2-14 13-13l-13 13z" stroke="#495057" stroke-linecap="round"/>
        <path class="Vector_6" d="M835 586c3-3 12-10 13-14 0-4-9-9-11-10m-1 22c3-2 13-8 13-12s-11-9-13-11v23z" stroke="#000" stroke-linecap="round"/>
        <text class="Read more_2" fill="#000" xml:space="preserve" style="white-space:pre" font-family="Roboto" font-size="18.9" letter-spacing="0em">
          <tspan x="708.7" y="577.4">Read more</tspan>
        </text>
      </g>
      <text class="APISIX" fill="#000" xml:space="preserve" style="white-space:pre" font-family="Maison Neue" font-size="91.2" letter-spacing="0em">
        <tspan x="639.9" y="82.5">APISIX</tspan>
      </text>
    </g>
    <g class="lightning">
      <path fill-rule="evenodd" clip-rule="evenodd" d="M543 193l-58 66 34-2-34 53 78-71-42 5 19-49" fill="#FAB005"/>
      <path fill-rule="evenodd" clip-rule="evenodd" d="M541 193c-22 24-43 51-55 69l55-69zm0 0l-57 68 57-68zm-57 66c11 2 20-2 34-3l-34 3zm0 2l35-3-35 3zm33-4c-9 21-22 37-32 56l32-56zm2 0c-9 17-21 35-33 55l33-55zm-33 53c30-25 56-51 78-72l-78 72zm0 2l76-73-76 73zm76-72c-14-1-24 1-41 4l41-4zm0-1l-42 5 42-5zm-41 3c4-16 13-29 19-49l-19 49zm-1 2l21-51-21 51z" fill="#FAB005"/>
      <path d="M485 259l-1-1-2 2h3v-1zm34-2l1 1 1-2h-2v1zm-34 53l-1-1 2 2-1-1zm78-71l1 1 2-2h-3v1zm-42 5h-1l-1 2 2-1v-1zm20-51h1l-2-1 1 1zm-55 69h-1l2 1-1-1zm55-69l1 1-1-2v1zm-57 68v-1l1 1h-1zm0-2v-1 1zm34-3v1-2 1zm-34 5v-1 2-1zm35-3v1-2 1zm-2-1h1l-1-1v1zm-32 56h-1l2 1-1-1zm34-56l1 1-1-1zm-33 55h-1l2 1-1-1zm0-2l-1-1 2 2-1-1zm78-72v1l-1-2 1 1zm-78 74v-1l1 1h-1zm76-73l1 1-2-2 1 1zm0 1v1-2 1zm-41 4v-1 2-1zm41-5v1l-1-2 1 1zm-42 5v-1 2-1zm1-2h-1l2 1-1-1zm19-49l1 1-2-1h1zm-20 51h-1 2-1zm21-51h1l-2-1 1 1zm1-1l-58 66 1 1 58-65-1-2zm-57 68l34-2v-2l-34 2v2zm33-3l-34 52 2 1 34-52-2-1zm-32 54l78-71-1-1-78 70 1 2zm77-73l-42 5v2l43-5-1-2zm-41 7l18-50h-1l-19 49 2 1zm18-53c-22 24-42 52-55 70l2 1c12-18 33-45 55-70l-2-1zm-53 71l55-70-2-1-54 70 1 1zm54-71l-57 68 1 1 57-67-1-2zm-56 69l57-67-1-2-57 68 1 1zm-1-2c5 2 11 2 16 1l18-3v-2l-18 3h-16v1zm34-4l-34 3v2l34-3v-2zm-34 7l18-2 17-1-1-2-16 1-18 2v2zm35-5l-35 3v2l35-3v-2zm-2-1l-16 29-17 28 2 1 16-28c6-9 12-18 16-29l-1-1zm-31 58l32-57-1-1-33 57 2 1zm33-57l-16 26-18 29 2 1 17-29 16-26-1-1zm-32 56l33-55-1-1-34 55 2 1zm0-2c30-25 56-51 77-72l-1-2c-21 21-48 48-77 72l1 2zm76-74l-78 72 2 1 77-71-1-2zm-76 75l76-72-2-2-75 73 1 1zm74-74l-75 73 1 1 76-72-2-2zm1 1c-14-1-25 1-41 4v2c17-3 27-5 41-4v-2zm-41 6l41-4v-2l-41 4v2zm40-7l-41 5v2l42-5-1-2zm-41 7l42-5-1-2-41 5v2zm2-2l9-24 10-25-2-1-10 26c-3 7-7 15-9 23l2 1zm17-50l-19 49 2 1 19-49-2-1zm-18 51l21-51-2-1-21 51 2 1zm19-52l-21 52h2l21-51-2-1z" fill="#000"/>
    </g>
    <path class="arrow" stroke-dasharray="1000" d="M423 343c61 1 121 0 204-2m1 2l-30 9 30-9zm0 0c-13-5-22-7-31-12l31 12zm-29 9c9-2 16-6 28-11-12-3-20-5-28-10m-177 12c62 2 124 1 206 0H422z" stroke="#000" stroke-width="2" stroke-linecap="round"/>
  </g>
</svg>
