<svg class="multi" xmlns="http://www.w3.org/2000/svg" fill="none" viewBox="0 0 543 244">
  <g class="multiplatform">
    <g class="dynamo">
      <g class="server-box">
        <path fill="#15AABF" d="M1 3h240v240H1M1 3h240H1zm0 0h240H1zm240 0v240V3zm0 0v240V3zm0 240H1h240zm0 0H1h240zM1 243V3v240zm0 0V3z"/>
        <path fill="#000" d="M1 3V2H0v1h1zm240 0h1V2h-1v1zm0 240v1h1v-1h-1zM1 243H0v1h1v-1zM1 4h240V2H1v2zm239-1v240h2V3h-2zm1 239H1v2h240v-2zM1 4H241V2H86.4 80.2 73h-.4H69.1h-2.3H63h-1.5-1.1H55 53.1 51.3h-.7-.7-6.3-.7-.7-1-.7H38.8 37.1h-1-1-1-1-1-1-1-1-.3-1H26.5h-1-.3-1-.3H22.6 21.3 21h-1-.3H18.4h-.3H16.8h-.3H15.2 15h-1.6-.3H11.7h-.3-1.6-.3H8h-.3-.3H6h-.3-.3-1.6-.3H2h-.3-.3H1v2zm0 0H241V2H57.7 52 29.6h-.4H22.5h-.4H17h-.4-4.3-.4H8h-.4H3.7h-.4H1v2zm239-1V243h2v-.3-.3-.4-.3-.3-.3-.4-.3-.3-.4-.3-.3-.4-.3-.3-.4-.3-.3-.4-.3-.3-.4-.3-.4-.3-.4-.3-.3-.4-.3-.4-.3-.4-.3-.4-.3-.4-.3-.4-.3-.4-.4-.3-.4-.3-.4-.3-.4-.4-.3-.4-.4-.3-.4-.4-.3-.4-.4-.3-.4-.4-.3-.4-.4-.4-.3-.4-.4-.4-.3-.4-.4-.4-.4-.3-.4-.4-.4-.4-.4-.3-.4-.4-.4-.4-.4-.4-.4-.3-.4-.4-.4-.4-.4-.4-.4-.4-.4-.4-.4-.4-.4-.4-.4-.4-.4-.4-.4-.4-.4-.4-.4-.5-.4-.4-.4-.4-.4-.4-.4-.4-.5-.4-.4-.4-.4-.4-.5-.4-.4-.4-.4-.4-.5-.4-.4-.4-.5-.4-.4-.4-.5-.4-.4-.5-.4-.4-.4-.5-.4-.4-.5-.4-.4-.5-.4-.4-.5-.4-.5-.4-.4-.5-.4-.5-.4-.4-.5-.4-.5-.4-.5-.4-.4-.5-.4-.5-.4-.5-.4-.5-.4-.5-.4-.5-.4-.5-.4-.5-.5-.4-.5-.4-.5-.4-.5-.5-.4-.5-.4-.5-.5-.4-.5-.4-.5-.5-.4-.5-.5-.4-.5-.5-.4-.5-.5-.4-.5-.5-.4-.5-.5-.5-.4-.5-.5-.4-.5-.5-.5-.4-.5-.5-.5-.5-.4-.5-.5-.5-.4-.5-.5-.5-.5-.5-.4-.5-.5-.5-.5-.5-.4-.5-.5-.5-.5-.5-.5-.4-.5-.5-.5-.5-.5-.5-.5-.5-.5-.5-.4-.5-.5-.5-.5-.5-.5-.5-.5-.5-.5-.5-.5-.5-.5-.5-.5-.5-.5-.5-.5-.5-.5-.5-.5-.5-.5-.5-.5-.5-.5-.5-.5-.5-.5-.5-.5-.6-.5-.5-.5-.5-.5-.5-.5-.5-.5-.5-.5-.6-.5-.5-.5-.5-.5-.5-.5-.6-.5-.5-.5-.5-.5-.5-.6-.5-.5-.5-.5-.5-.6-.5-.5-.5-.5-.5-.6-.5-.5-.5-.5-.6-.5-.5-.5-.5-.6-.5-.5-.5-.6-.5-.5-.5-.6-.5-.5-.5-.6-.5-.5-.5-.6-.5-.5-.5-.6-.5-.5-.5-.6-.5-.5-.5-.6-.5-.5-.6-.5-.5-.6-.5-.5-.5-.6-.5-.5-.6-.5-.5-.6-.5-.5-.6-.5-.5-.6-.5-.5-.6-.5-.5-.6-.5-.5-.6-.5-.5-.6-.5-.5-.6-.5-.5-.6-.5-.5-.6-.5-.6-.5-.5-.6-.5-.5-.6-.5-.5-.6-.5-.6-.5-.5-.6-.5-.6-.5-.5-.6-.5-.5-.6-.5-.6-.5-.5-.6-.5-.6-.5-.5-.6-.5-.6-.5-.5-.6-.5-.6-.5-.5-.6-.5-.6-.5-.5-.6-.5-.6-.5-.6-.5-.5-.6-.5-.6-.5-.5-.6-.5-.6-.5-.6-.5-.5-.6-.5-.6-.5-.6-.5V9v-.6V8v-.6-.5-.5-.6-.5-.6-.5-.6V3h-2zm0 0V243h2v-.5-.4-.5-.5-.5-.4-.5-.5-.4-.5-.5-.5-.4-.5-.5-.5-.4-.5-.5-.4-.5-.5-.5-.4-.5-.5-.4-.5-.5-.5-.4-.5-.5-.4-.5-.5-.5-.4-.5-.5-.4-.5-.5-.5-.4-.5-.5-.4-.5-.5-.5-.4-.5-.5-.4-.5-.5-.4-.5-.5-.5-.4-.5-.5-.4-.5-.5-.5-.4-.5-.5-.4-.5-.5-.5-.4-.5-.5-.4-.5-.5-.4-.5-.5-.5-.4-.5-.5-.4-.5-.5-.5-.4-.5-.5-.4-.5-.5-.4-.5-.5-.5-.4-.5-.5-.4-.5-.5-.4-.5-.5-.5-.4-.5-.5-.4-.5-.5-.5-.4-.5-.5-.4-.5-.5-.4-.5-.5-.5-.4-.5-.5-.4-.5-.5-.4-.5-.5-.4-.5-.5-.5-.4-.5-.5-.4-.5-.5-.4-.5-.5-.5-.4-.5-.5-.4-.5-.5-.4-.5-.5-.4-.5-.5-.5-.4-.5-.5-.4-.5-.5-.4-.5-.5-.5-.4-.5-.5-.4-.5-.5-.4-.5-.5-.4-.5-.5-.5-.4-.5-.5-.4-.5-.5-.4-.5-.5-.4-.5-.5-.4-.5-.5-.5-.4-.5-.5-.4-.5-.5-.4-.5-.5-.4-.5-.5-.4-.5-.5-.5-.4-.5-.5-.4-.5-.5-.4-.5-.5-.4-.5-.5-.4-.5-.5-.5-.4-.5-.5-.4-.5-.5-.4-.5-.5-.4-.5-.5-.4-.5-.5-.4-.5-.5-.5-.4-.5-.5-.4-.5-.5-.4-.5-.5-.4-.5-.5-.4-.5-.5-.4-.5-.5-.5-.4-.5-.5-.4-.5-.5-.4-.5-.5-.4-.5-.5-.4-.5-.5-.4-.5-.5-.4-.5-.5-.4-.5-.5-.5-.4-.5-.5-.4-.5-.5-.4-.5-.5-.4-.5-.5-.4-.5-.5-.4-.5-.5-.4-.5-.5-.4-.5-.5-.4-.5-.5-.5-.4-.5-.5-.4-.5-.5-.4-.5-.5-.4-.5-.5-.4-.5-.5-.4-.5-.5-.4-.5-.5-.4-.5-.5-.4-.5-.5-.4-.5-.5-.4-.5-.5-.5-.4-.5-.5-.4-.5-.5-.4-.5-.5-.4-.5-.5-.4-.5-.5-.4-.5-.5-.4-.5-.5-.4-.5-.5-.4-.5-.5-.4-.5-.5-.4-.5-.5-.4-.5-.5-.4-.5-.5-.4-.5-.5-.4-.5-.5-.5-.4-.5-.5-.4-.5-.5-.4-.5-.5-.4-.5-.5-.4-.5-.5-.4-.5-.5-.4-.5-.5-.4-.5-.5-.4-.5-.5-.4-.5-.5-.4-.5-.5-.4-.5-.5-.4-.5-.5-.4-.5-.5-.4-.5-.5-.4-.5-.5-.4-.5-.5-.4-.5-.5-.4-.5-.5-.4-.5-.5-.4-.5-.5-.5-.4-.5-.5-.4-.5-.5-.4-.5-.5-.4-.5-.5-.4-.5-.5-.4-.5-.5-.4-.5-.5-.4-.5-.5-.4-.5-.5-.4-.5-.5-.4-.5-.5-.4-.5-.5V5v-.5-.5-.4V3h-2zm1 239h-.6-.3-.3-.3-.3-.3-.3-.3-.3-.3-.3-.3-.3-.3-.3H223h-.3-.3-.3-.3-.3-.3-.3-.3-2.8-.3-.3-.3-.3-1.9-.3-.3-1.9-.3-1.6-.3-1.6-.3H206.8 205.5h-.3-1-.3-1-.3-1-1-1-1-1-1-1-.7-1-.7-.7-2.4-.7-.7-.7-2.5H183.7 182h-1.1-1.1-2.6-1.5-1.9-2.3-4.3-.4-.4-.4-.4-.4-.4-.4-.4-.4-4.5H1v2H241v-2zm0 0H38.9h-5-3.3H24.1h-.4-.4-.4-.4-.4-.4-.4-.4H15 12 9.6 7.7 5.8 4.3 1.7 1v2h240v-2zM2 243v-.5-.4-.5-.5-.4-.5-.5-.5-.4-.5-.5-.4-.5-.5-.4-.5-.5-.5-.4-.5-.5-.4-.5-.5-.4-.5-.5-.4-.5-.5-.5-.4-.5-.5-.4-.5-.5-.4-.5-.5-.5-.4-.5-.5-.4-.5-.5-.4-.5-.5-.4-.5-.5-.5-.4-.5-.5-.4-.5-.5-.4-.5-.5-.5-.4-.5-.5-.4-.5-.5-.4-.5-.5-.4-.5-.5-.5-.4-.5-.5-.4-.5-.5-.4-.5-.5-.5-.4-.5-.5-.4-.5-.5-.4-.5-.5-.4-.5-.5-.5-.4-.5-.5-.4-.5-.5-.4-.5-.5-.5-.4-.5-.5-.4-.5-.5-.4-.5-.5-.4-.5-.5-.5-.4-.5-.5-.4-.5-.5-.4-.5-.5-.4-.5-.5-.5-.4-.5-.5-.4-.5-.5-.4-.5-.5-.4-.5-.5-.5-.4-.5-.5-.4-.5-.5-.4-.5-.5-.5-.4-.5-.5-.4-.5-.5-.4-.5-.5-.4-.5-.5-.5-.4-.5-.5-.4-.5-.5-.4-.5-.5-.4-.5-.5-.5-.4-.5-.5-.4-.5-.5-.4-.5-.5-.4-.5-.5-.5-.4-.5-.5-.4-.5-.5-.4-.5-.5-.4-.5-.5-.5-.4-.5-.5-.4-.5-.5-.4-.5-.5-.4-.5-.5-.5-.4-.5-.5-.4-.5-.5-.4-.5-.5-.4-.5-.5-.4-.5-.5-.5-.4-.5-.5-.4-.5-.5-.4-.5-.5-.4-.5-.5-.5-.4-.5-.5-.4-.5-.5-.4-.5-.5-.4-.5-.5-.5-.4-.5-.5-.4-.5-.5-.4-.5-.5-.4-.5-.5-.4-.5-.5-.5-.4-.5-.5-.4-.5-.5-.4-.5-.5-.4-.5-.5-.4-.5-.5-.5-.4-.5-.5-.4-.5-.5-.4-.5-.5-.4-.5-.5-.4-.5-.5-.5-.4-.5-.5-.4-.5-.5-.4-.5-.5-.4-.5-.5-.4-.5-.5-.5-.4-.5-.5-.4-.5-.5-.4-.5-.5-.4-.5-.5-.4-.5-.5-.4-.5-.5-.5-.4-.5-.5-.4-.5-.5-.4-.5-.5-.4-.5-.5-.4-.5-.5-.4-.5-.5-.5-.4-.5-.5-.4-.5-.5-.4-.5-.5-.4-.5-.5-.4-.5-.5-.4-.5-.5-.4-.5-.5-.5-.4-.5-.5-.4-.5-.5-.4-.5-.5-.4-.5-.5-.4-.5-.5-.4-.5-.5-.4-.5-.5-.4-.5-.5-.5-.4-.5-.5-.4-.5-.5-.4-.5-.5-.4-.5-.5-.4-.5-.5-.4-.5-.5-.4-.5-.5-.4-.5-.5-.4-.5-.5-.5-.4-.5-.5-.4-.5-.5-.4-.5-.5-.4-.5-.5-.4-.5-.5-.4-.5-.5-.4-.5-.5-.4-.5-.5-.4-.5-.5-.4-.5-.5-.4-.5-.5-.4-.5-.5-.4-.5-.5-.5-.4-.5-.5-.4-.5-.5-.4-.5-.5-.4-.5-.5-.4-.5-.5-.4-.5-.5-.4-.5-.5-.4-.5-.5V5v-.5-.5-.4V3H0V243h2zM0 3v240h2V3H0zm2 240v-.5-.5-.4-.5-.5-.5-.4-.5-.5-.5-.4-.5-.5-.5-.4-.5-.5-.5-.4-.5-.5-.5-.4-.5-.5-.5-.4-.5-.5-.5-.4-.5-.5-.5-.4-.5-.5-.5-.4-.5-.5-.5-.4-.5-.5-.5-.4-.5-.5-.5-.4-.5-.5-.5-.4-.5-.5-.5-.4-.5-.5-.5-.4-.5-.5-.5-.4-.5-.5-.5-.4-.5-.5-.5-.4-.5-.5-.5-.4-.5-.5-.5-.4-.5-.5-.5-.4-.5-.5-.5-.4-.5-.5-.5-.4-.5-.5-.5-.4-.5-.5-.4-.5-.5-.5-.4-.5-.5-.5-.4-.5-.5-.5-.4-.5-.5-.5-.4-.5-.5-.5-.4-.5-.5-.5-.4-.5-.5-.5-.4-.5-.5-.4-.5-.5-.5-.4-.5-.5-.5-.4-.5-.5-.5-.4-.5-.5-.5-.4-.5-.5-.5-.4-.5-.5-.4-.5-.5-.5-.4-.5-.5-.5-.4-.5-.5-.4-.5-.5-.5-.4-.5-.5-.5-.4-.5-.5-.5-.4-.5-.5-.4-.5-.5-.5-.4-.5-.5-.5-.4-.5-.5-.4-.5-.5-.5-.4-.5-.5-.4-.5-.5-.5-.4-.5-.5-.5-.4-.5-.5-.4-.5-.5-.5-.4-.5-.5-.4-.5-.5-.5-.4-.5-.5-.4-.5-.5-.5-.4-.5-.5-.4-.5-.5-.5-.4-.5-.5-.4-.5-.5-.5-.4-.5-.5-.4-.5-.5-.5-.4-.5-.5-.4-.5-.5-.4-.5-.5-.5-.4-.5-.5-.4-.5-.5-.4-.5-.5-.5-.4-.5-.5-.4-.5-.5-.4-.5-.5-.5-.4-.5-.5-.4-.5-.5-.4-.5-.5-.4-.5-.5-.5-.4-.5-.5-.4-.5-.5-.4-.5-.5-.4-.5-.5-.4-.5-.5-.4-.5-.5-.5-.4-.5-.5-.4-.5-.5-.4-.5-.5-.4-.5-.5-.4-.5-.5-.4-.5-.5-.4-.5-.5-.4-.5-.5-.4-.5-.5-.4-.5-.5-.4-.5-.5-.4-.5-.5-.4-.5-.5-.4-.5-.5-.4-.5-.5-.4-.5-.5-.4-.5-.5-.4-.5-.5-.4-.5-.5-.4-.5-.4-.5-.5-.4-.5-.5-.4-.5-.5-.4-.5-.5-.4-.5-.5-.4-.5-.4-.5-.5-.4-.5-.5-.4-.5-.5-.4-.5-.4-.5-.5-.4-.5-.5-.4-.5-.5-.4-.5-.4-.5-.5-.4-.5-.5-.4-.5-.4-.5-.5-.4-.5-.5-.4-.5-.4-.5-.5-.4-.5-.4-.5-.5-.4-.5-.5-.4-.5-.4-.5-.5-.4-.5-.4-.5-.5-.4-.5-.4-.5-.5-.4-.5-.4-.5-.5-.4-.5-.4-.5-.5-.4-.5-.4-.5-.5-.4-.5-.4-.5-.5-.4-.5-.4-.5-.4-.5-.5-.4-.5-.4-.5-.5-.4-.5-.4-.5-.4-.5-.5-.4-.5-.4-.5-.4-.5-.5-.4-.5-.4V8v-.4V7v-.5-.4-.5-.4-.5-.4-.5-.4V3H0V243h2z"/>
      </g>
      <g class="lightning">
        <path fill="#FFDC21" fill-rule="evenodd" d="M134.2 59.3l41.7-.2-8.8 41.5 30-.2-59.3 68 13-61.9-29 .4 12.4-47.6z" clip-rule="evenodd"/>
        <path fill="#FFDC21" fill-rule="evenodd" d="M134.2 59.3l41.7-.2-41.7.2zm0 0l41.7-.2-41.7.2zm41.7-.2l-8.8 41.5L176 59zm0 0l-8.8 41.5L176 59zm-8.8 41.5l30-.2-30 .2zm0 0l30-.2-30 .2zm30-.2l-59.3 68 59.3-68zm0 0l-59.3 68 59.3-68zm-59.3 68l13-61.9-13 62zm0 0l13-61.9-13 62zm13-61.9l-29 .4 29-.4zm0 0l-29 .4 29-.4zm-29 .4c3.9-14.5 7.7-29.1 12.4-47.6L122 107zm0 0l12.4-47.6L122 107z" clip-rule="evenodd"/>
        <path fill="#000" d="M134.2 59.3v-1h-.7l-.2.8 1 .2zm41.7-.2l1 .2.2-1.3H176v1zm-8.8 41.5l-1-.2-.2 1.2h1.2v-1zm30-.2l.7.7 1.5-1.7H197v1zm-59.3 68l-1-.2-.8 3.8 2.5-3-.7-.6zm13-61.9l1 .2.3-1.2h-1.3v1zm-29 .4l-.9-.2-.3 1.3h1.3v-1zm12.4-46.6l41.7-.2v-2l-41.7.2v2zM175 59l-8.7 41.5 2 .4 8.7-41.5-2-.4zm-7.8 42.7l30-.2v-2l-30 .2v2zm29.2-1.9l-59.3 68 1.5 1.4 59.3-68-1.5-1.4zm-57.6 69l13.1-62-2-.4-13 62 2 .3zm12.1-63.2l-29 .4v2l29-.4v-2zm-28 1.7l12.4-47.6-2-.5-12.3 47.6 2 .5zm11.4-46.9l41.7-.2v-2l-41.7.2v2zm0 0l41.7-.2v-2l-41.7.2v2zM175 59l-8.7 41.5 2 .4 8.7-41.5-2-.4zm0 0l-8.7 41.5 2 .4 8.7-41.5-2-.4zm-7.8 42.7l30-.2v-2l-30 .2v2zm0 0l30-.2v-2l-30 .2v2zm29.2-1.9l-59.3 68 1.5 1.4 59.3-68-1.5-1.4zm0 0C179.7 119 163 138 137 167.7l1.5 1.4 59.3-68-1.5-1.4zm-57.6 69l13.1-62-2-.4-13 62 2 .3zm0 0l13.1-62-2-.4-13 62 2 .3zm12.1-63.2l-29 .4v2l29-.4v-2zm0 0l-15.2.2-13.7.2v2a25045.1 25045.1 0 0029-.4v-2zm-28 1.7l12.4-47.6-2-.5-12.3 47.6 2 .5zm0 0l12.4-47.6-2-.5-12.3 47.6 2 .5z"/>
      </g>
      <path class="server" stroke="#000" stroke-linecap="round" stroke-width="2" d="M157.2 48.2c-3-.8-10.5-3.6-17.4-4.9a137.8 137.8 0 00-53.9-.5c-9 1.5-18.8 4.7-24.3 6.8-5.6 2-6.8 3.7-9.2 5.5a15.4 15.4 0 00-5 5.7c-1 2.3-1.9 5.4-1.3 8 .5 2.4 2 4.6 4.5 7 2.5 2.5 6.3 5.4 10.5 7.5 4.2 2 9.7 3.5 14.8 4.7a182.8 182.8 0 0032.8 3.6c5.2 0 11.6-.7 14-.9M45.4 180c.3 1 .4 3.8 1.6 5.7a22 22 0 005.6 5.7c2.6 2 6 4.2 10 6a102.6 102.6 0 0029.3 7.4c5.5.6 12 .7 18.4.7 6.5 0 14 0 20.2-.6a110.8 110.8 0 0033.5-8.6c4.5-2 8-4 10.6-6.7 2.6-2.6 4-7.4 4.8-8.9M46 96.2c.3 1 .6 4 2.1 6.2 1.6 2 4 4.2 7.2 6.4 3.2 2 7.8 4.9 11.7 6.3 4 1.5 7.5 1.6 12 2.4 4.5.8 9.6 2 15 2.4 5.2.4 11.7-.1 16.9-.2l13.8-.1m-79.1-11c.2 1 .2 4.3 1.7 6.4 1.4 2.2 3.5 4.3 6.8 6.5a67 67 0 0013.3 6.4c5 1.7 10.6 3 16.6 4 5.9 1 12.8 1.7 19 1.9 6.3.2 13-.2 18.2-.6 5.2-.5 10.8-1.6 13-2m-88.4 7.9c.3 1 .6 4.1 2 6.2 1.2 2 2.5 3.8 5.8 6s8.5 5.4 13.9 7.1c5.3 1.7 12.3 2.6 18 3.3 5.8.8 10.4 1.2 16.4 1.3 6 .2 14.5 0 19.8-.3 5.3-.4 10-1.5 12-1.8m-88.8-7.1c.7 1 1.8 4.2 4 6.4a45.2 45.2 0 0021.7 10.6c5.8 1.6 15.6 4.4 23 5.3 7.6 1 15.3.6 22.3.4a191.8 191.8 0 0036.6-5.2c5.6-1.5 12-4 16-6.1a26 26 0 008.3-7c2-2.3 2.8-5.9 3.3-7m-133.4-86l-.6 116 .6-116zm133 115.8l-.4-53.8.3 53.8zm-21-26.5c2.5-1.3 11.2-5.8 14.5-8 3.4-2 4.6-4.2 5.5-5l-20 13z"/>
      <g>
        <path class="server-port3" fill="#60E0F2" fill-rule="evenodd" d="M57.9 89.7l16 6.3-.5 10.5-16-6.3.5-10.5z" clip-rule="evenodd"/>
        <path fill="#60E0F2" fill-rule="evenodd" d="M57.9 89.7l16 6.3-16-6.3zm0 0l16 6.3-16-6.3zm16 6.3l-.5 10.5L74 96zm0 0l-.5 10.5L74 96zm-.5 10.5l-16-6.3 16 6.3zm0 0l-16-6.3 16 6.3zm-16-6.3l.5-10.5-.6 10.5zm0 0c0-2.9.2-5.7.5-10.5l-.6 10.5z" clip-rule="evenodd"/>
        <path fill="#000" d="M57.9 89.7l.3-1-1.3-.5v1.4h1zm16 6.3h1v-.7l-.7-.2-.3 1zm-.5 10.5l-.3 1 1.3.4v-1.4h-1zm-16-6.3h-1l-.1.7.6.3.4-1zm0-9.6L73.6 97l.7-1.8-16-6.3-.7 1.8zM73 96l-.5 10.5h2l.5-10.4-2-.1zm.9 9.6l-16.1-6.3-.8 1.9 16.2 6.2.7-1.8zm-15.5-5.3l.6-10.6h-2l-.6 10.5h2zm-.8-9.7l16 6.3.7-1.8-16-6.3-.7 1.8zm0 0l16 6.3.7-1.8c-3.6-1.5-9.8-4-16-6.3l-.7 1.8zM72.9 96l-.5 10.5h2l.5-10.4-2-.1zm0 0l-.5 10.5h2l.5-10.4-2-.1zm.9 9.6l-16.1-6.3-.8 1.9 16.2 6.2.7-1.8zm0 0l-16.1-6.3-.8 1.9 16.2 6.2.7-1.8zm-15.5-5.3l.6-10.6h-2l-.6 10.5h2zm0 0l.6-10.6h-2l-.6 10.5h2z"/>
      </g>
      <g>
        <path class="server-port2" fill="#60E0F2" fill-rule="evenodd" d="M58 133.2l16 6.4-.4 10.5-16-6.3.5-10.6z" clip-rule="evenodd"/>
        <path fill="#60E0F2" fill-rule="evenodd" d="M58 133.2l16 6.4-16-6.4zm0 0c5.3 2 10.4 4.1 16 6.4l-16-6.4zm16 6.4c0 2.7-.1 5.4-.4 10.5l.5-10.5zm0 0c0 3.7-.2 7.4-.4 10.5l.5-10.5zm-.4 10.5l-16-6.3 16 6.3zm0 0l-16-6.3 16 6.3zm-16-6.3c0-3 .2-6 .5-10.6l-.6 10.6zm0 0c0-2.7.2-5.4.5-10.6l-.6 10.6z" clip-rule="evenodd"/>
        <path fill="#000" d="M58 133.2l.4-.9-1.3-.5v1.4h1zm16 6.4h1l.1-.7-.6-.3-.4 1zm-.4 10.5l-.3.9 1.3.5v-1.4h-1zm-16-6.3h-1l-.1.7.7.2.3-1zm.1-9.6l16 6.3.8-1.9-16-6.3-.8 1.9zm15.4 5.3l-.5 10.5 2 .1.5-10.5h-2zm1 9.6L57.8 143l-.7 1.8 16 6.3.8-1.9zm-15.6-5.3l.6-10.5-2-.1-.6 10.5 2 .1zm-.8-9.6l16 6.3.8-1.9-16-6.3-.8 1.9zm0 0l16 6.3.8-1.9-16-6.3-.8 1.9zm15.4 5.3l-.5 10.5 2 .1.5-10.5h-2zm0 0l-.5 10.5 2 .1.5-10.5h-2zm1 9.6L57.8 143l-.7 1.8 16 6.3.8-1.9zm0 0L57.8 143l-.7 1.8 16 6.3.8-1.9zm-15.6-5.3l.6-10.5-2-.1-.6 10.5 2 .1zm0 0l.6-10.5-2-.1-.6 10.5 2 .1z"/>
      </g>
      <g>
        <path class="server-port1" fill="#60E0F2" fill-rule="evenodd" d="M58.6 175.1l16 6.4-.4 10.5-16.1-6.3.5-10.6z" clip-rule="evenodd"/>
        <path fill="#60E0F2" fill-rule="evenodd" d="M58.6 175.1l16 6.4-16-6.4zm0 0l16 6.4-16-6.4zm16 6.4c0 3.2-.2 6.3-.4 10.5l.5-10.5zm0 0c0 2.9-.2 5.8-.4 10.5l.5-10.5zm-.4 10.5l-16.1-6.3 16.1 6.3zm0 0l-16.1-6.3 16.1 6.3zm-16.1-6.3l.5-10.6-.5 10.6zm0 0l.5-10.6-.5 10.6z" clip-rule="evenodd"/>
        <path fill="#000" d="M58.6 175.1l.4-.9-1.3-.5v1.4h1zm16 6.4h1v-.7l-.6-.3-.3 1zm-.4 10.5l-.3.9 1.3.5V192h-1zm-16.1-6.3h-1v.7l.6.2.4-1zm.2-9.6l16 6.3.7-1.9-16-6.3-.7 1.9zm15.4 5.3l-.5 10.5 2 .1.5-10.5h-2zm.9 9.6l-16.2-6.2-.7 1.8L74 193l.7-1.9zM59 185.7l.5-10.5-2-.1-.5 10.5 2 .1zm-.8-9.6l16 6.3.7-1.9-16-6.3-.7 1.9zm0 0l16 6.3.7-1.9-16-6.3-.7 1.9zm15.4 5.3l-.5 10.5 2 .1.5-10.5h-2zm0 0l-.5 10.5 2 .1.5-10.5h-2zm.9 9.6l-16.2-6.2-.7 1.8L74 193l.7-1.9zm0 0l-16.2-6.2-.7 1.8c4 1.6 10 4 16.2 6.3l.7-1.9zM59 185.7l.5-10.5-2-.1-.5 10.5 2 .1zm0 0l.5-10.5-2-.1-.5 10.5 2 .1z"/>
      </g>
    </g>
    <g class="serverless">
      <g class="serverless-box">
        <path fill="#FA5252" d="M301 3h240.2v240H301M301 3h240.2H301zm0 0h240.2H301zm240.2 0v240V3zm0 0v240V3zm0 240H301h240.2zm0 0H301h240.2zM301 243V3v240zm0 0V3v240z"/>
        <path fill="#000" fill-opacity=".9" d="M301 3V2h-1v1h1zm240.2 0h1V2h-1v1zm0 240v1h1v-1h-1zM301 243h-1v1h1v-1zm0-239h240.2V2H301v2zm239.2-1v240h2V3h-2zm1 239H301v2h240.2v-2zM301 4H541.2V2H354.6 353 351.2 344h-5.9-2.1-2.1H327.2h-4.6-2.5-2.5-2.5-2.5-2.5H302.2 301v2zm0 0H541.2V2H382.2 361.4 353.3h-.4-.4-.4-.4-.4-.4-.4-.4-.4-.4-.4-.4-.4-.4-.4-.4-.4-.4H337.8h-.4-4.7-.4H328.4 325 321.8h-.4H318.7 315.6 313 310.2 307.5h-2.3-.4-2.3-1.5v2zm239.2-1V243h2v-.3-.3-.3-.2-.3-.3-.3-.3-.3-.3-.3-.3-.3-.3-.3-.3-.3-.3-.3-.3-.3-.3-.3-.3-.3-.3-.3-.3-.3-.4-.3-.3-.3-.3-.3-.4-.3-.3-.3-.3-.4-.3-.3-.3-.4-.3-.3-.4-.3-.3-.4-.3-.3-.4-.3-.4-.3-.3-.4-.3-.4-.3-.4-.3-.4-.3-.4-.3-.4-.3-.4-.3-.4-.3-.4-.4-.3-.4-.3-.4-.4-.3-.4-.4-.3-.4-.4-.3-.4-.4-.3-.4-.4-.4-.3-.4-.4-.4-.4-.3-.4-.4-.4-.4-.4-.3-.4-.4-.4-.4-.4-.4-.4-.4-.3-.4-.4-.4-.4-.4-.4-.4-.4-.4-.4-.4-.4-.4-.4-.5-.4-.4-.4-.4-.4-.4-.4-.4-.4-.5-.4-.4-.4-.4-.4-.5-.4-.4-.4-.4-.5-.4-.4-.4-.5-.4-.4-.4-.5-.4-.4-.5-.4-.4-.5-.4-.4-.5-.4-.4-.5-.4-.4-.5-.4-.5-.4-.5-.4-.4-.5-.4-.5-.4-.5-.4-.5-.4-.5-.4-.5-.4-.5-.4-.5-.4-.5-.5-.4-.5-.4-.5-.4-.5-.5-.4-.5-.5-.4-.5-.4-.5-.5-.4-.5-.5-.4-.5-.5-.5-.4-.5-.5-.4-.5-.5-.5-.4-.5-.5-.5-.5-.4-.5-.5-.5-.5-.4-.5-.5-.5-.5-.5-.4-.5-.5-.5-.5-.5-.5-.4-.5-.5-.5-.5-.5-.5-.5-.5-.5-.5-.5-.5-.5-.5-.4-.5-.5-.5-.5-.5-.5-.5-.5-.5-.5-.6-.5-.5-.5-.5-.5-.5-.5-.5-.5-.5-.5-.5-.5-.5-.6-.5-.5-.5-.5-.5-.5-.5-.5-.6-.5-.5-.5-.5-.5-.6-.5-.5-.5-.5-.5-.6-.5-.5-.5-.6-.5-.5-.5-.5-.6-.5-.5-.5-.6-.5-.5-.5-.6-.5-.5-.5-.6-.5-.5-.6-.5-.5-.6-.5-.5-.5-.6-.5-.5-.6-.5-.5-.6-.5-.5-.6-.5-.5-.6-.5-.6-.5-.5-.6-.5-.5-.6-.5-.6-.5-.5-.6-.5-.6-.5-.5-.6-.5-.6-.5-.6-.5-.5-.6-.5-.6-.5-.6-.5-.5-.6-.5-.6-.5-.6-.5-.6-.5-.6-.5-.6-.5-.6-.5-.6-.5-.6-.5-.6-.5-.6-.5-.6-.5-.6-.5-.6-.5-.6-.5-.6-.5-.6-.5-.6-.5-.6-.5-.6-.6-.5-.6-.5-.6-.5-.6-.5-.6-.5-.6-.6-.5-.6-.5-.6-.5-.6-.6-.5-.6-.5-.6-.5-.6-.6-.5-.6-.5-.6-.6-.5-.6-.5-.6-.5-.6-.6-.5-.6-.5-.6-.6-.5-.6-.5-.6-.6-.5-.6-.5-.6-.6-.5-.6-.6-.5-.6-.5-.6-.6-.5-.6-.5-.6-.6-.5-.6-.5-.6-.6-.5-.6-.6-.5-.6-.5-.6-.6-.5-.6-.6-.5V4v-.5V3h-2zm0 0V243h2v-.6-.5-.6-.5-.6-.6-.5-.6-.5-.6-.5-.6-.5-.6-.6-.5-.6-.5-.6-.5-.6-.5-.6-.5-.6-.5-.6-.5-.5-.6-.5-.6-.5-.6-.5-.6-.5-.5-.6-.5-.6-.5-.5-.6-.5-.5-.6-.5-.6-.5-.5-.6-.5-.5-.6-.5-.5-.6-.5-.5-.6-.5-.5-.5-.6-.5-.5-.5-.6-.5-.5-.6-.5-.5-.5-.5-.6-.5-.5-.5-.6-.5-.5-.5-.5-.6-.5-.5-.5-.5-.5-.6-.5-.5-.5-.5-.5-.5-.6-.5-.5-.5-.5-.5-.5-.5-.5-.6-.5-.5-.5-.5-.5-.5-.5-.5-.5-.5-.5-.5-.5-.5-.5-.5-.5-.5-.5-.5-.5-.5-.5-.5-.5-.5-.5-.5-.5-.5-.5-.5-.5-.5-.5-.5-.5-.5-.5-.5-.5-.5-.4-.5-.5-.5-.5-.5-.5-.5-.5-.5-.4-.5-.5-.5-.5-.5-.5-.4-.5-.5-.5-.5-.5-.5-.4-.5-.5-.5-.5-.4-.5-.5-.5-.5-.4-.5-.5-.5-.5-.4-.5-.5-.5-.4-.5-.5-.5-.4-.5-.5-.5-.4-.5-.5-.5-.4-.5-.5-.4-.5-.5-.5-.4-.5-.5-.4-.5-.5-.4-.5-.5-.4-.5-.5-.4-.5-.5-.4-.5-.5-.4-.5-.5-.4-.5-.5-.4-.5-.4-.5-.5-.4-.5-.4-.5-.5-.4-.5-.4-.5-.5-.4-.5-.4-.5-.4-.5-.5-.4-.5-.4-.5-.4-.5-.5-.4-.5-.4-.5-.4-.5-.4-.5-.4-.5-.4-.5-.4-.5-.4-.5-.5-.4-.5-.4-.5-.4-.4-.5-.4-.5-.4-.5-.4-.5-.4-.5-.4-.5-.4-.5-.4-.5-.4-.5-.4-.4-.5-.4-.5-.4-.5-.4-.4-.5-.4-.5-.4-.5-.4-.4-.5-.4-.5-.4-.5-.4-.4-.5-.4-.5-.4-.4-.5-.4-.5-.4-.4-.5-.4-.4-.5-.4-.5-.4-.4-.5-.4-.4-.5-.4-.5-.4-.4-.5-.4-.4-.5-.4-.4-.5-.4-.4-.5-.4-.4-.5-.4-.4-.5-.4-.4-.5-.4-.4-.5-.4-.4-.5-.4-.4-.5-.4-.4-.5-.4-.4-.5-.4-.4-.4-.5-.4-.4-.5-.4-.4-.5-.4-.4-.4-.5-.4-.4-.5-.4-.4-.4-.5-.4-.4-.5-.4-.4-.4-.5-.4-.4-.5-.4-.4-.4-.5-.4-.4-.4-.5-.4-.4-.4-.5-.4-.4-.5-.4-.4-.4-.5-.4-.4-.4-.5-.4-.4-.4-.5-.4-.4-.4-.5-.4-.4-.4-.5-.4-.4-.4-.4-.5-.4-.4-.4-.5-.4-.4-.4-.5-.4-.4-.4-.5-.4-.4-.4-.5-.4-.4-.4-.4-.5-.4-.4-.4-.5-.4-.4-.4-.5-.4-.4-.4-.4-.5-.4-.4-.4-.5V9v-.4V8v-.5-.4-.4-.4V6v-.5-.4-.4-.4-.5-.4V3h-2zm1 239H301v2H541.2v-2zm0 0H540h-1-.3-1-.3-1H535h-1-.3-1H531.4h-1-.3-1-1-.3-1-1-1-.3-1-1-1-1-1-1-1-1-1H513.8h-1-.7-1-.7-1-.7H507h-.7-2.4-.7-.7-.7-.7-.7-.7-.7-.7-2.5-.7H493.3 491.5 488.6h-1.1-1.1-1.5-1.1-1.5-1.5-1.9-1.9H474.3 470.4h-.4H463.6h-.4-4.1-2.5-2.1H301v2H541.2v-2zM302 243v-.5-.6-.5-.5-.6-.5-.5-.6-.5-.5-.6-.5-.5-.6-.5-.5-.6-.5-.5-.6-.5-.5-.6-.5-.5-.6-.5-.5-.6-.5-.5-.6-.5-.5-.6-.5-.5-.6-.5-.5-.5-.6-.5-.5-.6-.5-.5-.6-.5-.5-.6-.5-.5-.6-.5-.5-.6-.5-.5-.5-.6-.5-.5-.6-.5-.5-.6-.5-.5-.5-.6-.5-.5-.6-.5-.5-.6-.5-.5-.5-.6-.5-.5-.6-.5-.5-.5-.6-.5-.5-.5-.6-.5-.5-.6-.5-.5-.5-.6-.5-.5-.5-.6-.5-.5-.5-.6-.5-.5-.5-.6-.5-.5-.5-.6-.5-.5-.5-.5-.6-.5-.5-.5-.6-.5-.5-.5-.5-.6-.5-.5-.5-.6-.5-.5-.5-.5-.5-.6-.5-.5-.5-.5-.6-.5-.5-.5-.5-.5-.6-.5-.5-.5-.5-.5-.6-.5-.5-.5-.5-.5-.5-.6-.5-.5-.5-.5-.5-.5-.6-.5-.5-.5-.5-.5-.5-.5-.5-.5-.6-.5-.5-.5-.5-.5-.5-.5-.5-.5-.5-.5-.6-.5-.5-.5-.5-.5-.5-.5-.5-.5-.5-.5-.5-.5-.5-.5-.5-.5-.5-.5-.5-.5-.5-.5-.5-.5-.5-.5-.5-.5-.5-.5-.5-.5-.5-.5-.5-.5-.5-.5-.5-.4-.5-.5-.5-.5-.5-.5-.5-.5-.5-.5-.4-.5-.5-.5-.5-.5-.5-.5-.5-.4-.5-.5-.5-.5-.5-.4-.5-.5-.5-.5-.5-.4-.5-.5-.5-.5-.4-.5-.5-.5-.5-.4-.5-.5-.5-.4-.5-.5-.5-.4-.5-.5-.5-.4-.5-.5-.5-.4-.5-.5-.4-.5-.5-.4-.5-.5-.4-.5-.5-.4-.5-.5-.4-.5-.5-.4-.5-.4-.5-.5-.4-.5-.5-.4-.5-.4-.5-.4-.5-.5-.4-.5-.4-.5-.4-.5-.4-.5-.4-.5-.4-.5-.4-.5-.4-.5-.4-.5-.4-.5-.4-.5-.4-.5-.4-.5-.4-.4-.5-.4-.5-.4-.4-.5-.4-.5-.4-.4-.5-.4-.4-.5-.4-.4-.5-.4-.4-.5-.4-.4-.5-.4-.4-.5-.4-.4-.4-.5-.4-.4-.4-.5-.4-.4-.4-.5-.4-.4-.4-.4-.5-.4-.4-.4-.4-.4-.5-.4-.4-.4-.4-.4-.4-.5-.4-.4-.4-.4-.4-.4-.4-.4-.4-.4-.4-.4-.4-.4-.4-.4-.4-.4-.4-.4-.4-.4-.4-.4-.4-.4-.4-.4-.4-.4-.4-.4-.4-.4-.4-.3-.4-.4-.4-.4-.4-.4-.3-.4-.4-.4-.4-.4-.3-.4-.4-.4-.3-.4-.4-.4-.4-.3-.4-.4-.3-.4-.4-.4-.3-.4-.4-.3-.4-.4-.3-.4-.4-.3-.4-.3-.4-.4-.3-.4-.3-.4-.3-.4-.4-.3-.4V9v-.4-.3-.4-.3V7v-.3-.4-.3-.4-.3-.3-.4-.3V4v-.3-.4V3h-2V243h2zM300 3v240h2V3h-2zm2 240v-.4-.5-.4-.4-.5-.4-.5-.4-.4-.5-.4-.4-.5-.4-.5-.4-.4-.5-.4-.4-.5-.4-.4-.5-.4-.5-.4-.4-.5-.4-.4-.5-.4-.5-.4-.4-.5-.4-.4-.5-.4-.5-.4-.4-.5-.4-.4-.5-.4-.4-.5-.4-.5-.4-.4-.5-.4-.5-.4-.4-.5-.4-.4-.5-.4-.5-.4-.4-.5-.4-.5-.4-.4-.5-.4-.4-.5-.4-.5-.4-.4-.5-.4-.5-.4-.4-.5-.4-.5-.4-.4-.5-.4-.5-.4-.4-.5-.4-.5-.4-.4-.5-.4-.5-.4-.4-.5-.4-.5-.4-.4-.5-.4-.5-.4-.4-.5-.4-.5-.4-.5-.4-.4-.5-.4-.5-.4-.5-.4-.4-.5-.4-.5-.4-.5-.4-.4-.5-.4-.5-.4-.5-.4-.5-.4-.4-.5-.4-.5-.4-.5-.4-.5-.4-.4-.5-.4-.5-.4-.5-.4-.5-.4-.5-.4-.5-.4-.4-.5-.4-.5-.4-.5-.4-.5-.4-.5-.4-.5-.4-.5-.4-.5-.4-.5-.4-.5-.4-.5-.4-.5-.4-.5-.4-.5-.4-.5-.4-.5-.4-.5-.4-.5-.4-.5-.4-.5-.4-.5-.4-.5-.4-.5-.5-.4-.5-.4-.5-.4-.5-.4-.5-.4-.5-.5-.4-.5-.4-.5-.4-.5-.4-.5-.5-.4-.5-.4-.5-.4-.5-.5-.4-.5-.4-.5-.5-.4-.5-.4-.5-.4-.5-.5-.4-.5-.4-.5-.5-.4-.5-.5-.4-.5-.4-.5-.5-.4-.5-.5-.4-.5-.4-.5-.5-.4-.5-.5-.4-.5-.5-.4-.5-.5-.4-.5-.5-.4-.5-.5-.4-.5-.5-.4-.5-.5-.4-.5-.5-.4-.5-.5-.5-.4-.5-.5-.4-.5-.5-.5-.4-.5-.5-.4-.5-.5-.5-.4-.5-.5-.5-.4-.5-.5-.5-.4-.5-.5-.5-.4-.5-.5-.5-.4-.5-.5-.5-.5-.4-.5-.5-.5-.4-.5-.5-.5-.5-.4-.5-.5-.5-.5-.5-.4-.5-.5-.5-.5-.5-.4-.5-.5-.5-.5-.5-.4-.5-.5-.5-.5-.5-.5-.5-.4-.5-.5-.5-.5-.5-.5-.5-.4-.5-.5-.5-.5-.5-.5-.5-.5-.5-.5-.5-.4-.5-.5-.5-.5-.5-.5-.5-.5-.5-.5-.5-.5-.5-.5-.5-.5-.5-.5-.5-.5-.5-.5-.5-.5-.5-.5-.5-.5-.5-.5-.5-.5-.5-.5-.5-.5-.5-.5-.5-.5-.5-.5-.5-.5-.6-.5-.5-.5-.5-.5-.5-.5-.5-.5-.5-.5-.6-.5-.5-.5-.5-.5-.5-.5-.6-.5-.5-.5-.5-.5-.5-.6-.5-.5-.5-.5-.5-.6-.5-.5-.5-.5-.6-.5-.5-.5-.5-.6-.5-.5-.5-.5-.6-.5-.5-.5-.6-.5-.5-.5-.6-.5-.5-.5-.6-.5-.5-.6-.5-.5-.5-.6-.5-.5V5v-.5-.5-.6V3h-2V243h2z"/>
      </g>
      <g class="arrows" stroke="#000" stroke-linecap="round" stroke-opacity=".9" stroke-width="2">
        <path class="arrow-down" d="M466.8 52c-4.6-1.8-18.8-9-27.4-11.2a79.2 79.2 0 00-24.2-2c-7.6.3-13.9 1.1-21.7 4.2-8 3-18.9 9.4-25.6 14.2-6.6 4.8-10 7.7-14.5 14.8-4.5 7-10 18.7-12.6 27.5a76.7 76.7 0 00-3.2 25c.2 8.4 4.3 23 5 27.2m0 0l12.3-23m-12.2 23l12.2-23m-12.2 23c5.9-11.2 9-17.2 12.2-23m-12.2 23L322.6 138m20 13.7l-20-13.7m20 13.7l-20-13.7"/>
        <path class="arrow-up" d="M373.4 191.8c4.6 1.8 18.8 9 27.4 11.2a79.2 79.2 0 0024.2 2.1c7.7-.4 13.9-1.2 21.8-4.3 7.8-3 18.8-9.3 25.5-14.2 6.7-4.8 10-7.7 14.5-14.7 4.5-7 10-18.8 12.7-27.5a76.7 76.7 0 003.2-25c-.3-8.4-5.1-24.2-5.9-28.4m0 0l-9.3 22.9m9.3-23l-9.3 23m9.3-23l-9.3 23m9.3-23l19.4 14.7M496.8 91l19.4 14.6M496.8 91l19.4 14.6"/>
      </g>
      <g class="logo">
        <path class="pair12" stroke="#000" stroke-linecap="round" stroke-opacity=".9" stroke-width="2" d="M431.5 100.2l20.8 31.3m-20.8-31.3l20.8 31.3-20.8-31.3z"/>
        <path class="pair13" stroke="#000" stroke-linecap="round" stroke-opacity=".9" stroke-width="2" d="M413.6 100l-22.4 33m22.4-33l-22.4 33 22.4-33z"/>
        <path class="pair32" stroke="#000" stroke-linecap="round" stroke-opacity=".9" stroke-width="2" d="M398.8 145.9h46.4m-46.4 0h46.4-46.4z"/>
        <g class="c3">
          <path fill="#FFB8B8" d="M382 130.1c3.3-.2 7.6 1.5 10.2 3.7 2.7 2.2 4.9 6 5.5 9.4.6 3.4-.2 7.8-2 10.7-1.6 3-5 5.8-8.2 7a17.4 17.4 0 01-10.9 0c-3.2-1.2-6.6-4-8.3-7-1.7-3-2.5-7.3-1.9-10.7.6-3.3 2.8-7.2 5.4-9.4 2.6-2.2 8.5-3.1 10.2-3.7 1.7-.6 0 0 0 .3v-.3zm0 0c3.3-.2 7.6 1.5 10.2 3.7 2.7 2.2 4.9 6 5.5 9.4.6 3.4-.2 7.8-2 10.7-1.6 3-5 5.8-8.2 7a17.4 17.4 0 01-10.9 0c-3.2-1.2-6.6-4-8.3-7-1.7-3-2.5-7.3-1.9-10.7.6-3.3 2.8-7.2 5.4-9.4 2.6-2.2 8.5-3.1 10.2-3.7 1.7-.6 0 0 0 .3v-.3z"/>
          <path fill="#FFB8B8" d="M382 130.1c3.3-.2 7.6 1.5 10.2 3.7 2.7 2.2 4.9 6 5.5 9.4.6 3.4-.2 7.8-2 10.7-1.6 3-5 5.8-8.2 7a17.4 17.4 0 01-10.9 0c-3.2-1.2-6.6-4-8.3-7-1.7-3-2.5-7.3-1.9-10.7.6-3.3 2.8-7.2 5.4-9.4 2.6-2.2 8.5-3.1 10.2-3.7 1.7-.6 0 0 0 .3v-.3zm0 0c3.3-.2 7.6 1.5 10.2 3.7 2.7 2.2 4.9 6 5.5 9.4.6 3.4-.2 7.8-2 10.7-1.6 3-5 5.8-8.2 7a17.4 17.4 0 01-10.9 0c-3.2-1.2-6.6-4-8.3-7-1.7-3-2.5-7.3-1.9-10.7.6-3.3 2.8-7.2 5.4-9.4 2.6-2.2 8.5-3.1 10.2-3.7 1.7-.6 0 0 0 .3v-.3z"/>
          <path fill="#000" fill-opacity=".9" d="M392.2 133.8l.7-.7-.7.7zm3.6 20.1l.9.5-1-.5zm-8.3 7l.3 1-.3-1zm-10.9 0l-.3 1 .3-1zm-8.3-7l-.9.5.9-.5zm3.5-20l-.6-.8.6.7zm10.3-2.8a16 16 0 019.5 3.5l1.3-1.5a18 18 0 00-11-4l.2 2zm9.5 3.5c2.4 2 4.5 5.7 5 8.8l2-.3c-.6-3.6-3-7.7-5.7-10l-1.3 1.5zm5 8.8c.6 3.1 0 7.3-1.7 10l1.8 1c1.8-3.1 2.6-7.8 2-11.3l-2 .3zm-1.7 10a16.4 16.4 0 01-7.8 6.6l.7 1.9c3.4-1.3 7-4.3 8.9-7.5l-1.8-1zm-7.8 6.6c-3 1-7.2 1-10.1 0l-.7 1.9c3.4 1.2 8 1.2 11.5 0l-.7-2zm-10.1 0c-3-1.1-6.3-3.8-7.8-6.6l-1.8 1c1.8 3.2 5.5 6.2 8.9 7.5l.7-2zm-7.8-6.6c-1.6-2.7-2.4-6.9-1.8-10l-2-.3c-.6 3.5.2 8.2 2 11.3l1.8-1zm-1.8-10c.5-3.1 2.7-6.8 5-8.8l-1.2-1.5a18.4 18.4 0 00-5.8 10l2 .3zm5-8.8c1.2-1 3.1-1.7 5.2-2.3l2.7-.7 2-.5-.6-2-1.8.6-2.9.7c-2 .6-4.3 1.4-5.8 2.7l1.3 1.5zm10-3.5l.4-.2h-.3a1 1 0 01-.3-1.8l-.5.3s-.2 0-.3.2l-.2.2-.2.6h2v.5l-.2.1.4-.2.2-.1.3-.3a1 1 0 00-.6-1.5h-.3-.1-.2l-.8.3.7 1.9zm.6-.7v-.3h-2v.3h2z"/>
        </g>
        <g class="c2">
          <path fill="#FFB8B8" d="M459.9 129.6c3.2-.2 7.6 1.6 10.2 3.8 2.6 2.1 4.8 6 5.4 9.4.6 3.3-.2 7.7-1.9 10.7-1.7 2.9-5.1 5.8-8.3 7a17.4 17.4 0 01-10.9 0c-3.2-1.2-6.6-4.1-8.3-7-1.7-3-2.5-7.4-1.9-10.7.6-3.4 2.8-7.3 5.4-9.4 2.7-2.2 8.6-3.2 10.3-3.8 1.7-.5 0 0 0 .4v-.4zm0 0c3.2-.2 7.6 1.6 10.2 3.8 2.6 2.1 4.8 6 5.4 9.4.6 3.3-.2 7.7-1.9 10.7-1.7 2.9-5.1 5.8-8.3 7a17.4 17.4 0 01-10.9 0c-3.2-1.2-6.6-4.1-8.3-7-1.7-3-2.5-7.4-1.9-10.7.6-3.4 2.8-7.3 5.4-9.4 2.7-2.2 8.6-3.2 10.3-3.8 1.7-.5 0 0 0 .4v-.4z"/>
          <path fill="#FFB8B8" d="M459.9 129.6c3.2-.2 7.6 1.6 10.2 3.8 2.6 2.1 4.8 6 5.4 9.4.6 3.3-.2 7.7-1.9 10.7-1.7 2.9-5.1 5.8-8.3 7a17.4 17.4 0 01-10.9 0c-3.2-1.2-6.6-4.1-8.3-7-1.7-3-2.5-7.4-1.9-10.7.6-3.4 2.8-7.3 5.4-9.4 2.7-2.2 8.6-3.2 10.3-3.8 1.7-.5 0 0 0 .4v-.4zm0 0c3.2-.2 7.6 1.6 10.2 3.8 2.6 2.1 4.8 6 5.4 9.4.6 3.3-.2 7.7-1.9 10.7-1.7 2.9-5.1 5.8-8.3 7a17.4 17.4 0 01-10.9 0c-3.2-1.2-6.6-4.1-8.3-7-1.7-3-2.5-7.4-1.9-10.7.6-3.4 2.8-7.3 5.4-9.4 2.7-2.2 8.6-3.2 10.3-3.8 1.7-.5 0 0 0 .4v-.4z"/>
          <path fill="#000" fill-opacity=".9" d="M470 133.4l.7-.8-.6.8zm3.6 20l.9.6-.9-.5zm-8.3 7l.3 1-.3-1zm-10.9 0l-.3 1 .3-1zm-8.3-7l-.9.6 1-.5zm3.5-20l-.6-.8.6.8zm10.3-2.8a16 16 0 019.5 3.5l1.3-1.5a18 18 0 00-10.9-4l.1 2zm9.5 3.5c2.4 2 4.6 5.7 5.1 8.8l2-.3c-.7-3.6-3-7.7-5.8-10l-1.3 1.5zm5.1 8.8c.6 3.2-.2 7.3-1.8 10l1.8 1c1.8-3 2.6-7.7 2-11.3l-2 .3zm-1.8 10a16.4 16.4 0 01-7.8 6.6l.7 1.9c3.4-1.3 7-4.3 8.9-7.4l-1.8-1zm-7.8 6.6c-3 1-7.2 1-10.1 0l-.7 1.9c3.4 1.2 8.1 1.2 11.5 0l-.7-1.9zm-10.1 0c-3-1-6.2-3.8-7.8-6.5l-1.8 1c1.9 3.1 5.5 6.1 8.9 7.4l.7-1.9zM447 153c-1.6-2.8-2.3-7-1.8-10l-2-.4c-.6 3.6.2 8.2 2 11.4l1.8-1zm-1.8-10c.6-3.2 2.7-6.8 5-8.9l-1.2-1.5a18.4 18.4 0 00-5.8 10l2 .3zm5-8.9c1.2-1 3.2-1.7 5.2-2.2l2.8-.8 2-.5-.7-2-1.8.6-2.9.7c-2 .6-4.3 1.4-5.8 2.7l1.3 1.5zm10-3.5l.5-.2s.1 0 0 0h-.1-.3a1 1 0 01-.3-1.8l-.5.3-.3.2-.2.3-.1.6h2l-.2.4v.2c-.1 0-.1 0 0 0l.3-.2.2-.2a1 1 0 00-.8-1.8l-.9.3.7 1.9zm.7-.6v-.4h-2v.4h2z"/>
        </g>
        <g class="c1">
          <path fill="#FFB8B8" d="M422 70.2c3.2-.2 7.6 1.5 10.2 3.7 2.6 2.2 4.8 6 5.4 9.4.6 3.4-.2 7.8-1.9 10.7-1.7 3-5 5.8-8.3 7a17.4 17.4 0 01-10.8 0c-3.2-1.2-6.7-4-8.4-7-1.7-3-2.4-7.3-1.9-10.7.6-3.3 2.9-7.2 5.5-9.4s8.5-3.1 10.2-3.7c1.7-.6 0 0 0 .3v-.3zm0 0c3.2-.2 7.6 1.5 10.2 3.7 2.6 2.2 4.8 6 5.4 9.4.6 3.4-.2 7.8-1.9 10.7-1.7 3-5 5.8-8.3 7a17.4 17.4 0 01-10.8 0c-3.2-1.2-6.7-4-8.4-7-1.7-3-2.4-7.3-1.9-10.7.6-3.3 2.9-7.2 5.5-9.4s8.5-3.1 10.2-3.7c1.7-.6 0 0 0 .3v-.3z"/>
          <path fill="#FFB8B8" d="M422 70.2c3.2-.2 7.6 1.5 10.2 3.7 2.6 2.2 4.8 6 5.4 9.4.6 3.4-.2 7.8-1.9 10.7-1.7 3-5 5.8-8.3 7a17.4 17.4 0 01-10.8 0c-3.2-1.2-6.7-4-8.4-7-1.7-3-2.4-7.3-1.9-10.7.6-3.3 2.9-7.2 5.5-9.4s8.5-3.1 10.2-3.7c1.7-.6 0 0 0 .3v-.3zm0 0c3.2-.2 7.6 1.5 10.2 3.7 2.6 2.2 4.8 6 5.4 9.4.6 3.4-.2 7.8-1.9 10.7-1.7 3-5 5.8-8.3 7a17.4 17.4 0 01-10.8 0c-3.2-1.2-6.7-4-8.4-7-1.7-3-2.4-7.3-1.9-10.7.6-3.3 2.9-7.2 5.5-9.4s8.5-3.1 10.2-3.7c1.7-.6 0 0 0 .3v-.3z"/>
          <path fill="#000" fill-opacity=".9" d="M432.2 74l.6-.8-.6.7zm3.5 20l.9.5-.9-.5zm-8.3 7l.4 1-.4-1zm-10.8 0l-.4 1 .4-1zm-8.4-7l-.8.5.8-.5zm3.6-20l-.7-.8.7.7zm10.2-2.8a16 16 0 019.5 3.5l1.3-1.5a18 18 0 00-10.9-4l.1 2zm9.5 3.5c2.5 2 4.6 5.7 5.1 8.8l2-.3c-.6-3.6-3-7.7-5.8-10l-1.3 1.5zm5.1 8.8c.6 3.1-.1 7.3-1.7 10l1.7 1c1.8-3.1 2.6-7.8 2-11.3l-2 .3zm-1.7 10a16.4 16.4 0 01-7.8 6.6l.7 1.9c3.4-1.3 7-4.3 8.8-7.5l-1.7-1zm-7.8 6.6c-3 1-7.2 1-10.2 0l-.7 1.9c3.4 1.2 8.1 1.2 11.6 0l-.7-2zm-10.2 0c-3-1.1-6.2-3.8-7.8-6.6l-1.7 1c1.8 3.2 5.4 6.2 8.8 7.5l.7-2zm-7.8-6.6c-1.6-2.7-2.3-6.9-1.8-10l-2-.3c-.6 3.5.3 8.2 2 11.3l1.8-1zm-1.8-10c.6-3.1 2.7-6.8 5.1-8.8l-1.3-1.5a18.4 18.4 0 00-5.7 10l2 .3zm5.1-8.8c1.1-1 3-1.7 5.1-2.3l2.8-.7 2-.5-.6-2-1.9.6-2.9.7c-2 .6-4.3 1.4-5.8 2.7l1.3 1.5zm10-3.5l.4-.2h.1a1 1 0 01-.5 0 1 1 0 01-.3-1.8s.1 0 0 0l-.4.3-.3.2s-.2.1-.2.3l-.2.5h2a.9.9 0 01-.2.6s.2 0 .3-.2l.3-.1a1 1 0 00.3-1.2 1 1 0 00-1.2-.6l-.8.3.6 1.9zm.6-.7v-.3h-2v.3h2z"/>
        </g>
      </g>
    </g>
  </g>
</svg>
