<svg class="scale" xmlns="http://www.w3.org/2000/svg" fill="none" viewBox="0 0 998 779">
  <g class="scale">
    <g >
      <path fill="#FE7F80" d="M288 236c5-2 13-2 19 0 5 2 10 6 13 11s4 14 3 19c-2 6-6 11-10 14-5 4-12 6-17 6-6 0-14-4-18-8-4-3-6-9-7-14s-1-13 3-18c3-5 14-9 17-11l2-1-5 2zm7-2c6-1 13 1 17 4 4 4 8 10 9 15 2 6 1 14-1 19-3 5-9 9-14 12-5 2-11 3-17 2-5-2-12-6-15-11s-4-13-4-18c1-6 4-12 8-16s15-5 18-6 0-2-1-1"/>
      <path class="cir27" fill="#FE7F80" d="M285 236c4-2 13-2 18-1 6 2 11 5 15 9 3 5 6 13 5 19 0 6-4 13-8 16-4 4-11 6-16 7-6 0-13-1-17-4-5-3-9-9-10-15-2-6-1-13 1-18 3-5 12-11 14-13l3-1-5 1zm23-1c4 3 9 9 11 14 3 5 5 12 3 18-1 6-6 12-11 15-4 3-12 5-18 4-5-1-10-4-14-8s-9-11-10-17c0-6 3-13 7-17 3-5 8-7 13-8 6-1 17 2 20 2s-2-2-2-2"/>
      <path fill="#000" d="M288 236v-1l1 2-1-1zm19 0l-1 1 1-1zm13 11l-1 1 1-1zm3 19h-1 1zm-10 14v1-1zm-17 6v1-1zm-25-22h1-1zm3-18l-1-1 1 1zm17-11l1 1-1-1zm2-1v1h1v-1h-1zm19 4h1-1zm9 15h1-1zm-1 19h1-1zm-46 3l1-1-1 1zm4-34l-1-1 1 1zm18-6v-1 1zm-11 1l-1-1 1 2v-1zm18-1v1-1zm20 28h1-1zm-24 23v1-1zm-17-4l-1 1 1-1zm-10-15h-1 1zm1-18h1-1zm14-13v-1 1zm3-1v1h1l-1-2v1zm18 0a1 1 0 00-1 1l1-1zm14 32h1-1zm-11 15v-1 1zm-18 4v1-1zm-14-8l-1 1 1-1zm-10-17h-1 1zm7-17l-1-1 1 1zm13-8v-1 1zm20 2v1-1zm-3-3a1 1 0 001 2l-1-2zm-17 2l8-1 9 1 1-2-10-1-9 1 1 2zm17 0c5 2 10 6 13 11l2-1c-3-5-8-10-14-12l-1 2zm13 11l3 9v9h2v-10l-3-9-2 1zm3 18c-1 5-6 10-10 14l1 1c5-3 9-9 11-15h-2zm-10 14c-4 3-11 5-16 5v2c6 0 13-2 17-6l-1-1zm-16 5l-10-3-8-4-1 1c2 2 5 4 9 5 3 2 6 3 10 3v-2zm-18-7c-3-4-5-9-6-14h-2c1 6 3 11 7 15l1-1zm-6-14v-9l2-9-1-1c-2 3-3 6-3 10v9h2zm2-18l4-3 5-3 5-2 4-2-1-2-4 2-5 2-5 4-4 3 1 1zm18-10a62 62 0 002-2 1 1 0 00-1-2v1a3 3 0 00-1 0l2 1h-1a1 1 0 010-1h-1l-1 1 1 2zm0-3l-4 2 1 2 4-2-1-2zm4 2h8l8 4 1-1c-2-2-5-4-9-4-3-1-6-2-9-1l1 2zm16 4c4 3 7 9 8 15l2-1c-1-6-5-12-9-15l-1 1zm8 15l1 9-2 9h2l2-9-1-10-2 1zm-1 18c-2 4-8 8-13 11l1 1c5-2 11-6 14-12h-2zm-13 11c-5 2-11 3-16 2l-1 2c6 1 13 0 18-3l-1-1zm-16 2l-8-4-7-7-2 1 7 8 9 4 1-2zm-15-11c-3-4-4-12-4-17h-2c0 5 1 13 4 18l2-1zm-4-17c1-6 4-12 8-15l-2-2c-4 4-7 11-8 17h2zm8-15l4-2 5-2 5-1 3-1v-2l-4 1-5 1-5 2-5 2 2 2zm17-6l2-1v-2a3 3 0 00-2-1l-1 1 1 1a1 1 0 010 1v-1 2zm-11 1l9-2 9 1 1-1-10-2-10 2 1 2zm18-1c5 2 11 4 14 9l2-1c-4-5-10-8-15-9l-1 1zm14 9l4 8 1 10h2l-1-10-4-9-2 1zm5 18c0 5-4 12-8 16l2 1c4-4 8-11 8-17h-2zm-8 16c-3 3-10 5-16 6l1 2c5-1 12-3 17-7l-2-1zm-16 6c-5 0-12-1-16-4l-1 2c5 3 12 4 18 4l-1-2zm-16-4l-6-6-3-8h-2a32 32 0 0010 16l1-2zm-9-14c-2-6-1-13 1-18h-2c-2 5-3 12-1 18h2zm1-18l7-7 4-3 3-2-1-2-3 2-4 4-8 8h2zm14-12a23 23 0 012-2h-2 1v1l1-2s0 1 0 0a1 1 0 00-1-1v1h-1l-1 1 1 2zm1-3l-5 1 1 2 5-1-1-2zm18 2l7 6 4 7 2-1-5-8-7-5-1 1zm11 13l3 9v9h2v-9l-3-10-2 1zm3 18l-4 8c-1 3-4 5-6 6l1 2 7-7c2-3 4-6 4-9h-2zm-10 14c-2 2-5 3-9 4h-9v2a32 32 0 0019-4l-1-2zm-18 4c-5-1-10-4-13-8l-2 2c4 4 9 7 15 8v-2zm-13-8c-2-2-5-4-6-7-2-3-4-6-4-9h-2c0 3 2 7 4 10l6 8 2-2zm-10-16l2-9 4-8-1-1c-2 2-4 5-5 9l-2 9h2zm6-17c4-4 8-6 13-7v-2c-6 1-11 4-14 8l1 1zm13-7h11l5 1 4 1v-2l-3-1-6-1h-11v2zm20 2h1l1-1v-1l-1-1a11 11 0 00-3-1h-1l1 2h1a9 9 0 011 1 1 1 0 010-1 1 1 0 011 0h-1v2z"/>
    </g>
    <g >
      <path fill="#FE7F80" d="M354 397c5-3 12-4 17-3 5 2 11 6 15 11 3 4 6 11 6 16 0 6-4 13-8 17-3 4-10 6-15 7-6 0-14 0-18-3-5-3-8-10-10-15-1-6-2-11 0-17 3-5 12-11 14-14l1-1-2 2zm15-3c5 0 11 3 15 8 4 4 7 11 7 17 0 5-1 12-5 16-3 5-10 9-15 11-6 1-12-1-17-4-4-2-10-7-12-12-2-6-3-14-2-19 2-5 7-9 12-12s15-4 18-5h-2"/>
      <path class="cir26" fill="#FE7F80" d="M357 395c5-2 14-2 19 0 5 3 9 8 12 13 2 5 5 12 4 17s-5 11-9 15c-5 3-13 6-19 6-5 0-11-3-15-6-4-4-8-10-9-16s0-13 3-18 13-10 16-12c2-1 0 1 0 2l-2-1zm11-2c5 0 12 6 16 10 4 5 7 11 7 16 1 6-1 12-5 17-3 4-10 10-15 11-6 1-12-3-17-6-5-2-11-6-13-11-2-6-3-14-1-20 2-5 8-9 13-12s15-4 17-5l-2 1"/>
      <path fill="#000" d="M354 397v-1l1 2-1-1zm17-3v1-1zm15 11v-1 1zm6 16h-1 1zm-8 17h1-1zm-33 4l-1 1 1-1zm-10-15l1-1-1 1zm0-17l1 1-1-1zm14-14v-1 1zm1-1l1 1v-2l-1 1zm28 7h-1 1zm7 17h-1 1zm-5 16zm-32 7h1-1zm-12-12h-1 1zm-2-19l1 1-1-1zm12-12l-1-1 1 1zm18-5v1-1zm-13 1v-1l-3 1 3 1v-1zm19 0v-1 1zm12 13v-1 1zm4 17h-1 1zm-9 15l-1-1 1 1zm-34 0l1-1-1 1zm-9-16h-1 1zm3-18l-1-1 1 1zm16-12v1-1zm0 2v1h2l-1-2-1 1zm9-4a1 1 0 000 2v-2zm23 27h1-1zm-5 17v-1 1zm-32 5l-1 1 1-1zm-1-43zm17-5v-1 1zm-3 1a1 1 0 102 0h-2zm-12 4c4-3 11-4 16-3l1-2c-6-1-13 0-18 3l1 2zm16-3c5 2 10 6 14 10l1-1c-3-5-9-9-14-11l-1 2zm14 10c3 5 6 11 6 16h2c0-6-3-12-7-17l-1 1zm6 16l-2 9-5 7 1 1a29 29 0 008-17h-2zm-7 16c-4 4-10 6-15 7v2c6-1 12-3 16-8l-1-1zm-15 7h-10c-3-1-6-1-8-3l-1 2 9 3h10v-2zm-18-3c-2-1-4-3-5-6l-4-9-1 1 3 9 6 7 1-2zm-9-15c-1-5-2-10 0-15l-1-1c-3 5-2 12 0 17l1-1zm0-15c1-3 4-5 7-8l4-4 3-2-1-2-3 3-4 4c-3 2-6 5-7 8l1 1zm14-14l1-2v-1a1 1 0 000-1h-1v1a2 2 0 00-1 0v1l2-1v1h-1v-1l-1 1 1 2zm-1-3l-1 2 1 1 2-1-2-2zm14 1l8 2 6 5 2-1a25 25 0 00-16-8v2zm14 7c4 4 7 11 7 17h2c0-6-3-14-7-18l-2 1zm7 17c0 5-1 11-4 16l1 1c4-5 5-12 5-17h-2zm-4 16l-7 6-9 4 1 2 9-5c3-1 5-4 7-6l-1-1zm-16 10c-5 1-11-1-15-3l-1 1c5 3 11 5 17 4l-1-2zm-15-3c-5-3-10-8-12-13l-2 1c3 5 8 10 13 13l1-1zm-12-13a29 29 0 01-2-17l-2-1v9l2 10 2-1zm-2-17c2-5 6-10 11-12l-1-2c-5 3-10 8-12 13l2 1zm11-12c2-2 6-3 10-3l5-1 3-1v-2l-3 1-5 1c-4 1-8 1-11 3l1 2zm18-5h1l1-1v-1h-1-1a13 13 0 00-2-1 1 1 0 00-1 1l2 1a1 1 0 01-1 0h1a11 11 0 011 1v-1a1 1 0 010-1v2zm-13 1l9-1 9 1 1-2-10-1-9 1v2zm18 0c5 2 9 8 12 12l1-1c-2-5-6-10-12-13l-1 2zm12 12c2 5 5 12 4 17h2c1-5-2-12-5-18l-1 1zm4 17c-1 5-5 11-9 14l1 2c5-4 9-10 10-16h-2zm-9 14l-8 4-10 2v2l10-2c4-1 7-2 9-4l-1-2zm-18 6c-5 0-10-3-14-6l-2 1c5 4 11 7 16 7v-2zm-14-6c-4-4-8-10-9-15h-2c1 6 5 13 9 16l2-1zm-9-15c-1-6 0-13 3-18l-2-1c-3 5-4 13-3 19h2zm3-18l8-6 4-3 3-2-1-2-3 2-4 3-9 7 2 1zm15-11h1l-1-1a4 4 0 00-1 1v1l2-1v0l1-1v-1h-1-1-1l1 2zm1 0l-3-1v2l2 1 1-2zm8-1l8 3 7 7 2-1-8-7c-3-2-6-4-9-4v2zm15 10c4 4 7 10 7 16l2-1c0-5-3-12-7-16l-2 1zm7 16c1 5-1 11-4 15l1 1c4-5 6-11 5-17l-2 1zm-4 15l-7 7-8 4v2l9-5 7-7-1-1zm-15 11l-9-2-8-3-1 1 9 4 9 2v-2zm-17-5c-5-3-10-7-12-12l-2 1c3 5 8 9 13 12l1-1zm-12-12a29 29 0 01-1-18l-2-1-1 10 2 10 2-1zm-1-18l5-7 8-5-1-1-8 5c-3 2-5 4-6 7l2 1zm13-12l9-3 4-1 3-1v-2l-3 1a161 161 0 00-14 5l1 1zm16-5h1l-1-1v-1a1 1 0 011 0h-1a18 18 0 00-2 1l-1 1h2a17 17 0 012-1h1v-1h-2v2z"/>
    </g>
    <g >
      <path fill="#FE7F80" d="M553 428c4-2 12-3 17-1 6 2 12 8 15 13s4 11 3 17c-1 5-5 12-9 15-5 4-13 6-18 6-6 0-12-1-16-4-4-4-9-11-10-17-1-5 1-12 5-17 3-5 11-11 14-13 2-2 0 0 0 1h-1zm10-2c5 0 11 3 16 7 4 4 8 11 8 17 1 5-1 12-4 16-3 5-8 11-13 12-6 2-14 2-19-1-5-2-10-8-13-13-2-5-4-12-2-17 1-5 6-10 11-14 4-4 14-7 16-7 3-1-1 2-1 2"/>
      <path class="cir25" fill="#FE7F80" d="M554 428c6-2 13-2 18 0s11 9 14 14c2 5 2 13 1 18-2 5-6 10-11 13-4 4-11 7-16 7-6-1-12-4-16-9-4-4-7-10-8-16-1-5 0-12 4-17 3-4 12-9 15-11 4-2 3 0 3 1h-4zm1-2c5-1 15 0 20 3s10 9 11 15c2 5 2 12 0 17s-5 11-10 14-14 4-20 3c-5-1-10-5-14-9s-8-9-8-14c0-6 4-13 8-18 3-4 11-9 13-11 3-1 1 1 1 2"/>
      <path fill="#000" d="M553 428l-1-1 1 2v-1zm17-1l1-1-1 1zm15 13l1-1-1 1zm3 17h-1 1zm-9 15h-1 1zm-18 6v1-1zm-26-21h-1 1zm5-17l-1-1 1 1zm14-13l-1-1 1 1zm0 1v1h1v-1h-1zm33 22l1-1-1 1zm-4 16l1 1-1-1zm-13 12l-1-1 1 1zm-32-14h1-1zm-2-17h-1 1zm11-14v1-1zm7-5v-1l1 2-1-1zm18 0l1-1-1 1zm14 14h1-1zm1 18h1-1zm-27 20v-1 1zm-16-9l-1 1 1-1zm-8-16h-1 1zm4-17v1-1zm18-10v1h2l-1-2-1 1zm-3-3a1 1 0 000 2v-2zm20 4l-1 1 1-1zm11 15l1-1-1 1zm-10 31l1 1-1-1zm-34-6l1-1-1 1zm-8-14h1-1zm21-29v-1 1zm0 2a1 1 0 002 0h-2zm-2 1c5-2 12-3 17-1l1-2c-6-2-14-1-19 1l1 2zm17-1l8 5 6 7 2-1a33 33 0 00-15-13l-1 2zm14 12c3 5 4 11 3 17h2c1-6 0-12-3-18l-2 1zm3 17c-1 5-5 11-9 15l1 1c5-3 8-11 10-16h-2zm-9 15c-2 1-5 3-8 3l-9 2v2l9-2c4-1 7-2 9-4l-1-1zm-17 5c-6 0-11-1-15-4l-1 1c4 4 10 5 16 5v-2zm-15-4a32 32 0 01-10-16h-2c0 3 2 7 4 10s4 6 7 7l1-1zm-10-16c-1-5 1-12 4-17l-1-1c-3 5-6 13-5 18h2zm4-17l7-7 4-3 3-2-1-2-3 2-4 4-7 7 1 1zm14-12l1-1h-1v-1l-1 1v1h2v-1l1-1a1 1 0 00-2-1v1h-1l1 2zm-1-1h-1l1 2h1l-1-2zm10 0l8 2 7 5 1-2-8-5-8-2v2zm15 7a31 31 0 018 16l2-1-3-9-6-8-1 2zm8 16c1 5-1 11-4 16l2 1c3-5 5-12 4-18l-2 1zm-4 16c-3 5-8 10-13 11l1 2c6-2 11-7 14-12l-2-1zm-13 11c-2 1-5 2-9 1l-9-2v2a29 29 0 0019 1l-1-2zm-18-1c-5-2-9-7-12-12l-2 1c3 5 8 11 14 13v-2zm-12-12c-2-5-4-12-2-17h-2c-2 5 0 13 2 18l2-1zm-2-17l4-7 6-6-1-2-7 7c-2 2-4 5-4 8h2zm10-13l9-5 7-2v-2l-8 2-9 5 1 2zm16-7l1-1h-1v-1 1l-1 1h-1v1l2 1v-1a20 20 0 002-1v-1-1h-1-1v2zm-8 2c5-2 12-2 17 0l1-2c-6-2-14-2-19 0l1 2zm17 0l7 6 6 7h2a33 33 0 00-14-15l-1 2zm13 13c2 6 2 13 1 18h2c1-5 1-13-1-18h-2zm1 18c-1 5-6 9-10 13l1 1c5-3 9-8 11-14h-2zm-10 13l-8 4-8 2v2l9-2 8-5-1-1zm-16 6c-5-1-12-4-16-8l-1 1c4 4 11 8 17 9v-2zm-16-8c-3-4-6-11-7-16h-2c1 6 4 13 8 17l1-1zm-7-16c-1-5 0-12 3-16l-1-1c-4 5-5 12-4 17h2zm3-16l8-7 8-4-1-2-8 5-8 7 1 1zm16-11l1-1v1l2-1c0 1 0 1 0 0v-1l-1-1h-1l-2 1 1 2zm2-1h-4l1 2h3v-2zm-3 0h10l9 3 1-2-10-3h-10v2zm19 3c5 3 10 9 11 14l2-1c-2-5-6-12-12-15l-1 2zm11 14c2 5 2 12 0 17h2c2-5 2-12 0-18l-2 1zm0 17c-2 5-5 11-9 13l1 2c5-3 8-9 10-15h-2zm-9 13c-2 2-6 3-10 3h-10v2a36 36 0 0021-3l-1-2zm-20 3c-5-1-10-5-13-9l-2 2c4 4 9 8 15 9v-2zm-13-9l-5-6c-2-2-3-5-3-7h-2c0 3 1 5 3 8l5 7 2-2zm-8-13l3-9 5-8-2-1-5 8c-2 3-3 7-3 10h2zm8-17l7-7 6-4-1-2-7 5-7 7 2 1zm13-11l-1-1v1a5 5 0 000 1h2v-1-1-1h-2l1 2z"/>
    </g>
    <g >
      <path fill="#FE7F80" d="M426 136c5-2 12 0 17 3 5 2 11 7 13 13 2 5 2 12 0 17s-6 10-11 13-13 6-18 5-11-5-14-9c-4-5-7-10-8-15 0-6 2-13 6-18 3-5 12-9 15-11 3-1 2 1 2 1l-2 1zm11-1c5 1 11 6 15 10 3 5 6 11 6 17-1 5-4 13-8 17s-9 7-15 7c-5 1-12 0-17-3s-10-10-12-15-1-11 1-16c3-5 9-11 14-14 4-3 12-3 15-3h2"/>
      <path class="cir24" fill="#FE7F80" d="M422 137c5-2 11-2 16 0 6 1 13 6 16 10 3 5 5 12 4 17-1 6-5 12-9 16-5 4-10 7-16 7-5 1-13-1-17-5-5-3-9-10-10-16-1-5 0-13 3-17 2-5 11-10 14-12 2-2 2 0 2 0h-3zm6-1c6-1 13 1 18 4s10 9 11 14c2 6 0 15-2 19-2 5-7 8-12 10-6 3-13 5-19 3-5-1-12-7-15-11-3-5-3-10-2-16 1-5 3-14 7-18s12-6 14-7c3-1 2 1 2 1"/>
      <path fill="#000" d="M426 136v-1 2-1zm17 3v-1 1zm13 13h-1 1zm-11 30l1 1-1-1zm-18 5v-1 1zm-14-9l1-1-1 1zm-8-15h-1 1zm6-18h-1 1zm15-11zm2 1l1 1h1l-1-1h-1zm24 10zm-2 34l1 1-1-1zm-15 7v-1 1zm-17-3l-1 1 1-1zm-11-31v-1 1zm14-14v1-1zm15-3v1-1zm-14 2v-1l-4 2h4v-1zm32 10l1-1-1 1zm4 17h1-1zm-9 16h-1 1zm-33 2l-1 1 1-1zm7-45l-1-1 1 1zm2 0v1h4l-3-2-1 1zm3-2a1 1 0 001 2l-1-2zm18 5l1-1-1 1zm11 14h-1 1zm-2 19l1 1-1-1zm-12 10v1-1zm-19 3v-1 1zm-15-11l1-1-1 1zm5-34l1 1-1-1zm14-7l1 1-1-1zm1 1a1 1 0 002 0h-2zm-3 2h8c3 0 6 1 8 3l1-2c-2-2-5-3-8-3h-9v2zm16 3l8 5 5 7 2-1-6-8-8-5-1 2zm13 12l1 8-1 9 2 1 1-10-1-9-2 1zm0 17c-2 5-6 9-10 12l1 2c5-3 9-8 11-13l-2-1zm-10 12l-9 4c-3 1-6 2-9 1v2c3 1 6 0 10-1l9-4-1-2zm-18 5c-2 0-5-1-7-3l-6-6-2 1c2 2 4 5 7 6 2 2 5 4 8 4v-2zm-13-9c-4-4-7-9-8-14h-2c1 5 4 11 8 15l2-1zm-8-14c0-6 2-13 6-17l-2-1c-3 4-6 12-6 18h2zm6-17l7-7 8-4-1-1-8 4-8 7 2 1zm15-11a8 8 0 011 0l-1-1v1l1 1 1-1v-1-1h-1l-2 1 1 1zm1-1l-2 1v2l3-1-1-2zm8 2c3 0 6 2 8 4 3 1 5 4 7 6l1-1c-1-3-4-5-7-7-2-2-5-4-8-4l-1 2zm15 10c3 4 6 10 6 16h2c0-6-3-13-7-17l-1 1zm6 16l-3 9-5 8 2 1a33 33 0 008-18h-2zm-8 17c-3 3-8 6-14 6l1 2c5 0 11-3 15-7l-2-1zm-14 6c-5 1-12 0-17-3l-1 2c5 3 13 4 19 3l-1-2zm-17-3l-6-6-5-8h-2l5 9 7 7 1-2zm-11-14c-2-5-1-11 1-16l-1-1c-3 6-4 12-2 17h2zm1-16l6-7 7-6-1-2a41 41 0 00-13 14l1 1zm13-13l8-2 4-1h3v-2h-3l-4 1-9 2 1 2zm15-3a26 26 0 012-1 1 1 0 010-1l-1 1h2l1-1a1 1 0 00-1-1h-1l-2 1v2zm-14 2c5-2 11-2 16 0l1-2c-6-2-12-2-17 0v2zm16 0l8 4c3 1 6 4 7 6l2-2-8-6-8-4-1 2zm15 10c3 4 5 11 4 16h2c1-6-1-13-4-18l-2 2zm4 16c0 3-2 6-3 8l-6 8 1 1 6-8c2-3 4-6 4-9h-2zm-9 16c-4 3-9 6-15 6l1 2c5 0 11-3 15-7l-1-1zm-15 6c-2 1-5 0-8-1l-9-4-1 2 9 4c3 1 7 2 10 1l-1-2zm-17-5c-4-3-8-10-9-15l-2 1c1 5 5 12 10 16l1-2zm-9-15c-1-5 0-12 2-17l-1-1c-3 5-4 13-3 19l2-1zm2-17l7-6 4-3 3-2-1-2-3 2-4 3c-3 2-6 4-7 7l1 1zm14-11l2-1h-1l1 1 1-2a1 1 0 010 1v-1-1h-2l-2 1 1 2zm2-2h-3v2h3v-2zm4 1c5-1 12 1 16 4l2-2c-5-3-13-5-19-4l1 2zm16 4c5 3 10 8 11 13h2c-2-6-7-11-11-15l-2 2zm11 13v10l-2 9 2 1 2-10v-10h-2zm-2 19c-2 5-7 7-12 9l1 2c5-2 10-5 13-10l-2-1zm-12 9c-2 2-5 3-9 3h-9v2h10l9-3-1-2zm-18 3l-8-4-6-7-2 1a33 33 0 0016 12v-2zm-14-11c-3-4-3-9-2-14l-2-1c-1 6-1 11 2 16l2-1zm-2-14l2-10 5-8-2-1-5 8-2 10 2 1zm7-18c1-2 4-3 7-4l4-2 3-1-1-2-3 1-4 2c-3 1-6 2-8 5l2 1zm14-7a11 11 0 011 0h-1v-1 1h2v-1l-1-1h-2l1 2z"/>
    </g>
    <g >
      <path fill="#FE7F80" d="M610 196c5 1 11 7 14 12s4 12 3 17-4 12-8 16c-5 4-13 5-18 6-6 0-12-1-16-4-4-4-9-11-10-17-1-5 1-12 4-17s8-11 13-13 15 1 18 1c4 1 3 2 3 2l-3-3zm-14-1c5-1 13 1 18 4s9 8 11 13 3 14 1 19c-2 6-7 11-12 14-5 2-12 3-18 2-5-1-12-5-15-9-4-4-5-10-5-15 0-6 2-15 6-19 3-5 11-6 14-7 2-1-1-2-1-2"/>
      <path class="cir23" fill="#FE7F80" d="M595 195c5-1 13 1 18 4a25 25 0 0113 30c-2 4-6 12-10 15-5 3-12 4-17 4-6-1-12-5-16-9s-8-10-8-15c-1-6 1-14 5-18 3-5 14-8 17-10h1l-3-1zm-4 2c5-2 12-2 17 0 6 1 11 5 14 9 3 5 7 12 6 18 0 5-6 12-10 16-4 3-9 6-15 7-5 0-14 0-18-3-5-3-7-9-8-15-2-6-3-14-1-19 2-6 11-10 13-12 3-2 0-1 1 0"/>
      <path fill="#000" d="M610 196v-1l-4-1 3 3 1-1zm14 12h1-1zm-5 33l-1-1 1 1zm-18 6l-1-1 1 1zm-16-4l1-1-1 1zm-10-17l-1 1 1-1zm4-17l-1-1 1 1zm13-13v1-1zm21 3l-1 1 1 1 1-2h-1zm12 13h-1 1zm-11 33l-1-1 1 1zm-18 2v1-1zm-20-24h-1 1zm20-26l-1-1 1 1zm-1-2l-1-1-2 1 2 1 1-1zm18 4zm13 29h1-1zm-43 11zm-8-15l1-1-1 1zm5-18zm17-10l-1-1 1 1zm1 0v1l1 1v-1l-1-1zm-8 0a1 1 0 001 2l-1-2zm18 1v1-1zm20 27h1-1zm-10 16v-1 1zm-15 7v-1 1zm-18-3l-1 1 1-1zm-8-15h1-1zm12-31a1 1 0 001-1l-1 1zm20-1c3 1 6 2 8 5 3 2 5 4 6 7l2-1-7-8-8-5-1 2zm14 12c3 4 4 11 3 16h2c1-5 0-12-3-17l-2 1zm3 16c-1 5-4 12-8 15l1 2c5-4 8-11 9-17h-2zm-8 15l-8 4-10 2 1 2 9-2c4-1 7-2 9-4l-1-2zm-18 6c-5 0-10-1-14-4l-1 1c4 4 10 5 16 5l-1-2zm-14-4a32 32 0 01-10-16l-2 1c0 3 2 6 4 9s4 6 7 7l1-1zm-10-16c-1-5 1-12 4-17l-2-1c-3 6-6 13-4 19l2-1zm4-17l5-7 7-5-1-2-7 6-6 7 2 1zm12-12h10l5 1h3l1-2h-4l-5-1h-11l1 2zm18 1l2 1v-1 1h2-1 1v-1l-1-1-2-1-1 2zm3 0l-3-3-1 2 3 3 1-2zm-17-2l9 1 9 3 1-2c-3-1-6-3-10-3l-9-1v2zm18 4c4 3 8 7 10 12h2c-2-6-6-11-11-14l-1 2zm10 12l2 10-1 9h2l1-9-2-10h-2zm1 19c-2 5-7 10-12 13l1 1c5-2 11-8 13-14h-2zm-12 13c-4 2-11 3-16 2l-1 2c6 1 13 0 18-3l-1-1zm-16 2l-9-3-7-5-1 1 7 5 9 4 1-2zm-16-8c-3-4-4-10-4-15h-2c0 5 1 12 5 16l1-1zm-4-15l2-10 3-9-1-1c-2 2-3 6-4 9l-2 11h2zm5-19l7-4 4-1 3-1-1-2-2 1-4 1-8 5 1 1zm14-6l1-2v-1a3 3 0 00-2-1 1 1 0 000 2l1-2a1 1 0 01-1 2 1 1 0 011 0h-1l1 2zm-1-2h9l9 3 1-1-10-4h-10l1 2zm18 3c5 3 9 8 11 13l2-1c-2-5-7-10-12-13l-1 1zm11 13c2 5 2 11 1 16h2c2-5 1-12-1-17l-2 1zm1 16l-4 8-6 7 1 2 7-8 4-9h-2zm-10 15c-4 3-11 4-16 4v2c5 0 13-1 17-4l-1-2zm-16 4c-5-1-12-4-16-8l-1 1c4 4 11 8 17 9v-2zm-16-8c-4-4-7-10-7-16l-2 1c0 6 4 12 8 16l1-1zm-7-16c-1-2 0-5 1-9 0-3 2-6 3-8l-1-1c-2 3-4 6-4 9-1 3-2 7-1 10l2-1zm4-17a119 119 0 0113-8l4-1-1-2-3 2-5 2-9 6 1 1zm17-9h1a1 1 0 010-2v1a3 3 0 00-1 0l2 1v-1h1v-1h-1-1-2l1 2zm2-1l-4-2-1 2 4 1 1-1zm-8 2c5-2 12-2 17 0l1-2c-6-2-13-2-19 0l1 2zm17 0c5 1 10 5 13 9l2-1c-4-5-9-9-14-10l-1 2zm13 9l5 8c1 3 2 6 1 9h2c1-3 0-6-1-10l-5-8-2 1zm6 17l-3 8-6 7 1 1 6-7c2-3 4-6 4-9h-2zm-9 15c-4 3-9 6-15 7l1 2c5-1 11-4 15-8l-1-1zm-15 7h-9c-3-1-7-1-9-3l-1 2c3 2 6 2 10 3h10l-1-2zm-18-3c-2-1-3-3-4-6-2-2-3-5-3-8h-2l3 9 5 7 1-2zm-7-14l-2-10 1-9-2-1-1 10 2 10h2zm-1-19l6-7 4-2 3-2-1-2-3 2-4 3-7 7 2 1zm13-11l1-1v-1a1 1 0 00-1-1 3 3 0 00-1 1v1l1-1a1 1 0 010 1h0a1 1 0 01-1-1h1-1l1 2z"/>
    </g>
    <g >
      <path fill="#FE7F80" d="M630 314c6 0 13 3 17 7s6 11 7 17c0 5-2 11-5 15-4 5-11 10-16 12-5 1-11-1-16-4-5-2-11-6-13-11s-2-13-1-19c1-5 4-12 10-15 5-3 18-2 22-3 5 0 5 2 5 3l-10-2zm-1-1c6 0 13 3 17 7s7 11 7 17c1 5 0 12-3 16-3 5-9 9-15 11-5 1-13 0-18-2-6-2-11-6-13-11s-2-13 0-18c1-6 3-13 8-16 4-4 16-5 19-5h-2"/>
      <path class="cir22" fill="#FE7F80" d="M630 313c5 1 13 4 17 8s8 10 8 16c0 5-3 13-7 17-3 5-8 9-13 10-5 2-13 1-18-1-6-3-11-9-13-14s-2-13-1-18c2-5 5-10 10-13s16-3 20-4c3-1 1-1 1-1h-4zm-12 2c5-2 13-3 19-1 5 2 10 8 13 13 3 4 5 9 4 15-1 5-5 13-9 17-5 3-12 4-17 5-6 0-11-1-15-4-4-4-8-12-10-17-1-6-1-13 1-17 3-5 12-10 15-12 2-2-1 0-1 0"/>
      <path fill="#000" d="M630 314v-1 2-1zm17 7h1-1zm7 17h-1 1zm-5 15v1-1zm-45-3h-1 1zm-1-19h-1 1zm10-15v1-1zm27 0l-1 1h2v-1h-1zm6 4l1-1-1 1zm7 17h-1 1zm-3 16h-1 1zm-15 11l1 1-1-1zm-18-2v-1 1zm-13-11h-1 1zm0-18l-1-1 1 1zm8-16l-1-1 1 1zm19-5v-1 1zm-1 1v-1 2-1zm18 41zm-13 10v1-1zm-18-1h-1 1zm-13-14h-1 1zm-1-18h1-1zm10-13l-1-1 1 1zm20-4v-1 1zm1-1v1h1l-1-1zm-16 1a1 1 0 100 2v-2zm19 0v-1 1zm13 13l1-1-1 1zm4 15h1-1zm-9 17zm-17 5l-1-1 1 1zm-15-4l-1 1 1-1zm-10-17l1-1-1 1zm1-17l-1-1 1 1zm15-12v1-1zm-2-1a1 1 0 102 1l-2-1zm13 2l9 2 8 5 1-1c-2-3-5-4-8-6l-10-2v2zm17 7c3 4 5 10 6 16h2c-1-6-3-13-7-17l-1 1zm6 16c0 5-2 10-5 15l1 1c4-5 6-11 6-16h-2zm-5 15a36 36 0 01-15 11v2l9-5 7-7-1-1zm-15 11c-5 1-11-1-16-4l-1 2c5 2 12 5 17 4v-2zm-16-4l-7-4-5-7-2 1c1 3 3 5 6 7l7 5 1-2zm-12-11l-2-8 1-9-2-1-1 10 2 9 2-1zm-1-17c1-6 4-12 9-15l-1-2c-6 3-8 11-10 16l2 1zm9-15l5-2h6l11-1v-2l-11 1h-6l-6 2 1 2zm22-3l3 1 1 1h2l-1-2-5-2v2zm5 1l-10-2v2l9 2 1-2zm-11-1a27 27 0 0117 6l1-1-8-5-10-2v2zm17 6l4 8 2 9h2l-2-10-5-8-1 1zm6 17c1 5 0 11-3 16l2 1c3-5 4-12 3-17h-2zm-3 16c-3 4-9 8-14 10l1 2c5-2 12-7 15-11l-2-1zm-14 10c-5 1-13 0-18-2l-1 2c6 2 14 3 20 2l-1-2zm-18-2c-5-2-10-6-12-10h-2c3 6 8 10 13 12l1-2zm-12-10l-1-9 1-9-2-1-1 10 1 9h2zm0-18l2-9 5-7-1-1-5 7-3 9 2 1zm7-16l5-2a47 47 0 0111-2h3v-2h-4a136 136 0 00-11 2l-5 3 1 1zm19-4a11 11 0 002-1 1 1 0 000-1l-1-1a10 10 0 00-3 1l-1 1 2 1s-1 0 0 0a11 11 0 012-1h-1a1 1 0 010-1l1-1-1 1v2zm-1 1l8 3c4 1 7 3 9 5l1-2c-2-2-5-4-9-5l-9-3v2zm17 8c4 3 7 9 7 15h2c0-6-4-13-8-17l-1 2zm7 15l-2 8-4 9 1 1 5-9 2-9h-2zm-6 17c-4 4-8 8-13 10v1c6-1 11-5 14-10l-1-1zm-13 10h-9l-9-2-1 1c3 2 6 3 10 3l9-1v-1zm-18-2c-5-3-10-8-12-13h-2c2 6 8 12 13 14l1-1zm-12-13c-2-5-2-13-1-18h-2c-1 5-1 13 1 18h2zm-1-18c2-5 5-9 9-12l-1-2c-5 3-8 9-10 14h2zm9-12c3-2 7-2 10-3l6-1h4v-2h-4l-6 1-11 3 1 2zm20-4a32 32 0 002-1h1v-1a1 1 0 00-1-1 3 3 0 00-1 0v1l1 1h-1v-1a1 1 0 010-1l-1 1v2zm1-3h-4v2h4v-2zm-16 4l9-2 9 1 1-2-10-1-9 2v2zm18-1l8 5 5 7 2-1-6-8-8-5-1 2zm13 12c3 5 5 9 4 14l2 1c1-6-1-11-4-16l-2 1zm4 14a32 32 0 01-9 17l1 1c3-2 5-5 6-8l4-9-2-1zm-9 17c-2 1-5 3-8 3l-9 2 1 2 9-2c3 0 6-2 8-4l-1-1zm-17 5c-5 0-10-1-14-4l-1 2c5 3 10 4 16 4l-1-2zm-14-4l-5-7-4-10-2 1a44 44 0 0010 18l1-2zm-9-17c-1-5-1-12 1-16l-2-1c-3 5-2 12-1 18l2-1zm1-16l3-3 4-4 4-2 3-2-1-2-3 2-4 3-4 3-4 4 2 1zm14-11a10 10 0 001-1l1-1a1 1 0 00-1-1h-1a8 8 0 00-2 1l2 1h0a1 1 0 010-1v-1 1h-1l1 2z"/>
    </g>
    <path class="n27" stroke="#000" stroke-linecap="round" stroke-width="2" d="M410 167l-96 76m94-75l-93 73 93-73z"/>
    <path class="n26" stroke="#000" stroke-linecap="round" stroke-width="2" d="M299 286l51 111m-50-110l51 109-51-109z"/>
    <path class="n25" stroke="#000" stroke-linecap="round" stroke-width="2" d="M388 434l148 15m-147-14l145 15-145-15z"/>
    <path class="n24" stroke="#000" stroke-linecap="round" stroke-width="2" d="M622 372l-42 58m43-60l-42 61 42-61z"/>
    <path class="n23" stroke="#000" stroke-linecap="round" stroke-width="2" d="M609 245l13 68m-14-67l14 69-14-69z"/>
    <path class="n22" stroke="#000" stroke-linecap="round" stroke-width="2" d="M459 158l137 38m-136-38l137 40-137-40z"/>
    <g >
      <path fill="#FE7F80" d="M151 483c6-2 15 1 20 4 5 2 8 7 10 12 3 5 4 13 3 18-2 5-6 10-11 13s-13 5-19 5c-5-1-11-4-15-8s-7-11-7-16c0-6 1-13 5-17 4-5 16-10 20-11 5-2 6 1 6 1l-12-1zm2 1c6-2 14-1 18 2a32 32 0 0113 33c-2 5-7 9-12 12-6 3-13 6-19 5s-12-7-16-11c-4-5-6-12-6-17 1-5 5-11 8-15 4-4 11-8 13-9 3-2 2 1 2 1"/>
      <path class="cir21" fill="#FE7F80" d="M168 486c6 2 11 6 14 11 2 5 3 12 2 18-1 5-6 12-10 15-5 3-12 5-17 5-6 0-12-3-16-6-3-4-7-11-8-16-1-6 0-13 3-18 2-5 7-10 13-11 7-2 19 3 23 4 5 2 5 4 4 4l-8-6zm-12-3c6-1 14 1 19 5 4 4 6 12 8 17 1 6 2 13-1 18-3 4-10 8-15 9-6 2-12 4-18 2a30 30 0 01-18-30c1-6 4-12 9-15 4-3 16-5 19-6l-2 1"/>
      <path fill="#000" d="M151 483v-1 2-1zm20 4v-1 1zm10 12h-1 1zm3 18h-1 1zm-11 13l-1-1 1 1zm-19 5v-1 1zm-15-8l-1 1 1-1zm-7-16h1-1zm5-17l-1-1 1 1zm20-11v-1 1zm6 1v1h1v-1h-1zm8 2v1-1zm11 14h1-1zm2 19h-1 1zm-12 12v1-1zm-19 5v1-1zm-1-52v-1 1zm16 2l1-1-1 2v-1zm14 11h1-1zm-8 33l-1-1 1 1zm-17 5v-1 1zm-16-6zm-8-16h1-1zm3-18l-1-1 1 1zm13-11v-1 1zm27 8v1l1 1v-1l-1-1zm-20-10a1 1 0 001 2l-1-2zm19 6l-1 1 1-1zm8 17h1-1zm-1 18h1-1zm-15 9h-1 1zm-18 2v1-1zm-14-12zm-4-18h-1 1zm9-15l-1-1 1 1zm19-6v1-1zm-2 1a1 1 0 101 1l-1-1zm-5 0h9c3 1 7 2 9 4l1-2-10-4h-10l1 2zm18 4c5 2 8 6 10 11h2c-2-6-6-10-11-13l-1 2zm10 11l3 9v9h2v-9l-3-9h-2zm3 18c-1 4-6 9-11 12l1 2c5-3 10-8 12-14h-2zm-11 12c-5 3-12 5-18 5v2c6 0 14-2 19-5l-1-2zm-18 5c-5-1-11-4-14-8l-2 2c4 4 10 7 16 8v-2zm-14-8c-4-3-7-10-7-15h-2c0 6 3 13 7 17l2-2zm-7-15c0-6 1-12 5-17l-2-1c-4 5-5 12-5 18h2zm5-17l10-6 10-4-1-2-10 4-11 7 2 1zm20-10h4v1l2-1-2-2h-5l1 2zm5-1l-11-1-1 2 12 1v-2zm-9 2l8-1 9 3 1-2-9-3-10 1 1 2zm17 2c4 3 8 8 10 14l2-1c-2-6-6-12-11-15l-1 2zm10 14l3 9-1 9 2 1 1-10-3-10-2 1zm2 18c-2 5-7 8-12 11l1 2c5-3 11-7 13-12l-2-1zm-12 11l-9 4-9 1v2l10-1 9-4-1-2zm-18 5l-8-4-7-7-2 1 7 7c3 3 6 4 10 5v-2zm-15-11c-4-5-6-11-6-16h-2c0 6 3 12 6 17l2-1zm-6-16l3-7 5-7-1-1-6 7c-1 2-3 5-3 8h2zm8-14l7-6 6-3-1-2-6 4c-3 1-6 3-7 6l1 1zm13-9v-1c1 0 1 0 0 0a7 7 0 010 1h2v-1-1l-1-1h-1l-1 1 1 2zm15 2c5 2 11 6 13 11l2-1c-3-5-9-10-14-12l-1 2zm13 11c2 4 3 11 2 16l2 1c1-6 0-13-2-18l-2 1zm2 16c-1 6-5 12-10 15l1 2c5-4 10-10 11-16l-2-1zm-10 15c-4 4-11 5-16 5v2c5 0 13-2 17-5l-1-2zm-16 5c-5 0-11-3-15-6l-1 1c4 4 10 7 16 7v-2zm-15-6c-4-3-7-10-8-15h-2c1 6 5 13 9 16l1-1zm-8-15c-1-6 0-13 3-18l-2-1c-3 6-4 13-3 19h2zm3-18c2-4 7-9 13-10l-1-2c-6 1-11 6-14 11l2 1zm13-10h5l6 1 11 3 1-2-11-3-7-1h-6l1 2zm22 4l4 3 1 1c1-1 0-4-4-6l-1 2zm5 2l-8-6-1 2 8 6 1-2zm-20-7c2-1 5 0 9 1l8 4 1-2c-2-2-5-3-9-4-3-1-7-2-10-1l1 2zm17 5c2 1 4 4 5 7l3 10 2-1-3-9c-2-4-3-7-6-9l-1 2zm8 17l1 8-2 8 2 1 2-9-1-9-2 1zm-1 16l-6 6-9 4 1 1 9-4c3-1 5-3 7-6l-2-1zm-15 10c-5 1-11 3-16 1l-1 2c6 2 12 0 18-2l-1-1zm-16 1l-8-5-6-7-1 1c1 3 3 6 6 8l8 5 1-2zm-14-12c-3-5-4-12-4-17h-2c0 5 1 13 5 18l1-1zm-4-17c1-5 4-11 8-14l-1-2c-4 4-8 10-9 16h2zm8-14l10-4 5-1 4-1-1-2-3 1-5 1-11 4 1 2zm19-6a27 27 0 001 0l1-1-1-1h-1a12 12 0 00-2 1v1l1 1h1a10 10 0 011-1 1 1 0 01-1 0v-1-1a12 12 0 01-1 0l1 2z"/>
    </g>
    <g >
      <path fill="#FE7F80" d="M353 600c6 1 13 4 17 9 3 5 4 13 3 19 0 6-3 12-7 16-4 3-11 6-17 6-6 1-12-1-17-4-4-3-8-9-9-14a26 26 0 0114-31c5-3 16-1 20-1 3 0 2 2 2 2l-6-2zm0-1c5 1 11 5 15 9 3 5 5 13 6 19 0 6-2 12-6 16s-12 6-18 7c-5 0-10-1-15-4s-12-9-14-14-1-11 1-16c3-5 9-13 14-16 5-2 14 0 17-1h1"/>
      <path class="cir20" fill="#FE7F80" d="M348 599a25 25 0 0125 21c1 5 0 12-2 17-3 5-9 11-15 13-5 2-11 2-17 0-5-2-11-7-14-12s-4-13-3-18c0-6 2-12 8-15 5-4 19-6 24-6s6 3 6 3l-12-3zm11 3c5 2 9 6 12 12 2 5 4 14 3 20-2 5-7 9-12 12s-13 5-19 4c-5 0-11-4-14-8-4-4-8-11-8-17-1-6 1-13 4-17 4-4 10-7 16-8s16 2 19 2 0-2 0-1"/>
      <path fill="#000" d="M353 600v-1 2-1zm17 9v-1 1zm-4 35h1-1zm-34 2v1-1zm-9-14l1-1-1 1zm1-18l-1-1 1 1zm13-13v1-1zm20-1v-1 1zm2 2v1h1v-1h-1zm9 6zm6 19h-1 1zm-24 23v-1 1zm-15-4l-1 1 1-1zm-13-30h-1 1zm14-16l1 1-1-1zm17-1v1-1zm-5 0v-1 2-1zm16 6l-1 1 1-1zm9 15h-1 1zm-2 17h-1 1zm-15 13v-1 1zm-31-12zm-3-18h-1 1zm8-15l-1-1 1 1zm30-3v1l1 1v-1l-1-1zm0-1a1 1 0 10-1 2l1-2zm11 13h-1 1zm3 20l-1-1 1 1zm-53-9h1-1zm39-23v-1 1zm-1-1a1 1 0 102 0h-2zm-6 0l9 3 7 6 1-2-7-6-10-3v2zm16 9l3 8v10h2v-10l-4-10-1 2zm3 18c0 5-3 11-7 15l2 1c4-4 7-10 7-16h-2zm-7 15l-7 4-9 2v2l9-2c4-1 7-3 9-5l-2-1zm-16 6c-6 1-12-1-16-4l-1 2c4 3 11 5 17 4v-2zm-16-4c-4-3-8-8-9-14l-2 1c1 6 5 12 10 15l1-2zm-9-14c-2-5-1-12 1-17l-2-1c-2 5-3 13-1 19l2-1zm1-17c2-5 7-10 12-12l-1-2c-5 2-10 8-13 13l2 1zm12-12l10-2 9 1 1-2-10-1-11 2 1 2zm19-1h3-1v1h2c0 1 0 0 0 0v-1l-1-2h-2l-1 2zm4 0l-6-2-1 2 6 2 1-2zm-7-1c5 1 11 5 14 9l1-1c-3-5-9-9-14-10l-1 2zm14 9l4 9 2 9h2a36 36 0 00-7-19l-1 1zm6 18c0 6-2 12-6 15l2 2c4-4 6-11 6-17h-2zm-6 15l-8 5-9 2v2l10-2 9-5-2-2zm-17 7c-5 0-10-1-15-4l-1 2c5 3 10 4 16 4v-2zm-15-4l-7-6-6-7h-1l5 8 8 7 1-2zm-13-13c-2-5-1-10 1-15l-2-1c-2 5-3 11 0 16h1zm1-15a41 41 0 0114-16l-1-2-8 8-7 9 2 1zm14-16l8-1h8v-2h-7l-10 1 1 2zm16-1h3a1 1 0 00-1-2 2 2 0 00-1 0 1 1 0 00-1 1l2-1a1 1 0 010 2h-1v-1-1h-1v2zm-5 0c5 0 11 3 15 6l2-2c-5-3-11-6-17-6v2zm15 6c4 3 8 9 9 14l2-1c-1-5-5-11-9-15l-2 2zm9 14c1 5 0 12-2 17l1 1c3-6 4-13 3-19l-2 1zm-2 17l-6 7-8 5 1 2 8-5 6-8-1-1zm-14 12c-5 2-11 2-16 0l-1 2c5 2 12 2 18 0l-1-2zm-16 0c-5-1-11-7-14-12l-1 1c3 6 9 11 14 13l1-2zm-14-12c-3-5-4-12-3-17h-2c-1 6 0 13 4 18l1-1zm-3-17c0-5 2-11 7-15l-1-1c-6 3-8 10-8 16h2zm7-15l12-3 12-2v-2l-12 2c-5 1-10 2-13 4l1 1zm24-5l4 1 1 1 2 1v-1-1l-1-1-6-2v2zm6 1l-12-3v2l12 3v-2zm-1 2c4 2 8 6 11 11l2-1c-3-5-8-10-12-12l-1 2zm11 11l3 10v9l2 1v-11l-3-10-2 1zm3 19c-2 5-6 9-11 12l1 2c5-3 10-7 12-13l-2-1zm-11 12a39 39 0 01-19 4v2c3 1 7 0 10-1l10-3-1-2zm-19 4c-5 0-10-4-14-8l-1 2c4 4 9 8 15 8v-2zm-14-8c-3-4-7-11-7-16h-2c0 6 4 13 8 18l1-2zm-7-16a26 26 0 014-16l-1-2c-2 2-4 5-4 9-1 3-2 6-1 9h2zm4-16l7-5 8-3v-2l-9 3c-3 1-6 3-7 5l1 2zm15-8l10 1h5l4 1v-2l-3-1h-5l-11-1v2zm19 2h1l1-1v-1-1h-2-1v1h2a1 1 0 01-1 1c1 0 1 0 0 0v-1a1 1 0 011 0h-1v2z"/>
    </g>
    <path class="n21" stroke="#000" stroke-linecap="round" stroke-width="2" d="M340 421l-159 71m160-70l-162 72 162-72z"/>
    <path class="n20" stroke="#000" stroke-linecap="round" stroke-width="2" d="M362 446l-10 152m12-154l-11 156 11-156z"/>
    <g >
      <path fill="#FE7F80" d="M594 553c5-2 14-3 20-1 5 1 11 4 14 8 3 5 4 12 4 18s-3 13-7 17c-3 4-10 8-15 8-6 1-13-1-18-4s-9-10-11-15c-1-5-1-12 1-17 3-6 12-12 14-14 3-2 1 0 1 1l-3-1zm16-2c6 1 14 6 18 10 3 4 6 9 5 14 0 6-3 15-7 19-4 5-10 6-15 7-6 1-13 0-18-2-4-3-7-7-10-12-2-5-4-13-2-18 1-6 7-11 12-13 5-3 14-3 17-4 2 0-1-2-1-1"/>
      <path class="cir19" fill="#FE7F80" d="M618 553a27 27 0 0114 29c-1 6-5 13-9 16-4 4-11 6-17 5-6 0-13-3-18-7-4-4-7-11-8-17-1-5 1-11 4-16 3-4 9-9 15-11 6-1 17 1 21 2s3 4 3 4l-5-5zm-16-1c6 0 15 1 20 4 4 2 7 7 9 12 1 5 1 14-1 19s-7 10-12 12c-5 3-12 3-18 2s-12-5-15-9-4-11-3-16c0-5 2-12 5-16 4-4 12-6 15-8h2"/>
      <path fill="#000" d="M594 553l-3 1h3v-1zm20-1v-1 1zm14 8l-1 1 1-1zm4 18h1-1zm-7 17l1 1-1-1zm-15 8v1-1zm-18-4v-1 1zm4-46l1 1-1-1zm1 1v1h2l-1-2-1 1zm36 21h-1 1zm-7 19h-1 1zm-15 7l-1-1 1 1zm-18-2v1-1zm-12-30l-1-1 1 1zm12-13l1 1-1-1zm17-4l-1-1 1 1zm8 1v-1l-1 1h1zm12 12h1-1zm2 17l1 1-1-1zm-9 16v-1 1zm-35-2l1-1-1 1zm-8-17h1-1zm4-16h-1 1zm15-11v-1 1zm24 6l-1 1h1v-1zm-21-7a1 1 0 100 2v-2zm20 5v-1 1zm9 12h-1 1zm-1 19l1 1-1-1zm-12 12v-1 1zm-18 2v-1 1zm-18-25h-1 1zm5-16h1-1zm15-8l1 1-1-1zm1 1a1 1 0 102-1l-2 1zm-8 1l9-2 9 1 1-2-11-1c-3 0-7 1-9 3l1 1zm18-1c6 1 11 4 14 8l2-1c-4-5-9-8-15-9l-1 2zm14 8c3 4 4 11 4 17h2c0-6-1-14-4-18l-2 1zm4 17c0 6-3 12-6 16l1 2c4-5 7-12 7-18h-2zm-6 16c-4 4-10 8-15 8v2c6 0 12-4 16-8l-1-2zm-15 8c-6 1-13-1-18-4l-1 2c5 3 13 5 19 4v-2zm-18-4c-4-3-8-9-10-14h-2c2 6 6 12 11 16l1-2zm-10-14c-1-5-1-12 1-17l-2-1c-2 6-2 13-1 18h2zm1-17l7-8 4-3 3-2-2-2-2 2-4 4-8 8 2 1zm14-13a12 12 0 011-1h-1a1 1 0 01-1-1v2l2-1v0a6 6 0 000-1 1 1 0 00-1-1h-1l-1 1 2 2zm0-1l-3-1v2l3 1v-2zm13-1c3 0 6 2 9 4l8 5 1-1a39 39 0 00-17-10l-1 2zm17 9c4 4 6 9 5 14h2c1-6-2-11-6-15l-1 1zm5 14a35 35 0 01-7 19l2 1 5-9 2-11h-2zm-7 19c-3 4-9 5-15 6l1 2c5-1 12-2 16-7l-2-1zm-15 6c-5 1-12 0-16-2l-1 2c5 2 12 3 18 2l-1-2zm-16-2c-5-2-8-6-10-11l-1 1c2 5 5 9 10 12l1-2zm-10-11l-2-9v-9l-2-1v10c0 4 1 7 3 10l1-1zm-2-18l4-7 8-5-1-2c-3 1-6 3-8 6-2 2-5 4-5 7l2 1zm12-12c2-2 5-2 8-3h5l3-1-1-2-2 1h-5c-3 1-7 1-9 3l1 2zm16-4h1l1-1v-1l-1-1a4 4 0 00-2 0h-1a1 1 0 000 1h1l1-1a1 1 0 010 1 1 1 0 01-1 1h1v-1h-1l1 2zm7 1c2 1 5 2 7 5l5 7 2-1-6-8-7-5-1 2zm12 12c2 5 3 11 2 16l2 1c1-6 0-13-2-18l-2 1zm2 16c-1 6-4 12-8 15l1 2c4-4 8-11 9-16l-2-1zm-8 15c-4 4-11 6-17 5v2c6 1 13-1 18-5l-1-2zm-17 5c-5 0-13-3-17-7l-1 1c4 5 12 8 18 8v-2zm-17-7c-4-4-7-11-8-16h-2c1 6 4 13 9 17l1-1zm-8-16c-1-5 1-11 4-15l-2-1c-3 4-5 11-4 16h2zm4-15c3-5 8-9 14-11v-2c-7 2-12 7-16 12l2 1zm14-11l11 1 10 1v-2l-10-1-11-1v2zm21 2l2 1v1l1 1h1v-2l-4-3v2zm3 2l-5-5-1 1 5 6 1-2zm-21-4l10 1c4 0 7 1 9 3l1-2c-2-2-6-3-10-3l-10-1v2zm19 4c5 2 7 6 9 11h2c-2-6-5-10-10-13l-1 2zm9 11l1 10-2 9 2 1 2-10-1-10h-2zm-1 19c-2 5-6 9-11 11l1 2c5-2 10-7 12-12l-2-1zm-11 11c-5 2-12 3-18 2v2c6 1 13 1 19-2l-1-2zm-18 2l-8-3-6-6-2 2 7 5 9 4v-2zm-14-9c-3-3-4-10-3-15h-2c-1 5 0 12 3 17l2-2zm-3-15l1-8 4-8-1-1-5 8-1 9h2zm5-16l7-4 4-2 4-1-1-2-3 2-4 1-8 5 1 1zm15-7h1l-1-1s0-1 0 0v1l2-1a1 1 0 00-1-1h-1-1l1 2z"/>
    </g>
    <path class="n19" stroke="#000" stroke-linecap="round" stroke-width="2" d="M573 477l28 75m-27-75l28 73-28-73z"/>
    <path class="n18" stroke="#000" stroke-linecap="round" stroke-width="2" d="M323 631l-91 63m92-63l-91 65 91-65z"/>
    <path class="n17" stroke="#000" stroke-linecap="round" stroke-width="2" d="M348 654l-3 75m4-74l-3 73 3-73z"/>
    <path class="n16" stroke="#000" stroke-linecap="round" stroke-width="2" d="M371 637l46 80m-44-79l45 77-45-77z"/>
    <g >
      <path fill="#FE7F80" d="M439 712c5 2 11 8 13 13 3 6 4 13 2 18-1 6-5 11-10 15-4 3-11 5-17 4-6 0-13-3-17-7s-6-10-7-16c0-5 1-13 4-17 3-5 10-9 15-10 6-1 16 2 20 2 3 1 2 1 2 2l-5-4zm0 0c5 2 12 7 15 12 2 5 1 13-1 18-2 6-6 14-10 17s-10 3-15 2c-6 0-13-2-17-6-4-3-6-11-7-17 0-6 2-13 5-17 3-5 7-8 12-9s15 2 18 2c3 1 0 0 0 0"/>
      <path class="cir18" fill="#FE7F80" d="M426 712c5-1 13 1 18 4s9 8 10 13c2 5 1 13-2 18-2 5-8 10-13 13-5 2-11 3-16 2-5-2-11-5-15-10-3-4-6-12-5-17 0-6 4-12 8-16 5-5 15-7 19-9 3-1 4 1 4 1l-8 1zm10 0c5 1 13 6 15 11 3 5 4 11 3 17-1 5-5 11-9 15-5 4-11 9-16 9-6 0-12-3-16-7s-8-11-9-16c-1-6 1-12 3-16 3-5 8-11 13-13s16 0 18 0c3 0-2-1-2-1"/>
      <path fill="#000" d="M439 712v-1l-1 2 1-1zm13 13h1-1zm2 18l1 1-1-1zm-10 15v-1 1zm-34-3l1-1-1 1zm12-43v-1 1zm20 2v1-1zm2 2h-1l1 1v-1zm9 26h-1 1zm-10 17l-1-1 1 1zm-39-21h1-1zm5-17l-1-1 1 1zm30-7v-1 1zm-13-2v-1 2-1zm18 4v1-1zm10 13h1-1zm-2 18h1-1zm-13 13v-1 1zm-16 2v1-1zm-12-43v-1 1zm19-9v1-1zm4 1v1h1v-1h-1zm3 0a1 1 0 10-1 2l1-2zm14 12zm-6 32v1-1zm-16 9v1-1zm-25-23h-1 1zm31-30a1 1 0 102 0h-2zm3 2l8 5 5 8 2-1-6-8c-2-3-5-5-8-6l-1 2zm13 13c3 5 4 12 2 17l2 1c2-6 1-14-2-19l-2 1zm2 17c-1 5-5 11-9 14l1 1c5-3 9-9 10-14l-2-1zm-9 14c-4 3-11 5-17 4v2c6 1 13-1 18-5l-1-1zm-17 4c-5 0-12-3-16-7l-1 2c4 4 11 7 17 7v-2zm-16-7c-4-3-6-9-7-15h-2c1 6 3 13 8 17l1-2zm-7-15l1-9c0-3 1-6 3-8l-2-1-3 9-1 9h2zm4-17c3-4 9-8 15-9l-1-2c-6 1-12 5-16 10l2 1zm15-9l10 1 5 1h4v-2h-4l-5-1c-4-1-8-2-11-1l1 2zm19 2a16 16 0 011 1v-1-1 1l1 1h1v-1l-1-1-2-1v2zm2 0l-5-4-1 2 5 3 1-1zm-6-2a29 29 0 0115 12l1-1-6-8-9-5-1 2zm15 12l1 8-2 9 2 1 2-10c0-3 0-6-2-9l-1 1zm-1 17l-4 9-6 7 2 2 6-8 4-9-2-1zm-10 16c-3 3-9 3-14 2v2c5 1 11 1 16-2l-2-2zm-14 2l-9-1-8-4-1 1 8 5 10 1v-2zm-17-5l-4-8-2-9h-2l2 10 5 8 1-1zm-6-17c0-5 2-13 5-17l-2-1c-3 5-5 12-5 18h2zm5-17c2-4 6-7 11-8v-2c-6 1-10 4-13 9l2 1zm11-8h10l5 1 3 1v-2h-3l-5-1c-4-1-8-2-10-1v2zm18 2a19 19 0 002 0 1 1 0 000-2h-1-1-1a1 1 0 000 1h2a1 1 0 010 1h-1a4 4 0 011 0 1 1 0 010-2h-1v2zm-13-2c3-1 6 0 9 1l9 3 1-2a33 33 0 00-19-4v2zm18 4c4 3 8 8 9 13l2-1c-1-5-5-11-10-14l-1 2zm9 13c2 4 1 11-1 16l1 1c3-5 4-13 2-18l-2 1zm-1 16c-3 5-8 10-13 13l1 2c5-3 11-9 13-14l-1-1zm-13 13c-5 2-11 3-16 2v2c5 1 12 0 17-2l-1-2zm-16 2c-5-2-11-5-14-10l-2 2c4 4 10 8 16 10v-2zm-14-10a28 28 0 01-5-16l-2-1 1 10 4 9 2-2zm-5-16c0-6 4-12 8-16l-1-1c-5 4-9 11-9 16l2 1zm8-16l9-5 9-3-1-2-9 3-9 6 1 1zm18-8h5l-1-2h-5l1 2zm4-1l-8 1v2l8-1v-2zm2 3l8 4 7 6 1-1-7-7-8-4-1 2zm15 10c2 5 3 11 2 17h2c1-6 0-13-3-18l-1 1zm2 17c-1 5-5 11-9 15l1 1c5-4 9-10 10-16h-2zm-9 15l-7 5-8 3v2l9-3 7-6-1-1zm-15 8l-8-2c-3-1-6-3-7-5l-2 2 8 5 9 2v-2zm-15-7a31 31 0 01-9-16l-2 1 3 9 6 8 2-2zm-9-16c-1-5 1-10 3-15l-1-1c-3 5-5 11-4 17l2-1zm3-15l6-7 7-5-1-2-8 5-5 8 1 1zm13-12l9-1h5l3 1v-2h-3l-5-1-10 1 1 2zm17 0h1l1-1a1 1 0 000-1h-1v-1h-1-2-1v1h2l-1 1h1a7 7 0 011 0 1 1 0 010-1v2z"/>
    </g>
    <g >
      <path fill="#FE7F80" d="M218 688c5 0 13 3 17 7s8 11 9 16c0 6-1 13-4 17-3 5-9 9-15 11-5 2-12 2-17 0s-10-7-13-12-4-12-3-17c1-6 5-13 10-16 6-4 18-4 23-5 4 0 4 2 4 3l-11-4zm8 3c5 1 10 5 13 9s4 12 4 18c-1 6-3 13-7 17-5 4-14 6-19 6-6 0-12-2-16-5-4-4-9-10-10-15-1-6 0-15 3-20 3-6 9-10 15-11 6-2 16-1 19-1 3 1-1 2-1 2"/>
      <path class="cir17" fill="#FE7F80" d="M222 689c6 1 12 4 16 8s6 11 5 16c0 6-2 12-5 17-4 4-10 9-15 11-6 1-13 0-18-3s-9-9-11-14-3-11-1-17c2-5 6-12 11-15s16-2 20-3c4 0 2 0 2 1l-4-1zm2 1c6 1 12 5 15 9s4 11 4 17c-1 5-4 12-8 17-4 4-9 7-14 8-6 0-14-2-19-5s-9-8-11-14c-1-5 1-13 4-18 2-5 6-10 11-13 5-2 16-3 19-3 2 0-2 2-2 3"/>
      <path fill="#000" d="M218 688v-1 2-1zm17 7h1-1zm-10 44v-1 1zm-30-12l1-1-1 1zm-3-17h1-1zm10-16v-1 1zm23-5v1-1zm4 3l1 1v-1h-1zm10 8l-1 1 1-1zm4 18h-1 1zm-7 17l-1-1 1 1zm-35 1l1-1-1 1zm-7-35l-1-1 1 1zm34-12v1-1zm-6 0v-1 2-1zm21 24h1-1zm-5 17zm-15 11l-1-1 1 1zm-18-3l1-1-1 1zm-1-46v1-1zm20-3v1-1zm2 1v1h1v-1h-1zm-1-1a1 1 0 10-1 2l1-2zm14 10l1-1-1 1zm4 17h1-1zm-8 17h1-1zm-14 8l-1-1 1 1zm-19-5v1-1zm4-45l1 1-1-1zm19-3v1-1zm-3 3a1 1 0 102 0h-2zm-4-2l8 2 8 5 2-1a32 32 0 00-18-8v2zm16 7c4 4 8 10 9 15h2c-1-6-5-12-9-16l-2 1zm9 15c0 6-1 12-4 17l1 1c4-5 5-12 5-18h-2zm-4 17c-3 4-9 8-14 10l1 2c5-2 11-6 14-11l-1-1zm-14 10c-5 2-12 2-17 0l-1 2c6 2 13 2 19 0l-1-2zm-17 0c-5-2-10-7-12-12l-2 1c3 5 8 11 13 13l1-2zm-12-12c-3-5-4-11-3-16l-2-1c-1 6 0 13 3 18l2-1zm-3-16c1-5 5-12 10-15l-1-2c-6 4-10 11-11 16l2 1zm10-15c2-2 6-3 11-4l11-1-1-2-10 1c-5 1-10 2-12 4l1 2zm22-5l3 1 2 1-1-3-5-1 1 2zm4 1l-11-4v2l11 3v-1zm-4 1c5 1 11 4 13 9l2-2c-3-4-9-7-14-9l-1 2zm13 9c3 4 4 11 4 17h2c0-6-1-14-4-19l-2 2zm4 17l-2 9c-1 3-3 6-5 7l1 2c3-2 4-5 6-8l2-10h-2zm-7 16c-2 2-5 4-9 4l-9 2v2l10-2c4-1 7-2 9-4l-1-2zm-18 6c-6 0-11-2-15-5l-1 2c4 3 10 5 16 5v-2zm-15-5c-4-3-9-9-10-15l-2 1c1 6 6 12 11 16l1-2zm-10-15a32 32 0 013-19l-2-1c-2 3-3 6-3 10v11l2-1zm3-19c2-5 9-9 14-11v-1c-6 1-13 6-16 11l2 1zm14-11h19v-2h-9c-3-1-7 0-10 1v1zm19 0c0 1 0 0 0 0v-1 1h-1a8 8 0 00-1 1l2 1 1-1h1v-2h-1l-1-1v2zm-6 0c3 0 6 1 8 3 3 1 6 3 7 5l2-1c-2-3-5-5-8-6l-9-3v2zm15 8c4 4 6 10 5 15h2c1-5-2-12-5-16l-2 1zm5 15c0 5-2 12-5 16l1 1c4-4 6-11 6-17h-2zm-5 16l-7 7-8 4 1 2 8-5c3-2 6-4 7-7l-1-1zm-15 11c-5 1-12 0-16-3l-1 2c5 3 12 4 18 3l-1-2zm-16-3c-5-2-9-8-11-13l-2 1c2 5 7 11 12 14l1-2zm-11-13c-2-5-3-11-1-16l-2-1c-2 6-1 12 1 18l2-1zm-1-16l4-9 6-6-1-2-7 7-4 9 2 1zm10-15c3-2 7-2 11-2l5-1h4v-2h-4l-6 1c-3 0-8 0-11 2l1 2zm20-3a35 35 0 012 0 1 1 0 010-1h-1v1h2l1-1h-1v-1h-3v2zm2-1l-4-1v2l4 1v-2zm-2 2c5 1 11 5 14 9l2-2c-3-4-10-8-15-9l-1 2zm14 9c3 4 4 10 4 16h2c0-6-1-13-4-18l-2 2zm4 16c-1 5-4 12-8 16l2 1c3-4 7-11 8-17h-2zm-8 16c-4 4-8 7-14 8l1 2c5-1 11-4 15-9l-2-1zm-14 8l-8-1c-4-1-7-2-9-4l-1 2a34 34 0 0019 5l-1-2zm-17-5c-5-3-10-8-11-13h-2c2 6 7 12 12 15l1-2zm-11-13l1-9 3-9-2-1c-1 3-3 6-3 10l-1 9h2zm4-18c2-5 6-9 11-12l-1-1c-5 2-10 7-12 12l2 1zm11-12l9-2 9-1v-2l-9 1c-3 0-7 1-10 3l1 1zm18-3v-1h-1l-1 1v1l-1 1h3l1-1v-1l1-1h-1v-1h-1v2z"/>
    </g>
    <g >
      <path fill="#FE7F80" d="M343 725c5 1 12 5 16 9s6 11 6 16c0 6-2 13-6 17-3 4-10 8-16 9-5 1-12 1-17-2s-10-9-12-14-1-12 1-17 5-11 10-14c6-3 19-3 23-3s4 3 4 3l-9-4zm3 0c5 0 9 5 12 9 3 5 6 14 6 19 0 6-1 10-5 14-3 4-11 9-16 10-6 1-12-2-17-5-4-3-9-9-11-14s-3-12-1-16c2-5 7-10 12-13 5-2 15-2 18-3 3 0 1 1 1 1"/>
      <path class="cir16" fill="#FE7F80" d="M336 726c6-1 13 0 17 3 5 3 9 8 11 14 1 5 0 13-2 18s-6 10-11 13-12 4-18 3c-5-2-12-6-15-10-3-5-4-12-4-17 0-6 1-13 5-17 5-4 17-7 21-8s3 1 3 2l-7-1zm-5 0c5-2 12-2 17 0s10 7 12 12c3 5 5 14 4 19-1 6-4 11-9 15-4 3-11 4-16 4-6 0-12-1-16-5s-8-11-9-17c-1-5 1-12 3-17 3-5 10-10 12-12 3-2 3 2 3 3"/>
      <path fill="#000" d="M343 725v-1l-1 2 1-1zm16 9l-1 1 1-1zm6 16h1-1zm-6 17l1 1-1-1zm-16 9l1 1-1-1zm-17-2v1-1zm-12-14h-1 1zm1-17h1-1zm33-17v1-1zm4 3v1l1 1v-2h-1zm6 5l-1 1 1-1zm1 33h-1 1zm-16 10l-1-1 1 1zm-17-5l1-1-1 1zm-11-14h-1 1zm11-29l1 1-1-1zm18-3v1-1zm-8 0v-1 2-1zm17 3l1-1-1 1zm11 14h-1 1zm-2 18h1-1zm-11 13l1 1-1-1zm-18 3l1-1-1 1zm-15-10h-1 1zm-4-17h-1 1zm29-23v1h1v-1h-1zm-12-2a1 1 0 100 2v-2zm17 1v-1 1zm12 12l1-1-1 1zm4 19l1 1-1-1zm-9 15h1-1zm-16 4v1-1zm-16-5l-1 1 1-1zm-9-17h-1 1zm3-17l1 1-1-1zm12-12l1 1-1-1zm2 3a1 1 0 102 0h-2zm12-2l8 3 7 6 2-1a31 31 0 00-17-10v2zm15 9c4 4 6 10 6 15h2c0-5-2-12-6-16l-2 1zm6 15c0 6-2 12-6 17l2 1c4-5 6-12 6-18h-2zm-6 17c-3 4-9 7-15 8l1 2c5-1 12-5 16-9l-2-1zm-15 8c-5 1-12 1-16-2l-1 2c5 3 12 3 18 2l-1-2zm-16-2c-3-1-5-3-7-6l-5-7h-2l5 9 8 6 1-2zm-12-13c-2-5-1-12 1-17h-2c-2 5-3 12-1 17h2zm1-17c1-5 5-10 10-13l-1-2c-6 3-9 10-11 15h2zm10-13l11-2 11-1v-2l-11 1-12 2 1 2zm22-3l3 1v1h2l-1-2-4-2v2zm4 1l-9-4-1 2 10 4v-2zm-7-2c5 0 9 4 12 9l2-1c-3-5-8-10-13-10l-1 2zm12 9c2 2 3 6 4 9l2 9h2l-2-10c-1-3-2-7-4-9l-2 1zm6 18c0 6-1 10-5 14l2 1c4-4 5-9 5-15h-2zm-5 14a35 35 0 01-16 9l1 2c3 0 6-2 9-4l8-6-2-1zm-16 9c-5 1-11-1-15-5l-1 2c4 3 11 6 17 5l-1-2zm-15-5c-5-3-9-9-11-14l-2 1c3 5 7 12 12 15l1-2zm-11-14c-2-5-3-11-1-15l-2-1c-2 5-1 12 1 17l2-1zm-1-15l4-7 8-5-1-2-8 6-5 7 2 1zm12-12l9-2h5l3-1v-2l-4 1h-4l-10 2 1 2zm17-3a9 9 0 011 0 1 1 0 010-1v1h-1l2 1 1-1-1-1v-1h-2v2zm-8 0c6-1 13 0 17 3l1-2c-5-3-12-4-18-3v2zm17 3c4 2 8 8 10 13h2c-2-6-6-12-11-15l-1 2zm10 13c1 5 0 12-2 17l2 1c2-5 3-13 2-18h-2zm-2 17c-2 6-6 11-10 13l1 2c5-3 9-8 11-14l-2-1zm-10 13c-5 3-12 4-17 3l-1 2c6 1 14 0 19-3l-1-2zm-17 3l-9-4-6-6-2 1 7 7 9 4 1-2zm-15-10c-3-4-4-11-4-16h-2c0 5 1 13 4 17l2-1zm-4-16l1-9 4-7-2-2-4 9-1 9h2zm5-16l4-3 6-2 10-4v-1a123 123 0 00-17 5l-5 3 2 2zm20-9h2v2h2v-1-1l-2-2-2 1v1zm3 1l-7-1v2l7 1v-2zm-12 1c5-2 12-2 16 0l1-2c-5-2-12-2-17 0v2zm16 0c5 2 10 6 13 11l1-1c-2-5-8-10-13-12l-1 2zm13 11l2 10 1 9 2 1-1-11c0-3-1-7-3-10l-1 1zm3 19c-1 6-4 11-8 14l1 1c4-3 8-9 9-14l-2-1zm-8 14l-8 3-8 1v2l9-1 8-4-1-1zm-16 4c-6 0-12-1-15-5l-2 2c5 4 11 5 17 5v-2zm-15-5l-6-7-3-9h-2l3 10 6 8 2-2zm-9-16c-1-5 1-12 3-16l-1-1c-3 5-5 11-4 17h2zm3-16l6-7c2-3 5-4 6-5l-1-2a47 47 0 00-12 13l1 1zm12-12l1 1v1h2v-1l-1-2-1-1h-2l1 2z"/>
    </g>
    <g >
      <path fill="#FE7F80" d="M715 364c-2-5-3-13-1-18 1-6 5-11 10-14 4-3 11-5 16-5 6 1 13 4 17 8s7 10 7 15c1 6-1 13-4 18-3 4-10 8-15 9-5 2-12 2-18-1-5-3-12-13-14-16-2-4 0-5 1-5l1 9zm-3-2c-2-5-1-13 1-18 3-6 9-13 14-15 5-3 11-2 17 0 5 1 13 3 16 8 4 4 6 12 6 18-1 5-5 12-9 16s-10 7-15 7c-6 0-13-1-18-4-4-3-8-12-9-14l-2-1"/>
      <path class="cir15" fill="#FE7F80" d="M713 357c-1-5 0-12 2-17 3-4 8-9 13-11 6-2 14-2 20 0 5 1 11 6 13 11 3 4 4 11 3 17-1 5-3 12-8 16-4 3-12 5-18 6-6 0-12-2-16-6s-9-14-10-18c-2-4 1-5 2-5l-1 7zm-1 3c-2-5-1-12 1-17s8-10 13-13c5-2 13-5 19-4 6 2 11 6 15 11 3 5 6 13 6 19-1 5-4 10-8 14s-10 9-16 9c-6 1-15-1-20-4-4-3-6-11-8-14l-1-2"/>
      <path fill="#000" d="M715 364h-1 2-1zm9-32l-1-1 1 1zm16-5v-1 1zm17 8h-1 1zm7 15h-1 1zm-4 18l1 1-1-1zm-15 9v-1 1zm-18-1l1-1-1 1zm-14-16l1-1-1 1zm1-5h1v-2l-2 1 1 1zm-1-11l-1-1 1 1zm14-15zm17 0v-1 1zm16 8l1-1-1 1zm6 18h1-1zm-9 16h-1 1zm-15 7v1-1zm-18-4l1-1-1 1zm-9-14zm-2-3h-1 2-1zm2-17l1 1-1-1zm13-11l1 1-1-1zm20 0v-1 1zm16 28h-1 1zm-26 22v-1 1zm-16-6l-1 1 1-1zm-10-18h-1 1zm2-5h1v-2l-2 1 1 1zm-2 11a1 1 0 101-1l-1 1zm54-5h-1 1zm-8 14h-1 1zm-16 9v-1 1zm-20-4l1-1-1 1zm-8-14l-1 1 1-1zm-1-1a1 1 0 10-1-2l1 2zm3 3l-2-8 1-9h-2a30 30 0 001 18l2-1zm-1-17c1-5 5-11 9-14l-1-1c-5 3-9 9-10 15h2zm9-14c4-3 11-4 16-4v-2c-5 0-12 2-17 5l1 1zm16-4c6 1 12 4 16 7l2-1c-5-4-12-7-18-8v2zm16 7c4 4 7 10 7 15h2c0-6-3-12-7-16l-2 1zm7 15v9l-4 8 2 2 3-9 1-10h-2zm-4 17c-3 5-9 8-14 9v2c6-1 13-5 16-9l-2-2zm-14 9c-6 2-12 2-17-1l-1 2c6 3 13 3 18 1v-2zm-17-1c-3-1-6-4-8-8l-6-8-2 1 6 9 9 8 1-2zm-14-16l-1-3h1l-1-2-2 1 1 5 2-1zm-1-4l1 9h2l-1-9h-2zm0 6l-1-8 2-9-2-1-2 10 1 9 2-1zm1-17a34 34 0 0113-15v-1l-9 6-6 9 2 1zm13-15c5-2 11-1 17 0v-1c-5-2-12-3-17 0v1zm17 0l8 3c3 2 6 3 7 5l2-1-8-5-9-3v1zm15 8l5 8 1 9 2 1c0-3 0-7-2-10-1-4-2-7-4-9l-2 1zm6 17l-3 9-6 8 1 1 6-8 4-9-2-1zm-9 17c-4 3-9 6-15 6l1 2c5 0 11-3 15-7l-1-1zm-15 6c-5 0-12-1-16-4l-2 1c5 4 13 5 19 5l-1-2zm-16-4l-6-7-2-4-2-2-1 1 1 2 2 4 6 7 2-1zm-10-13l-1-2h-1-1v1a2 2 0 001 1l1-1-1 1 1 1 1-1zm-1-4c-1-4 0-11 2-15l-1-1c-3 4-4 12-3 17l2-1zm2-15c3-5 8-9 13-11l-1-2c-6 2-11 7-13 12l1 1zm13-11l9-2 9 2 1-2-10-2-10 2 1 2zm18 0c6 1 11 6 13 10l2-1c-3-5-8-9-14-11l-1 2zm13 10c3 5 4 11 3 17h2c1-6 0-13-3-18l-2 1zm3 17c-1 5-3 11-7 15l1 1c5-4 7-11 8-16h-2zm-7 15l-9 4-9 2v2l10-2 9-5-1-1zm-18 6c-6 0-11-2-15-6l-2 2c5 4 11 6 17 6v-2zm-15-6c-2-2-5-5-6-9l-4-9-2 1 4 9 6 10 2-2zm-10-18l-1-1 1-1 1-1-1-2-2 1-1 2 1 3 2-1zm0-4l-1 6 2 1 1-7h-2zm0 10l-1-8 2-9h-2a25 25 0 000 18l1-1zm1-17c2-4 7-9 13-12l-1-2c-6 3-12 8-14 14h2zm13-12l9-3 9-1v-2l-10 1-9 3 1 2zm18-4c5 1 11 6 14 11l2-1c-4-5-10-10-16-12v2zm14 11a33 33 0 016 18h2l-2-10-4-9-2 1zm6 18c-1 5-4 10-8 14l2 1c4-4 7-9 8-15h-2zm-8 14c-4 3-10 8-15 8v2c6-1 13-5 17-9l-2-1zm-15 8c-3 1-7 0-10-1l-9-3-1 1c2 2 6 3 9 4 4 1 8 2 11 1v-2zm-19-4l-5-7-2-3-1-3-2 1 2 3 1 3c2 3 3 6 6 7l1-1zm-8-13l-2-2s1 0 0 0v1l-1-2v1c-1 0 0 0 0 0v1l1 2 2-1z"/>
    </g>
    <path class="n15" stroke="#000" stroke-linecap="round" stroke-width="2" d="M656 338l56 9m-58-7l60 7-60-7z"/>
    <path class="n14" stroke="#000" stroke-linecap="round" stroke-width="2" d="M870 389l38 59m-37-57l38 56-38-56z"/>
    <path class="n13" stroke="#000" stroke-linecap="round" stroke-width="2" d="M767 352l74 7m-73-8l75 7-75-7z"/>
    <path class="n12" stroke="#000" stroke-linecap="round" stroke-width="2" d="M750 329l81-43m-80 42l78-43-78 43z"/>
    <g>
      <path fill="#FE7F80" d="M827 273c0-5 3-12 7-16s11-7 17-8c5 0 12 2 17 5 4 3 9 9 11 14 1 6 1 13-2 19-2 5-8 10-13 12s-12 3-18 2c-5-2-10-6-13-11-4-6-5-17-6-21 0-4 3-3 3-3l-3 7zm-1 7c-1-5 1-12 4-17s7-11 12-13 12-3 18-1c5 2 12 8 15 13 4 5 6 12 5 17 0 6-4 13-9 16-4 4-10 5-16 6-5 0-14-1-18-4-5-4-9-14-10-16-2-3 0 2 1 1"/>
      <path class="cir14" fill="#FE7F80" d="M827 280c-1-5 0-14 3-19s9-9 15-11c5-1 12-1 17 1 6 2 11 6 14 11s4 13 2 19c-1 6-5 11-9 14-4 4-10 7-15 7-6 0-13-3-17-7-5-5-9-16-11-21-1-4 2-6 3-6l-2 12zm2 3c-2-5-2-14 0-19s7-10 12-13c5-2 14-4 19-2 6 1 11 6 14 11 3 4 5 11 5 17-1 6-5 14-9 18s-8 5-13 6c-6 0-14 0-19-3s-8-14-10-17-1 0-1 1"/>
      <path fill="#000" d="M827 273h-1l2 1-1-1zm7-16l1 1-1-1zm34-3v-1 1zm11 14h1-1zm-2 19h1-1zm-13 12v1-1zm-31-9h-1 1zm-3-24h2l-1-1-1 1zm12-16l1 1-1-1zm33 12v1-1zm5 17h-1 1zm-9 16v-1 1zm-34 2l-1 1 1-1zm-10-16h-1 1zm0-1l-1 1 2-1h-1zm3-19l1 1-1-1zm15-11v1-1zm31 12l1-1-1 1zm2 19zm-9 14h-1 1zm-15 7v1-1zm-28-28h-1 1zm3-6h1v-1h-1v1zm-1 15a1 1 0 002 0h-2zm1-19h-1 1zm12-13l-1-1 1 1zm19-2l1-1-1 1zm14 11l1-1-1 1zm5 17h1-1zm-9 18l-1-1 1 1zm-13 6l-1-1 1 1zm-31-19a1 1 0 102-1l-2 1zm2-9l2-8 5-7-2-1-5 7-2 9h2zm7-15c4-4 11-7 16-8v-2c-6 1-13 5-18 9l2 1zm16-8c5 0 12 2 16 5l1-2c-5-3-11-5-17-5v2zm16 5c5 3 9 8 11 13h2c-2-6-7-11-12-15l-1 2zm11 13c1 6 1 13-2 18l2 1c3-5 3-13 2-19h-2zm-2 18c-2 5-8 10-12 12v2c6-3 11-8 14-13l-2-1zm-12 12c-5 2-12 3-17 2l-1 2c6 1 13 0 18-2v-2zm-17 2c-5-2-10-6-14-11l-1 1c3 6 9 10 14 12l1-2zm-14-11l-3-11-2-9h-2l2 10 4 11 1-1zm-5-20v-2h2l1-2h-1a4 4 0 00-2 0l-1 1-1 3h2zm1-4l-3 8 2 1 3-8-2-1zm-2 15l1-8c0-3 2-6 3-8l-2-1c-1 2-3 5-3 8-1 3-2 7-1 9h2zm4-16c3-5 7-11 12-13l-1-2c-5 3-10 9-13 14l2 1zm12-13c4-2 11-3 16-1l1-2c-6-2-13-1-18 1l1 2zm16-1l9 5 7 8 1-1a43 43 0 00-16-14l-1 2zm16 13c3 5 5 11 4 16h2c1-5-1-12-5-17l-1 1zm4 16l-3 9-5 6 1 2 6-8c2-2 3-6 3-9h-2zm-8 15c-4 4-10 5-16 6v2c6-1 13-2 17-6l-1-2zm-16 6l-9-1-9-3-1 2 9 3 10 1v-2zm-18-4l-6-8-2-5-1-3-2 1 1 3 2 5c2 3 4 7 7 9l1-2zm-9-16a11 11 0 00-1-1 1 1 0 00-1 0 1 1 0 00-1 1v1a9 9 0 002 2h1l-1-2a1 1 0 011 0 8 8 0 01-1-1v1a1 1 0 01-1 0c-1 0-1 0 0 0l2-1zm0 0v-9l3-9-1-1-4 10v10l2-1zm3-18c3-5 9-9 14-11l-1-2c-5 2-11 7-14 12l1 1zm14-11c5-1 12-1 17 1l1-2c-6-2-13-2-19-1l1 2zm17 1c5 2 11 6 13 10l2-1c-3-5-9-9-14-11l-1 2zm13 10l3 9v10h1a33 33 0 00-2-20l-2 1zm3 19c-2 5-6 10-10 14l2 1c4-3 8-9 9-15h-1zm-10 14c-4 3-9 6-14 6v2c5 0 12-3 16-7l-2-1zm-14 6c-5 0-12-3-17-7l-1 1c5 5 12 8 18 8v-2zm-17-7l-6-10-4-10h-2l4 11 7 10 1-1zm-10-20l1-4a3 3 0 011-1v-2h-1v1l-2 1-1 5h2zm1-6l-2 12h2l2-12h-2zm2 15a32 32 0 010-19h-2l-1 9 1 10h2zm0-19c2-5 6-9 11-12l-1-2c-5 3-9 8-12 14h2zm11-12a31 31 0 0119-2l1-2h-11l-10 2 1 2zm19-2c5 1 10 6 13 10l2-1c-3-5-9-10-14-11l-1 2zm13 10c3 5 5 11 5 17h2c1-6-2-13-5-18l-2 1zm5 17l-3 9-6 8 2 2 6-9 3-10h-2zm-9 17c-3 4-7 5-13 6l1 2c5-1 10-2 14-6l-2-2zm-13 6h-9c-3-1-6-1-8-3l-2 2c3 2 7 2 10 3h10l-1-2zm-17-3l-3-3-3-5-2-5-2-4-2 1 2 4 2 5 3 5 3 4 2-2zm-10-17l-1-1h-1-1v1a4 4 0 000 2l2-1v-1 1h-1l2-1z"/>
    </g>
    <g>
      <path fill="#FE7F80" d="M897 463a27 27 0 0128-20c5 1 12 5 16 9 4 3 7 9 7 15 0 5-1 13-4 17-4 5-10 10-15 11-6 2-12 1-17-2-5-2-11-7-13-13s-1-16-1-21c0-4 2-5 2-4l-3 8zm0 15c-1-5 0-14 3-19 2-5 7-10 12-12s10-3 15-1c5 1 12 4 16 8 3 4 5 11 5 16 0 6-2 13-6 17s-12 7-18 7c-5 1-11 1-16-2s-11-12-12-14c-2-3 2-1 3-1"/>
      <path class="cir13" fill="#FE7F80" d="M897 471c-1-5 2-12 5-17 3-4 9-9 14-10 6-1 14 0 19 2 5 3 9 8 11 13 2 6 3 13 1 19-1 5-7 11-11 14-5 3-11 4-16 3-6-1-14-4-18-8-4-5-5-15-6-18-1-4 0-4 1-4v6zm2 9c-2-5-3-12-2-17 2-5 7-10 11-13 5-4 12-7 17-7 6 0 13 5 16 9 4 4 5 10 6 15 0 6 1 14-3 19-3 4-11 6-16 8-5 1-11 2-15-1-5-2-11-10-14-12-2-2-1 1-1 1"/>
      <path fill="#000" d="M897 463h-1l2 1-1-1zm10-14h1-1zm34 3l1-1-1 1zm3 32v1-1zm-15 11l-1-1 1 1zm-17-2v1-1zm-13-13h-1 1zm-1-21h1-1zm2-4h1l1-1h-1l-1 1zm0 4l1 1-1-1zm12-12v1-1zm15-1l1-1-1 1zm16 8l1-1-1 1zm5 16h1-1zm-6 17l-1-1 1 1zm-18 7l1 1-1-1zm-16-2v1-1zm-11-21h-1 2-1zm5-17h-1 1zm14-10v-1 1zm19 2v1-1zm11 13zm-10 33v1-1zm-16 3v-1 1zm-18-8l1-1-1 1zm-6-18h-1 1zm1-4h1v-1h-1v1zm1 15a1 1 0 002-1l-2 1zm10-30h1-1zm17-7v1-1zm22 24h-1 1zm-3 19v-1 1zm-31 7l-1 1 1-1zm-14-12zm-1 2a1 1 0 100-2v2zm0-20l4-7c1-3 4-5 6-7l-1-1-7 7c-2 2-4 5-4 8h2zm10-14c4-3 11-5 16-5v-2c-6 0-12 2-17 6l1 1zm16-5l9 3c3 2 6 3 7 5l2-1a31 31 0 00-18-9v2zm16 8c4 4 7 10 7 15h2c0-6-3-12-7-16l-2 1zm7 15c0 5-1 12-4 17l1 1c4-5 5-13 5-18h-2zm-4 17c-3 4-10 9-15 10l1 2c6-2 12-6 15-11l-1-1zm-15 10c-5 2-11 1-16-2v2c5 3 11 4 17 2l-1-2zm-16-2c-4-2-10-7-12-12h-2c3 6 8 12 14 14v-2zm-12-12l-1-11v-10h-2v10l1 11h2zm-1-21l1-3v-1s0 1 0 0l1-1h-1-1l-1 1-1 4h2zm0-5l-3 9 2 1 3-9-2-1zm-1 24v-9c0-4 1-7 3-9l-2-1c-2 2-3 6-3 10v10l2-1zm3-18c2-5 7-10 11-12v-2c-5 3-11 7-13 13l2 1zm11-12c5-2 10-3 15-1l1-2c-6-2-12-1-16 1v2zm15-1l8 2 7 5 2-1-8-5-8-3-1 2zm15 7c3 4 5 11 5 16h2c0-6-2-13-5-17l-2 1zm5 16l-2 9-4 7 2 2 4-9 2-9h-2zm-6 16c-1 2-4 4-7 5l-10 2 1 2 9-2c4-1 7-3 9-5l-2-2zm-17 7c-5 1-11 1-15-2l-1 2c5 3 11 3 17 2l-1-2zm-15-2c-3-1-5-4-8-7l-4-7-2 1 5 7 8 8 1-2zm-12-14h-1s1 0 0 0v1h3v-2h-1-1-1-1v2l2-1zm1-6c-1-5 2-12 5-16l-2-1c-3 4-6 12-5 17h2zm5-16c3-5 8-9 14-10l-1-2c-6 1-11 6-15 11l2 1zm14-10h9l9 2 1-1c-3-2-6-3-10-3h-10l1 2zm18 2c4 3 8 8 10 13l1-1c-2-5-5-11-10-13l-1 1zm10 13l2 9-1 8 2 1 1-10-3-9-1 1zm1 17c0 3-2 6-4 8l-7 6 1 2a31 31 0 0012-15l-2-1zm-11 14c-4 3-10 3-15 3l-1 2c6 1 12 0 17-3l-1-2zm-15 3l-9-3-8-5-1 1c2 3 5 4 8 6l9 3 1-2zm-17-8c-2-2-3-5-4-9l-1-5-1-4-2 1 1 4 1 5 5 9 1-1zm-6-18v-1-1s-1 0 0 0v-2l-2 1v4l2-1zm-1-3v6h2v-6h-2zm4 14c-2-4-3-11-2-16h-1c-2 5-1 12 1 17l2-1zm-2-16c2-4 7-9 11-13l-1-1c-5 3-10 8-11 14h1zm11-13l8-4 8-2v-2l-9 2-8 5 1 1zm16-6c3 0 6 1 8 3l8 5 1-1a30 30 0 00-17-9v2zm16 8c3 4 4 10 5 15h2c-1-5-2-12-6-16l-1 1zm5 15v10l-2 8 1 1c2-2 3-5 3-9v-10h-2zm-2 18l-7 5-9 3v2l9-3c4-1 7-3 8-6l-1-1zm-16 8c-6 1-10 2-15 0l-1 1c5 3 11 2 16 1v-2zm-15 0l-4-3-3-4-4-4-2-2-1 1 2 3 3 4 4 4 4 2 1-1zm-13-13l-1-1h-1l-1 1v1a4 4 0 000 1v1h1v-2a1 1 0 011 0 1 1 0 01-1 0h1l1-1z"/>
    </g>
    <g>
      <path fill="#FE7F80" d="M838 370c-1-5 1-13 4-18s9-9 14-11c5-1 13-2 19 0 5 2 10 8 13 13a28 28 0 01-8 33c-4 3-10 4-16 4s-14-2-18-6c-4-5-6-16-7-20v-5l-1 10zm3-15c1-5 6-11 11-14s12-4 17-2c6 2 13 8 17 13 3 4 6 11 5 16 0 6-3 13-7 17-4 3-10 5-16 6-6 0-14 0-19-3s-9-10-11-15c-1-6 2-13 2-16l1-3"/>
      <path class="cir12" fill="#FE7F80" d="M840 375c-2-5-2-12 0-17 1-5 5-11 10-14s12-6 18-5a30 30 0 0118 43c-3 5-10 7-15 9-6 1-14 2-19-1s-10-13-13-16c-2-3-1-3 0-3l1 4zm-1-1c-2-5-2-13 0-18 2-6 8-12 13-14 6-3 12-4 17-2 5 1 12 4 16 9 3 5 4 13 4 19s-1 10-4 14c-4 5-11 10-17 11s-12-3-17-6-11-12-13-14l2 2"/>
      <path fill="#000" d="M838 370h-1 2-1zm18-29v-1 1zm33 30h1-1zm-43 14h-1 1zm-7-20h-1 1zm0-5h1v-1h-1v1zm13-19v1-1zm17-2v1-1zm17 13h-1 1zm5 16h-1 1zm-23 23v1-1zm-30-18l1-1-1 1zm2-16h-1 1zm0 18l-1 1 2-1h-1zm0-17l-1-1 1 1zm10-14l-1-1 1 1zm18-5v-1 1zm15 10h-1 1zm7 15h-1 1zm-4 18l1 1-1-1zm-15 9v-1 1zm-19-1l-1 1 1-1zm-13-16zm0-3h1l-1-1h-1l1 1zm0 3a1 1 0 001-1l-1 1zm0-18l-1-1 1 1zm13-14v-1 1zm17-2v-1 1zm16 9l-1 1 1-1zm4 19h1-1zm-4 14l1 1-1-1zm-17 11v-1 1zm-30-20l-1 1 1-1zm2 3a1 1 0 100-2v2zm-1-6l1-9 3-9-2-1-3 9c-1 4-2 7-1 10h2zm4-18c3-4 8-8 13-10v-2c-6 2-11 6-15 11l2 1zm13-10a31 31 0 0118 0l1-2-10-1-9 1v2zm18 0c5 2 10 7 13 12l2-1c-3-5-8-10-14-13l-1 2zm13 12c2 5 3 12 2 17h1c2-5 1-12-1-18l-2 1zm2 17c-2 5-5 12-9 15l1 1c4-3 8-10 9-16h-1zm-9 15c-4 3-10 4-16 4v2c6 0 12-1 17-5l-1-1zm-16 4l-9-1-8-5-2 1c3 3 6 4 9 5l10 2v-2zm-17-6l-5-9-1-6-1-4h-2l1 4 1 6 5 10 2-1zm-7-19l-1-4v-2l-1 1-1 1 1 4h2zm-2-5l-1 10h2l1-10h-2zm3-5a30 30 0 0111-13l-1-2-7 7-4 8h1zm11-13c5-3 12-4 17-2l1-2c-6-2-14 0-19 2l1 2zm17-2l9 5 7 7 1-1a43 43 0 00-16-13l-1 2zm16 12c3 5 6 11 5 16h2c1-6-2-12-6-17l-1 1zm5 16l-2 9-5 7 1 1a28 28 0 008-17h-2zm-7 16c-4 3-9 5-15 6v2c6-1 12-3 16-7l-1-1zm-15 6h-10c-3 0-6-1-8-3l-2 2c3 2 7 2 10 3h10v-2zm-18-3c-3-1-5-4-7-6l-4-9-2 1 4 9 7 7 2-2zm-11-15v-8l1-4 1-3h-2l-1 2-1 5v9l2-1zm2-15v-2-1 1c-1 0 0 0 0 0v-2h-1l-1 1v3h2zm0 18c-2-5-2-12 0-17l-2-1c-2 6-2 14 0 19l2-1zm0-17c1-5 5-10 10-13l-2-2c-4 4-9 9-10 14l2 1zm10-13l8-4 8-1 1-2-10 1-9 4 2 2zm16-5c3 0 6 2 8 3l7 6 2-1-7-6c-3-2-6-4-9-4l-1 2zm15 9c4 5 6 10 7 15h2c-1-6-3-11-7-16l-2 1zm7 15l-1 10c0 3-1 6-3 8l2 1 3-9 1-10h-2zm-4 18c-3 4-9 6-14 8v2c6-2 12-4 16-9l-2-1zm-14 8l-10 1-9-2-1 2 10 2 10-1v-2zm-19-1l-7-8-3-4-2-4-1 1 2 4 3 4c2 4 4 7 7 9l1-2zm-12-16l-1-1v-1a1 1 0 010 1l-1-2s1 0 0 0l-1 1 1 2 1 1 1-1zm-2-2l1 5 2-1-1-4h-2zm2 2c-2-5-2-12 0-17l-2-1c-2 6-2 14 1 19l1-1zm0-17l5-8 8-6-1-1a36 36 0 00-14 14l2 1zm13-14c5-2 11-3 16-1v-2c-5-2-12-1-17 2l1 1zm16-1l8 3c3 1 5 3 7 6l1-2-7-6-9-3v2zm15 9l3 8 1 10h2l-1-10-4-10-1 2zm4 18c0 6-1 10-4 14l2 1c3-4 4-9 4-15h-2zm-4 14l-7 6-9 4v2l10-4 8-7-2-1zm-16 10c-3 0-6 0-9-2l-8-4-1 2 9 4 9 2v-2zm-17-6l-7-7-3-4-2-2-2 1 2 3a162 162 0 0011 11l1-2zm-12-13a12 12 0 00-1-1 1 1 0 00-1 1v1a9 9 0 002 2h1v-2h-1a10 10 0 01-1-2v1a1 1 0 01-1 1l2-1z"/>
    </g>
    <path class="n11" stroke="#000" stroke-linecap="round" stroke-width="2" d="M885 349l69-27m-71 26l70-24-70 24z"/>
    <g>
      <path fill="#FE7F80" d="M463 33c-2-5-1-12 2-17 2-5 9-11 14-13s12-1 18 0c5 2 10 6 13 11s5 12 4 18c-1 5-4 11-8 15-4 3-12 6-18 7-5 0-11-1-15-5-5-4-10-15-12-19-2-3 0-3 1-3l1 6zm0 5c-2-5-3-13-1-18 1-5 7-10 12-12 5-3 12-6 18-5 5 0 11 3 15 7s8 9 8 15c0 5-3 14-6 19-4 4-10 7-15 9-6 1-12 2-17 0-5-3-11-13-13-16l2 1"/>
      <path class="cir11" fill="#FE7F80" d="M463 34c-1-4-1-12 1-17 3-5 8-11 13-14 5-2 12-1 17 0 6 2 11 5 15 10 3 4 6 12 6 18 0 5-3 11-8 14-4 4-11 9-17 10-6 0-12-2-16-5-5-4-10-13-12-16s0-1 0-1l1 1zm0-16c1-5 8-11 13-14s11-4 16-2c6 1 13 4 16 9 4 4 5 13 5 19 0 5-1 10-4 14-4 4-11 10-17 11s-12-3-17-6-11-8-13-13 1-14 1-16c1-3 1-1 2-1"/>
      <path fill="#000" d="M463 33h-1 2-1zm2-17h1-1zm14-13V2v1zm35 29h-1 1zm-8 15h1-1zm-18 7v-1 1zm-26-27h1v-2l-1 1v1zm0-7l-1-1 1 1zm12-12zm18-5V2v1zm15 7v1-1zm8 15h1-1zm-6 19zm-32 9l-1 1 1-1zm-13-16h1-1zm-1-3l-1 1 2-1h-1zm1-17l1 1-1-1zm13-14zm17 0v1-1zm15 10l1-1-1 1zm6 18h1-1zm-25 24v-1 1zm-28-21l1-1-1 1zm0-1l1-1h-1v1zm0-15a1 1 0 002 0h-2zm14-14v1-1zm37 26h1-1zm-21 25v1-1zm-30-19h-1 1zm1-16h1-1zm2 0a1 1 0 100-2v2zm-1 13c-2-5-1-12 2-17l-2-1c-3 6-4 13-2 18h2zm2-17l6-7 7-5V2l-9 6-6 7 2 1zm13-12c5-2 12-1 17 0l1-2c-5-1-13-2-18 0v2zm17 0c5 2 10 6 13 11l2-1c-3-5-9-10-14-12l-1 2zm13 11c3 4 5 12 4 17h2c1-6-1-13-4-18l-2 1zm4 17c-1 5-3 10-7 14l1 1c4-3 7-9 8-15h-2zm-7 14l-9 4-9 3v2a36 36 0 0019-8l-1-1zm-18 7c-5 0-10-1-15-5l-1 2c5 4 11 5 16 5v-2zm-15-5l-6-9-5-9-2 1 5 9 7 10 1-2zm-11-18l-1-2s1 0 0 0h1v-2h-1l-1 1v4l2-1zm-1-3l1 6h2l-1-6h-2zm3 10l-2-8 1-9-2-1-1 10 3 9 1-1zm-1-17c1-5 6-9 11-12l-1-1c-5 3-10 7-12 12l2 1zm11-12c5-2 12-5 18-4V2c-6-1-14 2-19 5l1 1zm18-4c5 0 11 3 15 7l1-2c-4-3-10-7-16-7v2zm15 7c3 4 7 9 7 14h2c0-6-4-12-8-16l-1 2zm7 14c0 3 0 6-2 9-1 4-2 7-4 9l1 1a36 36 0 007-19h-2zm-6 18c-4 4-9 7-15 9l1 2c5-2 12-5 15-10l-1-1zm-15 9l-8 1c-3 1-6 0-8-1l-1 2c3 1 6 2 9 1l9-1-1-2zm-16 0l-3-3a46 46 0 01-7-9l-2-3-1 1 1 3a125 125 0 007 9l4 4 1-2zm-12-15a17 17 0 010-1 1 1 0 01-2 1l1 1 1 1 1-2-1-1h-1v-1a1 1 0 00-1 1 1 1 0 000 1l1 1 1-1zm-1-3c-1-4-1-11 1-16l-2-1c-2 5-3 13-1 18l2-1zm1-16a31 31 0 0112-14V3c-3 1-6 3-8 6l-6 8 2 1zm12-14c5-2 12-1 17 0l1-2c-6-1-13-2-18 1v1zm17 0c5 2 11 5 14 9l2-1c-4-5-10-8-15-10l-1 2zm14 9a32 32 0 016 18h2l-2-10-4-9-2 1zm6 18c0 5-3 10-7 14l1 1c4-4 8-9 8-15h-2zm-7 14a37 37 0 01-17 9v1c3 0 7-1 10-3l8-6-1-1zm-17 9c-5 0-11-2-16-5l-1 2c5 3 11 5 17 4v-1zm-16-5l-6-8-3-4-2-4-2 2 2 3 3 4 7 9 1-2zm-11-16a34 34 0 01-1-1v1a1 1 0 01-1 0v1a3 3 0 001 0v-2l-1-1a1 1 0 00-1 1 1 1 0 000 1l1 2 2-2zm-2 1l1 1 2-1-1-2-2 2zm3-16c0-2 2-5 5-7l7-6-1-2-8 6-5 9h2zm12-13c5-3 11-4 16-2l1-2c-6-2-12-1-18 2l1 2zm16-2l9 3 6 5 2-1-8-6c-2-2-6-3-8-3l-1 2zm15 8c2 2 3 6 4 9l1 10h2l-1-10-4-10-2 1zm5 19c0 5-1 10-4 14l2 1c3-5 4-10 4-15h-2zm-4 14l-7 6-9 4v2l10-4 8-7-2-1zm-16 10c-3 0-6 0-8-2l-9-4-1 2 9 4c3 2 6 2 9 2v-2zm-17-6l-7-6-5-6h-2c1 3 3 6 6 8l7 6 1-2zm-12-12v-9l1-4v-3l-2-1v3l-1 5v9h2zm1-16a9 9 0 011-1h-1-1l1 1h1v-2l-1-1-1 1-1 1 2 1z"/>
    </g>
    <path class="n10" stroke="#000" stroke-linecap="round" stroke-width="2" d="M605 197l14-122m-16 120l16-121-16 121z"/>
    <path class="n9" stroke="#000" stroke-linecap="round" stroke-width="2" d="M413 141c-16-14-82-72-99-85m97 86l-96-85 96 85z"/>
    <path class="n8" stroke="#000" stroke-linecap="round" stroke-width="2" d="M445 135l36-84m-35 85l36-83-36 83z"/>
    <path class="n7" stroke="#000" stroke-linecap="round" stroke-width="2" d="M285 236l-78-116m76 116l-75-118 75 118z"/>
    <path class="n6" stroke="#000" stroke-linecap="round" stroke-width="2" d="M268 251l-87-53m88 54l-87-55 87 55z"/>
    <path class="n5" stroke="#000" stroke-linecap="round" stroke-width="2" d="M271 266l-95 9m96-8l-95 10 95-10z"/>
    <path class="n4" stroke="#000" stroke-linecap="round" stroke-width="2" d="M280 282l-74 56m75-55l-75 54 75-54z"/>
    <g>
      <path fill="#FE7F80" d="M594 42c1-5 6-11 11-14s13-6 18-5c6 0 11 4 15 8s8 12 8 18c1 5-3 12-7 17-3 4-9 8-14 9-6 1-12-1-17-3-5-3-11-6-12-11-2-6 0-19 1-23s2-3 2-3l-5 7zm0 4c1-5 5-13 9-17s10-5 15-5 12 1 17 5c4 3 8 11 10 17 1 5 0 10-3 14-2 5-7 11-12 13s-13 3-18 2c-6-2-13-7-16-12s-2-13-2-16v-1"/>
      <path class="cir10" fill="#FE7F80" d="M593 47c0-6 5-11 9-15s11-9 16-9c5-1 11 2 16 6 4 3 9 9 11 14 1 6 0 13-3 18-2 5-8 10-13 13-5 2-12 3-17 1-5-1-11-6-14-11-3-6-3-19-3-23 0-5 3-5 4-4l-6 10zm-1 9c-1-6 3-15 6-20s7-8 12-10 13-4 18-2c5 1 10 6 12 12 3 5 5 13 5 19-1 5-4 11-8 14-4 4-11 6-16 6-6 0-13-1-18-5-4-3-8-12-10-15-1-3 1 0 2 0"/>
      <path fill="#000" d="M594 42h-1 2-1zm11-14v-1 1zm18-5v1-1zm15 8l1-1-1 1zm8 18h1-1zm-21 26v1-1zm-17-3l1-1-1 1zm-11-34h1-1zm2-3l1 1h1l-1-1h-1zm4-6l1 1-1-1zm15-5v1-1zm17 5v-1 1zm10 17l1-1-1 1zm-15 27l-1-1 1 1zm-18 2v-1 1zm-16-12v1-1zm-2-16h-1 1zm-1 0h-1 2-1zm9-15h1-1zm32-3l1-1-1 1zm11 14h1-1zm-16 31v-1 1zm-30-37h1v-1h-1v1zm-8 19a1 1 0 102-1l-2 1zm7-20l-1-1 1 1zm30-12zm12 12zm5 19h-1 1zm-8 14h-1 1zm-16 6v1-1zm-18-5v1-1zm-10-15h-1 1zm2 1a1 1 0 00-1-2l1 2zm0-14l4-7c2-3 4-5 7-6l-1-2-7 6-5 9h2zm11-13a33 33 0 0117-5v-2c-2-1-6 0-9 1-4 1-7 2-9 4l1 2zm17-5c5 0 10 4 14 8l2-2c-4-4-10-8-16-8v2zm14 8l6 8 2 9h2c0-4-1-7-3-10l-5-9-2 2zm8 17c0 2 0 5-2 8l-4 8 1 1 5-8c2-3 2-6 2-9h-2zm-6 16c-4 4-10 8-14 9v2c5-1 12-5 15-10l-1-1zm-14 9c-5 1-11-1-16-3l-1 2c5 2 11 4 17 3v-2zm-16-3l-8-4c-2-2-4-4-4-7l-2 1 5 7 8 5 1-2zm-12-11l-1-5v-6l2-11h-2l-2 11v6l1 6 2-1zm1-22v-2h1l1-1v-1h-2l-1 1-1 3h2zm1-3l-6 6 2 1 5-6-1-1zm-4 11l3-9 6-7-1-2a33 33 0 00-10 18h2zm9-16c4-4 9-5 14-5v-2c-5 0-11 1-15 5l1 2zm14-5c5 0 12 1 16 4l1-1c-4-4-12-5-17-5v2zm16 4l6 8 4 9 2-1a38 38 0 00-11-17l-1 1zm10 17c1 5 0 10-3 14l2 1c3-5 4-10 3-16l-2 1zm-3 14c-2 4-7 10-12 12l1 2c5-3 11-8 13-13l-2-1zm-12 12c-5 2-12 3-17 2v2c5 1 13 0 18-2l-1-2zm-17 2l-8-5-7-6-1 1 7 7 9 5v-2zm-15-11l-2-9v-4-3h-2v7c0 4 1 7 3 10l1-1zm-2-16a25 25 0 00-1-2 1 1 0 00-1-1 1 1 0 00-1 1 2 2 0 001 1 1 1 0 001 0l-1-1h1a1 1 0 01-2 1v-1 1l1 1h2zm-1 0c0-3 1-5 3-8l6-7-2-1-6 7-3 9h2zm9-15l7-5 8-3v-2l-9 3-8 6 2 1zm15-8c5-1 11 2 15 6l2-2c-5-3-11-7-17-6v2zm15 6c3 1 5 3 7 6l4 7h2l-5-8-6-7-2 2zm11 13c1 5 0 13-2 17l1 1c3-5 4-12 3-18h-2zm-2 17c-3 5-8 10-13 13l1 2c5-3 11-8 13-14l-1-1zm-13 13c-5 2-12 3-17 1v2c5 2 13 1 18-1l-1-2zm-17 1c-5-1-10-5-13-11l-2 1c3 6 9 10 15 12v-2zm-13-11l-2-11-1-11h-2l1 11 2 12 2-1zm-3-22l1-3h2v-2h-3c-1 1-2 2-2 5h2zm2-5l-6 10 2 1 6-10-2-1zm-5 19c0-2 0-5 2-9l4-10-2-1-4 10-2 11 2-1zm6-19c2-4 7-7 11-9v-2c-5 2-10 5-13 10l2 1zm11-9l9-3h9l1-1-10-1-9 3v2zm18-3c5 2 9 7 12 12l1-1c-2-5-7-11-12-12l-1 1zm12 12a39 39 0 014 19h2l-1-10-4-10-1 1zm4 19c-1 5-4 10-8 14l2 1c4-3 7-9 8-15h-2zm-8 14c-4 3-10 5-16 5l1 2c5 0 12-2 17-6l-2-1zm-16 5c-5 0-12-1-16-5l-1 2c4 3 12 5 18 5l-1-2zm-16-5l-6-7-2-5-2-3-2 1 2 3 2 5 7 8 1-2zm-10-15a1 1 0 01-1 1 11 11 0 001 1h1l-1-2a1 1 0 011 0h-1v-1h-1a1 1 0 00-1 1v1l2-1z"/>
    </g>
    <g>
      <path fill="#FE7F80" d="M943 308c0-5 3-12 7-17 3-5 9-9 14-10 5-2 12 1 17 3 5 3 10 7 12 12s2 14 1 19c-2 6-5 11-10 14-4 3-13 4-19 3-5-1-11-3-15-8-3-5-6-18-7-23s2-6 2-5l-2 12zm2 1c-1-5-1-13 2-17 3-5 10-8 15-9 5-2 11-2 16 1 5 2 13 6 16 11s3 12 2 17a30 30 0 01-28 20c-6 0-13-2-17-5-4-4-6-14-7-17l1 1"/>
      <path class="cir9" fill="#FE7F80" d="M944 316c-2-5 0-14 2-19 2-6 5-11 10-14 5-2 12-2 18-1s12 4 15 8c4 4 6 12 6 18 0 5-3 12-6 17-4 4-9 7-15 8-5 1-13 0-18-4s-11-15-13-19c-2-5 1-6 1-6v12zm1-15c2-6 4-14 9-17 5-4 14-4 20-3s12 4 15 8 5 12 5 18c1 5-1 12-4 16s-9 8-14 9c-6 1-14 0-19-3-5-2-10-7-12-12s-1-15-1-17c0-3 1-1 1-1"/>
      <path fill="#000" d="M943 308h-1 2-1zm7-17v1-1zm14-10v1-1zm20 48l1 1-1-1zm-19 3v1-1zm-22-31h-1 1zm2-5h1v-1l-1 1zm2-4l-1-1 1 1zm31-8v-1 1zm-27 43h-1 1zm-7-17l-1 1 1-1zm0 6h-1 2-1zm2-19l-1-1 1 1zm28-15v-1 1zm15 8v1-1zm0 35zm-15 8v1-1zm-31-23h-1 1zm1-6h1v-1h-1v1zm0-4a1 1 0 002 1l-2-1zm30-19v1-1zm15 8h-1 1zm5 18h1-1zm-4 16h1-1zm-14 9v1-1zm-19-3l1-1-1 1zm-12-12l1-1-1 1zm0-17a1 1 0 100-2v2zm-1 8l2-8 4-8-1-2-5 9-2 9h2zm6-16l7-7c2-2 5-3 7-3v-2c-3 0-6 2-8 4l-7 6 1 2zm14-10h8l8 3 1-2-8-3h-9v2zm16 3c5 3 10 6 12 11l2-1c-3-5-8-9-13-12l-1 2zm12 11l2 9-1 10h2a36 36 0 00-1-20l-2 1zm1 19c-1 5-5 11-9 13l1 2c5-3 8-9 10-15h-2zm-9 13c-2 2-6 3-9 3h-10v2h10c4 0 7-1 10-3l-1-2zm-19 3c-5-1-10-3-14-7l-1 1c4 5 9 7 15 8v-2zm-14-7l-4-12-3-11h-2l3 12 5 12 1-1zm-7-23v-4h1l1-2h-2l-1 1-1 5h2zm0-5l-2 12h2l2-12h-2zm2 13l-1-9c1-3 1-6 3-8l-2-1c-2 2-2 6-3 9l1 10 2-1zm2-17c1-2 3-4 6-5l8-3v-2l-9 3-7 6 2 1zm14-8c5-2 11-2 16 0v-1c-5-3-11-3-16-1v2zm16 0l8 5 7 6 2-1-7-7-10-4v1zm15 11c3 5 3 12 2 17l2 1c1-6 1-13-2-19l-2 1zm2 17c-2 5-6 11-11 14l1 1c5-3 10-9 12-14l-2-1zm-11 14c-4 3-10 5-16 5v2c6 0 13-2 17-6l-1-1zm-16 5l-9-1-8-4-1 1c2 2 5 4 9 5l9 1v-2zm-17-5l-2-4-2-4-2-5v-3l-2 1 1 3a83 83 0 003 9l3 4 1-1zm-6-16l-1-1v1h-1l1 1a6 6 0 001 1v-2a1 1 0 011 0h-1v-1l-1-1a1 1 0 00-2 1v1l1 1 2-1zm0 5l-1-9 3-9-2-1-3 10 1 10 2-1zm2-18c2-5 5-10 10-13l-1-2c-5 3-9 9-11 14l2 1zm10-13l8-2 9 1v-2l-9-1-9 2 1 2zm17-1c5 1 11 4 15 8l1-2c-4-4-10-7-16-8v2zm15 8c3 4 5 11 5 16l2 1c0-6-2-14-6-19l-1 2zm5 16c0 6-3 13-6 17l1 1c4-4 7-11 7-17l-2-1zm-6 17c-4 4-9 7-14 8v2c6-1 12-4 15-9l-1-1zm-14 8c-5 1-12 0-17-4l-1 2c5 4 13 5 18 4v-2zm-17-4l-8-9-5-10-2 1 5 10 9 10 1-2zm-13-19v-3a3 3 0 011-1l-1-2h-1l-1 2v5l2-1zm-1-5v12h2v-12h-2zm3-3l3-9 6-7-1-2c-3 2-5 5-6 8l-4 9 2 1zm9-16c2-2 5-3 9-3h10v-2h-10c-4 0-8 1-10 3l1 2zm19-3c5 1 11 3 14 7l2-1c-4-4-10-7-16-8v2zm14 7l4 8 1 10h2l-1-10c-1-3-2-7-4-9l-2 1zm5 18c1 5-1 11-4 15l2 1c3-4 5-11 4-16h-2zm-4 15c-3 4-8 8-14 9l1 2c5-1 12-5 15-10l-2-1zm-14 9c-5 1-12 0-17-3l-1 2c5 3 13 4 19 3l-1-2zm-17-3c-5-2-10-7-12-12l-2 1c2 5 7 11 13 13l1-2zm-12-12l-2-9 1-4v-3l-2-1v4l-1 4 2 10 2-1zm-1-16a7 7 0 010-1 1 1 0 01-1 0 4 4 0 000 1h1v-2h1l-1-1h-1l-1 1v1l2 1z"/>
    </g>
    <g>
      <path fill="#FE7F80" d="M279 30c1-5 6-13 10-16 4-4 10-6 16-6 5 1 14 4 18 8s6 10 7 15c0 6-1 13-3 18a31 31 0 01-31 11c-5-2-11-7-13-12-2-6-2-17-2-21s0-3 1-3l-3 6zm3-7c2-5 6-9 11-11s12-4 18-3c5 2 12 8 15 12 3 5 5 9 5 15 0 5-3 12-7 17-4 4-10 8-16 8-6 1-14-1-19-5-4-3-8-8-9-13-2-6 0-16 1-19 0-3 0-1 1-1"/>
      <path class="cir8" fill="#FE7F80" d="M280 38c-1-5 1-14 4-19 3-4 8-7 13-9 6-1 14-1 19 1 5 3 10 8 12 13s3 13 1 18c-1 6-5 12-9 15-5 3-12 4-17 3-5 0-12-3-16-7s-6-13-7-17v-2 4zm0-3c0-5 1-10 4-15 3-4 10-10 15-12 5-1 11 0 16 3s11 9 13 15c3 5 4 11 2 17-1 5-5 10-10 14-5 3-12 5-18 4-6 0-13-4-17-8-3-4-5-13-6-16v-1"/>
      <path fill="#000" d="M279 30h-1 2-1zm26-22V7v1zm18 8v-1 1zm7 15l-1 1 1-1zm-16 28v1-1zm-18 1v-1 1zm-13-12l1-1-1 1zm-1-24l1-1h-2l1 1zm11-12l1 1-1-1zm18-3l-1 1 1-1zm15 12l-1 1 1-1zm5 15h1-1zm-7 17h1-1zm-16 8v1-1zm-19-5h1-1zm-9-13h-1 1zm0-5h-1 2-1zm4-19h-1 1zm32-8v1-1zm12 13h-1 1zm1 18h-1 1zm-9 15l-1-1 1 1zm-17 3v-1 1zm-16-7l-1 1 1-1zm-7-17l-1 1 1-1zm0-2h1v-2l-1 1v1zm-1 2a1 1 0 002-1l-2 1zm5-16l1 1-1-1zm15-12V7v1zm16 3v1-1zm13 15l1-1-1 1zm2 17h1-1zm-10 14zm-18 4v1-1zm-17-8h1-1zm-6-16h1-1zm0 0a1 1 0 100-2v2zm1-7l4-8 6-7-1-2a35 35 0 00-11 17h2zm10-15c4-4 9-6 15-6V7c-6 0-12 2-16 6l1 2zm15-6l9 3 8 4 1-1-8-5-10-3v2zm17 7c4 4 6 10 7 16l2-1c-1-5-3-12-8-16l-1 1zm7 16c0 5-1 12-3 16l2 1c2-5 3-12 3-18l-2 1zm-3 16c-3 5-7 8-12 10v2c6-2 11-6 14-11l-2-1zm-12 10l-9 2-9-1-1 2 10 1 9-2v-2zm-18 1c-5-2-10-7-12-12l-2 1c3 6 8 11 13 13l1-2zm-12-12l-2-10v-6-4h-2v10l2 11 2-1zm-2-20v-2-1 1h-1 1l-1-2a1 1 0 011 0h-1l-1 1v3h2zm-1-3l-3 6h2l2-6h-1zm2-1c2-4 6-8 11-10l-1-2c-5 2-10 6-12 12h2zm11-10l8-3h8l1-2h-10l-8 3 1 2zm16-3l8 5 7 7 2-1-7-8-9-5-1 2zm15 12c3 4 5 9 5 14h2c0-6-2-11-5-15l-2 1zm5 14a30 30 0 01-7 16l2 1 5-8 2-9h-2zm-7 16c-3 4-10 8-15 8v2c6 0 13-4 17-9l-2-1zm-15 8c-3 1-6 0-10-1l-8-3-1 1a34 34 0 0019 5v-2zm-18-4c-5-3-8-8-9-13h-2c1 6 5 11 10 14l1-1zm-9-13l-1-10 1-5 1-4h-2l-1 3-1 5 1 11h2zm1-19a32 32 0 010-1c0-1 0-1 0 0h-1a1 1 0 01-1 0 6 6 0 001 0v1l1-2v-1h-1-1v3h2zm-1 14l1-9c0-4 2-7 3-9l-2-1-3 9c-1 4-2 7-1 10h2zm4-18c3-4 8-7 13-9l-1-2c-5 2-11 5-14 10l2 1zm13-9a33 33 0 0118 1v-1c-2-2-6-2-9-2h-10l1 2zm18 1c4 3 9 8 11 12h2c-2-6-7-11-13-13v1zm11 12c2 5 3 13 1 18h2c2-5 1-13-1-18h-2zm1 18c-1 5-5 11-9 14l1 2c5-3 9-10 10-16h-2zm-9 14c-4 3-11 4-16 3v2c5 1 12 0 17-3l-1-2zm-16 3c-5 0-12-3-15-6l-2 1c4 4 11 7 17 7v-2zm-15-6c-2-2-4-5-5-9l-1-4-1-4-2 1 1 3 1 5 5 9 2-1zm-7-17l-1-2v1-2h-1-1v2l1 2 2-1zm-2-2v4h2v-4h-2zm2 1c0-5 1-10 4-14l-2-1c-3 5-4 10-4 16l2-1zm4-14l6-7 8-5V7l-9 5-7 8 2 1zm14-12c5-1 11 0 16 3l1-2c-5-3-12-4-17-3v2zm16 3l7 6 6 8 1-1-5-8-8-7-1 2zm13 14c2 5 3 11 1 16l2 1c2-6 1-12-2-18l-1 1zm1 16c-1 5-5 11-10 14l1 1c5-3 10-9 11-14l-2-1zm-10 14c-4 3-11 5-17 4v2c6 1 14-1 18-5l-1-1zm-17 4c-5 0-12-3-16-7l-1 1c4 4 11 8 17 8v-2zm-16-7c-2-2-3-5-4-9l-1-4-1-3h-2l1 3 1 5 5 9 1-1zm-6-16a36 36 0 00-1-2h-1-1l1 1v1h1v-2h1-1v1h-1v1h2z"/>
    </g>
    <g>
      <path fill="#FE7F80" d="M170 96c0-5 3-13 6-17 4-4 10-6 15-7 6 0 13 0 18 3 4 3 9 10 10 16 2 6 3 13 1 18-3 4-9 9-14 11-5 3-12 4-17 3-5-2-12-5-16-11-3-5-4-17-4-21-1-4 2-3 2-2l-1 7zm-1 4c-2-5 1-11 4-15 3-5 7-9 12-11 6-2 15-2 21 0 5 2 10 6 12 11 3 5 3 12 2 17s-4 11-9 15c-4 4-12 7-18 7-5 0-11-3-15-7-4-3-6-12-8-15-1-2-1 0-1 0"/>
      <path class="cir7" fill="#FE7F80" d="M170 94c0-6 3-13 7-16 3-4 11-6 16-6 6 0 13 1 17 5 5 3 9 10 10 15 1 6 0 13-3 18-2 5-6 10-11 12s-13 2-19 0c-5-2-12-5-15-11-3-5-2-16-2-20v-1 4zm0 13c-2-5-1-11 1-16 2-6 6-12 10-15s10-4 16-3c5 1 12 3 16 7 5 4 8 10 8 15 0 6-2 13-5 17-4 5-10 9-15 11-6 1-13 1-18-2-5-2-10-11-12-13s0 1 0 0"/>
      <path fill="#000" d="M170 96h-1 2-1zm6-17v-1 1zm15-7l1 1-1-1zm18 3v-1 1zm10 16h-1 1zm-13 29v1-1zm-17 3v1-1zm-18-34h1l1-1h-1l-1 1zm2-4l-1-1 1 1zm12-11l1 1-1-1zm21 0v-1 1zm14 28h-1 1zm-27 22v1-1zm-15-7zm-8-15h1-1zm0-8l-1-1 2 1h-1zm23-22v-1 1zm17 5zm10 15h1-1zm-3 18l1 1-1-1zm-11 12l-1-1 1 1zm-19 0v1-1zm-15-11l-1 1 1-1zm-2-20h1-1zm0-1h1v-1h-1v1zm-1 18a1 1 0 002-1l-2 1zm2-17l-1-1 1 1zm10-15v1-1zm16-3v-1 1zm16 7v1-1zm8 15h1-1zm-20 28v1-1zm-18-2zm-12-13l1-1-1 1zm1 1a1 1 0 10-1-2l1 2zm-1-13l2-9 4-7-1-2c-2 2-4 5-5 9l-2 9h2zm6-16c4-4 9-6 15-7l-1-2c-5 1-11 3-15 7l1 2zm15-7h8c3 1 6 1 8 3l1-2-9-3h-9l1 2zm16 3l6 7 4 8h2c-1-3-2-7-4-9l-7-8-1 2zm10 15l2 9-1 8 2 1 1-9-2-9h-2zm1 17l-6 7-8 4 1 2 8-5 7-7-2-1zm-14 11c-5 3-11 4-16 3v2c5 1 12 0 17-3l-1-2zm-16 3c-5-1-12-5-15-10l-1 1c3 5 10 9 16 11v-2zm-15-10l-3-11-1-10h-2l1 10 4 12 1-1zm-4-21v-2l1 1 1-2h-1l-2-1-1 2v2h2zm0-2l-1 7h2l1-7h-2zm0 11v-7l4-8-2-1-4 8v9l2-1zm4-15c3-4 6-9 12-10l-1-2c-6 2-10 7-13 11l2 1zm12-10l10-2 10 2v-2l-11-2-10 2 1 2zm20 0c5 1 9 6 12 11l1-1c-2-5-7-10-13-12v2zm12 11c2 4 2 11 1 16h2c1-5 1-12-2-17l-1 1zm1 16c-1 5-4 11-9 14l2 2c4-4 8-10 9-16h-2zm-9 14a33 33 0 01-17 7v2l10-2 9-5-2-2zm-17 7c-5 0-11-3-15-6l-1 1c4 4 10 7 16 7v-2zm-15-6l-4-8-2-4-1-3-2 1 2 2 1 5 5 8 1-1zm-7-15l-1-2h-1-1v1a2 2 0 000 1 1 1 0 002 0l-2-1a1 1 0 012 0v1h-1v1l2-1zm0-8c0-6 3-12 6-15l-1-2c-4 4-7 11-7 16l2 1zm6-15l8-4 8-2v-2l-9 2-8 4 1 2zm16-6c6 0 13 1 17 4l1-1c-5-4-12-5-18-5v2zm17 4c4 4 8 10 9 15h2c-1-6-5-13-10-16l-1 1zm9 15c1 6 0 13-2 18l1 1c3-5 4-13 3-19h-2zm-2 18c-3 5-7 9-12 11l1 2c5-2 10-7 12-12l-1-1zm-12 11c-4 2-12 2-17 0l-1 2c6 2 14 2 19 0l-1-2zm-17 0c-6-1-12-5-15-10l-2 1c3 5 10 9 16 11l1-2zm-15-10l-2-10v-6-4h-2v10l2 11 2-1zm-2-20v-2 1a1 1 0 01-2 0l1 1v-2a1 1 0 011 0 2 2 0 00-1-1 1 1 0 00-1 1v2h2zm-2-1v3l2 1v-4h-2zm2 17l-1-8 2-8-2-1-2 9 1 9 2-1zm1-16l4-8 5-6-1-2-6 7-4 8 2 1zm9-14c4-3 10-4 15-3l1-2c-6-1-12 0-17 3l1 2zm15-3l9 2 8 5 1-2-8-5-9-2-1 2zm17 7c4 3 7 9 7 14h2c0-5-4-12-8-16l-1 2zm7 14c0 5-2 12-5 17l1 1c4-5 6-12 6-18h-2zm-5 17c-4 4-9 8-15 10l1 2c6-2 12-7 15-11l-1-1zm-15 10c-5 1-12 1-17-1l-1 1c6 3 13 3 19 2l-1-2zm-17-1l-6-7-3-4-2-3-1 2 1 2 3 4 7 7 1-1zm-11-14h-1v-1h-1l-1 1v1l1 1h2l-1-2c0 1 0 1 0 0a1 1 0 01-1 1l1 1 1-2z"/>
    </g>
    <g>
      <path fill="#FE7F80" d="M132 191c-1-6-1-13 2-17 3-5 11-9 16-10s11-1 16 1 11 8 13 12c3 5 5 11 4 17-1 5-6 13-11 16-4 4-10 5-16 5-5-1-12-2-16-7-5-4-9-16-10-20s1-5 1-5l1 8zm-1-8c0-6 5-13 10-16 4-3 12-3 18-3 5 0 12 1 16 5 4 3 8 11 8 16 1 6-1 14-4 19-4 5-11 8-16 10-6 1-12 2-17-1-5-2-11-8-13-13-3-6-2-16-2-19s1 1 2 2"/>
      <path class="cir6" fill="#FE7F80" d="M132 194c-2-5-2-11 1-16a26 26 0 0131-14c4 1 10 6 13 10 3 5 6 12 5 18 0 5-3 11-7 14-4 4-10 8-16 9-5 0-12-1-17-4-4-4-9-16-11-20-1-4 1-3 1-3v6zm1 6c-3-4-3-14-1-20 1-5 4-11 9-14 4-2 12-3 18-2 6 0 13 3 17 6 4 4 7 11 7 16 1 6-1 13-5 18-3 5-10 9-15 10-6 2-12 1-17-1-5-3-11-12-13-14l1 1"/>
      <path fill="#000" d="M132 191h-1 2-1zm2-17l-1-1 1 1zm16-10v1-1zm16 1l1-1-1 1zm17 29h-1 1zm-11 16zm-16 5v-1 1zm-16-7l-1 1 1-1zm-10-20l-1 1 1-1zm1-5h1v-2l-1 1v1zm10-16v1-1zm18-3v-1 1zm16 5h-1 1zm8 16l-1 1 1-1zm-4 19l1 1-1-1zm-16 10v-1 1zm-17-1v-1 1zm-13-13v-1 1zm-2-19h1-1zm1 13l-1 1 2-1h-1zm14-29l1 1-1-1zm17-1v-1 1zm14 10l-1 1 1-1zm-2 32zm-16 9v1-1zm-27-27h1v-1h-1v1zm0 13a1 1 0 102-1l-2 1zm9-35v1-1zm18-2v-1 1zm17 6zm-13 44v1-1zm-28-14a1 1 0 00-1-1l1 1zm-2-9l-1-9 3-8-2-1-3 9 1 9h2zm2-17l7-5 8-4v-2l-9 4-8 6 2 1zm15-9c5-1 11-1 16 1l1-2c-6-2-12-2-17-1v2zm16 1c4 2 10 7 13 12l1-1c-3-5-8-10-13-13l-1 2zm13 12c2 4 4 10 3 16h2c1-6-1-12-4-17l-1 1zm3 16l-4 8-6 8 1 1 7-8 4-9h-2zm-10 16c-4 3-11 4-16 4v2c6 0 12-1 17-5l-1-1zm-16 4c-5-1-11-2-16-7l-1 2c5 5 11 6 17 7v-2zm-16-7a117 117 0 01-10-20l-1 2 4 10 6 10 1-2zm-9-19v-3l1-1-1-2-2 2v5l2-1zm-1-5l1 8h2l-1-8h-2zm2 0l3-9 6-6-1-2-7 7-3 9 2 1zm9-15c2-2 5-3 8-3h10v-2h-10l-9 3 1 2zm18-3l8 1 7 3 2-1-8-4-9-1v2zm15 4l6 8 2 9 2-1a30 30 0 00-8-17l-2 1zm8 17c1 5-1 13-4 17l2 2c3-5 5-14 4-20l-2 1zm-4 17c-2 3-4 5-7 6l-8 4v2l9-4 8-6-2-2zm-15 10c-6 1-12 2-17-1l-1 2c6 3 12 2 18 1v-2zm-17-1l-7-5-6-8-1 1 5 8 8 6 1-2zm-13-13l-1-10v-5-3h-2v8c0 4 0 8 2 11l1-1zm-1-18l1-1h-1v1a1 1 0 01-1 0v-1 2l1 1 2-1h-1a29 29 0 000-3h-1a1 1 0 00-1 0v1l-1 1h2zm1 13c-2-5-2-11 0-16l-1-1c-3 6-3 12-1 18l2-1zm0-16l6-7 8-5-1-2a32 32 0 00-14 13l1 1zm14-12c4-2 11-3 16-1v-2c-5-2-12-1-17 1l1 2zm16-1c5 1 10 5 13 10l2-1c-3-5-9-10-15-11v2zm13 10c4 4 6 12 5 17h2c1-6-2-13-5-18l-2 1zm5 17c0 5-3 10-6 14l1 1c4-4 7-10 7-15h-2zm-6 14c-4 3-11 7-16 8v2c6-1 13-5 17-9l-1-1zm-16 8c-5 0-12-1-16-4l-1 1c5 4 12 5 17 5v-2zm-16-4l-6-10-5-9h-2l5 10c2 4 4 8 7 10l1-1zm-11-19v-2h-1 1v-2a12 12 0 01-1 0h-1v4h2zm-1-3v6h2v-6h-2zm3 12l-2-9 1-11h-2l-1 11 2 10 2-1zm-1-20c1-5 4-10 8-13l-1-1c-5 3-8 8-9 14h2zm8-13l8-2h10v-2h-10c-3 0-7 1-9 3l1 1zm18-2c5 0 12 3 16 6l1-1c-4-4-11-7-17-7v2zm16 6c4 4 7 10 7 15h2c0-6-3-12-8-16l-1 1zm7 15c1 6-1 13-5 18l2 1c4-5 6-13 5-19h-2zm-5 18c-3 4-9 8-14 9v2c6-1 12-5 16-10l-2-1zm-14 9c-6 2-12 1-17-1l-1 2c5 2 12 3 18 1v-2zm-17-1l-7-7-3-4-3-3-1 2 2 2 3 4 8 8 1-2zm-13-14a1 1 0 010 1 1 1 0 01-1 0l1 1v1h1l1-1-1-1-1-1a10 10 0 000-1h-1a1 1 0 00-1 2l1 1 1-2z"/>
    </g>
    <g>
      <path fill="#FE7F80" d="M128 280c0-6 1-12 4-16 4-5 10-10 15-12 6-1 13 1 18 4s11 8 14 13c2 5 1 11-1 16s-5 12-9 15c-5 3-13 4-18 4-6-1-13-4-17-8-3-5-5-15-6-18s1-3 2-3l-2 5zm2-10c1-5 5-10 10-13s14-5 20-4 12 5 15 9 5 11 5 16c-1 5-3 12-6 17-4 4-11 9-17 10-5 1-12-1-16-4-5-3-8-8-10-13s-2-15-2-19c0-3 0-1 1 0"/>
      <path class="cir5" fill="#FE7F80" d="M129 286c-2-4-2-11 0-16 3-6 7-12 12-15 5-2 12-3 18-2 5 2 11 6 15 10 3 4 7 11 7 17 0 5-4 11-7 15-4 5-11 8-17 9-5 1-11-1-16-4s-11-13-13-16 0-2 1-2v4zm2-16c1-5 5-11 10-14 4-3 10-3 16-2 5 1 12 4 16 8 4 3 7 10 7 15a28 28 0 01-39 25c-5-3-9-9-11-14s-1-14-1-17 1-1 2-1"/>
      <path fill="#000" d="M128 280h-1 2-1zm4-16v-1 1zm15-12v-1 1zm18 4v-1 1zm14 13l1-1-1 1zm-45 27zm-4-21h1v-1h-2l1 1zm10-18l-1-1 1 1zm20-4v-1 1zm15 9l1-1-1 1zm5 16h-1 1zm-6 17l-1-1 1 1zm-17 10v1-1zm-28-36h1-1zm0 17l-1 1 2-1h-1zm12-31zm18-2l-1 1 1-1zm15 10v-1 1zm-17 41v1-1zm-16-4l-1 1 1-1zm-13-16h1-1zm1-2h1v-1h-1v1zm1-12a1 1 0 102 1l-2-1zm27-16v-1 1zm16 8zm7 15h-1 1zm-6 17l-1-1 1 1zm-45-23h1-1zm1 0a1 1 0 101-2l-1 2zm-1 8c0-4 1-10 4-15l-1-1c-4 5-5 11-5 17l2-1zm4-15l7-6 7-5v-2l-9 5-6 7 1 1zm14-11l9 1 9 3v-2c-2-1-5-3-9-3l-9-1v2zm18 4l7 5 6 7 2-1-6-7-9-6v2zm13 12c2 5 1 11-1 16h2c2-5 3-12 1-17l-2 1zm-1 16l-3 8-6 6 1 2c3-2 5-4 6-7l4-9h-2zm-9 14c-2 2-5 3-8 3l-9 1-1 2 10-1c3 0 7-1 9-3l-1-2zm-17 4c-6-1-12-4-16-8l-1 1c4 5 11 8 16 9l1-2zm-16-8c-2-2-3-5-4-9l-2-8h-2l2 9 5 9 1-1zm-6-17v-2h1l-1-2h-1l-1 4h2zm0-3l-2 4 2 1 2-5h-2zm2-5c1-4 5-10 9-12l-1-2c-5 3-9 9-10 14h2zm9-12c3-2 6-3 10-3l10-1v-2l-10 1c-4 0-8 1-11 3l1 2zm20-4c6 1 11 5 14 9l2-2c-4-4-10-8-16-9v2zm14 9c3 4 5 10 5 15h2c0-6-2-12-5-17l-2 2zm5 15c-1 5-3 12-6 16l1 1c4-4 6-11 7-17h-2zm-6 16a32 32 0 01-16 10v2l10-4 7-7-1-1zm-16 10c-5 1-11-1-16-4l-1 2c5 3 11 5 17 4v-2zm-16-4c-4-2-8-7-10-13l-1 1c2 6 6 11 10 14l1-2zm-10-13l-1-9v-5-4h-2v9l2 10 1-1zm-1-18a19 19 0 010-1l-1 1-1-1v1h1v1l1-2v-1h-2v2h2zm0 17l-2-8 2-8-2-1-2 9 2 9 2-1zm0-16a32 32 0 0112-14l-1-1c-3 1-5 3-7 6l-6 8 2 1zm12-14c4-2 11-3 16-2l1-2c-6-1-13 0-18 3l1 1zm16-2c5 2 11 6 15 10l1-2c-3-4-10-8-15-10l-1 2zm15 10l5 7 2 9h2l-2-9-6-9-1 2zm7 16c0 5-3 11-7 15l1 1c4-4 8-11 8-16h-2zm-7 15c-4 4-11 7-16 8v2c6-1 13-5 17-9l-1-1zm-16 8c-5 1-11-1-16-4l-1 2c5 3 12 5 17 4v-2zm-16-4l-7-8-5-7-2 1 6 8 7 8 1-2zm-12-15l-1-2a1 1 0 010 1l1-2h-1-1l-1 1v1l1 2 2-1zm-1-2v4h2v-4h-2zm4-11c0-3 2-5 4-8 1-3 3-5 5-6l-1-2-6 7-4 8 2 1zm9-14c4-2 10-3 16-2v-2c-6-1-12-1-17 2l1 2zm16-2l8 3 8 4 1-1-8-5-9-3v2zm16 7c3 4 6 10 6 15h2c0-5-3-12-7-16l-1 1zm6 15c0 6-2 12-6 16l2 2c3-5 6-12 6-18h-2zm-6 16c-3 5-9 9-15 10l1 2c5-2 12-6 16-10l-2-2zm-15 10c-5 1-12 0-17-2l-1 2c5 3 13 3 19 2l-1-2zm-17-2c-4-3-8-8-10-13h-2c2 6 6 12 11 15l1-2zm-10-13l-1-10v-7h-2v7l1 10h2zm-1-17v-1h-1a5 5 0 001 1l1-2-1-1h-1l-1 1v2h2z"/>
    </g>
    <g>
      <path fill="#FE7F80" d="M159 354c0-5 4-12 8-16s9-7 14-8 13 0 18 3 10 7 12 13c2 5 1 14-1 19-2 6-6 10-11 13-4 2-12 4-17 3-6-1-13-4-17-9s-5-17-5-21c-1-4 0-3 1-3l-2 6zm2-10c2-5 8-8 13-11s12-6 18-5c5 1 12 6 15 11 4 4 6 12 6 18-1 5-5 12-9 16s-10 8-15 9c-6 1-13-2-18-5-5-4-9-10-10-16-2-5 1-13 1-16 0-2-2 0-1 0"/>
      <path class="cir4" fill="#FE7F80" d="M162 344c2-5 9-11 14-13s12-2 17-1c5 2 11 6 14 11s5 12 4 18c0 5-3 11-7 14-4 4-11 7-16 8-6 1-12-1-17-4-4-4-9-11-10-17-1-5 2-15 3-18v-1l-2 3zm0 0c1-6 6-11 10-13 5-2 13-2 19-1 6 2 12 5 16 9 3 4 6 11 6 17-1 5-4 13-8 17s-11 8-16 8c-6 1-12 0-17-3-5-4-10-10-11-15-2-6 1-15 1-18v-1"/>
      <path fill="#000" d="M159 354h-1 2-1zm8-16l1 1-1-1zm14-8v-1 1zm18 3l-1 1 1-1zm11 32h-1 1zm-28 16v-1 1zm-17-9h1-1zm-4-24h1v-1h-1v1zm13-15l-1-1 1 1zm33 6l1-1-1 1zm6 18h-1 1zm-9 16l-1-1 1 1zm-15 9v-1 1zm-18-5l-1 1 1-1zm-10-16l-1 1 1-1zm1-16h-1 1zm0-1l-1-1 2 1h-1zm14-13v1-1zm17-1v-1 1zm14 11l-1 1 1-1zm-3 32h-1 1zm-43-13l-1 1 1-1zm3-19v1l1-1-1-1v1zm-3 2a1 1 0 002 1l-2-1zm11-12l1 1-1-1zm19-1v1-1zm16 9l1-1-1 1zm6 17h-1 1zm-8 17v-1 1zm-16 8v1-1zm-17-3h-1 1zm-11-15l1-1-1 1zm1-18a1 1 0 100-2v2zm-2 9l2-8 6-7-2-1-5 7-3 9h2zm8-15c3-4 8-7 13-8v-2c-6 1-11 4-15 9l2 1zm13-8c5-1 12 0 17 3l1-2c-5-3-13-4-18-3v2zm17 3c5 2 10 7 12 12l2-1c-2-5-8-10-13-13l-1 2zm12 12l1 9-2 10 2 1 2-11-1-10-2 1zm-1 19c-2 5-6 9-10 12l1 2c5-3 9-8 11-13l-2-1zm-10 12c-5 2-12 4-17 3v2c6 1 13-1 18-3l-1-2zm-17 3l-9-3c-3-1-6-3-7-5l-2 1 8 6c3 2 7 3 10 3v-2zm-16-8l-4-11-1-6v-4l-2 1v4l1 6 4 11 2-1zm-5-21l-1-2s1 0 0 0h1v-2h-1l-1 1-1 1 1 3 2-1zm-1-3l-2 6h2l2-6h-2zm2-3c1-3 2-5 5-6l7-5-1-2-8 5-5 7 2 1zm12-11l9-4 8-1 1-2-10 1-9 4 1 2zm17-5c3 0 6 2 9 4l7 6 1-1-7-7-9-4-1 2zm16 10c3 5 5 12 5 18h2c0-6-2-14-6-19l-1 1zm5 18c-1 5-5 11-9 15l2 1c4-4 8-10 9-16h-2zm-9 15c-4 4-9 8-14 9v2c6-1 12-5 16-10l-2-1zm-14 9l-9-1-8-4-2 2a30 30 0 0019 5v-2zm-17-5c-5-3-9-10-10-15l-2 1c1 5 6 12 10 16l2-2zm-10-15v-8l1-5v-3h-2v3l-1 4v10l2-1zm1-16v-1-1h-2l-1 1v2l1-2 1 1h-1 2zm0-1l5-7 8-5-1-2-8 6-6 7 2 1zm13-12c5-2 12-2 17-1v-2c-5-2-12-1-18 1l1 2zm17-1c4 2 10 6 13 11l2-1c-4-5-9-10-15-12v2zm13 11c3 4 5 11 4 17h2c1-6-1-13-4-18l-2 1zm4 17c0 5-3 10-7 14l2 1c4-4 7-10 7-15h-2zm-7 14c-4 3-10 6-16 7l1 2c5-1 13-4 17-8l-2-1zm-16 7c-5 0-11-1-15-4l-2 1c5 4 12 6 18 5l-1-2zm-15-4c-2-2-5-4-6-7l-4-9-2 1 4 9 6 7 2-1zm-10-16c-1-2 0-6 1-9l1-5 1-4h-2l-1 3-1 5c-1 4-2 8-1 11l2-1zm3-18v-1-1l-1-1h-1v1a2 2 0 00-1 1l1 1 1-2v1a1 1 0 01-1 0v1h2zm-2-2l-2 3 2 1 1-2-1-2zm0 4c1-5 5-10 10-12l-1-2c-5 3-10 8-11 13l2 1zm10-12l8-2 10 1v-2l-10-1-9 2 1 2zm18-1c5 2 12 5 15 9l2-2c-4-4-11-7-17-9v2zm15 9c4 4 6 10 6 16h2c0-6-3-13-6-18l-2 2zm6 16c-1 5-4 12-7 16l1 2c4-5 7-12 8-18h-2zm-7 16c-4 4-11 8-16 8v2c6 0 13-4 17-8l-1-2zm-16 8c-6 1-12 0-16-3l-2 1c5 4 12 5 18 4v-2zm-16-3a30 30 0 01-11-15l-2 1 4 9 7 6 2-1zm-11-15v-9l1-4v-3l-2-1v3l-1 5v10l2-1zm1-16v-2-1a1 1 0 00-1 0h-1v2h1v-2a1 1 0 011 1v1h-1v-1h-1v1l2 1z"/>
    </g>
    <g>
      <path fill="#FE7F80" d="M730 134c1-5 7-11 12-13 6-3 13-2 18 0 6 2 13 6 16 11 3 4 3 10 2 16 0 5-3 12-7 16a29 29 0 01-34 1c-4-3-8-7-9-13 0-6 3-17 5-21 1-4 1-2 2-2l-5 5zm-4 17c-1-5 3-13 6-18s8-10 13-12 11-3 17-1c5 2 11 6 14 11 2 5 3 14 2 19-1 6-4 12-8 15-3 4-9 7-15 7s-14-3-19-6c-4-4-7-14-9-17v2"/>
      <path class="cir3" fill="#FE7F80" d="M729 137c1-5 7-12 12-15 4-2 11-3 17-2 5 2 11 6 15 10s7 11 7 16c0 6-3 12-7 16s-11 8-16 9c-6 1-12-1-17-4-4-3-10-8-12-14-1-6 2-17 3-21 0-4 1-2 2-2l-4 7zm0 17c-2-5-3-11-1-16s7-12 12-15 13-5 18-4c6 1 12 5 15 9s6 11 6 17-3 13-6 18c-4 4-10 7-15 8-6 1-14 0-18-3-5-3-9-12-10-14-2-3 0 0 0 0"/>
      <path fill="#000" d="M730 134h-1l1 1v-1zm46-2h-1 1zm2 16h1-1zm-7 16l1 1-1-1zm-17 7v1-1zm-17-6h1-1zm-9-13h-1 1zm7-23v1l1-2h-1v1zm-3 4l-1-1 1 1zm13-12l-1-1 1 1zm17-1l-1 1 1-1zm14 11l-1 1 1-1zm-6 34l1 1-1-1zm-15 7v-1 1zm-19-6l1-1-1 1zm-9-17l-1 1 1-1zm2-12l-1-1 2 1h-1zm12-15l-1-1 1 1zm17-2v1-1zm15 10l1-1-1 1zm0 32h-1 1zm-16 9v1-1zm-17-4l1-1-1 1zm-12-14h1-1zm3-21h1-1zm2-2l1 1v-1l-1-1v1zm-5 25a1 1 0 002-1l-2 1zm0-17l-1-1 1 1zm12-15v-1 1zm18-4v1-1zm15 9l-1 1 1-1zm6 17h-1 1zm-21 26v1-1zm-28-16a1 1 0 000-2v2zm1-20c0-3 2-5 5-8l7-5-1-2c-3 1-6 3-8 6l-5 8 2 1zm12-13c5-2 12-2 17 0l1-2c-6-2-14-3-19 0l1 2zm17 0l9 4 6 6 2-1c-2-2-4-5-7-6l-9-5-1 2zm15 10c3 4 3 10 2 16h2c1-6 1-12-2-17l-2 1zm2 16l-2 8c-1 3-2 6-4 7l1 2 5-8 2-9h-2zm-6 15c-4 4-11 6-17 7v2c6-1 14-3 18-7l-1-2zm-17 7c-5 0-12-3-16-5l-2 1c5 3 12 6 18 6v-2zm-16-5c-5-3-8-8-9-13h-2c1 6 5 11 9 14l2-1zm-9-13l2-11 1-5 1-5h-1l-2 4-1 6-2 11h2zm4-21l1-1c0-1 0 0 0 0s0-1 0 0l1-2h-1l-2 1v2h1zm1-3l-5 6 1 1 5-5-1-2zm-7 23c0-2 0-6 2-9l4-9-2-1-4 10-2 9h2zm6-18c3-4 8-9 12-11l-1-2c-5 2-10 7-13 12l2 1zm12-11c5-2 11-3 16-1l1-2c-6-2-12-1-18 1l1 2zm16-1a27 27 0 0114 11l2-1-7-7-8-5-1 2zm14 11l2 9v9l2 1v-10l-2-10-2 1zm2 18c-1 6-4 11-7 15l1 1c4-4 7-10 8-15l-2-1zm-7 15c-4 3-10 6-15 6v2c6 0 12-3 16-7l-1-1zm-15 6l-10-2-8-4-1 1c2 2 5 4 9 5l10 2v-2zm-18-6l-6-8-1-5-2-3-2 1 2 3 2 4c1 4 3 7 6 9l1-1zm-9-16v-1h-1-1v2a9 9 0 000 2h2l-1-2a1 1 0 011 1 7 7 0 010-2l-1 1a1 1 0 01-1 0l2-1zm2-12l4-8 7-6-1-2-7 7-5 8 2 1zm11-14c5-2 11-3 17-2v-2c-6-1-13 0-18 2l1 2zm17-2c5 1 11 5 14 10l2-2c-4-4-10-8-16-10v2zm14 10l5 7 2 8h2l-2-9-5-8-2 2zm7 15c0 5-3 12-7 16l2 1c4-4 7-11 7-17h-2zm-7 16c-3 3-10 7-15 8v2c6-1 13-5 17-9l-2-1zm-15 8c-6 0-12-1-16-4l-1 2c5 3 11 5 17 4v-2zm-16-4c-5-3-10-8-12-13l-2 1c2 6 8 11 13 14l1-2zm-12-13l1-11 1-6 1-4h-2l-1 4-1 6c-1 4-2 8-1 12l2-1zm3-21v-2a1 1 0 01-1 0h1v1l1-2-1-1-2 1v3h2zm0-2l-4 6 2 1 4-6-2-1zm-2 24c-2-5-3-11-1-16l-2-1c-2 6-1 13 1 18l2-1zm-1-16l5-8c2-2 4-5 7-6l-1-2a33 33 0 00-13 15l2 1zm12-14c5-3 12-5 17-4v-2c-5-1-13 1-18 4l1 2zm17-4c5 1 11 4 14 9l2-2c-4-4-10-8-16-9v2zm14 9c3 4 6 11 6 16h2c0-6-3-13-6-18l-2 2zm6 16c0 6-3 13-6 17l1 1c4-4 7-12 7-18h-2zm-6 17c-3 4-9 7-14 8v2c6-1 12-4 15-9l-1-1zm-14 8h-9c-3 0-7-1-9-3l-1 2 9 3h10v-2zm-18-3l-6-7-2-4-2-3-1 1 1 3 3 4 6 8 1-2zm-10-14a12 12 0 000-1h-1a1 1 0 00-1 1 9 9 0 001 2h1v-2 0s0-1 0 0a1 1 0 01-1 1l-1-1v1h1l1-1z"/>
    </g>
    <path class="n3" stroke="#000" stroke-linecap="round" stroke-width="2" d="M625 210l106-49m-105 49l106-50-106 50z"/>
    <path class="n2" stroke="#000" stroke-linecap="round" stroke-width="2" d="M132 263c-12-11-58-54-71-64m72 64l-74-65 74 65z"/>
    <path class="n1" stroke="#000" stroke-linecap="round" stroke-width="2" d="M131 293l-78 29m80-31l-82 29 82-29z"/>
    <g>
      <path fill="#FE7F80" d="M11 192c-1-5 1-13 4-18 2-5 6-11 11-13 5-3 14-2 19 0 5 1 11 5 13 10 3 5 4 12 4 17-1 6-4 14-8 18-3 4-10 6-15 6-6 0-13-2-18-6-4-3-7-14-9-18-2-3-1 0-1 0v4zm3 4c-3-5-4-13-3-18 2-6 7-12 11-15 5-3 11-3 17-3 5 1 12 4 17 8 4 4 8 11 8 17 0 5-3 12-7 16-3 4-9 8-14 9-6 2-14 3-19 0-5-2-10-12-12-15-1-2 2 0 3 0"/>
      <path class="cir2" fill="#FE7F80" d="M10 189c-1-5 1-12 4-17 4-5 11-9 16-11 6-2 12-2 17 0 5 3 10 8 12 13 3 5 5 11 4 17-2 5-6 12-11 15s-11 5-17 5-13-2-17-6-5-15-6-19c-2-3-1 0-1 0l-1 3zm1-8c1-6 5-13 10-16 4-4 11-6 16-6s12 3 16 7c5 4 8 11 9 16 1 6 0 12-3 17s-9 10-14 12c-5 1-12 0-17-2s-11-6-14-11c-2-4-3-15-3-18-1-3 0 1 1 1"/>
      <path fill="#000" d="M11 192h-1 2-1zm4-18l-1-1 1 1zm11-13v-1 1zm19 0v-1 1zm-6 51l-1-1 1 1zm-18-6v1-1zm-9-18h1-1zm-1 0h1v-1h-1v1zm0-10l-1-1 1 1zm11-15l1 1-1-1zm17-3v-1 1zm17 8v-1 1zm8 17l1-1-1 1zm-40 25l1-1-1 1zm-12-15l-1 1 1-1zm-2-6H9h2-1zm4-17l1 1-1-1zm16-11v1h1l-1-1zm17 0l1-1-1 1zm16 30h-1 1zm-11 15l-1-1 1 1zm-17 5v-1 1zm-17-6l-1 1 1-1zm-6-19h1-1zm-1 0h1l1-1h-2v1zm-1-5a1 1 0 002 0h-2zm11-16l-1-1 1 1zm16-6v1-1zm25 23h1-1zm-34 27v1-1zm-14-11h1-1zm-2-16a1 1 0 100-2v2zm0 9v-8l4-9-2-1-4 10v9l2-1zm4-17l4-7 7-5-1-2c-3 1-5 3-7 6l-5 7 2 1zm11-12l9-2 9 2v-2l-9-2-10 2 1 2zm18 0c5 1 10 5 13 9l1-1c-3-4-8-9-14-10v2zm13 9c2 5 3 12 3 17h2c1-6-1-13-4-18l-1 1zm3 17l-3 9-4 8 1 1 5-8c2-3 3-7 3-10h-2zm-7 17c-4 4-10 6-16 6l1 2c5 0 12-2 16-7l-1-1zm-16 6c-5 0-12-2-16-5l-1 1c4 4 12 6 18 6l-1-2zm-16-5l-6-9-2-5-1-4-2 1 1 3 3 6c1 3 3 7 6 9l1-1zm-9-18a12 12 0 00-2-2 1 1 0 00-1 1 3 3 0 000 1l1 1v-2h1l-1 1a1 1 0 01-1 0l1 1 2-1zm-3 0v4h2v-4h-2zm5 8l-3-9v-9l-2-1v10c0 4 1 7 3 10l2-1zm-3-18l4-8 7-6-1-2a28 28 0 00-12 15l2 1zm11-14c4-3 10-3 15-3l1-2c-6 0-12 0-17 3l1 2zm15-3c6 1 13 4 17 7l1-1c-4-4-12-7-17-8l-1 2zm17 7a28 28 0 018 17l2-1-3-9c-1-3-3-6-6-8l-1 1zm8 17l-2 8-5 7 2 2 5-8 2-10-2 1zm-7 15c-3 5-8 8-14 9l1 2c6-1 11-5 15-9l-2-2zm-14 9l-9 2c-3 0-6 0-8-2l-1 2c3 2 6 2 9 2l10-2-1-2zm-17 0l-4-2-3-5-5-7-2 1 5 7 4 5 4 3 1-2zm-12-14v-1 1a1 1 0 01-1 0l1 1h2l-1-2h1-1l-1-1h-1l-1 1v2l2-1zm-2-6l1-8c0-3 2-6 3-8l-1-2a26 26 0 00-5 18h2zm4-16l7-7 8-4v-2a36 36 0 00-16 11l1 2zm16-11c5-2 11-2 16 0l1-2c-5-2-12-2-18 0l1 2zm16 0c5 2 9 7 12 12l1-1c-2-5-7-10-12-13l-1 2zm12 12c2 5 4 11 3 17h2c1-6-1-13-4-18l-1 1zm3 17l-4 8c-2 2-4 5-7 6l2 2a32 32 0 0011-16h-2zm-11 14c-4 3-10 5-16 5v2c6 0 13-2 18-5l-2-2zm-16 5l-9-1-7-4-2 1c2 2 5 4 9 5l9 1v-2zm-16-5l-3-4-1-6-2-5v-4l-2 1 1 3 1 6 2 5 2 5 2-1zm-6-19a17 17 0 00-1-2h-1a1 1 0 00-1 0v1a4 4 0 000 1l1 1v-2h1v1a1 1 0 01-2 0v-1 1l1 1 2-1zm-3 0l-1 3h2l1-3h-2zm2-5l4-8c1-3 3-6 5-7l-1-2a32 32 0 00-10 17h2zm9-15c5-4 11-6 16-6v-2c-6 0-12 2-17 6l1 2zm16-6c5 0 12 3 16 6l1-1c-4-4-11-7-17-7v2zm16 6c4 4 7 11 8 16h2c-1-6-5-13-9-17l-1 1zm8 16c1 6 0 12-3 16l2 1c3-5 4-11 3-17h-2zm-3 16c-1 3-3 5-6 7l-8 5 1 2 9-5 6-8-2-1zm-14 12c-4 1-11 0-15-2l-1 2c5 2 12 3 17 2l-1-2zm-15-2c-5-2-11-6-14-10l-1 1c3 5 9 9 14 11l1-2zm-14-10l-2-10-1-4v-4h-2v4l1 5c0 3 1 7 3 10l1-1zm-3-18a33 33 0 010-1 1 1 0 01-1 1 1 1 0 01-1 0v1h1l1 1v-2-1l-1-1a1 1 0 00-1 1v1h2z"/>
    </g>
    <g>
      <path fill="#FE7F80" d="M4 318c2-6 9-12 14-15 5-2 12-1 17 0 6 2 12 5 16 9 3 5 5 12 5 18-1 6-5 13-9 16-4 4-10 7-16 7-5 1-12-1-17-5-4-3-8-8-9-14-2-5 0-16 0-19 1-4 2-1 2 0l-3 3zm0 10c-1-4 2-11 5-15 3-5 8-9 13-11 5-1 13 1 18 3 5 3 10 7 12 12s3 11 2 17c-2 5-5 13-10 16s-14 4-20 4c-5-1-10-4-13-8-4-4-6-13-7-16s0-2 1-2"/>
      <path class="cir1" fill="#FE7F80" d="M2 325c0-5 4-12 8-16 5-4 12-8 18-8 5-1 12 2 17 6 4 3 9 10 10 15 1 6 0 12-2 17-3 5-8 11-13 13-6 2-14 2-19 1-6-2-10-5-13-10s-5-18-5-21c-1-4 2-2 2-1l-3 4zm4 14c-3-5-3-13-2-18 2-6 6-11 10-14 5-3 11-5 17-5 5 1 13 4 17 8 3 4 6 10 7 15 0 6-1 14-4 18s-10 8-16 9c-5 1-12 1-17-1S7 341 5 339s1 0 2-1"/>
      <path fill="#000" d="M4 318l-1-1 2 1H4zm14-15v1-1zm17 0v1-1zm16 9l-1 1 1-1zm5 18h1-1zm-42 18l-1 1 1-1zm-9-14l-1 1 1-1zm2-19h2l-1-1-1 1zm2-2zm13-11v1-1zm18 3v1-1zm14 29h1-1zm-10 16v1-1zm-20 4l1-1-1 1zm-13-8l-1 1 1-1zm-9-21H1v4l2-3-1-1zm26-24l-1-1 1 1zm17 6h-1 1zm10 15l-1 1 1-1zm-2 17l-1-1 1 1zm-13 13l-1-1 1 1zM3 322H2h1zm2-1h1l1-1H6l-1 1zm0 18a1 1 0 002-1l-2 1zm-1-18h1-1zm10-14l1 1-1-1zm34 3l-1 1 1-1zm7 15h-1 1zm-4 18l-1-1 1 1zm-16 9v-1 1zm-17-1v-1 1zM5 339l-1 1 1-1zm3 0a1 1 0 00-2-1l2 1zm-3-21l6-8 7-6v-1l-9 6-6 8 2 1zm13-14c5-2 12-1 17 0v-2c-5-1-12-2-17 1v1zm17 0c5 2 12 5 15 9l2-1c-4-5-11-8-17-10v2zm15 9l4 8 1 9h2l-1-10-4-8-2 1zm5 17c0 3-2 6-3 8l-6 8 2 1a33 33 0 009-17h-2zm-9 16c-4 3-9 6-15 6v2c6 0 12-3 17-7l-2-1zm-15 6c-5 1-12-1-16-4l-2 1c5 4 13 6 18 5v-2zm-16-4c-5-3-8-8-10-14l-1 1c1 6 5 11 9 14l2-1zM5 334v-10l1-9H4l-1 9 1 11 1-1zm1-19a5 5 0 011-1H6v1a12 12 0 001 0l1-1v-1l-1-1H6l-1 1-1 2h2zm1-1l-3 3 1 1 3-3-1-1zm-2 14c-1-2 0-5 1-7l3-8-1-1-4 8c-1 3-2 6-1 9l2-1zm4-15c3-4 8-9 13-10v-2c-6 2-11 7-14 11l1 1zm13-10l9 1 9 2 1-1-9-3-10-1v2zm18 3c5 3 9 7 11 12l2-1c-2-5-7-10-12-12l-1 1zm11 12c2 4 3 10 2 16h2c1-6 0-12-2-17l-2 1zm2 16l-4 8c-1 3-3 6-6 7l1 2 7-8 4-9h-2zm-10 15c-2 2-5 3-9 3l-9 1-1 2 11-1c3 0 7-1 9-3l-1-2zm-18 4c-6-1-10-3-14-7l-1 1c3 4 8 7 14 8l1-2zm-14-7l-4-9-2-7H3l2 8 5 9 1-1zm-6-16a8 8 0 01-1-2v1h1l-1-2H3 2v1l1 2h2zm-2-5l3-8 5-7-1-1c-2 2-5 4-6 7l-3 9h2zm8-15l8-5 9-3-1-2-9 3c-3 1-6 3-8 6l1 1zm17-8c5-1 12 2 16 5l1-1c-4-4-11-7-18-6l1 2zm16 5c5 4 9 10 10 16l2-1c-1-6-6-12-11-16l-1 1zm10 16c1 5 0 11-2 15l2 1c2-5 4-11 2-17l-2 1zm-2 15c-3 5-8 11-13 13l1 2c6-3 11-9 14-14l-2-1zm-13 13l-9 2-9-1-1 2a35 35 0 0020-1l-1-2zm-18 1c-5-2-10-5-12-10l-2 1c3 6 8 9 13 11l1-2zM9 342c-2-2-3-6-4-10l-1-10H2l1 10c1 4 2 9 4 11l2-1zm-5-20v-1-1l-1 1h2l1-1-1-1H2v3h2zm0-2l-3 5 2 1 3-5-2-1zm3 18c-2-2-2-5-2-8v-9l-2-1a31 31 0 002 19l2-1zm-2-17c2-5 6-11 10-13l-1-2c-5 3-9 9-11 14l2 1zm10-13c4-3 10-5 16-5v-2c-6 0-13 2-17 5l1 2zm16-5l8 3 8 5 1-2-8-5-9-3v2zm16 8c4 3 6 9 7 14h2c-1-6-4-12-8-16l-1 2zm7 14l-1 9c0 3-1 6-3 8l2 2 3-9 1-10h-2zm-4 17c-1 3-4 4-6 6l-9 3 1 2 8-3 8-6-2-2zm-15 9c-5 1-12 1-17-1v2c5 2 12 2 18 1l-1-2zm-17-1l-7-6-5-6-2 2 6 6 8 6v-2zM6 338H5v1a14 14 0 002 1l1-1-2-1h1l-1-1a13 13 0 01-1 0H4a1 1 0 00-1 1l1 1v1l2-2z"/>
    </g>
  </g>
</svg>
