<svg preserveAspectRatio="xMidYMid meet" viewBox="0 0 1680 361" fill="none" xmlns="http://www.w3.org/2000/svg"><g class="PatternGrouped"><g class="Paths"><path class="p27" d="M-60 360c476.78 0 384.27-115.24 899.5-115.24M1739 1.25c-492.79 0-378.93 156.23-899.5 156.23" stroke="#00EFC6"/><path class="p26" d="M-60 347.51c477.34 0 384.09-105.81 899.5-105.81M1739 16.39c-492.12 0-379.16 144.78-899.5 144.78" stroke="#0DE2CA"/><path class="p25" d="M-60 335.06c477.89 0 383.9-96.38 899.5-96.38M1739 31.53c-491.44 0-379.38 133.33-899.5 133.33" stroke="#1BD5CF"/><path class="p24" d="M-60 322.61c478.45 0 383.72-87 899.5-87M1739 46.67c-490.77 0-379.61 121.89-899.5 121.89" stroke="#28C8D3"/><path class="p23" d="M-60 310.15c479 0 383.53-77.51 899.5-77.51M1739 61.81c-490.09 0-379.83 110.44-899.5 110.44" stroke="#36BCD8"/><path class="p22" d="M-60 297.7c479.56 0 383.34-68.08 899.5-68.08M1739 77c-489.42 0-380.06 99-899.5 99" stroke="#43AFDC"/><path class="p21" d="M-60 285.25c480.12 0 383.16-58.65 899.5-58.65M1739 92.1c-488.74 0-380.28 87.53-899.5 87.53" stroke="#50A2E0"/><path class="p20" d="M-60 272.8c480.68 0 383-49.22 899.5-49.22M1739 107.24c-488.07 0-380.51 76.08-899.5 76.08" stroke="#5E95E5"/><path class="p19" d="M-60 260.35c481.23 0 382.79-39.79 899.5-39.79m899.5-98.18c-487.39 0-380.73 64.63-899.5 64.63" stroke="#6B88E9"/><path class="p18" d="M-60 247.89c481.79 0 382.6-30.35 899.5-30.35m899.5-80.02c-486.71 0-381 53.18-899.5 53.18" stroke="#787BED"/><path class="p17" d="M-60 235.44c482.34 0 382.42-20.92 899.5-20.92m899.5-61.86c-486 0-381.19 41.73-899.5 41.73" stroke="#866FF2"/><path class="p16" d="M-60 223c482.9 0 382.23-11.48 899.5-11.48M1739 167.8c-485.36 0-381.41 30.28-899.5 30.28" stroke="#9362F6"/><path class="p15" d="M-60 210.54c483.46 0 382.05-2 899.5-2m899.5-25.6c-484.69 0-381.64 18.84-899.5 18.84" stroke="#A155FB"/><path class="p14" d="M-60 198.09c484 0 381.86 7.38 899.5 7.38s415.5-7.38 899.5-7.38" stroke="#AE48FF"/><path class="p13" d="M-60 182.94c484.69 0 381.64 18.84 899.5 18.84m899.5 8.76c-483.46 0-382.05-2-899.5-2" stroke="#A14FFF"/><path class="p12" d="M-60 167.8c485.36 0 381.41 30.28 899.5 30.28M1739 223c-482.9 0-382.23-11.48-899.5-11.48" stroke="#9356FF"/><path class="p11" d="M-60 152.66c486 0 381.19 41.73 899.5 41.73m899.5 41.05c-482.34 0-382.42-20.92-899.5-20.92" stroke="#865DFF"/><path class="p10" d="M-60 137.52c486.71 0 381 53.18 899.5 53.18m899.5 57.19c-481.79 0-382.6-30.35-899.5-30.35" stroke="#7864FF"/><path class="p9" d="M-60 122.38c487.39 0 380.73 64.63 899.5 64.63m899.5 73.34c-481.23 0-382.79-39.79-899.5-39.79" stroke="#6B6BFF"/><path class="p8" d="M-60 107.24c488.07 0 380.51 76.08 899.5 76.08M1739 272.8c-480.68 0-383-49.22-899.5-49.22" stroke="#5E72FF"/><path class="p7" d="M-60 92.1c488.74 0 380.28 87.53 899.5 87.53M1739 285.25c-480.12 0-383.16-58.65-899.5-58.65" stroke="#5079FF"/><path class="p6" d="M-60 77c489.42 0 380.06 99 899.5 99M1739 297.7c-479.56 0-383.34-68.08-899.5-68.08" stroke="#4380FF"/><path class="p5" d="M-60 61.81c490.09 0 379.83 110.44 899.5 110.44m899.5 137.9c-479 0-383.53-77.51-899.5-77.51" stroke="#3687FF"/><path class="p4" d="M-60 46.67c490.77 0 379.61 121.89 899.5 121.89M1739 322.61c-478.45 0-383.72-87-899.5-87" stroke="#288EFF"/><path class="p3" d="M-60 31.53c491.44 0 379.38 133.33 899.5 133.33m899.5 170.2c-477.89 0-383.9-96.38-899.5-96.38" stroke="#1B95FF"/><path class="p2" d="M-60 16.39c492.12 0 379.16 144.78 899.5 144.78M1739 347.51c-477.34 0-384.09-105.81-899.5-105.81" stroke="#0D9CFF"/><path class="p1" d="M-60 1.25c492.79 0 378.93 156.23 899.5 156.23M1739 360c-476.78 0-384.27-115.24-899.5-115.24" stroke="#00A3FF"/></g></g></svg>