<svg width="1680" height="361" viewBox="0 0 1680 361" fill="none" xmlns="http://www.w3.org/2000/svg">
<g class="PatternGrouped">
<g class="Paths">
<path class="p27" d="M-60 360C416.78 360 324.27 244.76 839.5 244.76M1739 1.25C1246.21 1.25 1360.07 157.48 839.5 157.48" stroke="#00EFC6"/>
<path class="p26" d="M-60 347.51C417.34 347.51 324.09 241.7 839.5 241.7M1739 16.3901C1246.88 16.3901 1359.84 161.17 839.5 161.17" stroke="#0DE2CA"/>
<path class="p25" d="M-60 335.06C417.89 335.06 323.9 238.68 839.5 238.68M1739 31.5298C1247.56 31.5298 1359.62 164.86 839.5 164.86" stroke="#1BD5CF"/>
<path class="p24" d="M-60 322.61C418.45 322.61 323.72 235.61 839.5 235.61M1739 46.6699C1248.23 46.6699 1359.39 168.56 839.5 168.56" stroke="#28C8D3"/>
<path class="p23" d="M-60 310.15C419 310.15 323.53 232.64 839.5 232.64M1739 61.8101C1248.91 61.8101 1359.17 172.25 839.5 172.25" stroke="#36BCD8"/>
<path class="p22" d="M-60 297.7C419.56 297.7 323.34 229.62 839.5 229.62M1739 77C1249.58 77 1358.94 176 839.5 176" stroke="#43AFDC"/>
<path class="p21" d="M-60 285.25C420.12 285.25 323.16 226.6 839.5 226.6M1739 92.1001C1250.26 92.1001 1358.72 179.63 839.5 179.63" stroke="#50A2E0"/>
<path class="p20" d="M-60 272.8C420.68 272.8 323 223.58 839.5 223.58M1739 107.24C1250.93 107.24 1358.49 183.32 839.5 183.32" stroke="#5E95E5"/>
<path class="p19" d="M-60 260.35C421.23 260.35 322.79 220.56 839.5 220.56M1739 122.38C1251.61 122.38 1358.27 187.01 839.5 187.01" stroke="#6B88E9"/>
<path class="p18" d="M-60 247.89C421.79 247.89 322.6 217.54 839.5 217.54M1739 137.52C1252.29 137.52 1358 190.7 839.5 190.7" stroke="#787BED"/>
<path class="p17" d="M-60 235.44C422.34 235.44 322.42 214.52 839.5 214.52M1739 152.66C1253 152.66 1357.81 194.39 839.5 194.39" stroke="#866FF2"/>
<path class="p16" d="M-60 223C422.9 223 322.23 211.52 839.5 211.52M1739 167.8C1253.64 167.8 1357.59 198.08 839.5 198.08" stroke="#9362F6"/>
<path class="p15" d="M-60 210.54C423.46 210.54 322.05 208.54 839.5 208.54M1739 182.94C1254.31 182.94 1357.36 201.78 839.5 201.78" stroke="#A155FB"/>
<path class="p14" d="M-60 198.09C424 198.09 321.86 205.47 839.5 205.47C1357.14 205.47 1255 198.09 1739 198.09" stroke="#AE48FF"/>
<path class="p13" d="M-60 182.94C424.69 182.94 321.64 201.78 839.5 201.78M1739 210.54C1255.54 210.54 1356.95 208.54 839.5 208.54" stroke="#A14FFF"/>
<path class="p12" d="M-60 167.8C425.36 167.8 321.41 198.08 839.5 198.08M1739 223C1256.1 223 1356.77 211.52 839.5 211.52" stroke="#9356FF"/>
<path class="p11" d="M-60 152.66C426 152.66 321.19 194.39 839.5 194.39M1739 235.44C1256.66 235.44 1356.58 214.52 839.5 214.52" stroke="#865DFF"/>
<path class="p10" d="M-60 137.52C426.71 137.52 321 190.7 839.5 190.7M1739 247.89C1257.21 247.89 1356.4 217.54 839.5 217.54" stroke="#7864FF"/>
<path class="p9" d="M-60 122.38C427.39 122.38 320.73 187.01 839.5 187.01M1739 260.35C1257.77 260.35 1356.21 220.56 839.5 220.56" stroke="#6B6BFF"/>
<path class="p8" d="M-60 107.24C428.07 107.24 320.51 183.32 839.5 183.32M1739 272.8C1258.32 272.8 1356 223.58 839.5 223.58" stroke="#5E72FF"/>
<path class="p7" d="M-60 92.1001C428.74 92.1001 320.28 179.63 839.5 179.63M1739 285.25C1258.88 285.25 1355.84 226.6 839.5 226.6" stroke="#5079FF"/>
<path class="p6" d="M-60 77C429.42 77 320.06 176 839.5 176M1739 297.7C1259.44 297.7 1355.66 229.62 839.5 229.62" stroke="#4380FF"/>
<path class="p5" d="M-60 61.8101C430.09 61.8101 319.83 172.25 839.5 172.25M1739 310.15C1260 310.15 1355.47 232.64 839.5 232.64" stroke="#3687FF"/>
<path class="p4" d="M-60 46.6699C430.77 46.6699 319.61 168.56 839.5 168.56M1739 322.61C1260.55 322.61 1355.28 235.61 839.5 235.61" stroke="#288EFF"/>
<path class="p3" d="M-60 31.5298C431.44 31.5298 319.38 164.86 839.5 164.86M1739 335.06C1261.11 335.06 1355.1 238.68 839.5 238.68" stroke="#1B95FF"/>
<path class="p2" d="M-60 16.3901C432.12 16.3901 319.16 161.17 839.5 161.17M1739 347.51C1261.66 347.51 1354.91 241.7 839.5 241.7" stroke="#0D9CFF"/>
<path class="p1" d="M-60 1.25C432.79 1.25 318.93 157.48 839.5 157.48M1739 360C1262.22 360 1354.73 244.76 839.5 244.76" stroke="#00A3FF"/>
</g>
</g>
</svg>
