<svg xmlns="http://www.w3.org/2000/svg" xmlns:xlink="http://www.w3.org/1999/xlink" viewBox="0 0 1024 1024"><path d="M693.691077 566.685538c-39.842462 0-75.561846 17.651692-100.022154 45.442462l-62.678154-44.371692c6.653538-18.318769 10.473846-37.988923 10.473846-58.577231 0-20.231385-3.687385-39.571692-10.121846-57.619692l62.537846-43.901539c24.457846 27.650462 60.083692 45.206154 99.810462 45.206154 73.538462 0 133.376-59.827692 133.376-133.376 0-73.548308-59.837538-133.376-133.376-133.376-73.538462 0-133.376 59.827692-133.376 133.376 0 13.164308 1.988923 25.858462 5.558154 37.880615l-62.579693 43.923693c-26.141538-32.430769-63.780923-55.074462-106.665846-61.986462v-75.421538c60.416-12.689231 105.937231-66.368 105.937231-130.508308C502.564923 59.827692 442.727385 0 369.188923 0 295.650462 0 235.812923 59.827692 235.812923 133.376c0 63.281231 44.342154 116.297846 103.549539 129.892923v76.401231C258.56 353.853538 196.913231 424.371692 196.913231 509.179077c0 85.220923 62.257231 155.997538 143.643077 169.698461v80.674462c-59.812923 13.147077-104.743385 66.488615-104.743385 130.200615 0 73.548308 59.837538 133.376 133.376 133.376 73.538462 0 133.376-59.827692 133.376-133.376 0-63.712-44.930462-117.053538-104.743385-130.200615v-80.676923a172.221538 172.221538 0 0 0 104.861539-60.987077l63.096615 44.659692c-3.502769 11.913846-5.464615 24.482462-5.464615 37.513846 0 73.548308 59.837538 133.376 133.376 133.376 73.538462 0 133.376-59.827692 133.376-133.376 0-73.548308-59.837538-133.376-133.376-133.376z m0-311.864615c35.660308 0 64.664615 29.016615 64.664615 64.667077s-29.004308 64.664615-64.664615 64.664615-64.664615-29.014154-64.664615-64.664615c0-35.650462 29.004308-64.667077 64.664615-64.667077z m-389.169231-121.444923c0-35.650462 29.006769-64.664615 64.667077-64.664615s64.664615 29.014154 64.664615 64.664615c0 35.650462-29.004308 64.664615-64.664615 64.664615s-64.667077-29.014154-64.667077-64.664615z m129.331692 756.376615c0 35.650462-29.004308 64.664615-64.664615 64.664616s-64.667077-29.014154-64.667077-64.664616c0-35.650462 29.006769-64.664615 64.667077-64.664615s64.664615 29.014154 64.664615 64.664615z m-64.669538-290.387692c-49.735385 0-90.195692-40.452923-90.195692-90.185846 0-49.735385 40.460308-90.195692 90.195692-90.195692 49.732923 0 90.193231 40.460308 90.193231 90.195692 0 49.732923-40.460308 90.185846-90.193231 90.185846z m324.507077 165.363692c-35.660308 0-64.664615-29.016615-64.664615-64.667077s29.004308-64.664615 64.664615-64.664615 64.664615 29.014154 64.664615 64.664615c0 35.650462-29.004308 64.667077-64.664615 64.667077z"  ></path></svg>