<svg xmlns="http://www.w3.org/2000/svg" xmlns:xlink="http://www.w3.org/1999/xlink" viewBox="0 0 400 400"><path d="M106.622 89.79c-.291.757-.292 45.62-.002 46.378.195.506 1.378.578 9.506.578h9.283l.093 62.066.092 62.066 26.326.182 26.325.183.1 6.124.1 6.125h57.578 57.578V256.49v-17.002h-57.578-57.578l-.1 6.124-.1 6.125h-21.938-21.938v-30.348-30.347h21.938 21.938l.1 6.308.1 6.309 57.487-.093 57.487-.093v-17.001-17.002l-57.496-.093-57.495-.092v5.961c0 4.148-.134 6.094-.439 6.399-.633.634-42.73.634-43.364 0-.331-.331-.439-5.865-.439-22.662v-22.225l9.233-.097 9.232-.098V112.98 89.397l-22.903-.094c-20.648-.085-22.925-.037-23.126.487m71.806 26.479v17.186h57.59 57.591l-.095-17.093-.095-17.093-57.496-.093-57.495-.092v17.185" fill="#fbfbfc"/><path d="M109.549.297c-.101.163-.68.262-1.287.22s-1.296.153-1.529.434-.827.512-1.319.512-1.152.256-1.465.569-.804.48-1.09.37c-.292-.112-.421-.039-.294.166s-.279.467-.895.59-1.122.368-1.122.544-.411.32-.914.32c-.568 0-.914.207-.914.548 0 .316-.33.549-.779.549-.429 0-1.293.543-1.92 1.207s-1.428 1.316-1.78 1.451-.64.414-.64.621-.191.377-.424.377c-.446 0-2.501 2.132-2.501 2.594 0 .148-.575.861-1.279 1.586s-1.28 1.474-1.28 1.664-.506.923-1.125 1.628-1.02 1.452-.891 1.661-.023.477-.337.598-.572.41-.572.644-.411 1.03-.914 1.769-.914 1.601-.914 1.914a.56.56 0 0 1-.549.567c-.301 0-.548.32-.548.71s-.165.811-.366.936-.365.627-.365 1.118-.188.893-.417.893c-.55 0-1.385 1.122-1.4 1.88-.006.331-.217.68-.469.777s-.68.937-.954 1.867-.687 1.691-.919 1.691-.707.659-1.056 1.463-.798 1.462-1 1.462-.367.33-.367.732-.164.731-.365.731-.366.394-.366.875-.247.97-.548 1.085-.549.545-.549.954-.164.742-.365.742-.366.247-.366.549-.178.548-.396.548-.326.206-.24.457-.158.733-.542 1.069-.687.707-.674.823c.104.911-.055 1.307-.525 1.307-.341 0-.548.346-.548.915 0 .502-.165.914-.366.914s-.365.176-.365.391-.206.621-.457.902c-1.162 1.295-1.372 1.648-1.372 2.308 0 .39-.248.803-.551.92s-.531.339-.506.496c.136.827-.085 1.579-.405 1.381-.201-.124-.366-.04-.366.188s-.256.669-.569.982-.483.795-.377 1.071c.109.284-.04.501-.345.501-.329 0-.537.354-.537.914 0 .596-.204.915-.587.915-.359 0-.51.203-.388.521.11.287-.037.719-.326.959s-.527.593-.527.784-.248.596-.552.899-.469.686-.368.85-.061.392-.362.507-.546.526-.546.913-.257.803-.572.923-.477.372-.362.558-.045.593-.356.904-.559.653-.551.761c.065.976-.066 1.293-.536 1.293a.55.55 0 0 0-.548.548c0 .302-.165.548-.366.548s-.366.33-.366.732-.164.731-.365.731-.366.334-.366.743-.247.837-.548.953-.549.587-.549 1.047-.408 1.224-.907 1.698-.911 1.149-.914 1.5-.171.64-.372.64-.366.335-.366.743-.236.834-.525.944-.444.414-.345.673-.076.727-.389 1.041-.569.728-.569.922-.264.454-.587.577c-.334.129-.496.459-.377.771.127.331-.002.545-.327.545s-.537.354-.537.914c0 .569-.208.914-.549.914-.318 0-.548.332-.548.788 0 .434-.412 1.328-.914 1.987s-.914 1.374-.914 1.588-.165.39-.366.39-.366.412-.366.914c0 .569-.207.915-.548.915-.306 0-.549.325-.549.736 0 .854-.573 1.913-1.736 3.208-.453.503-.823 1.203-.823 1.554s-.257.738-.572.858-.477.372-.362.558-.039.588-.342.891-.552.816-.552 1.138-.246.68-.546.796-.455.358-.343.539-.053.429-.368.549-.571.536-.571.923-.247.799-.549.914-.548.614-.548 1.107c0 .505-.16.798-.366.671s-.365.166-.365.671c0 .493-.258.995-.572 1.115s-.48.368-.368.55-.042.424-.342.539-.547.527-.547.914-.246.798-.548.914-.548.544-.548.953-.165.743-.366.743-.366.411-.366.914c0 .595-.204.914-.587.914-.372 0-.511.201-.377.548.115.302.088.549-.061.549-.31 0-1.709 2.484-1.734 3.079-.009.217-.214.353-.457.303-.251-.053-.44.305-.44.834 0 .509-.246 1.02-.546 1.135s-.464.344-.363.507-.064.547-.367.85-.552.658-.552.787-.256.491-.57.805-.483.795-.377 1.07c.113.294-.046.502-.384.502-.356 0-.497.204-.369.537.113.296-.063.808-.392 1.137-.59.59-1.514 2.109-2.261 3.719-.21.452-.551.822-.757.822s-.375.412-.375.914-.146.914-.326.914-.429.412-.555.915-.391.914-.588.914-.359.246-.359.548-.164.549-.365.549-.366.411-.366.914c0 .568-.207.914-.549.914-.304 0-.548.325-.548.731s-.165.731-.366.731-.365.394-.365.875-.247.97-.549 1.086-.548.462-.548.77-.165.56-.366.56-.365.311-.365.692-.247.787-.549.903-.548.544-.548.953-.165.743-.366.743-.366.411-.366.914c0 .568-.207.914-.548.914-.309 0-.548.326-.548.747 0 .411-.412 1.191-.915 1.733s-.914 1.193-.914 1.446-.153.461-.341.461-.393.453-.457 1.006c-.077.67-.299.965-.664.883-.302-.067-.43-.002-.284.143.27.27-.626 2.129-1.453 3.015-.251.27-.457.725-.457 1.012s-.164.523-.366.523-.365.411-.365.914c0 .568-.207.914-.549.914s-.548.345-.548.914c0 .503-.165.914-.366.914s-.365.227-.365.504-.247.708-.549.958-.548.847-.548 1.325-.165.869-.366.869-.365.398-.365.884c0 1.16-.367 2.084-.737 1.855-1.052-.65-.959 22.07.097 23.681.352.537.64 1.312.64 1.721s.164.744.365.744.366.4.366.888.207 1.105.461 1.371c.557.584 1.52 2.569 1.431 2.951-.035.151.183.275.484.275.345 0 .549.347.549.935 0 .531.158.838.365.71s.366.183.366.721c0 .521.247 1.042.549 1.158s.548.462.548.769.411.94.914 1.406.914 1.194.914 1.617.165.669.366.545c.213-.132.365.24.365.892 0 .689.172 1.083.449 1.027.246-.05.509.32.583.823s.37 1.047.657 1.211.425.451.308.639.045.344.358.344.57.249.57.553.153.839.339 1.188.432.934.546 1.298.373.561.575.436.369.117.369.538c0 .79.792 2.219 1.916 3.46.571.629.72 1.097.61 1.909-.018.132.229.387.549.566s.581.646.581 1.039.123.715.274.717.589.66.973 1.462.837 1.459 1.006 1.459.306.233.306.519c0 .652 1.186 2.766 1.554 2.769.151.001.274.337.274.745s.247.838.549.953.548.37.548.564.24.592.533.885.43.802.304 1.131c-.141.368-.082.507.154.361.222-.138.477.232.606.878.124.619.387 1.014.593.887s.37.148.37.643c0 .48.411 1.258.914 1.731s.914 1.159.914 1.526.164.667.366.667.365.312.365.693.247.786.549.902.548.627.548 1.136.126.926.279.926c.279 0 .94 1.083 1.393 2.285.133.352.387.64.565.64s.323.334.323.743.246.837.548.953.548.452.548.748.648 1.442 1.441 2.548 1.35 2.245 1.24 2.532c-.121.316.03.52.388.52.383 0 .588.318.588.914 0 .502.125.914.279.914.279 0 .939 1.083 1.393 2.285.133.352.386.64.564.64s.323.334.323.743.247.837.549.953.548.522.548.902.165.693.366.693.365.32.365.713.206.844.457 1.005c.599.383 1.371 1.781 1.371 2.481 0 .305.247.554.549.554s.548.319.548.709.165.812.366.936.366.551.366.947.246.816.548.932.548.419.548.675.245.668.545.916.454.598.344.776.056.324.37.324c.364 0 .57.33.57.915 0 .502.164.914.365.914s.366.411.366.914c0 .568.207.914.548.914.302 0 .549.309.549.686s.245.89.544 1.139.465.58.368.737.069.381.37.496.546.544.546.952.153.743.34.743.397.37.466.823.293.793.498.756.399.29.432.726.231.849.441.919.382.347.382.615.153.542.339.609.391.355.457.64.419.833.787 1.217.578.933.468 1.219-.043.52.148.52.45.411.576.914.376.914.556.914.326.256.326.57.164.468.365.344c.321-.198.542.554.406 1.381-.026.157.201.38.505.497s.552.528.552.915.246.798.546.913.464.344.362.508.065.546.368.849.552.728.552.944.164.392.366.392.365.411.365.914c0 .568.207.914.549.914.477 0 .731.668.591 1.554-.023.151.122.274.323.274s.365.235.365.522.253.775.562 1.084.805 1.144 1.102 1.855.702 1.292.901 1.292.36.329.36.731.165.732.366.732.366.334.366.742.246.838.548.954.549.527.549.914.236.794.525.905a.56.56 0 0 1 .326.72c-.12.314.032.518.389.518.387 0 .588.32.588.935 0 .531.158.838.365.71s.366.183.366.721c0 .521.247 1.042.548 1.158s.549.522.549.903.242.692.537.692c.304 0 .454.217.344.501-.105.276.064.6.378.72s.569.552.569.961.165.743.366.743.365.429.365.953c0 .697.148.897.549.743.411-.158.548.06.548.875 0 .597.165 1.085.366 1.085s.365.247.365.548.202.508.449.457.508.306.581.791.367 1.115.652 1.401.425.67.311.854.049.337.362.337c.365 0 .57.33.57.914 0 .502.147.914.326.914s.43.411.556.914.391.914.588.914.359.247.359.548.164.549.365.549.366.411.366.914c0 .569.207.914.548.914s.549.345.549.914c0 .503.164.914.365.914s.366.176.366.39.411.929.914 1.589.914 1.47.914 1.803.154.606.341.606.451.346.586.77c.262.826 1.056 1.904 2.09 2.837.352.317.64.87.64 1.227s.246.65.548.65a.55.55 0 0 1 .548.549c0 .301.275.548.61.548s.516.093.402.207c-.212.212 1.708 2.352 2.11 2.352.122 0 .451.206.731.457 1.21 1.085 1.623 1.372 1.982 1.372.21 0 .381.246.381.548 0 .316.331.548.781.548.429 0 1.162.412 1.628.915s1.092.914 1.391.914.646.164.771.365.525.366.89.366.87.247 1.12.548.929.549 1.508.549 1.052.164 1.052.365.588.366 1.306.366 1.519.214 1.781.475c.286.287 1.536.506 3.139.552 1.465.042 2.858.237 3.096.434.277.23 19.884.36 54.811.365l54.38.007-.116-.886c-.113-.866-2.509-3.382-24.938-26.175l-44.972-45.83-11.505-11.757c-17.88-18.202-17.098-17.361-16.507-17.738.431-.275.349-.351-.384-.355-1.901-.012-1.81 2.684-1.81-53.486v-52.602l-7.038-7.162-8.409-8.477c-.754-.722-1.371-1.5-1.371-1.728s-.331-.501-.734-.606c-.727-.19-.733-.431-.64-24.266l.094-24.074h23.583 23.583l.186 23.766.185 23.766.18-23.147c.18-23.137.181-23.147.912-22.441.89.861 13.068 13.289 18.738 19.123l4.114 4.232.005-7.165c.002-3.941.104-7.535.225-7.988l.22-.822h57.601 57.601l5.103 5.21 13.574 13.802 18.474 18.83 19.738 20.11 24.96 25.411 17.137 17.464c2.219 2.237 3.643 2.836 3.643 1.532 0-.455.414-1.37.92-2.034s.898-1.337.871-1.497c-.14-.828.081-1.587.403-1.388.217.134.365-.288.365-1.036 0-.72.212-1.343.492-1.451 1.046-.401 1.233-22.727.196-23.307-.333-.187-.806-1.295-1.081-2.534-.29-1.306-.681-2.202-.962-2.202-.26 0-.473-.341-.473-.757s-.239-.997-.533-1.291-.44-.775-.326-1.07c.129-.336-.014-.538-.381-.538-.383 0-.588-.318-.588-.914 0-.503-.164-.914-.365-.914s-.366-.248-.366-.551-.411-.909-.914-1.346c-.571-.496-.914-1.182-.914-1.826 0-.672-.191-1.031-.549-1.031-.334 0-.548-.341-.548-.875 0-.481-.27-.978-.601-1.105s-.502-.329-.381-.45-.185-.749-.679-1.397-.899-1.45-.899-1.783-.246-.605-.548-.605-.548-.32-.548-.71-.165-.811-.366-.936-.366-.55-.366-.947-.247-.816-.548-.931-.549-.44-.549-.72-.164-.509-.365-.509-.366-.412-.366-.915c0-.557-.208-.914-.534-.914-.312 0-.724-.644-.992-1.554-.252-.854-.655-1.756-.894-2.002s-.657-.947-.926-1.554-.613-1.105-.765-1.105-.276-.247-.276-.549-.175-.548-.388-.548-.285-.165-.161-.366.052-.366-.161-.366-.387-.411-.387-.914-.127-.914-.283-.914-.587-.566-.96-1.258-.901-1.344-1.174-1.449-.399-.442-.281-.749c.125-.327-.03-.653-.372-.784-.323-.124-.587-.619-.587-1.1s-.146-.875-.326-.875-.429-.412-.555-.914-.391-.915-.588-.915-.359-.256-.359-.57-.164-.468-.365-.344-.366-.03-.366-.344v-.753c0-.1-.325-.508-.723-.905s-.627-.974-.509-1.28.069-.557-.108-.557-.632-.576-1.011-1.279-.828-1.28-.997-1.28-.308-.412-.308-.914c0-.569-.208-.914-.549-.914s-.548-.346-.548-.914c0-.503-.165-.914-.366-.914s-.366-.324-.366-.719-.327-.894-.727-1.108-.703-.508-.672-.652c.102-.486-.743-2.197-1.153-2.333-.223-.074-.432-.492-.465-.927s-.19-.712-.349-.613c-.282.174-.427-.355-.327-1.194.028-.228-.2-.511-.505-.628s-.555-.547-.555-.956-.164-.743-.365-.743-.366-.246-.366-.548a.55.55 0 0 0-.548-.548c-.342 0-.549-.346-.549-.914 0-.503-.164-.915-.365-.915s-.366-.334-.366-.742-.247-.838-.549-.953-.548-.528-.548-.915-.219-.787-.486-.89-.71-.755-.983-1.451-.629-1.264-.793-1.264-.297-.412-.297-.914c0-.569-.208-.914-.549-.914s-.548-.346-.548-.915c0-.502-.165-.914-.366-.914s-.366-.229-.366-.509-.246-.604-.548-.72a.92.92 0 0 1-.548-.796c0-.323-.24-.826-.533-1.119s-.44-.775-.327-1.071c.129-.336-.014-.538-.381-.538-.331 0-.588-.299-.588-.686 0-.378-.246-.892-.548-1.142s-.549-.682-.549-.959-.164-.503-.365-.503-.366-.177-.366-.392-.24-.632-.533-.925-.44-.775-.326-1.071c.128-.333-.013-.538-.37-.538-.338 0-.496-.207-.384-.501.106-.276-.064-.757-.377-1.071s-.574-.786-.581-1.052c-.013-.554-1.082-2.082-1.091-1.559-.012.737-.714-.8-.72-1.575-.003-.453-.129-.824-.28-.825-.367-.003-1.553-2.117-1.553-2.77 0-.285-.165-.519-.366-.519s-.366-.229-.366-.509-.247-.604-.548-.72-.549-.544-.549-.953-.153-.743-.34-.743-.397-.37-.466-.822-.327-.782-.573-.732c-.253.052-.449-.283-.449-.769 0-.473-.411-1.304-.914-1.847s-.914-1.215-.914-1.494-.164-.61-.366-.734-.365-.545-.365-.936-.247-.709-.549-.709c-.334 0-.548-.341-.548-.875 0-.482-.257-.974-.572-1.095s-.48-.366-.369-.546-.043-.53-.343-.778-.544-.679-.544-.956-.257-.504-.57-.504-.48-.146-.37-.324-.045-.527-.344-.776-.544-.85-.544-1.336-.168-1.084-.373-1.327c-1.8-2.131-2.186-2.742-2.186-3.458-.001-.487-.224-.823-.549-.823-.342 0-.549-.345-.549-.914 0-.502-.164-.914-.365-.914s-.366-.235-.366-.522-.206-.74-.458-1.005-.783-1.101-1.18-1.855-.849-1.371-1.005-1.371-.282-.411-.282-.914-.165-.914-.366-.914-.365-.207-.365-.461-.412-.904-.914-1.446-.914-1.322-.914-1.733c0-.421-.24-.748-.549-.748s-.548-.325-.548-.731-.165-.731-.366-.731-.366-.403-.366-.896-.214-1.028-.476-1.188-.764-.91-1.114-1.664-.795-1.371-.986-1.371-.349-.319-.349-.71-.164-.811-.365-.935-.366-.546-.366-.936-.247-.71-.548-.71-.549-.249-.549-.553c0-.549-.707-2.02-1.139-2.372-.124-.1-.341-.555-.483-1.01s-.411-.734-.598-.619-.339-.194-.339-.687-.409-1.285-.908-1.759-.911-1.089-.914-1.367-.377-.857-.829-1.285-1.309-1.434-1.903-2.236-1.4-1.689-1.79-1.972-.969-.818-1.286-1.189-.727-.673-.91-.673-.722-.452-1.198-1.005-.867-.841-.871-.64-.162.119-.352-.183-.518-.569-.726-.594l-.745-.091c-.201-.026-.365-.304-.365-.619 0-.392-.215-.505-.68-.358a1.11 1.11 0 0 1-1.142-.341c-.254-.306-.693-.556-.977-.556s-.61-.247-.725-.549-.605-.548-1.086-.548-.875-.165-.875-.366-.534-.368-1.188-.371c-1.108-.005-2.729-.652-1.92-.766.201-.028-.374-.183-1.279-.344-2.167-.386-181.621-.435-181.859-.05m68.307 123.835c0 5.228.051 7.316.114 4.64s.062-6.954 0-9.507-.114-.362-.114 4.867m-.011 50.822c0 3.218.056 4.485.124 2.817s.067-4.302-.001-5.851-.124-.183-.123 3.034m-32.415 16.545h21.389c5.882-.057 1.069-.103-10.695-.103l-10.694.103m32.415 6.49c0 3.218.056 4.485.124 2.816s.067-4.301-.001-5.85-.124-.184-.123 3.034m200.64 32.891c-.42.713-.698 1.296-.618 1.296.286 0 1.734-2.24 1.56-2.414-.097-.097-.521.406-.942 1.118m-200.641 14.093c0 3.117.056 4.392.124 2.833a77.6 77.6 0 0 0 0-5.667c-.068-1.559-.124-.283-.124 2.834m0 23.034c0 3.117.056 4.392.124 2.834a77.6 77.6 0 0 0 0-5.667c-.068-1.559-.124-.284-.124 2.833m176.719 4.974c-.147.147-.267.519-.267.828 0 .411.108.452.407.154.224-.224.344-.596.267-.828s-.261-.3-.407-.154m-71.402 90.789c.227.367 1.134.32 1.533-.079.14-.14-.194-.254-.742-.254s-.904.15-.791.333" fill="#4383fb"/><path d="M153.931 113.142c0 15.101-.13 23.162-.379 23.628-.359.67-.856.707-9.506.707h-9.128v21.755 21.755h21.389 21.39v-5.78c0-4.049.136-5.966.457-6.401.427-.58 4.227-.615 58.043-.527l57.587.094.095 17.826.095 17.825-58.047-.092-58.048-.093-.1-6.124-.1-6.125h-21.381-21.38v29.799 29.799h20.811l21.389-.222c.491-.188.579-1.034.584-5.576.002-2.944.104-5.724.225-6.177l.221-.824 57.818.093 57.818.092.095 17.825.095 17.824h-57.917c-52.475 0-57.937-.054-58.139-.578-.122-.318-.221-3.098-.221-6.177 0-4.969-.072-5.625-.633-5.841-.917-.352-50.049-.149-50.622.209-.508.317-.83-.027 16.573 17.689l11.505 11.757 44.972 45.83c22.408 22.773 24.825 25.309 24.938 26.173l.116.883h29.43l29.205-.365c-.193-.313 4.632-.612 6.312-.392.254.033.56-.194.679-.505.148-.386.704-.566 1.75-.566.843 0 1.69-.153 1.881-.339s.923-.41 1.627-.496 1.238-.344 1.188-.575c-.053-.243.378-.418 1.027-.418s1.024-.152.892-.366c-.124-.201.031-.365.345-.365s.57-.148.57-.329c0-.464 2.647-1.783 3.199-1.594.251.085.457-.091.457-.393s.476-.759 1.058-1.016c.614-.272.981-.668.875-.945-.116-.301.108-.477.609-.477.435 0 .693-.159.572-.354s.199-.46.71-.589.929-.391.929-.585c0-.395.918-1.397 1.28-1.397.405 0 1.092-.886 1.203-1.551.059-.35.676-1.19 1.372-1.865s1.264-1.482 1.264-1.792.247-.658.548-.774.549-.454.549-.751.408-.982.907-1.52.833-1.099.743-1.245.072-.578.361-.96.53-.964.537-1.294.217-.68.468-.777.681-.937.955-1.867.686-1.691.917-1.691c.667 0 1.405-1.369.857-1.591-.339-.137-.336-.187.013-.209.252-.016.458-.285.458-.599s.152-.475.339-.36.455-.163.598-.618.409-.925.593-1.044.36-.56.392-.98.172-.694.311-.608.558-.582.93-1.486.881-1.644 1.133-1.645.457-.403.457-.894.164-.994.365-1.118.366-.545.366-.936.217-.709.483-.709c.469 0 2.325-3.553 2.155-4.124-.047-.156.163-.38.466-.496s.552-.523.552-.904.247-.692.549-.692c.336 0 .548-.342.548-.884 0-.486.172-.941.382-1.011s.409-.486.442-.926c.046-.608.173-.705.532-.406.366.303.472.174.472-.568 0-.527.165-.958.366-.958s.366-.279.366-.62.452-1.107 1.005-1.702.815-.974.583-.842c-.319.181-.321.023-.006-.644.229-.486.544-.804.699-.708s.376-.124.49-.489a9.22 9.22 0 0 1 .546-1.298c.186-.349.339-.883.339-1.188s.256-.553.57-.553.475-.153.36-.341-.041-.445.167-.573.283-.387.167-.574-.026-.34.198-.34.313-.157.195-.348.119-.526.526-.744.742-.72.742-1.115.164-.718.366-.718.365-.309.365-.687.237-.883.527-1.124.437-.671.326-.958c-.122-.319.029-.522.388-.522.379 0 .587-.317.587-.893 0-.49.163-.993.362-1.116.212-.131.273.05.148.436-.178.551-.148.569.182.11.217-.301.397-.846.4-1.21s.168-.56.367-.438.275 0 .17-.274.144-.883.553-1.354.743-1.079.743-1.35.165-.492.366-.492.366-.33.366-.732c0-.748 1.227-2.253 1.618-1.983.119.082.056-.041-.14-.274-.242-.288-.098-.645.454-1.124.446-.386.812-.812.814-.946.009-.484 1.059-2.808 1.365-3.018.172-.119.34-.571.372-1.006s.272-.79.53-.79.471-.246.471-.548.165-.548.366-.548.365-.412.365-.914c0-.585.206-.915.57-.915.314 0 .48-.145.37-.324s.034-.519.321-.756.628-.923.76-1.522.553-1.285.937-1.525.699-.79.699-1.223.246-.882.548-.997.549-.545.549-.954.164-.742.365-.742.366-.247.366-.549a.55.55 0 0 1 .548-.548c.302 0 .549-.227.549-.504 0-.617.879-2.588 1.813-4.067.381-.603.705-1.39.719-1.748s.274-.746.576-.862.548-.439.548-.719.174-.51.387-.51.288-.16.168-.356.116-.643.526-.995.747-.932.747-1.289.165-.651.366-.651.365-.411.365-.914c0-.568.208-.914.549-.914a.56.56 0 0 0 .548-.57c0-.358.17-.468.457-.295.311.186.297.076-.044-.344-.327-.403-.359-.619-.092-.619.226 0 .411-.176.411-.392s.205-.621.457-.901c.975-1.088 1.371-1.609 1.371-1.807 0-.113.411-.857.914-1.653s.914-1.698.914-2.004.247-.555.548-.555c.342 0 .549-.346.549-.914 0-.503.164-.915.365-.915s.366-.375.366-.833.32-1.064.712-1.346.641-.627.555-.766.211-.663.659-1.164.87-1.139.935-1.417.271-.561.457-.628.338-.52.338-1.006c0-.547.212-.883.556-.883.393 0 .507-.268.39-.915-.101-.556.005-.914.27-.914.435 0 1.444-1.314 1.545-2.011l.109-.753c.03-.214.343-.714.695-1.112 2.166-2.45 2.131-2.396 1.351-2.118-.631.224-.619.162.112-.547.452-.44.822-1.05.822-1.355s.163-.456.362-.333c.207.128.268-.019.144-.344-.133-.346-.019-.567.292-.567.28 0 .537-.368.571-.818s.233-.874.443-.944.382-.361.382-.645.143-.518.317-.518.664-.835 1.088-1.856.921-1.762 1.104-1.649.326.002.317-.247c-.042-1.177.132-1.756.465-1.55.208.128.366-.183.366-.721 0-.521.246-1.042.548-1.158s.548-.531.548-.924.165-.612.366-.488.366-.092.366-.482.247-.913.548-1.163.549-.682.549-.959.164-.504.365-.504.366-.346.366-.77.4-1.085.889-1.469.946-1.067 1.015-1.516.316-.777.55-.731c.247.049.366-.229.283-.658-.081-.419.088-.831.388-.946.567-.217.755-2.319.208-2.319-.381 0 .103.484-19.36-19.379l-24.96-25.411-19.738-20.11-31.65-32.175-4.7-4.753-.183 17.367-.183 17.368-57.548.092c-42.229.068-57.68-.017-58.044-.319-.394-.327-.495-2.363-.495-9.929v-9.518l-4.114-4.232-11.033-11.27-7.13-7.32c-1.536-2.072-1.489-2.746-1.489 21.634m-46.435 24.792c0 .252.617 1.049 1.371 1.771s4.538 4.538 8.409 8.477l7.038 7.162v-8.933-8.934h-8.409c-6.484 0-8.409.105-8.409.457" fill="#3c7ce4"/><path d="M106.274 89.12c-.094.152 10.384.277 23.286.277h23.456l.101 23.034-.096 23.851c-.198.814-.224.817-9.242.915l-9.044.097v22.121 22.121l20.841.101c19.97.097 22.486.033 22.486-.565 0-.147-9.707-.224-21.572-.17l-21.572.097v-21.761-21.761l8.866-.005c4.877-.004 9.074-.137 9.327-.298.363-.23.439-5.319.365-24.217l-.094-23.926-23.468-.094c-12.908-.052-23.546.031-23.64.183m71.788 9.508c0 .151 25.945.233 57.655.181l57.981.366c.242.342.287.319.175-.089-.163-.597-115.811-1.055-115.811-.458m-.21 8.502c0 4.323.053 6.092.117 3.93s.065-5.699 0-7.861-.117-.393-.117 3.931m115.837 9.6l-.088 17.095-57.734-.093c-31.754-.052-57.659.029-57.566.18.319.515 115.301.333 115.499-.183.096-.251.13-8.025.076-17.276l-.099-16.819-.088 17.096m-187.507 20.098c.073.36 2.159.489 9.113.564l9.019.098v61.529l.439 61.968c.281.281 1.496.415 3.382.371l2.944-.068-3.108-.206-3.108-.206-.045-61.426-.091-61.883c-.036-.353-2.138-.457-9.157-.457-5.857 0-9.177-.134-9.296-.375-.103-.206-.144-.165-.092.091m72.124 31.606c-.134.134-.244.34-.244.457s26 .171 57.777.12l57.776-.094-.098 17.553c-.054 9.653.025 17.552.176 17.552.494 0 .332-34.897-.165-35.393-.479-.479-114.745-.673-115.222-.195m-43.574 52.864l.003 30.073 21.664.094c20.221.088 21.663.053 21.663-.53 0-.485-.097-.527-.439-.185-.331.331-5.622.438-21.57.438h-21.131l-.097-29.981-.096-29.982.003 30.073m43.575 17.336c-.467.467-.243.942.251.532.364-.302 15.719-.387 57.678-.319l57.183.093.095 17.461.095 17.461-57.774-.094c-31.775-.051-57.773.03-57.773.182s26.038.234 57.861.183l57.861-.093v-17.733-17.733l-57.616-.092c-31.689-.051-57.726.017-57.861.152m-45.4 22.758c-1.769.21 37.98.131 42.413-.084 1.207-.059-7.432-.113-19.196-.12s-22.212.085-23.217.204" fill="#88acf0"/><path d="M106.277 89.458c-.305.304-.326 46.283-.022 47.075.194.506 1.361.579 9.323.579 7.013 0 9.113.104 9.149.457.025.251.066 28.084.091 61.852l.411 61.517c.243.081.334-20.718.272-62.035l-.094-62.157h-9.314-9.315l-.202-.823c-.111-.452-.155-11.147-.098-23.766l.073-22.943c-.017 0-.14.11-.274.244m46.374 23.465v23.64l-9.232.098-9.233.097v22.225c0 16.797.108 22.331.439 22.662.634.634 42.731.634 43.364 0 .305-.305.439-2.251.439-6.4v-5.962l57.587.093 57.586-.182c0-.151-25.955-.233-57.678-.182l-57.678.092-.1 6.12c-.098 5.985-.118 6.124-.914 6.317-.448.108-10.193.151-21.655.096l-20.841-.101v-22.121-22.121l8.94-.098c6.593-.072 9.016-.216 9.227-.548.366-.577.389-46.969.023-47.195-.151-.093-.274 10.469-.274 23.47m25.579-13.746c-.097.252-.133 8.108-.08 17.459l.095 17.002 57.77.002 57.769.001-57.678-.094-57.678-.094v-17.184-17.183h57.331l57.791.457c.369.366.412.33.217-.183-.318-.834-115.218-1.016-115.537-.183m-43.874 92.136c-.097.253-.133 13.952-.081 30.442l.094 29.982h21.938 21.938l.1-6.125.1-6.124h57.6l57.374-.366c-.354-.571-114.346-.499-114.918.074-.305.305-.439 2.251-.439 6.401v5.963l-21.663-.095-21.664-.094-.094-30.073-.093-30.073h21.748 21.749l.1 6.307.1 6.307 57.385.093 57.66-.183c.151-.152-25.627-.233-57.285-.182l-57.56.094-.1-6.31-.1-6.309-21.857-.094c-17.291-.075-21.893.002-22.032.365m-2.638 70.009a8.06 8.06 0 0 0 2.011 0c.553-.084.101-.152-1.005-.152s-1.559.068-1.006.152m45.878 0c.314.224.477 2.106.548 6.335l.101 6.018 57.587.001 57.587.002-57.487-.094-57.487-.094-.1-6.094c-.083-5.047-.194-6.118-.648-6.242-.397-.108-.425-.061-.101.168" fill="#94bcfc"/></svg>