<svg xmlns="http://www.w3.org/2000/svg" xmlns:xlink="http://www.w3.org/1999/xlink" viewBox="0 0 1035 1024"><path d="M509.008842 5.991298C227.902877 5.991298 0 233.867228 0 514.982175c0 281.105965 227.902877 508.99986 509.008842 508.99986s508.99986-227.893895 508.99986-508.99986c0-281.114947-227.902877-508.990877-508.99986-508.990877z m0 952.634386c-79.979789 0-144.82414-53.427649-144.82414-119.313965H653.832982c0 65.877333-64.844351 119.313965-144.82414 119.313965z m239.202807-158.827789H269.779088v-86.752562h478.441544v86.752562z m-1.715649-131.404351h-475.351579c-1.580912-1.823439-3.197754-3.61993-4.724772-5.470316-48.972351-59.46386-60.505825-90.507228-71.706947-122.143439-0.188632-1.041965 59.383018 12.171228 101.627509 21.674667 0 0 21.737544 5.030175 53.517473 10.82386-30.513404-35.76814-48.631018-81.237333-48.631017-127.712562 0-102.031719 78.255158-191.191579 50.023298-263.257824 27.477333 2.236632 56.86793 57.990737 58.853053 145.165474 29.210947-40.367158 41.43607-114.086175 41.43607-159.285895 0-46.798596 30.836772-101.160421 61.682526-103.01979-27.495298 45.316491 7.123088 84.165614 37.896982 180.538386 11.542456 36.199298 10.069333 97.118316 18.97993 135.75186C573.053754 301.217684 586.850807 184.140351 637.754386 143.719298c-22.45614 50.903579 3.323509 114.598175 20.95607 145.219369 28.447439 49.403509 45.693754 86.833404 45.693755 157.62414 0 47.463298-17.524772 92.151018-47.086036 127.083789 33.612351-6.305684 56.823018-11.991579 56.823018-11.991578l109.154807-21.297404c0.008982-0.008982-15.854035 65.221614-76.8 128.03593z" fill="#E6522C" ></path></svg>