<svg xmlns="http://www.w3.org/2000/svg" xmlns:xlink="http://www.w3.org/1999/xlink" viewBox="0 0 1024 1024"><path d="M938.666667 576l-21.333334-192-61.866666 40.533333c-57.6-36.266667-130.133333-61.866667-211.2-74.666666 0 0-40.533333-8.533333-93.866667-8.533334s-102.4 6.4-102.4 6.4C241.066667 373.333333 85.333333 490.666667 85.333333 631.466667 85.333333 776.533333 245.333333 896 490.666667 917.333333v-83.2c-168.533333-23.466667-275.2-102.4-275.2-202.666666 0-93.866667 98.133333-172.8 232.533333-198.4 0 0 104.533333-23.466667 196.266667 4.266666 44.8 10.666667 85.333333 25.6 119.466666 46.933334L682.666667 533.333333l256 42.666667z" fill="#9E9E9E" ></path><path d="M490.666667 170.666667v746.666666l128-64V106.666667z"  ></path><path d="M490.666667 170.666667v746.666666l128-64V106.666667z" fill="#FF9800" ></path></svg>