<svg xmlns="http://www.w3.org/2000/svg" xmlns:xlink="http://www.w3.org/1999/xlink" viewBox="0 0 1029 1024"><path d="M876.8 304a7.68 7.68 0 0 1-6.72-3.84l-115.52-200.32a7.68 7.68 0 0 0-6.72-3.84H276.48a7.68 7.68 0 0 0-6.72 3.84l-119.68 208-115.84 200.32a7.68 7.68 0 0 0 0 7.68l115.52 200.32 120 208a7.68 7.68 0 0 0 6.72 3.84h471.36a7.68 7.68 0 0 0 6.72-3.84l115.52-200.32a7.68 7.68 0 0 1 6.72-3.84h144a8.64 8.64 0 0 0 8.64-8.64V312.64a8.64 8.64 0 0 0-8.64-8.64h-144z" fill="#4D4D4D" ></path><path d="M176 490.88l-128 46.72-12.8-22.08a7.68 7.68 0 0 1 0-7.68l58.56-101.12z" fill="#E1E1E1" ></path><path d="M944.32 528.32l85.12-12.16v98.88l-85.12-86.72z" fill="#C8C8C8" ></path><path d="M944.32 528.32l85.12 86.4v96a8.64 8.64 0 0 1-8.64 8.64H921.92z" fill="#C2C2C2" ></path><path d="M944.32 528.32l-22.4 191.68h-119.04l-36.16-87.04 177.6-104.64z" fill="#C7C7C7" ></path><path d="M944.32 528.32l85.12-103.68v91.52l-85.12 12.16z" fill="#CECECE" ></path><path d="M1029.44 312.64v112l-85.12 103.68-64-224h140.8a8.64 8.64 0 0 1 8.32 8.32z" fill="#D3D3D3" ></path><path d="M802.88 720h-63.04l-16-23.36 42.88-63.68 36.16 87.04z" fill="#C6C6C6" ></path><path d="M944.32 528.32l-235.52-99.52 123.84-124.8h47.36l64.32 224.32z" fill="#D5D5D5" ></path><path d="M708.8 428.8l57.92 204.16 177.6-104.64z" fill="#D0D0D0" ></path><path d="M739.84 720h-16.96l0.96-23.36 16 23.36z" fill="#BFBFBF" ></path><path d="M832.64 304l-123.84 124.8-22.4-111.68 47.68-13.12h98.56z" fill="#D9D9D9" ></path><path d="M708.8 428.8l-286.08 65.92 300.8 201.92z" fill="#D4D4D4" ></path><path d="M708.8 428.8l15.04 267.84 42.88-64z" fill="#D0D0D0" ></path><path d="M686.4 317.12l-263.68 177.6 285.76-65.92z" fill="#D9D9D9" ></path><path d="M422.72 494.72L298.88 720H228.16l-52.16-229.12 246.72 3.84z" fill="#D8D8D8" ></path><path d="M295.68 304l-119.68 186.88-32-175.68 4.16-7.36a7.68 7.68 0 0 1 8.32-3.84h139.2z" fill="#E2E2E2" ></path><path d="M228.16 720H156.48a7.68 7.68 0 0 1-6.72-3.84l-102.72-178.24 128-46.72z" fill="#D8D8D8" ></path><path d="M176 490.88l-83.2-84.16 52.8-91.52 30.4 175.68z" fill="#E4E4E4" ></path><path d="M553.6 304h-208.96l78.08 190.72 263.68-177.6-79.36-13.12h-53.44z" fill="#DEDEDE" ></path><path d="M312 304h-16.32l-119.68 186.88 246.72 3.84-78.08-190.72H312z" fill="#DEDEDE" ></path><path d="M666.24 720h56.64l0.96-23.36-57.6 23.36z" fill="#C5C5C5" ></path><path d="M723.84 696.64l-301.12-201.92 54.4 225.28h189.12l57.6-23.36z" fill="#D0D0D0" ></path><path d="M298.88 720h178.24l-54.4-225.28-123.84 225.28z" fill="#D1D1D1" ></path><path d="M687.04 304l-0.64 13.12 47.68-13.12H687.04z" fill="#DDDDDD" ></path><path d="M607.04 304l79.36 13.12-7.36-13.12h-72z" fill="#E3E3E3" ></path><path d="M679.04 304l7.36 13.12 0.64-13.12h-8z" fill="#E2E2E2" ></path><path d="M470.08 307.52l-116.16 201.28a6.72 6.72 0 0 0 0 3.2H272l160-276.48a6.4 6.4 0 0 1 2.24 2.24l36.16 64a7.04 7.04 0 0 1-0.32 5.76z" fill="#00B8E3" ></path><path d="M470.08 723.84l-36.16 64a7.04 7.04 0 0 1-2.56 2.24L272 512H352.32a6.08 6.08 0 0 0 0 3.2l116.16 201.28a6.72 6.72 0 0 1 1.6 7.36z" fill="#33C6E9" ></path><path d="M431.36 235.84L272 512l-40 69.44L192.32 515.2a6.08 6.08 0 0 1 0-3.2 6.72 6.72 0 0 1 0-3.2l38.72-66.88 117.44-203.52a6.72 6.72 0 0 1 6.08-3.52h72z" fill="#008AAA" ></path><path d="M431.36 788.48h-75.52a6.72 6.72 0 0 1-6.08-3.52l-107.2-184.96-10.56-18.56L272 512z" fill="#00B8E3" ></path><path d="M752.32 512l-160 276.48a7.36 7.36 0 0 1-2.24-2.24l-36.16-64a7.04 7.04 0 0 1 0-6.4l116.16-201.28A6.72 6.72 0 0 0 672.32 512h80z" fill="#008AAA" ></path><path d="M832.32 512a6.72 6.72 0 0 1 0 3.52l-156.16 270.72a6.72 6.72 0 0 1-5.76 3.2h-74.24a7.36 7.36 0 0 1-3.52 0l160-276.48 40-69.12 38.08 65.92A6.72 6.72 0 0 1 832.32 512zM752.32 512H672.32a6.72 6.72 0 0 0 0-3.52l-118.08-200.96a6.72 6.72 0 0 1 0-7.04l36.16-64a7.36 7.36 0 0 1 2.24-2.24z" fill="#00B8E3" ></path><path d="M792.32 442.88L752.32 512l-160-276.48a7.36 7.36 0 0 1 3.52 0h72a6.72 6.72 0 0 1 5.76 3.2z" fill="#33C6E9" ></path></svg>