<svg xmlns="http://www.w3.org/2000/svg" xmlns:xlink="http://www.w3.org/1999/xlink" viewBox="0 0 1024 1024"><path d="M827.936 723.584l-83.456-55.328-69.696 116.48-81.024-23.84-71.2 109.12 3.68 34.24 387.2-71.52-22.624-242.72z m-361.344-104.864l62.048-8.544a179.776 179.776 0 0 0 29.056 9.6 91.68 91.68 0 0 0 72.768-6.72 117.344 117.344 0 0 0 29.344-26.304l254.656-46.464 25.984 315.488L504.192 934.4z m472.928-113.728l-25.056 4.896L866.176 9.6 43.2 105.152 144.704 930.56l96.288-14.048a208 208 0 0 0-40.032-41.28c-28.416-23.552-18.336-64-1.536-89.28 22.016-42.784 136.352-97.216 129.632-165.696a121.216 121.216 0 0 0-29.376-79.456 76.032 76.032 0 0 0 0.608 18.048 92.608 92.608 0 0 1-14.048-28.8 179.2 179.2 0 0 1-13.44-16.8 59.744 59.744 0 0 0-3.2 21.088 133.216 133.216 0 0 1-8.864-33.92 55.328 55.328 0 0 0-5.824 20.192 128.32 128.32 0 0 1-7.648-44.64 208.416 208.416 0 0 1-14.208-101.568 81.888 81.888 0 0 0 102.112-18.336c7.04-10.688 11.936-39.424-3.68-96a861.824 861.824 0 0 0-44.64-111.2l-1.216 0.928c5.184 16.512 15.584 51.2 19.552 68.16A183.552 183.552 0 0 1 314.976 310.4 72 72 0 0 1 268.8 359.2c-29.664 14.976-69.088-21.408-71.52-23.552a158.208 158.208 0 0 1-53.504-78.88 89.824 89.824 0 0 1 18.656-48.288c-10.08 3.2-21.408 7.936-21.408 7.936a254.08 254.08 0 0 1 30.272-26.304 214.08 214.08 0 0 0 18.336-13.44c-10.4-0.32-18.944 0-18.944 0a342.176 342.176 0 0 1 35.776-16.512c-13.44-0.608-25.984 0-25.984 0s39.104-17.408 69.984-30.56a41.984 41.984 0 0 1 53.792 10.688 92.256 92.256 0 0 0 65.408 41.6 304.416 304.416 0 0 1 53.504-21.408 83.2 83.2 0 0 1 41.28-28.8 40 40 0 0 0-11.296 21.408 290.304 290.304 0 0 1 27.52-18.944 108.448 108.448 0 0 0-10.688 17.728l1.216 1.728a280.8 280.8 0 0 1 33.312-16.512s-5.184 6.4-11.296 14.976c11.616 0 35.2 0.608 44.032 1.536 53.792 1.216 64.8-57.6 85.6-64.8 25.6-9.184 37.312-14.976 81.312 28.416 37.6 37.312 67.2 103.648 52.576 118.624-12.224 12.224-36.384-4.896-63.296-38.4a148.768 148.768 0 0 1-29.952-65.408 63.296 63.296 0 0 0-20.8-35.456 118.4 118.4 0 0 1 9.6 40.352 131.2 131.2 0 0 0 17.728 70.4c-1.536 3.2-2.432 15.584-4.288 18.048a251.84 251.84 0 0 0-66.944-44.64 381.312 381.312 0 0 1 95.072 102.72c18.944 38.816 7.648 74.592 17.44 83.776a331.104 331.104 0 0 1 48 73.984 143.744 143.744 0 0 1-16 112.512l-46.784 7.328a59.84 59.84 0 0 1-17.44-6.4 110.848 110.848 0 0 0 10.08-24.16l-2.752-4.576a199.424 199.424 0 0 1-59.008 52.288 98.464 98.464 0 0 1-76.8 6.4 438.816 438.816 0 0 1-122.592-65.728 16.64 16.64 0 0 0 2.144 9.792 422.4 422.4 0 0 0 78.272 65.408l-66.944 7.328 31.808 247.616c-14.048 2.144-16.192 3.2-31.488 5.184a165.728 165.728 0 0 0-67.872-97.824 126.816 126.816 0 0 0-92.64-13.152l-2.08 2.368a118.4 118.4 0 0 1 77.952 18.656 181.408 181.408 0 0 1 57.6 88.96 115.648 115.648 0 0 1-10.4 110.368 93.504 93.504 0 0 1-124.8 9.792 75.872 75.872 0 0 0 52.288 39.744 99.2 99.2 0 0 0 88-24.32 145.312 145.312 0 0 0 26.304-103.008l29.952-4.288 10.688 77.024L980.8 899.2z m-300.512-208.768a15.328 15.328 0 0 0-0.32 15.584l0.32 0.608 0.64 1.184 1.216 3.2a61.184 61.184 0 0 0 22.912 29.056 54.752 54.752 0 0 1 29.056 2.432 75.136 75.136 0 0 0 0.32-9.6 50.816 50.816 0 0 0-26.304-54.72 29.44 29.44 0 0 0-31.488 2.752 5.76 5.76 0 0 1 2.432 0.608c7.936 3.2 2.432 5.824 1.216 8.864M720.96 438.4a105.6 105.6 0 0 0-34.24 0.32 168.384 168.384 0 0 0-55.648 15.584 17.376 17.376 0 0 0 2.144 27.52 86.976 86.976 0 0 0 59.904 24.16 59.264 59.264 0 0 0 30.272-38.208 24.448 24.448 0 0 0-2.432-29.376M508.8 315.168c6.72-6.4-33.632-14.976-65.12 6.4a43.616 43.616 0 0 0-1.824 69.088 31.04 31.04 0 0 0 5.824 4.288 178.528 178.528 0 0 1 22.4-8.864 200.576 200.576 0 0 1 36.064-8.256 39.808 39.808 0 0 0 8.864-31.168c-1.824-22.624-18.944-19.2-6.112-31.488" fill="#6d4396"></path></svg>