<svg fill="none" xmlns="http://www.w3.org/2000/svg" viewBox="0 0 1713 996">
  <g class="architecture">
    <path fill="#E2ECFF" stroke="#343A40" d="M720 129h993v866H720z"/>
    <path fill="#E2ECFF" stroke="#343A40" d="M1 129h699v866H1z"/>
    <g>
      <g>
        <path d="M125 474l474-1v321l-472-1" fill="#FD7E14"/>
        <path d="M127 473c164 1 331 2 470-1l-470 1zm0-1c164 2 330 2 471 0H127zm472 0c2 79 1 159-2 320l2-320zm-2 1c3 80 2 159 0 319V473zm1 320c-112 0-225 1-471-1l471 1zm0-1l-471 1 471-1zm-471 0c-1-72-3-141-2-318l2 318zm0 1l-1-320 1 320z" fill="#FD7E14"/>
        <path d="M599 473h1v-1h-1v1zm0 321v1h1v-1h-1zM127 473v1-1zm470-1v-1 1zm-470 0v1-1zm471 0v1-1zm1 0h1-1zm-2 320h-1 1zm0-319h1-1zm0 319h1-1zm1 1v1-1zm-471-1v-1 1zm471 0v1-1zm-471 1v-1 1zm0-1h1-1zm-2-318h1-1zm1 319a1 1 0 001 0h-1zm0-320a1 1 0 00-1 0h1zm-1 2l474-2v-1l-474 2v1zm474-2v321h1V473h-1zm0 321l-472-2v1l472 2v-1zM127 474c164 1 331 1 470-2v-1c-139 3-306 3-470 2v1zm470-3l-470 2v1l470-2v-1zm-470 2c164 2 330 2 471 0v-1c-141 2-307 2-471 0v1zm471-1H127v1h471v-1zm1 0c2 79 1 159-3 320h1c4-161 5-241 3-320h-1zm-2 320l3-320h-1l-3 320h1zm0-319c3 80 2 159 0 319h1c2-160 3-239 0-319h-1zm1 319V473h-1v319h1zm0 1c-112 0-225 1-471-2v1c246 3 359 2 471 2v-1zm-471-1l471 2v-1l-471-2v1zm471 0H127v1h471v-1zm-471 1h471v-1H127v1zm1-1c-2-72-3-141-2-318h-1c-1 177 0 246 2 318h1zm-3-318l2 318h1l-2-318h-1zm2 319l-1-320h-1l1 320h1z" fill="#000" fill-opacity=".8"/>
      </g>
      <text fill="#000" style="white-space:pre" font-size="36" letter-spacing="0em">
        <tspan x="245.5" y="520.8">Apache APISIX</tspan>
      </text>
      <g>
        <g>
          <path d="M168 546l183-2-1 67-181-2" fill="#fff"/>
          <path d="M171 545l181 2-181-2zm-1 2l180-1-180 1zm180-2c-2 20 2 43 2 65l-2-65zm0 0v65-65zm1 66c-46-2-92-2-180 0h180zm-1-2c-45-1-91 0-181 1l181-1zm-181 2v-65 65zm1-1v-64 64z" fill="#fff"/>
          <path d="M351 544zm-1 67zm-179-66v-1 1zm181 2v-1 1zm-182 0v-1 1zm180-1v1-1zm0-1h-1 1zm2 65h-1 1zm-2-65h-1 1zm0 65h1-1zm1 1v1-1zm-180 0v-1 1zm179-2v-1 1zm-181 1v-1 1zm0 1h-1 1zm0-65h-1 1zm0 64a1 1 0 001 0h-1zm2-64a1 1 0 00-1 0h1zm-3 1l183-2v-1l-183 2v1zm182-3l-1 67h1l1-67h-1zm0 66l-181-2v1l181 2v-1zm-179-65l181 2v-1l-181-2v1zm181 1l-181-2v1l181 2v-1zm-182 1h180v-1H170v1zm180-1H170v1h180v-1zm-1-1c-1 10 0 21 1 32l1 33h1l-1-33c-1-11-2-22-1-32h-1zm3 65l-2-65h-1l2 65h1zm-3-65l1 65h1l-1-65h-1zm2 65l-1-65h-1l1 65h1zm0 1c-46-2-92-2-180-1v1c88-1 134-1 180 1v-1zm-180 0l180 1v-1l-180-1v1zm179-3c-45-1-91 0-181 1v1c90-1 136-2 181-1v-1zm-181 2l181-1v-1l-181 1v1zm0 1v-36-29h-1v65h1zm-1-65v65h1v-65h-1zm2 64l1-64h-1l-1 64h1z" fill="#000"/>
        </g>
        <text fill="#000" style="white-space:pre" font-size="24.4" letter-spacing="0em">
          <tspan x="212" y="589.9">Rate limit</tspan>
        </text>
      </g>
      <g>
        <g>
          <path d="M370 544l180 3v61l-179 2" fill="#fff"/>
          <path d="M371 546c65 2 136 1 177 1l-177-1zm-1-1c45-2 91-1 180 0H370zm178-1c4 26 4 49 2 65l-2-65zm2 2l-1 62 1-62zm-1 64c-42 2-80 2-181-1l181 1zm2-1H370h181zm-183 1l3-64-3 64zm1 0v-64 64z" fill="#fff"/>
          <path d="M550 547v-1 1zm0 61v1-1zm-179-62v-1 1zm177 1v1-1zm-178-2v1-1zm180 0v1-1zm-2-1h1-1zm2 65h-1 1zm0-63h1-1zm-1 62h1-1zm0 2v1-1zm-181-1v-1 1zm183 0v-1 1zm-181 0v-1 1zm-2 1h-1 1zm3-64l-1-1 1 1zm-2 64a1 1 0 101 0h-1zm0-64a1 1 0 10-1 0h1zm1-1l180 2v-1l-180-2v1zm179 2v61h1v-61h-1zm1 61l-179 2v1l179-2v-1zm-179-62c65 2 136 2 177 2v-1c-41 0-112 0-177-2v1zm177 1l-177-2v1l177 2v-1zm-178-1c45-3 91-1 180 0v-1c-89-1-135-3-180 0v1zm180-1H370v1h180v-1zm-2-1c3 26 3 49 1 65h1c2-16 2-39-1-65h-1zm2 65l-1-65h-1l1 65h1zm0-63l-1 62h1l1-62h-1zm0 62l1-62h-1l-1 62h1zm-1 2c-42 2-80 1-181-2v1c101 3 139 4 181 2v-1zm-181-1l181 2v-1l-181-2v1zm183-1H370v1h181v-1zm-181 1h181v-1H370v1zm-2 1l2-30 1-34-1-1-1 35-2 30h1zm2-65l-3 65h1l3-64-1-1zm0 65c0-25 1-47-1-64h-1c2 17 1 39 1 64h1z" fill="#000"/>
        </g>
        <text fill="#000" style="white-space:pre" font-size="24.5" letter-spacing="0em">
          <tspan x="430.4" y="584.5">Auth</tspan>
        </text>
      </g>
      <g>
        <g>
          <path d="M168 618l181-2 1 66-181-3" fill="#fff"/>
          <path d="M167 618c48-1 90 0 181 1l-181-1zm2-2c70 2 141 1 181 1l-181-1zm182 2c-1 16-3 32-3 62l3-62zm-2 0l-1 63 1-63zm-2 64l-180-2 180 2zm2-1c-40-1-79-2-181-1l181 1zm-181-1c0-22 3-45 2-63l-2 63zm1 0v-64 64z" fill="#fff"/>
          <path d="M349 616v-1 1zm1 66h1-1zm-183-64v1-1zm181 1v-1 1zm-179-3v-1 1zm181 1v-1 1zm1 1h-1 1zm-3 62h1-1zm1-62h1-1zm-1 63h1-1zm-1 1v-1 1zm-180-2v-1 1zm182 1v1-1zm-181-1v1-1zm0 0h1-1zm2-63h-1 1zm-2 63a1 1 0 001 0h-1zm1-64a1 1 0 00-1 0h1zm-1 2l181-2v-1l-181 2v1zm180-2l2 66h1l-2-66h-1zm2 65l-181-2v1l181 2v-1zm-183-62h181v-1H167v1zm181-1H167v1h181v-1zm-179-2c70 2 141 2 181 1v-1c-40 1-111 1-181-1v1zm181 0l-181-1v1l181 1v-1zm0 2l-2 62h1l2-62h-1zm-1 62l2-62h-1l-2 62h1zm0-62l-1 63h1l1-63h-1zm0 63l1-63h-1l-1 63h1zm-2 0c-67 1-140-1-180-2v1c40 1 113 3 180 2v-1zm-180-1l180 2v-1l-180-2v1zm182 1c-40-1-79-3-181-1v1c102-2 141 0 181 1v-1zm-181 0l181 1v-1l-181-1v1zm1-1l1-33v-30h-1v30l-1 33h1zm0-63l-1 63h1l1-63h-1zm0 63v-35-29h-1v64h1z" fill="#000"/>
        </g>
        <text fill="#000" style="white-space:pre" font-size="24" letter-spacing="0em">
          <tspan x="217" y="656.2">Security</tspan>
        </text>
      </g>
      <g>
        <g>
          <path d="M370 617l183 2v61l-183 3" fill="#fff"/>
          <path d="M372 619l182-1-182 1zm-1-1c48 1 96 1 180-1l-180 1zm183 0c-2 13-3 26-4 64l4-64zm-2 0c-1 18-1 39 1 63l-1-63zm1 64c-64 0-127-1-184 1l184-1zm-2 0l-180-1 180 1zm-181-1c3-22 2-44 3-64l-3 64zm2 1c-2-25-1-51-1-64l1 64z" fill="#fff"/>
          <path d="M553 619h1v-1h-1v1zm0 61zm-181-61v-1 1zm182-1v1-1zm-183 0v-1 1zm180-1v-1 1zm3 1h-1 1zm-4 64v-1l1 1h-1zm2-64h1-1zm1 63h-1 1zm0 1v1-1zm-184 1v-1 1zm182-1v-1 1zm-180-1v-1 1zm-1 0h1-1zm3-64h-1 1zm-2 65h1-1zm0-64a1 1 0 00-1 0h1zm-1-1l183 2v-1l-183-2v1zm183 2l-1 61h1l1-61h-1zm0 60l-183 3v1l183-3v-1zm-181-60h182v-1H372v1zm182-1H372v1h182v-1zm-183 0c48 1 96 1 180-1v-1c-84 2-132 2-180 1v1zm180-2l-180 1v1l180-1v-1zm2 2c-2 13-2 26-3 63l1 1c1-38 1-51 3-64h-1zm-2 64l3-64h-1l-3 63 1 1zm1-64v63h1v-63h-1zm1 63v-63h-1v63h1zm0 1H369v1h184v-1zm-184 1h184v-1H369v1zm182-2c-43 0-88 1-180-1v1c92 2 137 1 180 1v-1zm-180 0l180 1v-1l-180-1v1zm0 0c2-22 2-44 2-64h-1c0 20 0 42-2 64h1zm1-64l-2 64h1l2-64h-1zm0 65c-2-25-1-51-1-64h-1c0 13-1 39 1 64h1z" fill="#000"/>
        </g>
        <text fill="#000" style="white-space:pre" font-size="23.3" letter-spacing="0em">
          <tspan x="416.2" y="656.3">Logging</tspan>
        </text>
      </g>
      <g>
        <g>
          <path d="M170 691l180 2-1 63H170" fill="#fff"/>
          <path d="M171 694c39 0 82-3 180 0H171zm-2-1c64-2 125-2 180 0H169zm182-1c-1 20-2 44 0 66v-66zm-1 0c-1 21 0 42 1 64l-1-64zm-1 65c-64-3-132-4-179 0h179zm0-1l-179-1 179 1zm-180-1v-63 63zm1 1l-1-63 1 63z" fill="#fff"/>
          <path d="M350 693h1v-1h-1v1zm-1 63zm-178-62v1-1zm180 0v-1 1zm-182-1v1-1zm180 0v-1 1zm2-1h1-1zm0 66h1-1zm-1-66h-1 1zm1 64h-1 1zm-2 1v1-1zm-179 0v1-1zm179-1v-1 1zm-179-1v1-1zm-1 0h1-1zm0-63h-1 1zm0 64a1 1 0 001 0h-1zm0-63a1 1 0 00-1 0h1zm1-1l180 1v-1l-180-1v1zm180 1l-2 63h1l2-63h-1zm-1 62H170v1h179v-1zm-178-60c39-1 82-4 180-1v-1c-98-3-141 0-180 1v1zm180-2l-180 1v1l180-1v-1zm-182 1c64-3 125-3 180-1v-1c-55-2-116-2-180 1v1zm180-2l-180 1v1l180-1v-1zm2 0c-2 20-3 44 0 66h1c-3-22-2-46 0-66h-1zm1 66v-66h-1v66h1zm-3-66l1 64h1l-1-64h-1zm2 64l-1-64h-1l1 64h1zm-2 1c-64-4-132-5-179 0v1c47-5 115-4 179 0v-1zm-179 1h179v-1H170v1zm179-3H170v1h179v-1zm-179 1h179v-1H170v1zm0-1l-1-63h-1l1 63h1zm-2-63l1 63h1l-1-63h-1zm2 64l-1-63h-1l1 63h1z" fill="#000"/>
        </g>
        <text fill="#000" style="white-space:pre" font-size="23" letter-spacing="0em">
          <tspan x="185.4" y="733.4">Custom plugin</tspan>
        </text>
      </g>
      <g>
        <g>
          <path d="M372 690l179-2 3 67-183-4" fill="#fff"/>
          <path d="M373 688c67 5 133 2 180 0H373zm-2 2c58-1 116-2 182 0H371zm181-2v67-67zm-1 1c2 23 1 44 0 65v-65zm1 63c-67-1-130-1-180 2l180-2zm-1 1c-41 2-83 2-180 0h180zm-180 1l2-66-2 66zm0-1v-63 63z" fill="#fff"/>
          <path d="M551 688zm3 67zm-181-67v1-1zm180 0v-1 1zm-182 2v1-1zm182 0v-1 1zm-1-2h-1 1zm0 67h1-1zm-1-66h1-1zm0 65h1-1zm1-2v-1 1zm-180 2v1-1zm179-1v1-1zm-180 0v-1 1zm0 1h1-1zm2-66h-1 1zm-2 66a1 1 0 001-1l-1 1zm0-64a1 1 0 00-1 0h1zm1 1l179-2v-1l-179 2v1zm178-3l3 67h1l-3-67h-1zm4 66l-183-3v1l183 3v-1zm-181-65c67 4 133 2 180-1v-1c-47 3-113 5-180 1v1zm180-2l-180 1v1l180-1v-1zm-182 4c58-2 116-2 182-1v-1c-66-1-124-1-182 1v1zm182-2l-182 1v1l182-1v-1zm-2-1v37l1 30h1l-1-30v-37h-1zm2 67l-1-67h-1l1 67h1zm-2-66c2 23 1 44 0 65h1c1-21 2-42 0-65h-1zm1 65v-65h-1v65h1zm0-3c-67-1-130 0-180 3v1c50-3 113-4 180-3v-1zm-180 4l180-3v-1l-180 3v1zm179-2c-41 2-83 2-180-1v1c97 3 139 3 180 1v-1zm-180 0l180 1v-1l-180-1v1zm1 1l1-66h-1l-1 66h1zm0-66l-1 66h1l1-66h-1zm0 65v-36l-1-27h-1l1 27v37l1-1z" fill="#000"/>
        </g>
        <text fill="#000" style="white-space:pre" font-size="20" letter-spacing="0em">
          <tspan x="446.2" y="726.6">... ...</tspan>
        </text>
      </g>
    </g>
    <g>
      <g>
        <path d="M177 154l368-3-2 101-364 3" fill="#FEFFBF"/>
        <path d="M177 152h367-367zm0 0l366 1-366-1zm367-1l-2 104 2-104zm-1 1l1 102-1-102zm0 101c-136 2-271 1-364 1l364-1zm1 0c-105 2-211 2-367 1l367-1zm-365 0c-3-21-3-44-2-100l2 100zm-2 1c0-22 2-43 0-101v101z" fill="#FEFFBF"/>
        <path d="M545 151h1-1zm-2 101v1-1zM177 152v-1 1zm367 0v1-1zm-367 0v1-1zm366 1v-1 1zm1-2h1-1zm-2 104h1-1zm1-103h-1 1zm1 102h-1 1zm-1-1v-1 1zm-364 1v1-1zm365-1v-1 1zm-367 1v-1 1zm2-1h1-1zm-2-100h-1 1zm-1 101a1 1 0 001 0h-1zm2-101a1 1 0 00-1 0h1zm-1 1l368-2v-1l-368 2v1zm368-3l-3 101h1l3-101h-1zm-2 101l-364 2v1l364-2v-1zM177 152c90-1 178 1 367 1v-1c-189 0-277-2-367-1v1zm367 0l-367-1v1l367 1v-1zm-367 1h366v-1H177v1zm366-1H177v1h366v-1zm1-1l-1 43-1 61h1l1-61 1-43h-1zm-1 104l2-104h-1l-2 104h1zm-1-103l1 102h1l-1-102h-1zm2 102l-1-102h-1l1 102h1zm-1-2c-136 2-271 2-364 2v1c93 0 228 0 364-2v-1zm-364 3l364-2v-1l-364 2v1zm365-3c-105 2-211 2-367 1v1c156 1 262 1 367-1v-1zm-367 2l367-1v-1l-367 1v1zm3-1c-4-21-4-44-3-100h-1c-1 56-1 79 3 100h1zm-4-100l3 100h1l-3-100h-1zm1 101c1-22 3-43 1-101h-1c2 58 0 79-1 101h1z" fill="#000"/>
      </g>
      <text fill="#000" style="white-space:pre" font-size="28" font-weight="300" letter-spacing="0em">
        <tspan x="273.9" y="211.3">Client/Service</tspan>
      </text>
    </g>
    <path d="M363 254l-2 204m1 0l-10-29 10 29zm0 0l10-29-10 29zm-12-29c6 12 9 22 11 29 4-7 8-17 10-29m-7-174l-2 205 2-205z" stroke="#000" stroke-linecap="round"/>
    <g>
      <g>
        <path d="M826 165l270 2 2 302-275 1" fill="#FE7F80"/>
        <path d="M824 166c107-1 217-1 274 1l-274-1zm0 0c75 2 150 1 274-1l-274 1zm274 0l-1 304 1-304zm0-1c2 107 2 212 0 305V165zm-1 306c-65 0-132 3-274 0h274zm1 0c-71-2-141-1-274 0h274zm-272 1c-5-100-3-202-1-306l1 306zm-2-2V166v304z" fill="#FE7F80"/>
        <path d="M1096 167h1-1zm2 302v1-1zM824 166v1-1zm274 1v-1 1zm-274-1v1-1zm274-1v1-1zm0 1h1-1zm-1 304h-1 1zm1-305h1-1zm0 305h-1 1zm-1 1v1-1zm-274 0v-1 1zm275 0v-1 1zm-274 0v1-1zm2 1h-1 1zm-1-306h-1 1zm-1 304a1 1 0 001 0h-1zm1-304h-1 1zm1 0l270 2v-1l-270-2v1zm270 1l1 302h1l-1-302h-1zm2 302l-275 1v1l275-1v-1zM824 167h274v-1H824v1zm274-1H824v1h274v-1zm-274 1c75 2 150 1 274-1v-1c-124 2-199 3-274 1v1zm274-2l-274 1v1l274-1v-1zm0 1l-2 304h1l2-304h-1zm-1 304l2-304h-1l-2 304h1zm1-305c2 107 2 212-1 305h1c3-93 3-198 1-305h-1zm0 305l1-305h-1l-1 305h1zm-1 1c-65 0-132 2-274-1v1c142 3 209 1 274 1v-1zm-274 0l274 1v-1l-274-1v1zm275-1c-71-2-141-1-274 1v1c133-2 203-3 274-1v-1zm-274 2l274-1v-1l-274 1v1zm2 0c-4-100-3-202-1-306h-1c-2 104-3 206 1 306h1zm-2-306l1 306h1l-1-306h-1zm1 304V166h-1v304h1z" fill="#000"/>
      </g>
      <g>
        <g>
          <path d="M852 189l223 1-4 64-219 1" fill="#fff"/>
          <path d="M853 189c86 3 173 2 221 1l-221-1zm0 2c59 2 116 1 220 0H853zm220 2c1 14-1 25-1 63l1-63zm-1-2v63-63zm1 65c-50-2-96-4-221-2l221 2zm0-1H853h220zm-219-2c1-23-3-48-1-64l1 64zm-2 2c1-18-1-38 1-63l-1 63z" fill="#fff"/>
          <path d="M1075 190v1-1zm-4 64h1-1zm-218-65v1-1zm221 1v1-1zm-221 1v1-1zm220 0v-1 1zm0 2h1-1zm-1 63h-1 1zm0-65h1-1zm0 63h1-1zm1 2v-1 1zm-221-2v1-1zm221 1v-1 1zm-220 0v-1 1zm1-2h-1 1zm-1-64h1-1zm-1 66a1 1 0 001 0h-1zm2-63a1 1 0 00-1 0h1zm-2-2l223 1v-1l-223-1v1zm222 0l-3 64h1l3-63-1-1zm-3 63l-219 2v1l219-2v-1zm-218-63c86 3 173 2 221 1v-1c-48 1-135 2-221-1v1zm221 0l-221-1v1l221 1v-1zm-221 2c59 1 116 1 220-1v-1c-104 2-161 2-220 1v1zm220-2l-220 1v1l220-1v-1zm0 3l-1 22-1 41h1a1083 1083 0 012-63h-1zm-1 63l2-63h-1l-2 63h1zm0-65v63h1v-63h-1zm1 63v-63h-1v63h1zm0 1c-50-1-96-3-221-1v1c125-2 171 0 221 1v-1zm-221 0l221 1v-1l-221-1v1zm221-1H853v1h220v-1zm-220 1h220v-1H853v1zm1-2v-63l-1-1v64h1zm-1-64v64h1v-64h-1zm0 66v-29l1-34h-1l-1 34v29h1z" fill="#000"/>
        </g>
        <text fill="#000" style="white-space:pre" font-size="22.5" letter-spacing="0em">
          <tspan x="866.4" y="229.7">Apache Skywalking </tspan>
        </text>
      </g>
      <g>
        <g>
          <path d="M848 379l220-1 1 67-222-1" fill="#fff"/>
          <path d="M846 380c60 1 119 1 223-2l-223 2zm1 0c47-1 95-2 222 0H847zm223 1c-1 17-2 39 1 63l-1-63zm0-1c-1 22-2 44-1 66l1-66zm-2 65l-221-2 221 2zm1 0H847h222zm-221 0c-4-25-2-52-2-64l2 64zm-1 0l-1-66 1 66z" fill="#fff"/>
          <path d="M1068 378zm1 67v1-1zm-223-65v1-1zm223-2v1-1zm-222 2v-1 1zm222 0v-1 1zm1 1h1-1zm1 63h1-1zm-1-64h1-1zm-1 66h-1 1zm-1-1v1-1zm-221-2v1-1zm222 2v-1 1zm-222 0v-1 1zm1 0h1-1zm-2-64h-1 1zm0 64a1 1 0 001 0h-1zm0-66h-1 1zm2 1l220-1v-1l-220 1v1zm219-2l1 67h1l-1-67h-1zm2 67l-222-2v1l222 2v-1zm-223-64c60 0 119 0 223-2v-1c-104 2-163 2-223 2v1zm223-3l-223 2v1l223-2v-1zm-222 2h222v-1H847v1zm222-1H847v1h222v-1zm1 2c-2 17-2 39 1 63h1c-3-24-3-46-1-63h-1zm2 63l-1-63h-1l1 63h1zm-2-64c-2 22-2 44-2 66h1c0-22 0-44 2-66h-1zm-1 66l2-66h-1l-2 66h1zm-1-1l-221-2v1l221 2v-1zm-221-1l221 2v-1l-221-2v1zm222 0H847v1h222v-1zm-222 1h222v-1H847v1zm2 0c-4-25-2-52-3-64h-1c1 12-1 39 3 64h1zm-4-64l3 64h1l-3-64h-1zm2 64v-28l-1-38h-1l1 37v29h1z" fill="#000"/>
        </g>
        <text fill="#000" style="white-space:pre" font-size="23.3" letter-spacing="0em">
          <tspan x="912" y="419.5">Grafana...</tspan>
        </text>
      </g>
      <g>
        <g>
          <path d="M844 282l225 2 1 66H847" fill="#fff"/>
          <path d="M847 283c48 0 95-2 221 2l-221-2zm-1 0l224 1-224-1zm222-1c0 29 4 53 2 67l-2-67zm1 1v68-68zm2 67l-224 1 224-1zm-1 1l-223 1 223-1zm-225 0l1-68-1 68zm0 0c1-24 0-51 2-68l-2 68z" fill="#fff"/>
          <path d="M1069 284zm1 66v1h1v-1h-1zm-223-67v1-1zm221 2v1-1zm-222-2v1-1zm224 1v-1 1zm-2-2h1-1zm2 67h1-1zm-1-66h1-1zm0 68h1-1zm2-1v-1 1zm-224 1v-1 1zm223 0v1-1zm-223 1v-1 1zm-2-1h-1 1zm1-68h-1 1zm-1 68a1 1 0 001 0h-1zm2-68c1 0 0 0 0 0zm-3 0l225 2v-1l-225-2v1zm224 1l2 66h1l-2-66h-1zm2 66H847v1h223v-1zm-223-66c48-1 95-2 221 2v-1c-126-4-173-3-221-2v1zm221 1l-221-2v1l221 2v-1zm-222-1h224v-1H846v1zm224-1H846v1h224v-1zm-2-1l1 39c1 11 2 21 1 28h1c1-7 0-17-1-28l-1-39h-1zm3 67l-2-67h-1l2 67h1zm-2-66v68h1v-68h-1zm1 68v-68h-1v68h1zm1-2c-83 2-164 1-224 1v1c60 0 141 1 224-1v-1zm-224 2l224-1v-1l-224 1v1zm223 0H847v1h223v-1zm-223 1h223v-1H847v1zm-2-1c2-16 1-29 1-68h-1c0 39 1 52-1 68h1zm0-68l-1 68h1l1-68h-1zm1 68l1-37v-31l-1 31-1 37h1z" fill="#000"/>
        </g>
        <text fill="#000" style="white-space:pre" font-size="23.3" letter-spacing="0em">
          <tspan x="899" y="324.5">Prometheus</tspan>
        </text>
      </g>
    </g>
    <path d="M1230 340h-113m0 0c10-3 20-6 27-12l-27 12zm0 0c10 3 20 7 27 8l-27-8zm29-10l-29 9c15 7 21 9 29 11m82-12l-113 3 113-3z" stroke="#000" stroke-linecap="round"/>
    <path d="M603 614c10-5 46 17 58-28 12-44-11-196 14-241 26-45 116-25 139-30M605 616c9-5 43 14 55-31s-10-194 15-239c26-44 116-25 139-30m0-1c-12 6-19 11-29 13l29-13zm0 0c-12-4-19-4-30-7l30 7zm-28 12l28-12-28-9" stroke="#000" stroke-linecap="round"/>
    <g>
      <g>
        <path d="M37 908l183-2v63l-180-1" fill="#FEFFBF"/>
        <path d="M40 904l179 3-179-3zm-1 2h181H39zm179-1c2 24 0 53 3 63l-3-63zm1 2c2 12 1 27 1 62l-1-62zm-1 65c-36-3-72-1-180-2l180 2zm2-1c-40 2-79 1-180-2l180 2zm-183-3c3-13 4-31 2-63l-2 63zm2 2v-63 63z" fill="#FEFFBF"/>
        <path d="M220 906h1-1zm0 63h1-1zM40 904v1-1zm179 3v1-1zm-180-1v-1 1zm181 0v-1 1zm-2-1h1-1zm3 63h-1 1zm-2-61v-1l-1 1h1zm1 62h-1 1zm-2 3v-1 1zm-180-2v1-1zm182 1v-1 1zm-180-2v1-1zm-3-1h-1 1zm2-63h1-1zm0 65a1 1 0 101 0h-1zm1-63a1 1 0 00-1 0h1zm-3 1l183-1v-1l-183 1v1zm183-2v63h1v-63h-1zm0 62H40v1h180v-1zM40 905c50 1 101 0 179 3v-1c-78-3-129-2-179-3v1zm179 2l-179-3v1l179 3v-1zm-180-1h181v-1H39v1zm181-1H39v1h181v-1zm-2 0l1 37a382 382 0 001 26h1l-1-11v-15l-1-37h-1zm3 63l-2-63h-1l2 63h1zm-3-61c2 12 1 27 1 62h1c0-35 1-50-1-63l-1 1zm2 62l-1-63-1 1 1 62h1zm-2 2c-36-3-72 0-180-1v1c108 1 144-2 180 1v-1zm-180 0l180 1v-1l-180-1v1zm182-1c-40 2-79 1-180-1v1c101 2 140 3 180 1v-1zm-180 0l180 1v-1l-180-1v1zm-3-2c4-13 4-31 3-63h-1c1 32 1 50-3 63h1zm2-63l-3 63h1l3-63h-1zm1 65v-63h-1v63h1z" fill="#000"/>
      </g>
      <text fill="#000" style="white-space:pre" font-size="23.3" letter-spacing="0em">
        <tspan x="80" y="944.1">PARTNER</tspan>
      </text>
    </g>
    <g>
      <g>
        <path d="M280 906l181-2 1 66H279" fill="#FEFFBF"/>
        <path d="M279 905c55 3 105 1 181-2l-181 2zm0 1h181-181zm183-2c-4 24-3 51-4 64l4-64zm-3 2c1 24 2 50 1 63l-1-63zm-1 64c-67-4-133-4-179-2l179 2zm1-1H280h179zm-181-1c2-21-1-38 3-61l-3 61zm1 1l1-64-1 64z" fill="#FEFFBF"/>
        <path d="M461 904h1v-1h-1v1zm1 66zm-183-65v1-1zm181-2v1-1zm-181 3v-1 1zm181 0v-1 1zm2-2h-1 1zm-4 64h1-1zm1-62h1-1zm1 63h-1 1zm-2 1v1-1zm-179-2v-1 1zm180 1v-1 1zm-179 0v1-1zm-2-1h1-1zm3-61h-1 1zm-3 62h1-1zm2-64h-1 1zm0 2l181-3v-1l-181 3v1zm181-3v66h1v-66h-1zm1 65H279v1h183v-1zm-183-63c55 2 105 0 181-2v-1c-76 2-126 4-181 2v1zm181-3l-181 2v1l181-2v-1zm-181 3h181v-1H279v1zm181-1H279v1h181v-1zm1-1l-2 36-1 28h1l1-28 2-36h-1zm-2 64l3-64h-1l-3 64h1zm0-62v63h1v-63h-1zm1 63v-63h-1v63h1zm-2 1c-67-4-133-4-179-3v1c46-1 112-1 179 3v-1zm-179-2l179 3v-1l-179-3v1zm180 0l-179 1v1l179-1v-1zm-179 2l179-1v-1l-179 1v1zm-1-2v-30c0-10 0-20 2-31h-1c-2 11-2 21-2 31v30h1zm1-61l-2 61h1l2-61h-1zm-1 62l1-64h-1l-1 64h1z" fill="#000"/>
      </g>
      <text fill="#000" style="white-space:pre" font-size="23.3" letter-spacing="0em">
        <tspan x="322.3" y="944.5">PRIVATE</tspan>
      </text>
    </g>
    <g>
      <g>
        <path d="M503 903l180-1v65l-179-3" fill="#FEFFBF"/>
        <path d="M504 901c49 1 96 4 182 0H504zm1 1c62 0 124-2 179-1l-179 1zm182 1c-5 18-2 41-4 63l4-63zm-1-1c-2 21-1 45-2 64l2-64zm1 62c-40-1-80 2-183 3l183-3zm-2 2c-45-1-89 1-182-1l182 1zm-182 0c-1-24-1-45 2-64l-2 64zm1 0v-64 64z" fill="#FEFFBF"/>
        <path d="M683 902h1-1zm0 65h1-1zm-179-66v-1 1zm182 0v-1 1zm-181 1v-1 1zm179-1v1-1zm3 2h-1 1zm-4 63h1-1zm3-64h-1 1zm-2 64h-1 1zm3-2v1-1zm-183 3v1-1zm181-1v1-1zm-182-1v-1 1zm0 1h-1 1zm2-64h-1 1zm-1 64h1-1zm1-64l-1-1v1h1zm-2 1h180v-1H503v1zm180-1v65h1v-65h-1zm0 64l-179-3v1l179 3v-1zm-179-65c48 2 96 5 182 0v-1c-86 5-133 2-182 0v1zm182-1H504v1h182v-1zm-181 2c62 0 124-2 179 0v-1c-54-2-117 0-179 0v1zm179-1H505v1h179v-1zm2 2c-2 9-2 19-2 30l-1 33h1l1-33c0-11 0-21 2-30h-1zm-2 63l3-63h-1l-3 63h1zm1-64l-1 33-1 31h1l1-31 1-33h-1zm-1 64l2-64h-1l-2 64h1zm3-2c-40-2-81 2-183 3v1c103-1 143-5 183-3v-1zm-183 4l183-3v-1l-183 3v1zm181-2l-73-1-109-1v1l109 1 73 1v-1zm-182-1l182 2v-1l-182-2v1zm0 1c0-24 0-45 2-64h-1c-2 19-2 40-2 64h1zm1-64l-2 64h1l2-64h-1zm1 64v-64h-1v64h1z" fill="#000"/>
      </g>
      <text fill="#000" style="white-space:pre" font-size="23.3" letter-spacing="0em">
        <tspan x="555.4" y="943.9">PUBLIC</tspan>
      </text>
    </g>
    <path d="M358 797c-4 9 13 51-24 60s-161-14-198-6-21 45-25 54m246-109c-4 10 13 53-24 62s-161-14-198-6-19 46-24 54m1 0c-5-8-8-19-11-28l11 28zm0 0c1-8 5-19 9-28l-9 28zm-11-28c3 12 9 21 11 27 3-5 5-15 9-27" stroke="#000" stroke-linecap="round"/>
    <path d="M357 796c5 9-8 50 31 59 38 9 165-12 202-4 37 7 17 41 20 50M355 794c5 10-4 52 35 62 40 10 165-12 202-4s15 41 18 50m0 1l-6-28 6 28zm0 0l12-26-12 26zm-6-28l6 27c4-8 9-15 12-25" stroke="#000" stroke-linecap="round"/>
    <path d="M357 804v99m2 1c-5-11-10-20-13-30l13 30zm0 0l7-30-7 30zm-13-29c6 10 9 20 12 28l9-28m-8-73v100-100z" stroke="#000" stroke-linecap="round"/>
    <path d="M1337 378l4 207m-1 1c-2-10-8-22-9-30l9 30zm0 0c6-10 6-22 12-30l-12 30zm-10-29l12 28c4-17 6-23 9-29m-13-177v205-205z" stroke="#000" stroke-linecap="round"/>
    <g>
      <g>
        <path d="M1140 598l519 1-2 103h-520" fill="#FE7F80"/>
        <path d="M1138 600h520-520zm1-1c198 1 397 2 519 0h-519zm517 2c2 37 4 80 2 100l-2-100zm1-1c1 37 2 76 1 101l-1-101zm0 101h-518 518zm1 0c-166-2-332-1-519 1l519-1zm-520-1c2-23 1-48 2-101l-2 101zm0 2l1-103-1 103z" fill="#FE7F80"/>
        <path d="M1659 599h1-1zm-2 103v1-1zm-519-102v1-1zm520 0v1-1zm-519-1v1-1zm519 0v1-1zm-2 2h1-1zm2 100h-1 1zm-1-101h1-1zm1 101h-1 1zm-1 0v-1 1zm-518 0v1-1zm519 0v1-1zm-519 1v-1 1zm-1-2h-1 1zm2-101h1-1zm-3 103l1 1v-1h-1zm3-103l-1-1v1h1zm0 0l519 1v-1l-519-1v1zm519 0l-3 103h1l3-103h-1zm-2 103h-520v1h520v-1zm-519-101c151-1 300-2 520 0v-1c-220-2-369-1-520 0v1zm520-1h-520v1h520v-1zm-519 0h519v-1h-519v1zm519-1h-519v1h519v-1zm-2 2c1 37 3 80 1 100h1c2-20 0-63-1-100h-1zm2 100l-1-100h-1l1 100h1zm-1-101c1 37 2 76 0 101h1c2-25 1-64 0-101h-1zm1 101V600h-1v101h1zm-1-1l-518 1v1l518-1v-1zm-518 2l518-1v-1l-518 1v1zm519-1c-166-2-332-2-519 0v1c187-2 353-2 519 0v-1zm-519 1h519v-1h-519v1zm-1-2c2-23 2-48 3-101h-1c-1 53-1 78-3 101h1zm2-101l-3 101h1l3-101h-1zm-2 103l2-103h-1l-2 103h1z" fill="#000"/>
      </g>
      <g>
        <g>
          <path d="M1162 619h136v62l-135-1" fill="#fff"/>
          <path d="M1164 620h134-134zm-2 0c53 1 105 3 136 0h-136zm133 2c3 11 2 26 3 58l-3-58zm1 0v60-60zm1 61c-30 2-58 0-133-3l133 3zm-1-2c-32 2-66 1-133 0h133zm-133 1v-60 60zm-1 0v-61 61z" fill="#fff"/>
          <path d="M1298 619zm0 62h1-1zm-134-61v-1 1zm134 0v-1 1zm-136 0v1-1zm136 0v-1 1zm-3 2h1-1zm3 58h-1 1zm-2-58h1-1zm0 60h1-1zm1 1v1-1zm-133-3v-1 1zm132 1v-1 1zm-133 0v-1 1zm0 1h1-1zm0-60h1-1zm-1 60h1-1zm0-61h-1 1zm0-1h136v-1h-136v1zm135-1l1 62h1l-1-62h-1zm1 61l-135-1v1l135 1v-1zm-134-60c31 1 63 2 134 0v-1c-71 2-103 1-134 0v1zm134-1h-134v1h134v-1zm-136 2c53 1 105 2 136-1v-1c-31 3-83 2-136 1v1zm136-2l-136 1v1l136-1v-1zm-3 3l2 21v37h1v-21-16l-2-21h-1zm3 58l-2-58h-1l2 58h1zm-2-58v60h1v-60h-1zm1 60v-60h-1v60h1zm0 1c-30 1-58 0-133-4v1c75 4 103 5 133 4v-1zm-133-3l133 4v-1l-133-4v1zm132 0c-32 3-66 2-133 0v1c67 2 101 3 133 0v-1zm-133 1h133v-1h-133v1zm1 1v-25-35h-1v60h1zm-1-60v60h1v-60h-1zm0 60l-1-61h-1l1 61h1z" fill="#000"/>
        </g>
        <text fill="#000" style="white-space:pre" font-size="24.4" letter-spacing="0em">
          <tspan x="1204" y="659.9">etcd</tspan>
        </text>
      </g>
      <g>
        <g>
          <path d="M1328 622l135-1v59h-131" fill="#fff"/>
          <path d="M1330 622c50-1 97 0 133-3l-133 3zm-1-2h136-136zm135 1c2 14-1 24 1 60l-1-60zm0-1c2 13 1 26 0 63v-63zm2 62c-41 1-82-2-137 1l137-1zm-1 0h-136 136zm-134-1v-60 60zm-1 0l-1-60 1 60z" fill="#fff"/>
          <path d="M1463 621h1-1zm0 59v1-1zm-133-58v1-1zm133-3v1-1zm-134 1v1-1zm136 0v1-1zm-1 1h-1 1zm1 60h1-1zm-1-61h1-1zm0 63h-1 1zm2-1v1-1zm-137 1v1-1zm136-1v1-1zm-136 0v1-1zm2-1h-1 1zm0-60h1-1zm-1 60h1-1zm-1-60h-1 1zm-1 2l135-1v-1l-135 1v1zm135-2l-1 59h1l1-59h-1zm0 59h-131v1h131v-1zm-133-57c50-2 97 0 133-3v-1c-37 3-83 1-133 3v1zm133-4l-133 3v1l133-3v-1zm-134 2h136v-1h-136v1zm136-1h-136v1h136v-1zm-2 1l1 22 1 38h1l-1-38-1-22h-1zm3 60l-2-60h-1l2 60h1zm-2-61c1 13 1 26-1 63h1c2-37 2-50 1-63h-1zm0 63l1-63h-1l-1 63h1zm2-1c-41 0-82-3-137 1v1c55-4 96-1 137-1v-1zm-137 2l137-1v-1l-137 1v1zm136-2h-136v1h136v-1zm-136 1h136v-1h-136v1zm2-2l1-60h-1l-1 60h1zm0-60l-1 60h1l1-60h-1zm0 60c-1-19 0-37-2-60h-1c2 23 1 41 2 60h1z" fill="#000"/>
        </g>
        <text fill="#000" style="white-space:pre" font-size="24" letter-spacing="0em">
          <tspan x="1376" y="659.2">etcd</tspan>
        </text>
      </g>
      <g>
        <g>
          <path d="M1500 619l133 4v60l-135-1" fill="#fff"/>
          <path d="M1500 620c46-2 88-2 133 2l-133-2zm0 0c26 0 54-1 135 1l-135-1zm135-1c-3 19-1 33 1 61l-1-61zm-1 2c-1 16 1 34 1 60l-1-60zm2 59c-56 1-106 0-138 3l138-3zm-1 1c-52-1-103 0-135 1l135-1zm-134 2c-3-22-1-46-1-63l1 63zm-2-1l1-62-1 62z" fill="#fff"/>
          <path d="M1633 623v-1 1zm0 60zm-133-63v-1 1zm133 2v-1 1zm-133-2v-1 1zm135 1v1-1zm0-2h-1 1zm1 61h1-1zm-2-59h-1 1zm1 60h1-1zm1-1v-1 1zm-138 3v-1 1zm137-2v-1 1zm-135 1v1-1zm1 1h-1 1zm-1-63h1-1zm-2 62l1 1v-1h-1zm3-62h-1 1zm-1 0l133 3v-1l-133-3v1zm132 3v60h1v-60h-1zm1 59l-135-1v1l135 1v-1zm-133-62c46-1 88-1 133 2v-1c-45-3-87-3-133-2v1zm133 1l-133-2v1l133 2v-1zm-133-1c26 1 54-1 135 2v-1c-81-3-109-1-135-2v1zm135 1l-135-2v1l135 2v-1zm-1-2c-2 19-1 33 2 61h1c-3-28-4-42-2-61h-1zm3 61l-2-61h-1l2 61h1zm-4-59l1 26 1 34h1l-1-34-1-26h-1zm3 60l-2-60h-1l2 60h1zm0-2c-56 1-106 0-138 3v1c32-3 82-2 138-3v-1zm-138 4l138-3v-1l-138 3v1zm137-3l-135 2v1l135-2v-1zm-135 3l135-2v-1l-135 2v1zm1 0c-3-22 0-46 0-63h-1c0 17-3 41 0 63h1zm-1-63v63h1v-63h-1zm-1 62l2-62h-1l-2 62h1z" fill="#000"/>
        </g>
        <text fill="#000" style="white-space:pre" font-size="22.3" letter-spacing="0em">
          <tspan x="1545" y="657.6">etcd</tspan>
        </text>
      </g>
    </g>
    <path d="M1127 657l-513-2m1-2c7 4 15 10 26 11l-26-11zm0 0c7-1 15-3 26-10l-26 10zm27 12c-11-4-21-6-29-10l29-10m486 9H612h516z" stroke="#000" stroke-linecap="round"/>
    <g>
      <g fill="#2864A7">
        <path d="M1003 1h364l2 77-365-3"/>
        <path d="M1001 3h367-367zm1-1h366-366zm366-1c1 24 1 50-1 75l1-75zm0 1c1 22 1 45-1 75l1-75zm0 73c-119 2-237 1-365 2l365-2zm0 2c-128-2-254-2-367-1l367 1zm-367 0c0-21 0-41 2-73l-2 73zm1-1c0-27 1-54-1-74l1 74z"/>
        <path d="M1367 1h1-1zm2 77zM1001 3V2v1zm367 0V2v1zm-366-1V1v1zm366 0V1v1zm0-1h-1 1zm-1 75h1-1zm1-74h1-1zm-1 75h-1 1zm1-2v1-1zm-365 2v-1 1zm365 0v-1 1zm-367-1v-1 1zm0 1h-1 1zm2-73h1-1zm-1 72h1-1zm0-74l-1-1v1h1zm1-1l364 1V1l-364-1v1zm364 0l1 77h1l-1-77h-1zm2 76l-365-3v1l365 3v-1zM1001 3h367V2h-367v1zm367-1h-367v1h367V2zm-366 0c128 2 258 1 366 0V1c-108 1-238 2-366 0v1zm366-1h-366v1h366V1zm-1 0c2 24 2 50 0 75h1c2-25 2-51 0-75h-1zm1 75V1h-1v75h1zm0-74c1 22 1 44-2 75h1c3-30 3-53 2-75h-1zm-1 75l2-75h-1l-2 75h1zm1-2c-119 2-237 0-365 1v1c128-1 246 1 365-1v-1zm-365 2l365-1v-1l-365 1v1zm365-1c-128-2-254-1-367-1v1c113 0 239-1 367 1v-1zm-367 0l367 1v-1l-367-1v1zm0 1c0-21 0-41 3-73h-1c-3 32-3 52-3 73h1zm2-73l-3 73h1l3-73h-1zm0 72V36l-1-34h-1l1 34v40h1z"/>
      </g>
      <text fill="#fff" style="white-space:pre" font-size="28" letter-spacing="0em">
        <tspan x="1070" y="48.1">Control Plane (CP)</tspan>
      </text>
    </g>
    <g>
      <g>
        <path d="M1240 260l225-2v105l-226-1" fill="#FE7F80"/>
        <path d="M1242 259c72-1 145 4 223 3l-223-3zm-2 0l225 1-225-1zm223 2c2 36 2 74 2 105l-2-105zm0-2c0 39 0 75 2 104l-2-104zm1 104c-73-3-148-1-224 0h224zm1 1l-225 1 225-1zm-224-2c0-30-1-67 1-101l-1 101zm0 3c0-39 1-74-1-106l1 106z" fill="#FE7F80"/>
        <path d="M1465 258v-1 1zm0 105zm-223-104v-1 1zm223 3v1-1zm-225-3v1-1zm225 1v1-1zm-2 1h-1 1zm2 105h1-1zm-2-107h1-1zm2 104h-1 1zm-1 0v-1 1zm-224 0v1-1zm225 1v1-1zm-225 1v1-1zm1-3h1-1zm1-101h-1 1zm-1 104v1l1-1h-1zm-1-106v-1l-1 1h1zm0 2l225-2v-1l-225 2v1zm224-3v105h1V258h-1zm1 104h-226v1h226v-1zm-223-103l109 2 114 2v-1l-114-2-109-2v1zm223 3l-223-4v1l223 4v-1zm-225-2l225 1v-1l-225-1v1zm225 0l-225-1v1l225 1v-1zm-3 1c3 36 2 74 3 105h1c-1-31 0-69-3-105h-1zm4 105l-3-105h-1l3 105h1zm-3-107c-1 39 0 75 1 104h1c-1-29-2-65-1-104h-1zm2 104l-1-104h-1l1 104h1zm-1-1c-73-3-148-1-224 1v1c76-2 151-4 224-1v-1zm-224 2l224-1v-1l-224 1v1zm225 0c-66-1-132 1-225 1v1c93 0 159-2 225-1v-1zm-225 2l225-1v-1l-225 1v1zm2-4V261h-1v101h1zm-1-101v101h1V261h-1zm1 104c-1-39 0-74-2-106h-1c2 32 1 67 2 106h1z" fill="#000"/>
      </g>
      <g>
        <g>
          <path d="M1272 314l162-1 4 39-165-1" fill="#fff"/>
          <path d="M1272 311c42 4 82 2 166 3l-166-3zm1 1l164 1-164-1zm163-1c2 9 0 18 2 39l-2-39zm1 2v39-39zm1 37c-39 2-73 2-165 2l165-2zm-1 2c-41-1-81-2-163 0h163zm-163 0l1-41-1 41zm0-1l-1-37 1 37z" fill="#fff"/>
          <path d="M1434 313h1v-1h-1v1zm4 39v1h1v-1h-1zm-166-41v1-1zm166 3v-1 1zm-165-2v-1 1zm164 1v1-1zm-1-2h-1 1zm2 39h1-1zm-1-37h1-1zm0 39h-1 1zm1-2v-1 1zm-165 2v-1 1zm164 0v-1 1zm-163 0v-1 1zm0 0h1-1zm1-41h-1 1zm-1 40h1-1zm0-37l-1-1v1h1zm-2 0l162-1v-1l-162 1v1zm162-1l4 39h1l-4-39h-1zm4 39l-165-1v1l165 1v-1zm-166-40c42 3 82 1 166 2v-1c-84-1-124 1-166-2v1zm166 1l-166-2v1l166 2v-1zm-165-1l164 2v-1l-164-2v1zm164 1l-164-2v1l164 2v-1zm-2-2l1 15 2 24h1l-2-24-1-15h-1zm4 39l-3-39h-1l3 39h1zm-2-37v19l-1 20h1l1-20v-19h-1zm0 39l1-39h-1l-1 39h1zm1-3c-39 2-73 2-165 2v1c92 0 126 0 165-2v-1zm-165 3l165-2v-1l-165 2v1zm164-1h-163v1h163v-1zm-163 1h163v-1h-163v1zm1 0v-41h-1v41h1zm-1-41v41h1v-41h-1zm1 40l-1-37h-1l1 37h1z" fill="#000"/>
        </g>
        <text fill="#000" style="white-space:pre" font-size="22.3" letter-spacing="0em">
          <tspan x="1291.4" y="338.7">Manager API</tspan>
        </text>
      </g>
      <text fill="#000" style="white-space:pre" font-size="22.3" letter-spacing="0em">
        <tspan x="1298" y="297.6">Dashboard</tspan>
      </text>
    </g>
    <path d="M1340 209l4 41m0 0c-3-2-9-4-9-6l9 6zm0 0l11-6-11 6zm-10-6l11 6c4-4 7-5 10-6m-13-35v41-41z" stroke="#000" stroke-linecap="round"/>
    <g>
      <path d="M1346 160l3 2 2 3v6l-1 3-2 2-3 2a11 11 0 01-6 0l-3-2-2-2-2-3a10 10 0 011-6l2-3 2-2a9 9 0 016-1l3 1v1-1zm-2-1l3 2 2 2 2 2a10 10 0 010 7 9 9 0 01-4 5l-3 1h-3l-3-1-3-1-2-3-1-3a9 9 0 011-6 10 10 0 015-4l3-1h3v1" fill="#fff"/>
      <path fill-rule="evenodd" clip-rule="evenodd" d="M1342 184h17v1l-1 3-1 2v2l-1 1-1 2-1 1-2 2-1 1h-2l-2 1-1 1h-6l-4-1h-1l-2-1-1-1-2-1-2-3-1-3-1-2v-1l-1-3v-1h17" fill="#fff"/>
      <path fill-rule="evenodd" clip-rule="evenodd" d="M1342 184h17v1l-1 3a22 22 0 01-3 7l-3 2-3 2a14 14 0 01-7 2h-4l-3-1-3-2-3-3-2-3-1-3-1-3v-1-1h17zm0 0h17v1a21 21 0 01-4 10l-3 3-3 1-3 2h-4a23 23 0 01-7-2l-3-1-3-3-2-3-1-3-1-3v-1-1h17" fill="#fff"/>
      <path d="M1346 160l-1-1 1 1zm3 2zm2 3v-1 1zm0 3h1-1zm0 3h1-1zm-1 3zm-2 2v1-1zm-3 2zm-3 0v1-1zm-3 0zm-3-2zm-2-2h-1 1zm-2-3zm1-6zm2-3v1-1zm2-2v1-1zm3-1v1-1zm3 0h1-1zm3 1zm0 1h1-1zm-2-2h-1l1 1v-1zm3 2v-1 1zm2 2zm2 2zm0 4h1-1zm0 3h-1 1zm-2 3h1-1zm-2 2zm-3 1zm-3 0v1-1zm-3-1zm-3-1zm-2-3v1-1zm-1-3h1-1zm0-3h1-1zm1-3zm2-2h1-1zm3-2v-1 1zm3-1zm3 0v1-1zm-1 0l1 1-1-1zm-1 24l-1 1h1v-1zm8 1v1-1zm9 0v1-1zm0 0h-1 1zm0 0zm0 1v1-1zm-1 3zm-1 2h1-1zm0 2zm-1 1zm-1 2zm-1 1v1-1zm-2 2zm-1 1zm-2 0v1-1zm-2 1zm-1 1zm-2 0v1-1zm-2 0zm-2 0zm-4-1zm-1 0zm-2-1zm-1-1v-1 1zm-2-1zm-2-3zm-1-3zm-1-2v1-1zm0-1h-1 1zm-1-3h1-1zm0-1h-1l1 1v-1zm0 0v1l1-1h-1zm0 0h-1l1 1v-1zm17 0v-1 1zm0 0v-1h-1v1h1zm8 0zm8 0zm1 0h-1 1zm0 1zm-1 3zm-1 3v1-1zm-2 4l-1-1 1 1zm-6 4zm-3 1v1-1zm-4 1v-1 1zm-4 0zm-3-1zm-3-2v-1 1zm-3-3v1-1zm-2-3h1-1zm-1-3h1-1zm-1-3h1-1zm0-1zm0-1v1-1zm1 0zm8 0zm8 0zm0-1l-1 1h1v-1zm8 1v1-1zm8 0v1-1zm1 0h-1 1zm0 1h-1 1zm-1 3zm-1 4zm-2 3zm-3 3v-1 1zm-3 1v1-1zm-3 2zm-4 0zm-4-1v1-1zm-3-1v1-1zm-3-1v-1 1zm-3-3zm-2-3v1-1zm-1-3h1-1zm-1-3zm0-1zm0-1zm1 0v1-1zm8 0zm8 0v-1 1zm4-24l1 1 1 1h1l-1-2h-2zm2 2l2 3 1-1-2-2h-1zm2 3l1 3h1l-1-4-1 1zm1 3v3h1v-3h-1zm0 3l-1 3 2-3h-1zm-1 3l-2 2v1l2-3zm-2 2l-3 1v1l3-1v-1zm-3 1l-3 1v1l3-1v-1zm-3 1l-3-1v1l3 1v-1zm-3-1l-3-1v1l3 1v-1zm-3-1l-2-2h-1l3 3v-1zm-2-2l-1-3h-1l1 3h1zm-1-3v-3h-1v3h1zm0-3v-3h-1v3h1zm0-3l2-2-1-1-2 3h1zm2-2l2-2v-1l-3 2 1 1zm2-2l3-1v-1l-3 1v1zm3-1h3l1-1h-4v1zm3 0l3 1v-1l-2-1-1 1zm3 1v-1l1 1v-1h-1v1zm1-1h-1v1l1-1zm-3 0h1l2 1v-1l-1-1h-2v1zm3 1l2 2 1-1-3-2v1zm2 2l1 3 1-1-1-3-1 1zm1 3l1 3h1l-1-4-1 1zm1 3l-1 3h1l1-3h-1zm-1 3l-1 2 1 1 1-3h-1zm-1 2l-2 2v1l3-2-1-1zm-2 2l-3 2v1l3-2v-1zm-3 2h-3v1h3v-1zm-3 0l-3-1v1l3 1v-1zm-3-1l-3-2v1l3 2v-1zm-3-2l-1-2-1 1 2 2v-1zm-1-2l-1-3h-1l1 4 1-1zm-1-3v-3h-1v3h1zm0-3l1-3h-1l-1 3h1zm1-3l2-2-1-1-2 3h1zm2-2l2-2v-1l-3 2 1 1zm2-2h3v-1h-3v1zm3 0h3v-1h-3v1zm3 0v-1h-1l1 1h1v-1h-1v1zm-2 24l8 1v-1l-8-1v1zm8 1h9v-1h-9v1zm9-1v1-1zm-1 0h1-1zm0 0v1h1v-1h-1zm0 1l-1 3h1l1-2-1-1zm-1 3v2h1v-2h-1zm0 2l-1 1 1 1 1-2h-1zm-1 1l-1 2h1l1-1-1-1zm-1 2l-1 1 1 1 1-2h-1zm-1 1l-1 2 1 1 1-2-1-1zm-1 2l-1 1v1l2-1-1-1zm-1 1l-2 1 1 1 1-1v-1zm-2 1l-1 1v1l2-1-1-1zm-1 1l-2 1 1 1 1-1v-1zm-2 1h-1v1h2l-1-1zm-1 0l-2 1h2v-1zm-2 1l-2-1v1l2 1v-1zm-2-1h-2v1h2v-1zm-2 0h-4l4 1v-1zm-3 0l-2-1v1h2zm-2-1l-1-1-1 1 2 1v-1zm-1-1l-2-1v1l1 1 1-1zm-2-1l-1-1-1 1 2 1v-1zm-1-1l-3-2 2 3 1-1zm-2-2l-2-3h-1l2 3h1zm-2-3l-1-2v2h1zm-1-2v-1h-1l1 2v-1zm0-1v-3h-1v3h1zm0-3v-1l-1 1h1zm-1 0v-1 1zm1-1h-1v1l1-1zm-1 1l17-1v-1l-17 1v1zm17-1h8v-1h-8v1zm8 0h8v-1h-8v1zm8 0a17 17 0 011 1l-1-1h1v0l-1-1v1zm0 0v1h1v-1h-1zm0 1v3h1v-3h-1zm0 3l-2 3 1 1 2-4h-1zm-2 3l-2 3 1 1 2-3-1-1zm-2 3l-2 3 1 1 2-3-1-1zm-2 3l-3 2v1l4-2-1-1zm-3 2l-3 1v1l3-1v-1zm-3 1h-4v1h4v-1zm-4 0h-4v1h4v-1zm-4 0l-3-1v1l3 1v-1zm-3-1l-3-2v1l3 2v-1zm-3-2l-2-2-1 1 3 2v-1zm-2-2l-2-3-1 1 2 3 1-1zm-2-3l-1-3h-1l1 4 1-1zm-1-3l-1-2v-1h-1v2l1 1h1zm-1-3v-1h-1v1h1zm0-1v-1l-1 1v-1 1h1zm-1 0l1-1h-1v1h1v-1a24 24 0 01-1 0h1-1v1zm1 0l8-1v-1l-8 1v1zm8-1h8v-1h-8v1zm8 0h-1 1zm0 0l8 1v-1l-8-1v1zm8 1h8v-1h-8v1zm8 0a10 10 0 001 0v-1h-1 1v0h-1 0v1zm0-1v1h1v-1h-1zm0 1v3h1v-3h-1zm0 3l-2 3 1 1 2-4h-1zm-2 3l-1 3v1l2-3-1-1zm-1 3l-3 3v1l3-3v-1zm-3 3l-3 2v1l3-2v-1zm-3 2l-3 1v1l3-1v-1zm-3 1h-4v1h4v-1zm-4 0h-4v1h4v-1zm-4 0l-3-1v1l3 1v-1zm-3-1l-3-2v1l3 2v-1zm-3-2l-3-2 3 3v-1zm-3-2l-1-3-1 1 2 2zm-1-3l-1-3h-1l1 4 1-1zm-1-3l-1-3h-1l1 3h1zm-1-3v-1h-1v1h1zm0-1v-1l-1 1v0h1zm-1 0l1-1h-1v1h1v-1h-1c1 0 1 0 0 0v1zm1 0l8-1v-1l-8 1v1zm8-1h8v-1h-8v1z" fill="#000"/>
    </g>
    <g>
      <g fill="#2864A7">
        <path d="M172 4l366 2-3 74-364-2"/>
        <path d="M170 6h367-367zm1-1h366-366zm366 1c-2 25-2 48-2 72l2-72zm0-1v75V5zm0 74c-113 1-223 3-367 1l367-1zm0 1H171h366zm-366 1c-2-25-2-47-2-74l2 74zm0 0V6v75z"/>
        <path d="M538 6h1-1zm-3 74v1h1v-1h-1zM170 6v1-1zm367 0V5v1zM171 5v1-1zm366 0v1-1zm0 1h1-1zm-2 72h-1 1zm2-73h-1 1zm0 75h-1 1zm0-1v1-1zm-367 1v1-1zm367 0v-1 1zm-366 0v-1 1zm0 1v1l1-1h-1zm-2-74h1-1zm1 74a1 1 0 001 0h-1zm1-75h-1 1zm1-1l366 2V6L172 4v1zm366 1l-3 74h1l3-74h-1zm-3 74l-364-2v1l364 2v-1zM170 7c111 1 222-1 367-1V5C392 5 281 7 170 6v1zm367-2L170 6v1l367-1V5zM171 6c83-2 166-1 366 0V5C337 4 254 3 171 5v1zm366-1H171v1h366V5zm0 1l-3 72h1l3-72h-1zm-2 72l3-72h-1l-3 72h1zm1-73v75h1V5h-1zm1 75V5h-1v75h1zm0-1c-113 0-223 2-367 1v1c144 1 254-1 367-1v-1zm-367 2l367-1v-1l-367 1v1zm367-2H171v1h366v-1zm-366 1h366v-1H171v1zm1 1c-3-25-2-47-2-74h-1c0 27-1 49 2 75l1-1zm-3-74l2 74h1l-2-74h-1zm2 74V6h-1v75h1z"/>
      </g>
      <text fill="#fff" style="white-space:pre" font-size="28" letter-spacing="0em">
        <tspan x="260.4" y="52.1">Data Plane (DP)</tspan>
      </text>
    </g>
  </g>
</svg>
