<svg class="perf" xmlns="http://www.w3.org/2000/svg" fill="none" viewBox="0 0 603 746">
  <g class="performance">
    <g class="server1">
        <path fill="#FE7F80" fill-rule="evenodd" d="M64 46l-2 44 3 7 9 10 11 12 22 6 21 4 35 3 28-4 24-1 19-6 16-9 10-12 2-7 1-39-5-16-11-11-7-9-6-5-23-7-25-3-29-1-27 4-25 5-23 10-7 4-11 18" clip-rule="evenodd"/>
        <path fill="#FE7F80" fill-rule="evenodd" d="M63 44l-1 27c0 9-3 18 1 26s12 16 23 21c11 6 25 10 43 12s47 1 64-1c18-2 30-5 41-10 11-4 20-10 24-18 5-8 4-21 4-31s2-20-3-29-15-19-27-25-29-10-46-11c-17-2-39-2-56 1s-35 8-46 14c-11 7-18 21-21 26v-2zm-1 2l-1 26c1 9 0 18 4 26 4 7 10 16 21 21 11 6 27 10 45 12a336 336 0 00103-13c11-5 19-10 24-17 4-8 3-19 3-29s0-21-5-30c-5-10-12-22-24-28s-31-8-48-10c-16-1-36-1-53 2-17 2-37 8-48 14-11 7-16 22-20 26" clip-rule="evenodd"/>
        <path fill="#000" d="M62 90h-1v1l1-1zm3 7h-1 1zm9 10l-1 1 1-1zm11 12h-1v1h1v-1zm22 6v1-1zm21 4v1-1zm35 3v1-1zm28-4v-1 1zm24-1v1-1zm19-6l1 1-1-1zm16-9l1 1-1-1zm10-12l1 1v-1h-1zm2-7l1 1v-1h-1zm1-39h1-1zm-5-16h1-1zm-11-11l-1 1 1-1zm-7-9h1-1zm-6-5v-1 1zm-23-7V5v1zm-25-3l1-1h-1v1zm-29-1V1v1zm-27 4l-1-1 1 1zm-25 5v-1 1zM82 21v-1 1zm-7 4v-1h-1v1h1zM63 44h1l-2-1 1 1zm0 53h-1 1zm23 21v1-1zm107 11v1-1zm41-10v-1 1zm24-18zm4-31h-1 1zm-3-29l-1 1 1-1zm-27-25v-1 1zM186 5V4v1zm-56 1V5v1zM84 20l-1-1 1 1zM63 46h-1l-1 3 2-3zm0 0a1 1 0 10-2 0h2zm-2 26h1-1zm4 26h-1 1zm21 21v1-1zm45 12v1-1zm60-3v1-1zm43-10v-1 1zm27-46h-1 1zm-29-58v-1 1zM131 6v1-1zM83 20l-1-1 1 1zM63 45a1 1 0 001 1l-1-1zm0 1l-2 44h2l2-44h-2zm-2 45l3 6 2-1-4-6-1 1zm3 6l9 11 1-2-8-10-2 1zm9 11l11 11 2-1-12-12-1 2zm12 12l22 6 1-2-23-6v2zm22 6l21 4v-2l-21-4v2zm21 4l35 3v-2l-35-3v2zm35 3l28-4v-2l-28 4v2zm28-4l24-1v-2l-24 1v2zm24-1l20-6-1-2-19 6v2zm20-6l16-9-1-1-16 8 1 2zm16-9l10-12-2-2-9 13 1 1zm10-13l2-6-1-1-3 7h2zm2-7l1-39h-2l-1 39h2zm1-39l-5-16-2 1 5 15h2zm-6-16l-10-12-2 2 11 11 1-1zm-10-12l-7-8-2 1 7 9 2-2zm-7-8l-7-6-1 2 6 5 2-1zm-7-6l-23-7-1 2 23 7 1-2zm-23-7l-24-3-1 2 24 3 1-2zm-25-3l-29-1v2l29 1V2zm-29-1l-28 4 1 2 27-4V1zm-28 4l-24 5 1 2 24-5-1-2zm-24 5L82 20l1 1 23-9-1-2zM82 20l-7 4 1 2 7-5-1-1zm-8 5L63 42l1 1 12-17-2-1zM62 44v11l-1 16h2l1-16V44h-2zm-1 27v6l-1 7c0 4 0 9 2 13l2-1c-2-4-2-8-2-12l1-7v-6h-2zm1 26c4 8 12 17 24 22l1-2c-11-5-19-13-23-21l-2 1zm24 22c11 6 25 10 43 12v-2c-18-2-32-6-42-12l-1 2zm43 12c18 2 47 1 64-1v-2c-17 2-46 3-64 1v2zm64-1c18-2 31-5 42-10l-1-2c-11 5-24 8-41 10v2zm42-10c10-4 19-10 24-18l-1-1c-5 8-13 13-24 17l1 2zm24-18c3-5 4-10 4-16V70h-2v16c0 6-1 11-3 15l1 1zm4-32v-7-8c0-5-1-9-3-14l-2 1c2 4 3 9 3 13v15h2zm-3-29c-6-9-16-20-28-26l-1 2c12 6 22 16 27 25l2-1zm-28-26c-12-6-29-10-46-11v2c17 1 33 5 45 11l1-2zM186 4c-17-2-39-2-56 1v2c17-3 39-3 56-1V4zm-56 1c-17 3-35 8-47 14l1 2c11-6 29-11 46-14V5zM83 19c-6 4-10 9-14 14l-4 7-3 5 1 1 4-5 4-7c4-5 8-10 13-13l-1-2zM64 46v-2l-2-1v3h2zm-3 0l-1 26h2l1-26h-2zm-1 26l1 7v6c0 5 1 9 3 13l2-1-3-12v-6l-1-7h-2zm4 26c5 8 11 16 22 22l1-2c-11-5-17-13-21-21l-2 1zm22 22c11 6 27 10 45 12v-2c-18-2-33-6-44-12l-1 2zm45 12c17 1 43-1 60-3v-2c-17 2-43 4-60 3v2zm60-3c18-2 32-6 44-10l-1-2c-11 4-26 8-43 10v2zm44-10c11-5 19-10 23-18l-1-1c-5 8-12 12-23 17l1 2zm23-18c3-4 4-9 4-14V72h-2v15c0 5-1 10-3 13l1 1zm4-29c0-10 0-21-5-31l-2 1c5 9 5 20 5 30h2zm-5-31c-5-10-12-22-25-28v2c11 6 19 17 23 27l2-1zm-25-28c-6-3-13-5-22-7l-25-3-1 2 26 3c8 2 16 4 22 7v-2zM185 3c-17-1-37-1-54 2v2c17-3 37-3 53-2l1-2zm-54 2c-17 2-37 8-49 14l1 2c11-6 31-12 48-14V5zM82 19c-6 4-10 9-13 14l-4 7-2 5 1 1 3-5 4-6c3-5 7-11 12-14l-1-2z"/>
        <path fill="#FE7F80" d="M144 10a183 183 0 0174 8c9 3 18 8 22 13 3 5 3 12 0 17s-9 10-18 14c-9 3-22 5-35 7l-41 2c-12-1-25-4-35-7s-19-7-24-11c-5-5-8-12-7-17s6-10 14-14l32-9 23-3 6-1-11 1zm25-2c13 0 29 3 40 5 10 3 20 8 25 12 5 5 7 12 7 17-1 5-5 9-11 13-7 4-17 8-28 11-11 2-26 5-39 5a222 222 0 01-70-13c-7-4-12-11-12-16-1-5 2-11 7-16 5-4 15-7 25-10s26-7 35-8c10-1 18 1 22 2h-1"/>
        <path fill="#FE7F80" d="M162 9a182 182 0 0169 15c6 4 9 10 10 15 0 5-2 10-7 15-6 4-15 8-26 11a185 185 0 01-79 5c-12-2-24-6-32-10s-13-9-15-14c-3-5-3-11 2-16 4-4 13-9 23-12s26-6 36-7c10-2 21-1 26-1h4l-11-1zm25 3c12 1 25 2 34 6 8 3 15 11 18 16 4 5 5 9 1 13-3 4-13 10-22 14l-32 8c-12 2-27 3-40 2-13 0-27-3-37-6s-20-8-25-12c-5-5-6-11-5-16 2-5 8-11 16-16 8-4 19-7 31-9s31-3 41-3 16 3 18 3c3 0 0-1 0-1"/>
        <path fill="#000" d="M144 10V9v2-1zm74 8v-1 1zm22 30l-1-1 1 1zm-18 14l-1-1 1 1zm-35 7v1-1zm-41 2zm-35-7v-1 1zM87 53h-1 1zm-7-17h-1 1zm14-14v1-1zm55-12v1-1zm6-1v1h2l-1-1h-1zm54 4l-1 1 1-1zm25 12l-1 1 1-1zm7 17h1-1zm-11 13v1-1zm-28 11v-1 1zm-39 5v1-1zm-41-4v1-1zm-29-9v-1 1zM81 42h-1 1zm32-26l-1-1 1 1zm35-8V7v1zm14 1V8v2-1zm39 5v-1 1zm40 25l1-1-1 1zm-33 26v-1 1zm-38 7v-1 1zm-41-2l1-1-1 1zM97 60v1-1zM82 46l-1 1 1-1zm2-16h-1 1zm59-19v1-1zm26-1v1-1zm4 0v1h1v-1h-1zm14 1a1 1 0 000 2v-2zm34 7l-1 1 1-1zm19 29l1 1-1-1zm-22 14v-1 1zm-32 8v-1 1zm-40 2v1-1zM84 53h-1 1zm-5-16h-1 1zm16-16h-1 1zm31-9l-1-1 1 1zm41-3v1-1zm18 3v1-1zm-1-2a1 1 0 002 2l-2-2zm-40 1c12-1 27-1 39 1v-2c-12-2-27-2-39-1v2zm39 1c12 1 25 4 35 7v-2c-9-3-22-6-35-7v2zm35 7l12 6c4 2 7 4 9 7l2-2-10-7-13-6v2zm21 13c3 4 3 10 0 15l2 1c3-5 4-12 0-18l-2 2zm0 15c-2 5-9 10-18 14l1 2c9-4 16-9 19-15l-2-1zm-18 14c-8 3-21 5-34 7v2c13-2 26-4 35-7l-1-2zm-34 7l-41 2v1c13 1 29 0 41-1v-2zm-41 2c-12-1-25-4-35-7l-1 2c10 3 24 6 36 6v-1zm-35-7c-10-3-19-7-24-11l-1 1c6 5 15 9 24 12l1-2zM87 52l-5-8c-1-3-2-5-1-8h-2c-1 3 0 6 1 9s3 6 6 8l1-1zm-6-16c1-4 5-9 13-13l-1-2c-8 4-13 9-14 15h2zm13-13l15-5 17-4-1-2-16 4-16 5 1 2zm32-9l23-3-1-2-23 3 1 2zm23-3l5-1h0l2-1-1-1h-2l-5 1 1 2zm6-3l-11 1v2l11-1V8zm14 1c13 0 29 2 39 5l1-2c-11-2-27-5-40-5v2zm39 5c11 3 20 8 25 12l2-1c-6-5-15-10-26-13l-1 2zm25 12c6 5 7 11 7 15l2 1c0-6-2-12-7-17l-2 1zm7 15c-1 5-4 9-11 13l1 2c7-4 11-9 12-14l-2-1zm-11 13c-6 4-16 8-27 11v2c11-3 22-7 28-11l-1-2zm-27 11c-12 2-26 5-39 5v2c13 0 28-3 39-5v-2zm-39 5c-14 0-29-2-41-4v2c11 2 27 4 41 4v-2zm-41-4c-12-2-22-5-29-9l-1 2c7 4 18 7 30 9v-2zm-29-9c-6-4-11-10-11-15h-2c0 6 5 13 12 17l1-2zM82 42c-1-5 2-11 7-15l-1-1c-6 4-9 11-8 16h2zm7-15l10-5 14-5-1-2-14 5c-4 2-8 3-10 6l1 1zm24-10c10-3 26-7 35-8V7c-10 1-26 5-36 8l1 2zm35-8h13l5 1 4 1V9l-3-1-6-1h-13v2zm22 2a19 19 0 002-1 1 1 0 000-1l-1-1h-1l-1 1-1 1h2a5 5 0 011 0 1 1 0 010-1h-1v2zm-8-1c13 0 27 2 38 5l1-2c-12-3-26-5-39-5v2zm38 5c12 2 24 6 30 10l1-2c-7-4-19-8-30-10l-1 2zm30 10c7 4 10 9 10 14l2-1c-1-5-4-11-11-15l-1 2zm10 14c0 4-2 10-7 14l1 2c6-5 8-11 8-17l-2 1zm-7 14c-5 4-15 8-25 11v2c11-3 21-7 26-11l-1-2zm-25 11c-11 3-25 6-38 7v2c13-1 28-4 38-7v-2zm-38 7c-13 1-28 0-40-2l-1 2c13 2 28 3 41 2v-2zm-40-2c-13-2-25-6-32-10l-1 2c8 4 20 8 32 10l1-2zM98 59c-8-4-13-9-15-13l-2 1c2 5 8 10 16 14l1-2zM83 46c-3-5-3-11 1-15l-1-1c-5 5-5 11-2 17l2-1zm1-15l9-6 14-6-1-2-13 6c-5 2-8 4-10 7l1 1zm23-12c10-3 26-6 36-7v-2c-11 1-27 4-37 7l1 2zm36-7c10-2 21-1 26-1V9c-5 0-16-1-26 1v2zm26-1a29 29 0 005-1 1 1 0 01-1 0 1 1 0 010-1 1 1 0 00-1 0l2 1a1 1 0 00-1-2v1h-4v2zm4-2l-11-1v2l11 1V9zm14 4c12 1 25 2 33 6l1-2c-9-4-22-5-34-6v2zm33 6c9 3 15 11 19 16l1-2c-3-4-10-12-19-16l-1 2zm19 16l2 6c1 2 0 3-1 5l1 2c2-3 3-5 2-7 0-3-1-5-3-8l-1 2zm1 11l-9 7-13 7 1 2 13-7 9-7-1-2zm-22 14c-9 4-20 6-32 8v2l33-8-1-2zm-32 8c-12 2-27 3-40 2v2c13 1 28 0 40-2v-2zm-40 2c-13 0-27-3-37-6v2c10 3 24 6 37 6v-2zm-37-6c-10-3-20-8-24-12l-2 1c5 5 15 10 26 13v-2zM85 52c-5-5-6-10-5-14l-2-1c-1 5 0 11 5 16l2-1zm-5-14c2-5 8-12 15-16l-1-1c-8 4-14 10-16 16l2 1zm15-16c8-4 19-7 31-9l-1-2c-12 2-23 5-31 10l1 1zm31-9c12-2 31-3 41-3V8c-10 0-29 1-42 3l1 2zm41-3l12 1 4 1 2 1 1-2-3-1-4-1-12-1v2zm18 3h2l1-1v-1h-1a5 5 0 00-2-1h-1l2 2h-1 1v-1l-1 2z"/>
        <path fill="#FE7F80" fill-rule="evenodd" d="M64 115l1 38v16l13 10 11 7 23 8 20 1 31 3h31l23-4 17-7 14-6 9-9v-6l2-35-2-16-3 5-11 5-13 6-18 5-20 4-41 1-40-3-20-7-6-5-21-10" clip-rule="evenodd"/>
        <path fill="#FE7F80" fill-rule="evenodd" d="M63 115l-1 25c1 9 0 21 4 29 5 8 13 14 24 19 12 4 27 7 44 8 17 2 43 1 59 0 17-2 29-3 40-7 10-4 18-9 23-16 4-7 3-17 4-26l-2-28c-1-4-1 1-6 3-4 3-11 8-21 11a386 386 0 01-94 8c-16-1-32-4-44-8s-24-14-29-17l-1-1zm-2-1l4 27c0 9-4 21 1 29 4 7 13 11 24 15 12 5 26 10 43 12a404 404 0 00100-10c11-3 18-8 22-15s3-17 4-26v-27c-1-4-2-2-7 1-4 2-12 10-22 13-10 4-23 5-39 6-15 2-37 4-54 3-17-2-34-5-46-9-13-5-24-16-29-19" clip-rule="evenodd"/>
        <path fill="#000" d="M65 153h-1 1zm0 16h-1v1h1v-1zm13 10v1-1zm11 7v1-1zm23 8l-1 1h1v-1zm20 1v-1 1zm31 3v1-1zm31 0v1-1zm23-4v1h1l-1-1zm17-7l1 1-1-1zm14-6v1-1zm9-9v1h1v-1h-1zm0-6h1-1zm2-35h1-1zm-2-16h1v-4l-2 3 1 1zm-3 5l1 1v-1h-1zm-11 5v1-1zm-13 6v1-1zm-18 5v1h1l-1-1zm-20 4v1-1zm-41 1v1-1zm-40-3l-1 1h1v-1zm-20-7l-1 1 1-1zm-6-5v-1 1zm-22-11l-1-1v1h1zm-1 25h1-1zm4 29zm68 27v-1 1zm59 0l1 1-1-1zm63-23h1-1zm4-26h-1 1zm-2-28h-1 1zm-6 3l1 1-1-1zm-61 18v-1 1zm-54 1v-1 1zm-44-8l1-1-1 1zm-29-17l-1 1 1-1zm-2-2a1 1 0 00-2 0h2zm3 27h-1 1zm25 44v1-1zm43 12v1-1zm61-2v1-1zm39-8l1 1-1-1zm26-41h-1 1zm0-27h-1 1zm-7 1v-1 1zm-61 19v1-1zm-54 3v-1 1zm-46-9l-1 1 1-1zm-29-20a1 1 0 10-1 2l1-2zm1 2l1 38h2l-1-38h-2zm1 38v16h2v-16h-2zm1 17l13 10 1-2-13-10-1 2zm13 10l11 7 1-1-11-8-1 2zm11 7l22 8 1-2-22-8-1 2zm23 8l20 1v-2l-20-1v2zm20 1l31 3v-2l-31-3v2zm31 3h31v-2h-31v2zm31 0l23-4v-2l-23 4v2zm24-4l17-7-1-2-17 7 1 2zm17-7l13-6-1-2-13 7 1 1zm13-6l9-9-1-1-9 8 1 2zm10-10v-6l-2-1v7h2zm0-6l2-35h-2l-2 34 2 1zm2-35l-2-16h-2l2 16h2zm-4-17l-3 5 2 1 3-5-2-1zm-2 5l-12 5 1 2 12-5-1-2zm-12 5l-13 6 1 2 13-6-1-2zm-12 6l-18 5 1 2 17-5v-2zm-18 5l-20 4v2l20-4v-2zm-20 4l-41 1v2l41-1v-2zm-41 1l-40-3v2l40 3v-2zm-40-3l-20-7-1 2 20 7 1-2zm-20-6l-6-5-1 1 6 5 1-1zm-6-6l-21-10v2l20 10 1-2zm-23-10l-1 25h2l1-25h-2zm-1 25l1 7v8c0 5 1 10 4 14l1-1c-2-4-3-8-3-14v-7l-1-7h-2zm5 29c4 8 13 15 24 19l1-1c-11-5-19-11-24-19l-1 1zm24 19c11 5 27 8 44 9v-2c-17-1-32-4-43-8l-1 1zm44 9c17 2 43 1 60 0l-1-2c-16 1-42 2-59 0v2zm60 0c16-2 28-3 39-7l-1-2c-10 4-22 5-39 7l1 2zm39-7c10-4 19-9 24-17l-2-1c-4 7-12 12-23 16l1 2zm24-17c2-3 3-8 3-12l1-14h-2l-1 14c0 4-1 8-3 11l2 1zm4-26a176 176 0 00-2-28h-2l1 5a129 129 0 011 23h2zm-2-28v-2l-1-1-2 1-4 4 1 2 4-4 1-1h-1v1h2zm-7 2l-4 3-5 3-13 5 1 2c5-1 9-3 13-6l5-3 4-2-1-2zm-22 11c-10 3-23 6-39 7v2c16-1 30-4 40-7l-1-2zm-39 7c-15 1-38 2-54 1v2c16 1 39 0 54-1v-2zm-54 1c-16-1-31-4-43-8l-1 2c12 4 28 7 44 8v-2zm-43-8a85 85 0 01-24-13l-5-4-2 2 5 3 7 5 18 9 1-2zm-29-17h-2l-1 1 1 1 2-2zm-5-1l2 12 2 15h2l-2-15-2-12h-2zm4 27l-1 15c-1 5-1 10 2 14l1-1c-2-3-2-8-1-13l1-15h-2zm1 29c2 4 5 7 10 10l15 6 1-1-15-7c-4-3-8-5-10-9l-1 1zm25 16c11 5 26 10 43 12v-2c-17-2-31-7-42-11l-1 1zm43 12c17 1 45-1 61-2v-2c-17 1-44 3-61 2v2zm61-2c17-2 29-4 40-8l-1-2c-10 4-22 6-39 8v2zm40-8c10-3 18-8 22-15l-2-1c-4 6-11 11-21 14l1 2zm22-15c2-4 3-8 3-13v-7l1-7h-2l-1 7v7c0 4-1 9-3 12l2 1zm4-27a402 402 0 000-27h-2v27h2zm0-27v-2l-1-1h-2l-2 1-3 2 1 2 3-2 2-1h-1 1v1h2zm-8 0l-4 3-5 3c-4 3-9 6-14 7l1 2c5-1 10-4 14-7l5-4 4-2-1-2zm-23 13c-10 4-22 5-38 6v2c16-1 29-2 39-6l-1-2zm-38 6c-15 2-38 4-54 3v2c17 1 39-1 54-3v-2zm-54 3c-17-2-34-5-46-9l-1 2c13 4 30 7 47 9v-2zm-46-9c-6-2-12-6-17-10l-7-5-5-4-1 2 5 3 7 6 17 10 1-2z"/>
        <path fill="#FE7F80" fill-rule="evenodd" d="M62 184v36l5 17 9 6 15 11 21 3 20 4 34 1 30 1 21-2 14-5 14-6 9-11 1-6 5-36-4-11-5 3-9 5-14 5-16 5-19 3-42-1-59-5-31-17" clip-rule="evenodd"/>
        <path fill="#FE7F80" fill-rule="evenodd" d="M63 182v25c0 9-1 20 3 27 5 8 15 15 26 19 11 5 24 6 41 8l61 1c17-1 29-3 39-7 10-3 17-8 21-15 5-7 5-18 6-27s1-24-1-28c-1-3-1 3-6 5s-12 6-22 9-23 7-39 8c-15 2-38 2-54 1-17-1-33-4-45-8s-24-14-29-17l-1-1zm-1 2l3 25c1 8-4 19 1 26 4 7 16 12 27 16s22 8 39 9a527 527 0 00101-5c10-4 16-7 20-15 4-7 5-19 6-29 1-9-1-22-2-26s1 1-3 3c-5 2-14 7-24 10s-22 7-37 9c-16 1-39 3-55 2a163 163 0 01-76-25" clip-rule="evenodd"/>
        <path fill="#000" d="M62 220h-1v1l1-1zm5 17h-1v1l1-1zm9 6l1-1-1 1zm15 11l-1 1h1v-1zm21 3v-1 1zm20 4v1-1zm34 1v1-1zm30 1v1-1zm21-2v1-1zm14-5l1 1-1-1zm14-6v1-1zm9-11l1 1-1-1zm1-6l1 1v-1h-1zm5-36h1-1zm-4-11h1l-1-2-1 1 1 1zm-5 3l-1-1 1 1zm-9 5v1-1zm-14 5l1 1-1-1zm-16 5v1-1zm-19 3v1-1zm-42-1l-1 1 1-1zm-59-5l-1 1h1v-1zm-29-19h1l-2-2v2h1zm0 25h1-1zm3 27v1-1zm26 19v1-1zm41 8v1-1zm61 1v-1 1zm39-7v1-1zm21-15l1 1-1-1zm6-27h-1 1zm-29-14v1-1zm-93 9v1-1zm-45-8v1-1zm-29-17l-1 1 1-1zm-1 1a1 1 0 10-2 1l2-1zm3 51l-1 1 1-1zm27 16l-1 1 1-1zm39 9zm64 1v-1 1zm37-6v-1 1zm20-15h-1 1zm6-29h-1 1zm-2-26h1-1zm-3 3v1-1zm-24 10v1-1zm-37 9v1-1zm-55 2l-1 1 1-1zm-44-9v1-1zm-32-17a1 1 0 00-1 2l1-2zm-1 1v36h2v-36h-2zm0 37l5 16h2l-5-17-2 1zm5 17l10 6 1-2-10-6-1 2zm10 6l14 11 1-2-14-11-1 2zm15 11l21 3v-2l-21-3v2zm20 3l21 4v-2l-20-4-1 2zm21 4l34 1v-2l-34-1v2zm34 1l30 1v-2l-30-1v2zm30 1l21-2v-2l-21 2v2zm21-2l15-5-1-2-14 5v2zm15-5l13-6-1-2-13 6 1 2zm13-6l10-11-2-1-9 10 1 2zm10-11l1-6-1-1-2 6 2 1zm1-7l5-36h-2l-4 36h1zm5-36l-4-11h-2l4 11h2zm-6-12l-5 3 1 2 5-3-1-2zm-5 3l-9 5 1 2 9-5-1-2zm-9 5l-13 5 1 2 13-5-1-2zm-13 5l-16 5v2l17-5-1-2zm-16 5l-19 3v2l19-3v-2zm-19 3l-42-1-1 2 43 1v-2zm-101-6l-30-17-1 2 30 17 1-2zm-30-18v25h2v-14-11h-2zm0 25v14c0 5 1 10 4 14l1-1c-2-4-3-8-3-13v-7-7h-2zm4 28c5 8 14 15 26 19v-2c-11-4-20-11-25-18l-1 1zm26 19c11 5 24 6 41 8l1-2c-18-2-31-3-42-8v2zm41 8l61 1v-2l-60-1-1 2zm61 1c17-1 29-3 39-7l-1-2c-10 4-21 6-38 7v2zm39-7c10-3 17-8 22-15l-1-1c-5 7-12 11-22 14l1 2zm22-15c3-4 4-9 5-13l1-15h-2l-1 14-4 13 1 1zm6-28a144 144 0 00-1-28l-2 1 1 4a111 111 0 010 23h2zm-1-28v-1l-1-1h-1v1h-1v1l-4 4 1 2 4-5a14 14 0 011-1h-1v1l2-1zm-7 4l-23 9 1 2 23-9-1-2zm-23 9c-10 3-22 7-38 8v2c16-1 29-5 39-8l-1-2zm-38 8c-15 2-38 2-54 1v2c16 1 39 1 54-1v-2zm-54 1c-17-1-32-3-45-8v2c12 4 28 7 45 8v-2zm-45-8c-6-2-12-5-17-9l-7-5-5-3-1 2c2 0 3 2 5 3l7 5c5 3 11 7 18 9v-2zm-29-17l-2 1 1 1 1-2zm-3 3l3 24h2l-3-25-2 1zm3 24v7l-1 3v4c-1 4-1 9 2 13l1-1c-2-3-2-7-1-12v-4l1-3v-7h-2zm1 27c2 4 6 7 11 9l16 7 1-2-16-7c-5-2-8-5-11-8l-1 1zm27 16c11 4 23 8 40 9v-1c-17-2-28-6-39-10l-1 2zm40 9c17 2 47 2 64 1v-2h-64v1zm64 1c17-1 28-3 38-6l-1-2c-10 3-20 5-37 6v2zm38-6c9-4 15-8 20-15l-2-1c-4 7-10 10-19 14l1 2zm20-15c2-4 4-9 4-14l2-15-2-1-2 16c0 5-2 9-4 13l2 1zm6-29c1-10-1-23-2-27h-2c1 4 3 17 2 26l2 1zm-2-27a14 14 0 010-2v1h-1-1v-1 1l-3 3 1 2a6 6 0 004-6 1 1 0 00-1-1h-1a1 1 0 000 1v2h2zm-5 2c-4 2-13 7-23 10v2c10-3 20-8 24-10l-1-2zm-23 10c-11 3-22 7-37 9v2c15-2 27-6 37-9v-2zm-37 9c-16 1-39 3-55 2l-1 2c17 1 41-1 56-2v-2zm-55 2c-17-1-31-5-44-9v2c12 4 27 8 43 9l1-2zm-44-9c-12-4-27-13-32-16l-1 2c5 3 20 12 33 16v-2zm57 6l-59-5v2l58 5 1-2z"/>
    </g>
    <g class="server2">
        <path fill="#FE7F80" fill-rule="evenodd" d="M401 266l-1 46 5 4 5 12 15 8 21 8 23 4 31 1 33 1 21-6 20-6 17-8 6-9 2-6 1-40-3-16-10-14-6-3-8-7-21-8-25-5-29 2-30 2-24 3-18 12-10 3-13 19" clip-rule="evenodd"/>
        <path fill="#FE7F80" fill-rule="evenodd" d="M402 265l1 24c1 9-2 21 1 29 4 8 10 15 21 21 11 5 28 7 45 9 18 2 46 2 63 1 18-1 31-4 42-9 11-4 19-10 24-18 4-8 3-22 2-32 0-10 1-20-4-29s-15-19-26-25c-12-6-27-10-44-12-17-1-41-1-59 2-17 2-34 6-45 12-11 7-17 21-21 25v2zm-1-1l2 26c0 9-3 18 1 26s10 18 21 24c11 5 27 6 45 8 17 1 44 2 62 0 17-1 33-4 44-8 11-5 18-10 22-18s2-20 2-30c0-11 2-22-3-31-5-10-15-21-27-27-11-6-27-8-44-10-17-1-41-1-58 1-17 3-32 6-42 13-11 6-19 23-23 28" clip-rule="evenodd"/>
        <path fill="#000" d="M400 312h-1v1l1-1zm5 4v-1 1zm5 12h-1l1 1v-1zm15 8l-1 1 1-1zm21 8l-1 1h1v-1zm23 4v1-1zm31 1v-1 1zm33 1v1-1zm21-6v-1 1zm20-6v1-1zm17-8v1-1zm6-9h1-1zm2-6h1-1zm1-40h1-1zm-3-16l1-1-1 1zm-10-14l1-1h-1v1zm-6-3h-1 1zm-8-7v-1 1zm-21-8v-1 1zm-25-5v-1 1zm-29 2v-1 1zm-30 2v-1 1zm-24 3v-1 1zm-18 12v1-1zm-10 3l-1-1v1h1zm-14 21h-1 1zm1 24h1-1zm1 29h-1 1zm21 21zm108 10v-1 1zm42-9v1-1zm24-18h-1 1zm2-32h1-1zm-4-29l1-1-1 1zm-26-25v-1 1zm-44-12v-1 1zm-59 2v-1 1zm-45 12zm-21 25h-1 1zm0 1a1 1 0 00-2 0h2zm1 26h1-1zm1 26h-1 1zm21 24v1-1zm107 8v-1 1zm44-8l-1-1 1 1zm22-18h-1 1zm-1-61h-1 1zm-27-27l1-1-1 1zm-44-10v-1 1zm-58 1zm-66 40a1 1 0 102 2l-2-2zm-2 1l-1 46h2l1-46h-2zm-1 47l5 3 1-1-4-4-2 2zm5 3l5 12 2-1-6-12-1 1zm6 13l14 8 1-2-14-8-1 2zm14 8l21 8 1-2-21-8-1 2zm22 8l23 4v-2l-23-4v2zm23 4l31 1v-2l-31-1v2zm31 1l33 1v-2l-33-1v2zm33 1l22-6-1-2-21 6v2zm22-6l19-6-1-2-19 6 1 2zm19-6l17-8-1-2-17 8 1 2zm17-8l7-10-2-1-6 9 1 2zm7-10l2-6-2-1-2 6 2 1zm2-6l1-40h-2l-1 39 2 1zm1-40l-3-17-2 1 3 16h2zm-3-17l-10-14-2 1 11 14 1-1zm-11-14l-6-3-1 1 7 4v-2zm-6-3l-8-7-1 2 8 6 1-1zm-8-7l-21-7v1l20 8 1-2zm-21-8l-25-5v2l25 5v-2zm-25-5l-29 2v2l29-2v-2zm-29 2l-30 2v2l30-2v-2zm-30 2l-24 3v2l24-3v-2zm-24 3l-19 12 1 2 19-12-1-2zm-19 12l-10 3 1 2 10-3-1-2zm-10 4l-12 18 1 1 12-18-1-1zm-14 21l1 24h2l-1-24h-2zm1 24v15c-1 5-1 10 1 14l2-1c-2-3-2-8-1-13v-15h-2zm1 29c4 9 11 16 22 21l1-1c-11-5-17-13-21-21l-2 1zm22 21c11 5 27 8 45 10l1-2c-18-2-34-4-45-9l-1 1zm45 10c18 2 46 2 63 1v-2c-17 1-45 1-62-1l-1 2zm63 1c18-1 31-4 42-9v-2c-11 5-24 8-42 9v2zm42-9c11-4 20-10 25-19h-2c-4 8-13 13-23 17v2zm25-19c2-4 3-10 3-15l-1-17h-2l1 17c0 5-1 11-3 15h2zm2-32c0-10 1-21-4-30l-2 1c5 9 4 18 4 29h2zm-4-30c-6-9-15-19-27-25l-1 2c12 6 21 15 26 24l2-1zm-27-25c-12-6-27-10-44-12v2c17 2 32 6 43 12l1-2zm-44-12c-17-1-42-1-59 2v2c18-3 42-3 59-2v-2zm-59 2c-17 2-34 6-45 13l1 1c10-6 27-10 44-12v-2zm-45 13c-6 3-10 8-14 13l-4 7-4 5 2 1 3-5 5-7c3-5 7-10 13-13l-1-1zm-22 25v2h2v-2h-2zm-1 1l1 11 1 15h2l-1-15-1-11h-2zm2 26l-1 13c0 5 0 9 2 13h2c-2-4-2-8-2-13l1-13h-2zm1 26c4 9 11 19 22 25l1-2c-11-5-18-15-21-23h-2zm22 25c11 5 27 6 45 8v-2c-18-2-33-3-44-8l-1 2zm45 8c17 1 44 2 62 0v-2c-18 2-45 1-62 0v2zm62 0c17-1 33-4 44-8l-1-2c-11 4-26 7-43 8v2zm44-8c11-5 19-10 23-18l-2-1c-4 7-11 12-22 17l1 2zm23-18l3-15-1-8v-8h-2v8l1 8c0 5-1 10-3 14l2 1zm2-31v-8-8c0-5 0-11-3-16l-2 1c3 5 3 10 3 15v16h2zm-3-32c-5-10-15-21-27-27l-1 2c12 6 21 17 26 26l2-1zm-27-27c-12-6-27-8-45-10v2c17 2 32 4 44 10l1-2zm-45-10c-17-1-41-1-58 2v1c17-2 41-2 58-1v-2zm-58 2c-17 2-32 5-43 12l1 2c11-7 25-10 42-13v-1zm-43 12c-6 3-10 9-14 15l-5 8-4 5 2 2 3-6 5-8c4-5 9-11 14-14l-1-2z"/>      
        <path fill="#FE7F80" d="M519 229c12 0 27 5 36 9 10 3 17 7 22 11 4 4 7 10 4 15-2 5-9 11-17 15s-20 7-32 9-28 4-41 4c-13-1-27-3-37-7-11-3-20-7-25-12-6-5-10-10-10-15 1-5 5-11 11-15 7-4 17-7 29-9 11-2 29-4 40-4h27c5 1 8 1 7 2l-14-3zm7 3c13 1 27 4 36 7 9 4 14 10 17 14 2 5 2 11-1 15-4 5-9 9-18 13a181 181 0 01-111 3c-10-3-18-8-23-12-5-5-8-10-6-16 1-5 7-11 14-15 8-5 21-8 33-10s30-3 40-3c9-1 16 1 19 2 3 0 0 1 0 1"/>
        <path fill="#FE7F80" d="M462 233a173 173 0 0180 0c11 3 21 7 28 12 7 4 11 10 12 14 1 5-2 10-8 14s-17 10-28 13a174 174 0 01-109-6c-9-4-15-10-17-16-2-5 0-10 4-15s13-10 22-13 23-4 31-5l16-1-31 3zm2-1a215 215 0 0178 1c11 2 21 8 28 12s13 9 13 13c0 5-6 11-12 15-6 5-16 11-27 14s-25 3-38 3-28-1-39-3c-12-2-23-6-31-10s-14-8-16-13-1-11 3-15c5-5 17-9 24-12s16-4 19-4c3-1 0 0 0 0"/>
        <path fill="#000" d="M519 229v-1 2-1zm36 9l1-1-1 1zm22 11l-1 1 1-1zm4 15zm-17 15v-1 1zm-32 9v-1 1zm-41 4l1-1-1 1zm-62-19l-1 1 1-1zm-10-15h1-1zm11-15v-1 1zm29-9v-1 1zm40-4v1-1zm27 0v1-1zm7 2v1h1l-1-1zm29 7v-1 1zm-2 42l-1-1 1 1zm-37 9v-1 1zm-74-6v-1 1zm-23-12v-1 1zm-6-16l1 1-1-1zm47-25l-1-1 1 1zm40-3v1-1zm19 2v1-1zm-64 3v-1 2-1zm108 12h-1 1zm12 14h1-1zm-8 14v1-1zm-104 16v1-1zm-33-9l-1 1 1-1zm-17-16h1-1zm26-28v-1 1zm47-6v1-2 1zm-30 1a1 1 0 001 2l-1-2zm41-2v1-1zm38 4v1-1zm28 12v1-1zm13 13h1-1zm-12 15h-1 1zm-65 17v-1 1zm-39-3v-1 1zm-31-10l-1 1 1-1zm-13-28v-1 1zm43-16v1-1zm-1 1a1 1 0 102-1l-2 1zm54-4c12 0 27 5 36 9l1-2c-10-4-24-9-37-9v2zm36 9c10 3 17 6 21 11l1-2c-4-4-12-8-21-11l-1 2zm21 11c4 4 6 9 5 14h1c3-5 0-11-5-16l-1 2zm5 14l-7 7-10 7v2l12-7 6-9h-1zm-17 14c-9 4-20 7-32 9v2c12-2 24-5 32-9v-2zm-32 9c-13 2-28 4-40 4l-1 2c14 0 29-2 41-4v-2zm-40 4c-13-1-28-3-38-6l-1 1c11 4 25 6 38 7l1-2zm-38-6c-11-4-19-8-25-13l-1 2c6 4 15 9 25 12l1-1zm-25-13c-3-2-5-4-6-7-2-2-3-5-3-7h-2c0 3 1 6 3 8l7 8 1-2zm-9-14c1-4 5-10 11-14l-1-2c-7 4-11 11-12 16h2zm11-14c6-4 16-7 28-9v-2c-12 2-22 5-29 9l1 2zm28-9c11-2 29-4 40-4v-2c-11 0-29 2-40 4v2zm40-4h27v-2h-27v2zm27 0a34 34 0 016 1v-1l2 2v-2l-2-1-6-1v2zm7 0l-14-3v2l14 3v-2zm-7 2c13 1 27 4 35 7l1-2c-9-3-23-6-35-7l-1 2zm35 7c9 4 14 9 17 14l2-1c-3-5-9-11-18-15l-1 2zm17 14c2 4 2 10-1 14l1 1c4-5 4-11 2-16l-2 1zm-1 14c-3 4-9 9-18 12l1 2c9-4 15-8 18-13l-1-1zm-18 12c-9 4-24 7-36 9v2c13-2 28-5 37-9l-1-2zm-36 9c-13 2-28 2-40 1l-1 2c13 1 28 1 41-1v-2zm-40 1c-13-1-24-4-34-7l-1 2c10 3 22 6 34 7l1-2zm-34-7c-9-3-18-8-23-12l-1 1c5 5 14 10 23 13l1-2zm-23-12c-4-5-7-10-5-14l-2-1c-2 6 1 12 6 16l1-1zm-5-14c1-5 6-11 14-15l-1-2c-8 4-14 11-15 16l2 1zm14-15c8-5 20-8 32-10l-1-2c-12 2-24 5-32 10l1 2zm32-10c12-2 30-3 40-3v-2c-10 0-29 1-41 3l1 2zm40-3c9-1 16 1 19 2v-2c-3-1-9-3-19-2v2zm19 2a8 8 0 011 0l-1-1a1 1 0 011 0h-1-1v1h2l-1 1h1l1-1a1 1 0 000-2h-1-1v2zm-63 3c10-3 27-5 40-5v-2c-13 0-30 2-41 5l1 2zm40-5c13 0 28 2 39 5v-2c-11-3-26-5-39-5v2zm39 5c11 3 21 7 27 11l1-1c-6-5-17-9-28-12v2zm27 11l8 7c3 3 4 5 4 7h2l-4-8-9-7-1 1zm12 14c1 5-2 9-8 13l1 2c6-5 10-10 9-15h-2zm-8 13c-6 4-16 10-27 13l1 2c11-3 21-9 27-13l-1-2zm-27 13c-11 3-25 5-38 6l1 2c12-1 27-3 38-6l-1-2zm-38 6c-12 0-26-1-38-3v2c12 2 26 3 39 3l-1-2zm-38-3c-12-2-25-5-33-9l-1 2c9 4 22 7 34 9v-2zm-33-9c-8-4-14-10-16-15l-2 1c2 5 9 12 17 16l1-2zm-16-15c-2-5 0-10 4-14l-2-2c-4 5-6 11-4 17l2-1zm4-14c4-5 12-10 21-13v-2c-9 3-18 8-23 13l2 2zm21-13l16-3 15-2v-2l-15 2-16 3v2zm31-5a110 110 0 0115-1l1-2h-1-4l-11 1v2zm16-3l-31 3v2l31-3v-2zm-29 4c10-2 27-3 40-3v-2c-13 0-30 1-41 3l1 2zm40-3c13 0 27 1 38 4l1-2c-12-3-26-4-39-4v2zm38 4c11 2 21 8 28 12l1-2c-7-4-17-10-28-12l-1 2zm28 12l8 6c2 2 4 4 4 6h2c0-3-2-5-4-7l-9-7-1 2zm12 12c0 2-1 5-3 7l-9 8 2 1 8-8c2-2 4-5 4-8h-2zm-12 15c-6 4-15 10-26 13v2c12-3 21-9 28-14l-2-1zm-26 13c-11 3-25 3-38 3v2c13 0 27 0 38-3v-2zm-38 3c-13 0-28-1-39-3l-1 2c12 2 27 3 40 3v-2zm-39-3c-12-2-23-6-31-10l-1 2c8 4 20 8 31 10l1-2zm-31-10c-4-1-7-4-10-6l-5-6h-2l6 8 10 6 1-2zm-15-12c-2-5-1-10 3-15l-1-1c-5 5-6 11-4 16h2zm3-15l11-6 12-5-1-2-12 5-11 7 1 1zm23-11c7-3 16-4 19-4v-2c-3 0-12 1-20 4l1 2zm19-4a34 34 0 011 0 1 1 0 010-1 1 1 0 010-1h-1l-1 1v1l2-1v1a5 5 0 001-1 1 1 0 000-1h-1-1v2z"/>      
        <path fill="#FE7F80" fill-rule="evenodd" d="M404 334l-3 40 4 13 12 11 13 7 19 6 25 6 28-2h31l24-3 14-4 13-6 9-9 4-7 2-38-1-10-5 4-9 4-14 5-17 6-23 4-40-2h-36l-23-9-7-4-22-12" clip-rule="evenodd"/>
        <path fill="#FE7F80" fill-rule="evenodd" d="M404 334v27c0 9-3 20 2 28 4 7 15 12 26 17 11 4 25 8 42 10s44 2 60 1c17-1 29-3 39-7 10-5 18-10 22-18 4-7 3-17 3-26l-1-27c-1-4 1 1-4 3-4 2-14 8-24 11a437 437 0 01-92 6c-17-1-33-4-45-8-13-4-25-12-30-15l2-2zm-1 2v23c1 9-3 23 2 31 4 8 13 12 24 16 12 5 27 9 44 11 18 2 46 1 63-1 16-1 28-3 38-7s16-10 20-17c5-8 5-18 5-27 1-8 0-22-2-26-1-4-2-2-6 1-5 2-10 10-20 13-10 4-25 7-41 7-15 1-37-1-54-2-16-1-32-1-44-5s-24-16-29-19" clip-rule="evenodd"/>
        <path fill="#000" d="M401 374h-1 1zm4 13h-1 1zm12 11l-1 1 1-1zm13 7v1-1zm19 6l-1 1 1-1zm25 6v1-1zm28-2v-1 1zm31 0v1-1zm24-3v1-1zm14-4v1-1zm13-6v1h1l-1-1zm9-9l1 1v-1h-1zm4-7h1-1zm2-38h1-1zm-1-10h1v-2l-1 1v1zm-5 4h1-1zm-9 4v1h1l-1-1zm-14 5v-1 1zm-17 6l1 1-1-1zm-23 4v1-1zm-40-2v-1 1zm-36 0v1-1zm-23-9l-1 1h1v-1zm-7-4l1-1-1 1zm-20-12h1v-3l-2 2 1 1zm0 27h-1 1zm2 28h-1 1zm68 27v1-1zm121-24h-1 1zm2-53h-1 1zm-4 3v-1 1zm-24 11l-1-1 1 1zm-92 6v-1 1zm-75-23l-1-1-1 1 2 1v-1zm2 0a1 1 0 00-2 0h2zm-1 23h-1 1zm2 31l-1 1 1-1zm131 26v-1 1zm38-7v1-1zm25-44h1-1zm-8-25l-1-1 1 1zm-20 13v1-1zm-41 7v1-1zm-54-2v-1 1zm-44-5v1-1zm-29-20a1 1 0 00-1 2l1-2zm0 1l-3 40h2l3-40h-2zm-3 40l4 13 2-1-4-12h-2zm4 13l12 12 1-1-11-12-2 1zm12 12l14 7 1-2-14-7-1 2zm14 7l18 6 1-2-18-6-1 2zm18 6l26 6v-2l-25-6-1 2zm26 6l28-2v-2l-28 2v2zm28-2h31v-2h-31v2zm31 0l24-3v-2l-24 3v2zm24-3l14-4v-2l-14 4v2zm14-4l13-6-1-2-12 6v2zm14-6l9-9-2-2-9 10 2 1zm9-10l4-7-2-1-4 7 2 1zm4-7l2-38h-2l-2 38h2zm2-38l-1-10h-2l1 10h2zm-2-11l-5 4 1 1 5-3-1-2zm-5 4l-9 4 1 2 9-5-1-1zm-9 4l-14 5 1 2 13-5v-2zm-14 5l-17 6 1 2 17-6-1-2zm-17 6l-23 4v1l24-3-1-2zm-23 4l-40-2v2l40 2v-2zm-40-2h-36v2h36v-2zm-36 0l-23-8v1l23 8v-1zm-22-8l-7-5-1 2 6 4 2-1zm-7-5l-22-11-1 1 22 12 1-2zm-22-11v27h2v-15-12h-2zm0 27v7l-1 8c0 4 0 9 3 13l2-1c-3-3-3-8-3-12l1-8v-7h-2zm2 28c2 4 6 7 11 10 4 3 10 5 16 7v-1l-15-8c-5-2-8-5-10-9l-2 1zm27 17c11 5 25 9 42 11v-2c-17-2-30-6-42-10v1zm42 11c17 2 44 2 60 1v-2c-16 1-43 1-60-1v2zm60 1c17-1 29-3 39-8l-1-1c-10 4-21 6-38 7v2zm39-8c10-4 19-10 23-17l-2-1c-4 7-12 13-22 17l1 1zm23-17c2-4 3-8 3-13v-7-7h-2v14c0 4-1 9-3 12l2 1zm3-27a266 266 0 00-1-27h-2l1 12v15h2zm-1-27a19 19 0 010-2 1 1 0 00-2 0v1l-3 3 1 2a7 7 0 004-5v-1 1a1 1 0 01-2 0v-1 2h2zm-5 2c-5 3-14 8-25 11l1 2c11-3 20-9 25-11l-1-2zm-25 11c-10 3-22 4-38 5l1 2c15-1 27-2 38-5l-1-2zm-38 5c-15 1-37 2-53 1v2c16 1 38 0 54-1l-1-2zm-53 1c-17-1-33-4-45-8l-1 2c13 4 29 7 46 8v-2zm-45-8l-17-8-7-4-5-3-1 2 5 3 7 4 17 8 1-2zm-29-13l2-2-2-2-2 2 2 2zm-1-1v23h2v-23h-2zm0 23v8l-1 8c0 6 0 12 3 16l2-1c-2-4-3-9-3-15l1-8v-8h-2zm2 32c4 8 13 12 25 16v-2c-11-4-19-8-23-15l-2 1zm25 16c11 5 26 9 44 11l1-2c-18-2-33-6-45-11v2zm44 11c18 2 46 1 63-1v-2c-17 2-45 3-62 1l-1 2zm63-1c17-1 28-3 38-7l-1-2c-9 4-21 6-37 7v2zm38-7c10-5 17-10 21-18l-2-1c-4 7-10 13-20 17l1 2zm21-18c2-4 4-8 4-13l1-14h-2l-1 14c0 4-1 9-4 12l2 1zm5-27a119 119 0 00-2-26h-2l2 12v14h2zm-2-26l-1-3h-2l-2 1-3 2 1 2 3-2 2-1v1h2zm-8 0l-4 3-4 3c-3 3-7 6-12 7l1 2c5-2 9-4 12-7l5-4 3-2-1-2zm-20 13c-10 4-24 7-40 7v2c16 0 31-3 41-7l-1-2zm-40 7c-15 1-37-1-54-2v2c16 1 38 3 54 2v-2zm-54-2l-12-1h-11l-21-4v2l20 4h12l12 1v-2zm-44-5c-6-2-12-6-17-9l-7-6-5-4-1 2 5 4 7 5c5 4 11 8 18 10v-2z"/>
        <path fill="#FE7F80" fill-rule="evenodd" d="M401 401l1 39 2 15 12 9 14 7 18 8 27 1 27 1 31 2 21-6 18-4 14-7 8-7 2-6 2-35 1-13-6 5-10 5-15 5-15 2-20 4-45 3-34-6-23-2-30-19" clip-rule="evenodd"/>
        <path fill="#FE7F80" fill-rule="evenodd" d="M402 404l2 23c1 8-2 21 3 29 4 8 12 13 23 17 11 5 26 7 43 8 18 2 46 2 63 1 16-1 28-3 37-7 10-4 17-9 21-17 4-7 5-18 5-26v-25c-1-4-1-1-6 1s-12 7-22 10c-11 3-25 7-40 9h-56c-16-2-32-5-44-9s-23-14-27-16l-2 2zm1-1v25c1 9-1 19 3 26s13 13 24 17c11 5 25 9 42 11 18 1 45 0 62-1 16-1 27-3 37-7s21-10 25-16c5-7 2-16 2-24l-1-27c-1-4 1-1-3 2-5 2-14 9-24 12a395 395 0 01-92 5c-17-1-34-5-47-9s-25-12-29-14" clip-rule="evenodd"/>
        <path fill="#000" d="M402 440h-1 1zm2 15l-1 1h1v-1zm12 9l-1 1 1-1zm14 7l-1 1 1-1zm18 8v1-1zm27 1l-1 1 1-1zm27 1l1-1-1 1zm31 2v1h1l-1-1zm21-6l1 1-1-1zm18-4zm14-7v1h1l-1-1zm8-7l1 1v-1h-1zm2-6h1-1zm2-35h-1 1zm1-13h1v-2l-2 1 1 1zm-6 5v1-1zm-10 5v1-1zm-15 5v1-1zm-15 2v-1 1zm-20 4v1-1zm-45 3v1-1zm-34-6v-1 1zm-23-2h-1v1h1v-1zm-29-17l-1-1v1h1zm28 69v1-1zm43 8v1-1zm63 1v1-1zm58-24l1 1-1-1zm5-26h1-1zm0-25l1-1-1 1zm-6 1v1-1zm-22 10v1-1zm-40 9v-1 1zm-100-9v1-1zm-27-16v-1h-1l1 1zm0 1a1 1 0 00-2 0h2zm-1 25h1-1zm3 26l-1 1 1-1zm24 17v-1 1zm42 11v-1 1zm99-8v1-1zm25-16h1-1zm2-24h1-1zm-4-25v1-1zm-64 17v-1 1zm-52 0v1-1zm-47-9zm-29-15a1 1 0 10-1 1l1-1zm-2-1l1 39h2l-1-39h-2zm1 39l2 16 2-1-2-15h-2zm3 16l11 9 1-1-11-9-1 1zm11 9l14 7 1-2-14-7-1 2zm14 7l19 8 1-2-19-8-1 2zm19 8l26 1 1-2-27-1v2zm26 1l28 1 1-2-28-1-1 2zm28 1l31 2v-2l-30-2-1 2zm32 2l21-6-1-2-21 6 1 2zm21-6l17-5v-1l-18 4 1 2zm17-5l14-6v-1l-14 6v1zm15-6l8-7-1-2-9 8 2 1zm8-8l2-6h-2l-1 6h1zm2-6l2-35h-2l-2 35h2zm2-35l1-13h-2l-1 13h2zm-1-14l-6 5 1 2 7-5-2-2zm-6 5l-10 5 1 2 10-5-1-2zm-10 5l-14 5v2l15-5-1-2zm-14 5l-15 2 1 2 14-2v-2zm-15 2l-20 4v2l21-4-1-2zm-20 4l-45 3v2l45-3v-2zm-45 3l-34-6v2l34 6v-2zm-34-6l-23-2v2l23 2v-2zm-23-2l-29-18-1 1 29 18 1-1zm-30-16l1 9 1 14h2l-1-14-1-9h-2zm2 23v15c0 5 0 10 3 14l2-1c-2-3-3-8-3-13v-8-7h-2zm3 29c4 9 12 14 24 18v-2c-11-4-18-9-22-17l-2 1zm24 18c11 5 26 7 43 8l1-2c-18-1-33-3-44-8v2zm43 8c18 2 46 2 63 1l-1-2c-16 1-44 1-61-1l-1 2zm63 1c16-1 28-3 38-7l-1-2c-10 4-21 6-38 7l1 2zm38-7c10-4 16-10 21-17l-2-1c-4 7-10 12-20 16l1 2zm21-17l4-13 1-14h-2l-1 13-4 13 2 1zm5-27a145 145 0 000-26l-2 1 1 10-1 15h2zm0-26v-1l-1-1h-2l-4 3v2l5-3v1l2-1zm-7 1l-10 5-13 5 1 2 13-5 9-5v-2zm-23 10c-10 3-24 7-39 9v2c16-2 29-6 40-9l-1-2zm-39 9h-56v2h56v-2zm-56 0c-16-2-32-4-44-9v2c12 4 28 7 44 9v-2zm-44-9l-16-8-6-5-5-3-1 2 5 3 6 4c5 4 11 7 17 9v-2zm-28-16l-2 2 1 1 2-1-1-2zm-1 2v25h2v-25h-2zm0 25v14c0 4 1 9 3 13l2-1-3-12v-7-7h-2zm3 27c5 7 13 13 24 17l1-2c-11-4-19-9-23-16l-2 1zm24 17c11 5 26 9 43 11v-2c-17-2-31-6-42-11l-1 2zm43 11c18 1 45 0 62-1v-2c-17 1-44 2-62 1v2zm62-1c16-1 27-3 37-7v-2c-11 4-21 6-37 7v2zm37-7l15-7c5-3 9-6 11-10l-2-1c-2 3-5 6-10 9l-14 7v2zm26-17c2-3 3-8 3-12l-1-6v-6l-2-1v7l1 6c0 4-1 8-3 11l2 1zm2-24a302 302 0 00-1-28l-2 1 1 11v15l2 1zm-1-28a13 13 0 010-1 1 1 0 01-2 1v-1l-3 3 1 2 4-4a3 3 0 000-1v-1a1 1 0 00-2 0 1 1 0 000 1v2l2-1zm-5 2l-4 3-6 3c-4 2-8 5-14 6l1 2c5-1 10-4 14-6l6-4 4-2-1-2zm-24 12c-10 3-23 4-39 5v2c16-1 29-2 40-5l-1-2zm-39 5c-15 1-36 2-52 0v2c16 2 37 1 52 0v-2zm-52 0c-17-1-34-5-47-8v1c12 4 30 8 47 9v-2zm-47-8c-6-2-12-6-17-9l-7-4-5-2-1 1 5 3 7 4c5 3 11 6 18 8v-1z"/>
    </g>
    <g class="server3">
        <path fill="#FE7F80" fill-rule="evenodd" d="M2 524l1 48v7l10 10 15 9 20 8 21 3 32 1 31 2 27-5 17-4 15-9 10-11v-8l3-40-7-14-7-13-9-8-10-5-21-6-24-3-27-1-31 1-23 4-19 10-8 6-16 21" clip-rule="evenodd"/>
        <path fill="#FE7F80" fill-rule="evenodd" d="M3 525v27c0 9-2 18 2 26s11 16 22 21c11 6 27 11 44 12a360 360 0 00106-10c11-4 17-10 21-18 4-9 4-21 4-31s1-21-4-30-13-19-25-25-28-11-46-13c-17-1-40 0-57 3s-34 8-46 14c-11 7-18 21-21 25v-1zm-2 2c0 5 4 18 4 27 1 8-5 17-1 25 4 7 13 16 24 21s25 7 42 9h64c17-2 30-4 41-9 11-4 21-10 25-18s1-21 0-31c0-10 3-20-1-29-5-9-13-21-25-27s-30-7-48-8c-17-1-39-3-56-1s-35 9-47 15c-11 7-17 20-20 24" clip-rule="evenodd"/>
        <path fill="#000" d="M3 572H2h1zm0 7H2v1l1-1zm10 10h-1 1zm15 9l-1 1h1v-1zm20 8l-1 1h1v-1zm21 3v1-1zm32 1v-1 1zm31 2v1-1zm27-5v1-1zm17-4v1l1-1h-1zm15-9l1 1-1-1zm10-11l1 1v-1h-1zm0-8h-1 1zm3-40h1v-1l-1 1zm-7-14h1-1zm-7-13l1-1-1 1zm-9-8l1-1-1 1zm-10-5l1-1-1 1zm-21-6v-1 1zm-24-3v-1 1zm-27-1v-1 1zm-31 1v-1 1zm-23 4v-1 1zm-19 10v-1 1zm-8 6v-1h-1l1 1zM3 525h1-2 1zm0 27h1-1zm2 26l1-1-1 1zm128 32l-1-1 1 1zm44-9v1-1zm21-18h1-1zm4-31h1-1zm-4-30h1-1zm-25-25l1-1-1 1zm-46-13v1-1zm-57 3v-1 1zM3 526H2v2l1-1v-1zm-1 1a1 1 0 10-2 0h2zm2 52H3h1zm66 30l1-1-1 1zm64 0v-1 1zm41-9l-1-1 1 1zm25-18h-1 1zm0-31h1-1zm-26-56v-1 1zm-48-8v1-1zM23 501v-1 1zM2 525a1 1 0 002 1l-2-1zm-1-1l1 48h2l-1-48H1zm1 48v7h2v-8l-2 1zm0 8l10 9 1-1-10-9-1 1zm10 9l15 10 2-2-16-9-1 1zm16 10l19 8 1-1-20-9v2zm20 8l21 3v-2l-21-3v2zm21 3l32 1v-2l-32-1v2zm32 1l31 2v-2l-31-2v2zm31 2l27-5-1-2-26 5v2zm27-5l17-4v-2l-18 4 1 2zm18-5l15-8-1-2-15 9 1 1zm15-8l10-11-2-1-10 10 2 2zm10-12v-8h-2v8h2zm0-8l3-40h-2l-3 40h2zm3-41l-7-13-2 1 7 13 2-1zm-7-13l-7-14-2 1 8 14 1-1zm-7-14l-9-8-1 2 8 7 2-1zm-9-8l-10-5-1 2 10 5 1-2zm-10-5l-22-6v2l21 6 1-2zm-22-6l-24-3v2l24 3v-2zm-24-3l-27-1v2l27 1v-2zm-27-1l-31 1v2l31-1v-2zm-31 1l-23 4 1 2 22-4v-2zm-23 4l-19 10 1 2 19-10-1-2zm-19 10l-8 6 1 1 8-5-1-2zm-9 6L1 526l2 1 16-21-2-1zM2 525v27h2v-27H2zm0 27v7l-1 6c0 5 1 9 3 13l2-1c-2-3-3-7-3-12l1-6v-7H2zm2 26c4 8 12 16 23 22l1-2c-11-5-18-13-22-21l-2 1zm23 22c11 6 27 11 44 12v-2c-17-1-32-6-43-12l-1 2zm44 12c18 2 44 1 62-1l-1-2c-17 2-43 3-61 1v2zm62-1c17-2 33-4 44-9v-2c-11 5-27 7-45 9l1 2zm44-9c12-4 18-11 22-19l-2-1c-4 8-10 14-20 18v2zm22-19l4-15v-16h-2v16l-4 14 2 1zm4-31v-15c0-5-1-10-4-15l-2 1c3 4 4 9 4 14v15h2zm-4-30c-5-10-13-19-25-26l-1 2c11 6 20 16 24 25l2-1zm-25-26c-12-6-29-11-46-13l-1 2c18 2 34 7 46 13l1-2zm-46-13c-18-1-41 0-58 3v2c17-3 40-4 57-3l1-2zm-58 3c-18 3-35 8-46 14l1 2c11-6 28-12 45-14v-2zm-46 14c-6 4-10 9-14 14l-5 7-3 4 1 2 4-5 5-7c3-5 8-10 13-13l-1-2zM4 526v-1H2v1h2zm-4 1l2 12 2 15h2l-2-15-2-12H0zm4 27l-2 12c-1 4-1 9 1 13l2-1c-2-3-2-7-1-11l2-13H4zm-1 25c4 8 13 17 24 22l1-2c-11-5-19-13-23-21l-2 1zm24 22c12 5 26 7 43 9l1-2c-18-2-32-4-43-9l-1 2zm43 9h64v-2H71l-1 2zm64 0c17-2 30-4 41-9l-1-2c-11 5-23 7-40 9v2zm41-9l16-8c4-3 8-6 10-10l-2-1c-2 4-5 7-10 10-4 3-9 5-15 7l1 2zm26-18c2-5 2-10 2-16l-1-8-1-8h-2l1 8 1 8c0 6 0 11-2 15l2 1zm0-32l1-7v-8c0-5 0-9-2-14h-2c2 5 2 10 2 14v8l-1 7h2zm-1-29c-5-10-13-22-26-28l-1 2c12 5 20 17 25 26h2zm-26-28c-6-3-14-5-22-6l-26-2v2l26 2c8 1 15 3 21 6l1-2zm-48-8c-17-1-39-3-56-1v2c17-2 39 0 56 1v-2zm-56-1c-18 2-36 9-47 15l1 2c11-6 29-13 46-15v-2zm-47 15c-6 4-10 9-14 14l-4 6-3 5 2 1 3-5 4-6c3-5 8-10 13-13l-1-2z"/>
        <path fill="#FE7F80" d="M107 490c13-1 28 2 39 5s21 6 27 11c6 4 9 11 9 16s-4 10-10 14c-6 5-16 9-27 12a173 173 0 01-78 1c-12-3-24-6-32-10-7-4-12-8-13-13-2-5-1-12 4-17 4-4 14-9 24-12 10-4 25-6 36-6 11-1 24 1 31 1l8 1-18-3zm8 1c12 0 27 4 38 7 10 3 18 8 23 12s7 9 6 14-5 11-12 15a212 212 0 01-71 14c-14 0-29-2-41-4-11-3-22-8-28-13-6-4-8-9-9-14 0-5 2-11 8-16 6-4 16-7 27-10l38-7c10-1 17 1 21 2 3 0 1 0 0 0"/>
        <path fill="#FE7F80" d="M104 490a194 194 0 0167 15c6 4 12 11 13 16 0 5-5 10-11 14-6 5-15 9-25 12a189 189 0 01-78 4c-11-2-24-7-32-11s-14-8-17-13c-2-5-1-11 3-16 5-4 13-9 23-13 10-3 26-5 36-7l24-1c5-1 5 0 4 1l-7-1zm-16 2c13-2 30-2 42-1 12 2 24 6 32 9 8 4 15 9 18 14s4 13 0 18c-3 4-12 8-21 12-10 3-22 7-34 8-13 2-28 3-41 1-13-1-26-6-36-9s-19-6-24-11c-4-5-6-13-4-18s9-8 18-11c8-4 23-9 32-11l18-3h1"/>
        <path fill="#000" d="M107 490v-1 2-1zm39 5l-1 1 1-1zm36 27h1-1zm-37 26l1 1-1-1zm-38 5v1-1zm-40-4v-1 1zm-32-10l1-1-1 1zm-13-13h-1 1zm28-29l1 1-1-1zm67-5l-1 1 1-1zm8 1v1h1v-1h-1zm51 17l-1 1 1-1zm-6 29v1-1zm-32 9v1-1zm-80 1l1-1-1 1zm-28-13l1-1-1 1zm-9-14h1-1zm8-16v-1 1zm65-17v-1 1zm21 2v-1 1zm-11-1v-1 2-1zm39 5v-1 1zm28 10v-1 1zm13 16h-1 1zm-11 14v-1 1zm-25 12v1-1zm-39 6v-1 1zm-39-2l1-1-1 1zm-32-11l1-1-1 1zm-17-13l1-1-1 1zm3-16zm59-20v-1 1zm24-1v-1 1zm4 1v1h1v-1h-1zm-23 0a1 1 0 001 2l-1-2zm74 9v1-1zm-3 44v1-1zm-34 8v1-1zm-41 1v1-1zm-36-9v-1 1zm-28-29l1 1-1-1zm18-11zm32-11v-1 1zm18-3v-1 1zm0 1a1 1 0 002-2l-2 2zm19 0c12-1 27 2 38 5l1-2c-11-3-26-6-39-5v2zm38 5c11 3 22 6 27 11l2-2c-7-5-17-8-28-11l-1 2zm27 11c6 4 9 10 9 15h2c0-5-3-12-9-17l-2 2zm9 15c0 5-3 9-10 14l2 1c6-4 10-9 10-15h-2zm-10 14c-6 4-15 8-26 11l1 2c10-3 20-7 27-12l-2-1zm-26 11c-11 3-25 5-38 5v2c13 0 28-2 39-5l-1-2zm-38 5c-13 0-28-2-40-4v2c12 2 27 4 40 4v-2zm-40-4c-12-3-24-6-31-10l-1 2c8 4 20 7 32 10v-2zm-31-10c-8-3-12-8-13-12h-2c1 5 6 10 14 14l1-2zm-13-12c-2-5-1-11 3-16l-1-1c-5 5-6 12-4 17h2zm3-16c5-5 15-9 25-12l-1-2c-10 3-20 8-25 13l1 1zm25-12c10-4 24-6 35-6v-2c-11 0-26 2-36 6l1 2zm35-6c11-1 24 1 30 1l1-2c-7 0-20-2-31-1v2zm30 1a111 111 0 019 1h-1v-1h2v-1h-1l-2-1h-6l-1 2zm9-1l-18-3v2l18 3v-2zm-11 0c13 0 28 4 38 7l1-2c-11-3-26-7-38-7l-1 2zm38 7c10 3 19 8 23 12l2-2c-5-4-14-9-24-12l-1 2zm23 12c5 4 7 9 6 13h2c2-5-1-10-6-15l-2 2zm6 13c-1 4-5 10-12 14l1 2c8-4 12-11 13-16h-2zm-12 14c-7 4-20 7-32 9l1 2c12-2 24-5 32-9l-1-2zm-32 9c-11 3-25 5-39 5v2c14 0 28-2 40-5l-1-2zm-39 5c-13 0-28-2-39-4l-1 1c12 3 27 5 40 5v-2zm-39-4c-12-3-22-8-28-13l-1 2c6 5 17 10 28 12l1-1zm-28-13c-6-4-8-8-9-13h-2c1 5 3 11 10 15l1-2zm-9-13c0-5 2-11 8-15l-1-2c-7 5-9 12-9 17h2zm8-15l11-6 16-4-1-2-15 5-12 5 1 2zm27-10c10-3 27-6 37-7v-2l-38 7 1 2zm37-7c10-1 17 1 21 2v-2c-3-1-11-3-21-2v2zm21 2a136 136 0 011 0 1 1 0 010-1v-1a4 4 0 00-1 0v1h-1 2v1h1l1-1-1-1h-2v2zm-11-1c12 0 28 3 39 5v-2c-11-2-27-5-39-5v2zm39 5c11 3 20 6 27 10l1-2c-7-4-16-7-28-10v2zm27 10l9 7 4 8h2c-1-3-2-6-5-9-2-3-5-6-9-8l-1 2zm13 15l-3 7-7 6 1 2 8-7 3-8h-2zm-10 13c-6 5-15 9-26 12l1 2c11-3 20-7 26-12l-1-2zm-26 12c-10 3-25 5-38 6v2c13-1 28-3 39-6l-1-2zm-38 6c-12 0-27 0-38-2l-1 2c12 2 27 2 39 2v-2zm-38-2c-12-2-24-7-32-11l-1 2c8 4 20 8 32 11l1-2zm-32-11l-11-6c-3-2-5-4-6-7l-2 1 7 7 11 7 1-2zm-17-13c-2-4-1-9 3-14l-1-1c-5 5-6 11-4 16l2-1zm3-14c4-4 13-9 23-13l-1-1c-10 3-19 8-23 13l1 1zm23-13c9-3 25-5 35-7v-2c-10 2-26 4-36 8l1 1zm35-7l24-1v-2l-24 1v2zm24-1a23 23 0 014 0l-1-1v1h2v-1-1h-5v2zm4-1l-7-1v2l7 1v-2zm-22 3c12-2 29-2 41-1v-2c-12-1-29-1-42 1l1 2zm41-1c12 1 23 5 32 9v-2c-8-3-20-7-32-9v2zm32 9c8 4 14 9 17 14l2-1c-4-6-10-11-19-15v2zm17 14c3 5 4 11 0 16l2 1c4-5 3-13 0-18l-2 1zm0 16l-8 6-13 6 1 2 13-6c4-2 7-4 9-7l-2-1zm-21 12c-9 3-21 7-33 8v2c12-1 25-5 34-8l-1-2zm-33 8c-13 2-28 3-41 1v2c13 2 28 1 41-1v-2zm-41 1c-13-1-26-6-36-9l-1 2c10 3 24 8 37 9v-2zm-36-9l-14-5-9-6-1 2 10 6 13 5 1-2zm-23-11c-2-2-4-5-4-8v-8l-2-1v9c1 4 2 7 5 10l1-2zm-4-16l6-6 11-6-1-1-11 5c-3 2-6 4-7 7l2 1zm17-12l32-10v-2l-33 11 1 1zm32-10l19-3-1-2-18 3v2zm19-3a20 20 0 001-1 1 1 0 001 0 1 1 0 00-1-1 3 3 0 00-1 0h-1a1 1 0 000 2l2-2v2l-1-1a1 1 0 010-1h-1l1 2z"/>
        <path fill="#FE7F80" fill-rule="evenodd" d="M2 597l2 38 4 14 11 11 11 7 20 5 23 7h62l23-3 17-5 11-8 11-10v-4l5-38-3-15-7 6-10 6-12 6-16 4-23 3-40-1-36-2-21-6-11-2-20-13" clip-rule="evenodd"/>
        <path fill="#FE7F80" fill-rule="evenodd" d="M3 597l1 24c1 9-1 21 4 29 4 8 14 14 25 19s23 7 41 8c17 2 46 2 62 1 17-1 26-4 36-8s19-8 24-15c4-7 3-18 3-27 1-9 2-24 1-28s-1 0-6 2-14 9-24 12-23 6-38 7c-16 1-38 2-55 1-16-2-32-4-44-9-12-4-25-15-30-17v1zm2-1l-2 26c1 9-1 21 4 29 5 7 15 12 27 16 11 4 25 9 41 10 17 2 44 1 60 0s27-5 37-8c10-4 18-7 23-14 4-7 5-19 6-28v-27c-1-4-1 0-7 2-5 3-15 9-25 12a408 408 0 01-92 8c-17-2-32-5-44-9s-23-14-29-17" clip-rule="evenodd"/>
        <path fill="#000" d="M4 635H3h1zm4 14H7h1zm11 11l-1 1 1-1zm11 7v1-1zm20 5l-1 1 1-1zm23 7v1-1zm33 0v-1 1zm29 0v1-1zm23-3zm17-5l1 1-1-1zm11-8v1-1zm11-10l1 1v-1h-1zm0-4l-1-1v1h1zm5-38h1-1zm-3-15h1l-1-2-1 1 1 1zm-7 6l1 1v-1h-1zm-10 6zm-12 6v1-1zm-16 4v1-1zm-23 3v1-1zm-40-1v1-1zm-36-2l-1 1 1-1zm-21-6v-1 1zm-11-2l-1 1h1v-1zM3 597H2h1zm1 24h1-1zm4 29v-1 1zm25 19l-1 1 1-1zm41 8v-1 1zm62 1v-1 1zm36-8l1 1-1-1zm24-15l-1-1 1 1zm3-27h1-1zm1-28h1-1zm-6 2l-1-1 1 1zm-62 19v1-1zm-99-8v1-1zM3 596l1-1-1-1-1 1 1 1zm3 0a1 1 0 00-2 0h2zm-3 26H2h1zm4 29H6h1zm27 16v-1 1zm41 10l1-1-1 1zm60 0v-1 1zm60-22zm6-28h-1 1zm-7-25l1 1-1-1zm-25 12v1-1zm-37 6v1-1zm-99-7l1-1-1 1zM5 595a1 1 0 10-1 2l1-2zm-4 2l2 38h2l-2-38H1zm2 38l4 14 2-1-4-14-2 1zm5 14l10 12 1-1-10-12-1 1zm10 12l12 7 1-2-12-7-1 2zm12 7l19 5 1-2-20-5v2zm19 5l24 7v-2l-23-7-1 2zm24 7h33v-2H73v2zm33 0h29v-2h-29v2zm29 0l23-4v-1l-23 3v2zm23-4l18-4-1-2-17 5v1zm18-4l10-8-1-2-10 8 1 2zm10-8l12-10-1-2-12 10 1 2zm12-11v-5l-2 1v4h2zm0-4l5-38h-2l-5 37 2 1zm5-38l-3-15h-2l3 15h2zm-5-16l-7 6 2 1 6-5-1-2zm-6 6l-11 6 1 1 11-5-1-2zm-11 6l-12 7 1 1 12-7-1-1zm-12 6l-16 4 1 2 16-4-1-2zm-15 4l-24 3 1 2 23-3v-2zm-23 3l-40-1v2l40 1v-2zm-40-1l-36-2-1 2 37 2v-2zm-36-2l-21-6-1 2 21 6 1-2zm-21-6l-11-2v2l10 2 1-2zm-10-2L3 596l-1 1 20 14 2-2zM2 597l1 24h2l-1-24H2zm1 24v15c1 5 1 10 4 14l1-1c-2-4-2-8-3-13v-8-7H3zm4 29c5 8 14 15 25 20l1-2c-11-4-20-11-25-19l-1 1zm25 20c12 5 24 7 41 8l1-2c-18-1-30-3-41-8l-1 2zm41 8c18 2 47 2 63 1v-2c-16 1-45 1-62-1l-1 2zm63 1c17-1 27-4 37-8l-1-2c-10 4-19 7-36 8v2zm37-8c9-4 19-8 23-15l-1-2c-5 7-13 11-23 15l1 2zm23-15c3-4 4-9 4-14v-7-7h-2v14c0 5-1 9-3 12l1 2zm4-28a354 354 0 001-28h-2v5a139 139 0 01-1 23h2zm1-28l-1-2v-1a1 1 0 00-2 0l-1 1-4 3 1 2c3-1 4-3 5-4h-1l1 1h2zm-8 1l-4 2-6 4c-4 2-8 5-13 6v2l14-6 6-4 4-2-1-2zm-23 12c-10 3-23 6-38 7v2c16-1 28-4 38-7v-2zm-38 7c-16 1-38 2-55 1v2c17 1 39 0 55-1v-2zm-55 1c-16-2-32-4-44-8v1c12 5 28 7 44 9v-2zm-44-8l-17-10-7-5-5-3-1 1 5 4 7 5c5 3 11 7 18 9v-1zM2 595v2h2v-1l-2-1zm2 1l-1 11-1 15h2l1-15 1-11H4zm-2 26v15l4 14 2-1c-3-3-3-8-4-13v-8-7H2zm4 29l11 10 16 7 1-2-16-7c-4-2-8-5-10-9l-2 1zm27 17c12 4 25 9 42 10l1-2c-17-1-31-5-42-10l-1 2zm42 10c17 2 44 1 60 0v-2c-16 1-43 2-59 0l-1 2zm60 0c16-1 28-5 38-8l-1-2c-10 3-21 7-37 8v2zm38-8c10-4 17-7 22-15l-1-1c-5 7-12 10-22 14l1 2zm22-15c3-3 4-8 5-13l2-15h-2l-2 14c-1 5-2 10-4 13l1 1zm7-28a136 136 0 000-27h-2l1 12-1 15h2zm0-27l-1-2v-1h-2l-1 1-4 3 1 2 5-4c-1 0-1 0 0 0v1h2zm-8 1l-11 6-15 6 1 2 15-6 11-6-1-2zm-26 12c-10 3-21 5-36 6v2c15-1 26-3 37-6l-1-2zm-36 6c-16 2-39 3-56 1v2c17 2 40 1 56-1v-2zm-56 1c-16-1-30-4-42-8l-1 2c12 4 27 7 43 8v-2zm-42-8c-6-2-12-5-17-9l-7-4-5-4-1 2 5 3 7 5c5 3 11 7 17 9l1-2z"/>
        <path fill="#FE7F80" fill-rule="evenodd" d="M4 664l-1 40 3 14 11 7 14 8 18 5 27 7 29-1h32l21-2 16-7 12-4 8-11 4-3 2-38-3-15-5 5-9 6-12 6-17 2-21 5-44 2-36-4-21-6-27-17" clip-rule="evenodd"/>
        <path fill="#FE7F80" fill-rule="evenodd" d="M4 665l-1 24c1 9-1 21 4 28 5 8 15 12 26 16 11 5 24 10 41 11 17 2 45-1 62-2 16-2 27-3 37-6 10-4 18-9 23-16 4-6 4-16 4-25v-28c-1-4-3 1-8 3-5 3-11 7-21 10s-23 6-38 8c-16 1-39 2-56 1-16-2-31-5-44-9-12-4-25-13-30-15h1zm-2-1c1 4 3 15 3 23 1 9-4 21 1 29 4 7 16 14 28 18a408 408 0 00100 10c16-1 30-5 40-9s17-8 21-15 4-17 4-26 0-23-2-27c-1-4 0 2-5 4l-22 9c-10 2-21 5-37 7-15 1-40 3-56 1a191 191 0 01-74-22" clip-rule="evenodd"/>
        <path fill="#000" d="M3 704H2h1zm3 14H5v1l1-1zm11 7l1-1-1 1zm14 8l-1 1 1-1zm18 5v1-1zm27 7l-1 1h1v-1zm29-1v-1 1zm32 0v1-1zm21-2v1-1zm16-7v-1 1zm12-4v1h1l-1-1zm8-11l-1-1 1 1zm4-3v1l1-1h-1zm2-38h1-1zm-3-15h1l-1-1-1 1h1zm-5 5l1 1v-1h-1zm-9 6l1 1v-1h-1zm-12 6v1h1l-1-1zm-17 2v-1 1zm-21 5v1-1zm-44 2v1-1zm-36-4l-1 1h1v-1zm-21-6l-1 1 1-1zM4 665h1v-1H4v1zm3 52h1-1zm67 27v1-1zm62-2v-1 1zm37-6l1 1-1-1zm23-16l1 1-1-1zm4-53h1-1zm-8 3l1 1-1-1zm-21 10v-1 1zm-94 9v1-1zm-44-9v1-1zM3 665v-1l-1 1h1zm0-1a1 1 0 10-2 0h2zm2 23h1-1zm1 29l1-1-1 1zm28 18l-1 1 1-1zm42 8v-1 1zm58 2v-1 1zm40-9v-1 1zm21-15h1-1zm4-26h-1 1zm-2-27h1-1zm-5 4v-1 1zm-22 9l-1-1 1 1zm-37 7v1-1zm-56 1v-1 1zM4 665a1 1 0 00-1 2l1-2zm-1-1l-1 40h2l1-40H3zm-1 40l3 14h2l-3-14H2zm3 15l12 6 1-1-12-7-1 2zm12 6l13 9 1-2-13-8-1 1zm13 9l19 5v-2l-18-5-1 2zm19 5l26 7 1-2-27-7v2zm27 7l29-1v-2l-30 1 1 2zm29-1h32v-2h-32v2zm32 0l21-2v-2l-21 2v2zm21-2l16-7v-2l-17 7 1 2zm16-7l12-4v-2l-12 4v2zm13-4l8-12-2-1-8 12 2 1zm7-12l4-2-1-2-4 3 1 1zm5-3l2-38h-2l-2 38h2zm2-38l-3-15-2 1 3 14h2zm-5-15l-5 4 2 1 4-4-1-1zm-5 4l-8 6 1 1 9-5-2-2zm-8 6l-12 6 1 2 12-6-1-2zm-12 6l-17 2v2l17-2v-2zm-17 2l-22 5 1 2 21-5v-2zm-21 5l-44 2v2l44-2v-2zm-44 2l-36-4v2l36 4v-2zm-36-4l-21-6-1 2 21 6 1-2zm-21-6L5 663l-1 1 27 17 1-2zM3 665l-1 10v14h2v-14l1-10H3zm-1 24v15c1 5 1 10 4 14l2-1c-3-4-3-8-4-13v-8-7H2zm4 29c3 4 6 7 11 9l16 7v-2l-15-6-10-9-2 1zm27 16c11 5 23 10 41 11v-2c-17-1-30-6-41-11v2zm41 11c17 2 45-1 62-2v-2c-17 1-45 4-62 2v2zm62-2c17-2 28-3 38-6l-1-2c-10 3-21 4-37 6v2zm38-6c10-4 18-9 23-16l-2-1c-4 6-12 11-22 15l1 2zm23-16l4-12v-7-7h-2v13l-4 12 2 1zm4-26a209 209 0 000-28l-2 1 1 4v7l-1 16h2zm0-28l-1-1-1-1h-1l-1 1-5 3 1 2 5-4h1c-1 0-1 0 0 0v1l2-1zm-9 2l-9 5-12 5v2l13-5 9-5-1-2zm-21 10c-10 3-23 6-38 8v2c16-2 28-5 38-8v-2zm-38 8c-16 1-39 2-55 1l-1 2c17 1 40 0 56-1v-2zm-55 1c-17-2-32-5-45-9v2c12 4 28 7 44 9l1-2zm-45-9c-12-4-25-12-30-15l-1 1c5 3 18 12 31 16v-2zM2 666h2v-2H3l-1 2zm-1-2c1 4 3 15 3 23h2c0-8-2-20-3-23H1zm3 23v7l-1 8c-1 5-1 10 2 14l2-1c-3-3-3-8-2-13l1-8v-7H4zm1 29c2 4 7 8 12 11l16 8 1-2-16-8c-5-3-9-6-11-10l-2 1zm28 19c12 4 26 6 43 8v-2c-17-2-31-4-42-8l-1 2zm43 8c16 1 41 3 58 2v-2c-16 1-42-1-58-2v2zm58 2c16-1 30-6 40-10v-1c-11 4-24 8-40 9v2zm40-10c11-4 18-8 22-15l-2-1c-4 7-10 11-20 15v1zm22-15c2-3 3-8 3-12l1-14h-2l-1 14c0 4-1 8-3 11l2 1zm4-26a161 161 0 00-2-27h-2l1 5a124 124 0 011 22h2zm-2-27v-1l-1-1h-1v1l-1 1-3 3v2c3-1 4-3 5-5h-1 2zm-6 3l-23 9 1 2c10-3 18-7 22-9v-2zm-23 9l-36 7v2c16-2 27-5 37-7l-1-2zm-36 7c-15 1-40 3-56 1v2c16 2 41 0 56-1v-2zm-56 1c-17-1-31-5-43-8l-1 2c13 3 27 7 44 8v-2zm-43-8c-12-4-26-11-30-14l-1 2c4 2 18 10 30 14l1-2z"/>
    </g>
    <g class="net-cluster">
      <path class="network-net" stroke="#FAB005" stroke-linecap="round" d="M501 253l-7-7M160 59c2-5 2-6 7-10l-7 10zm-1-1l9-10-9 10zm-1 15l17-22-17 22zm0-2l16-19-16 19zm-4 15c9-5 15-15 28-31l-28 31zm1 0c10-11 19-20 26-30l-26 30zm-1 13l34-39-34 39zm0 3c8-13 18-24 35-40l-35 40zm-4 15c13-14 22-26 44-54l-44 54zm2-2c15-17 28-34 45-50l-45 50zm-2 14c15-14 27-29 52-61l-52 61zm1-1l51-59-51 59zm-1 13c11-10 24-24 58-66l-58 66zm-1 3l59-71-59 71zm0 12c14-19 29-35 67-80l-67 80zm-2 1c21-24 44-49 70-81l-70 81zm-1 15c26-31 51-64 78-92l-78 92zm-1-1c32-35 62-72 78-90l-78 90zm-3 15l88-102-88 102zm2 0l86-100-86 100zm-3 15c28-33 56-64 95-112l-95 112zm0-1c24-26 46-53 95-110l-95 110zm-2 15L245 94 139 215zm1 0c21-24 44-50 103-121L140 215zm-1 14c22-27 45-54 111-129L139 229zm-2 0c43-51 86-101 114-130L137 229zm-1 12c46-50 90-102 121-138L136 241zm-1 1l123-139-123 139zm0 17l130-154-130 154zm-1-1c31-37 64-76 131-152L134 258zm0 13l137-161-137 161zm-1-1c32-36 65-73 138-159L133 270zm-1 15l148-170-148 170zm-2 1l148-171-148 171zm0 13c44-52 90-107 157-180L130 299zm-1 1c44-51 87-102 157-180L129 300zm-2 14c37-40 72-79 164-189L127 314zm1 0c33-40 68-81 165-190L128 314zm-3 15c67-75 133-151 174-202L125 329zm1-2l173-199-173 199zm-3 15c39-42 79-87 185-209L123 342zm1 1c52-63 106-123 182-210L124 343zm-1 12l190-218-190 218zm-1 1c61-68 121-139 190-219L122 356zm-2 14c52-57 101-116 200-230L120 370zm1 1c49-59 100-118 199-230L121 371zm-3 15c81-96 165-193 210-240L118 386zm0-1l208-240-208 240zm-2 16c52-60 105-119 218-251L116 401zm1-2c52-62 105-124 216-249L117 399zm-4 14c49-56 100-111 227-261L113 413zm2 0c61-72 124-144 226-260L115 413zm-1 15c87-100 175-200 234-270L114 428zm-1-1l234-269-234 269zm-1 14c85-100 170-199 241-278L112 441zm0 1l243-280-243 280zm-2 14l251-289-251 289zm-1 0c103-115 202-231 252-289L109 456zm0 14l260-300-260 300zm-1 1c93-106 185-212 260-301L108 471zm-1 15c85-97 169-194 267-310L107 486zm-1-1l269-310-269 310zm-2 14c72-85 145-169 279-320L104 499zm0 0c104-116 205-233 279-320L104 499zm-2 15c95-108 187-215 287-331L102 514zm1-1l286-330-286 330zm1 10c75-87 149-174 292-335L104 523zm0 0l292-335-292 335zm25-17c85-97 170-193 275-315L129 506zm1 0l273-314-273 314zm25-17l255-294-255 294zm0 0c97-109 191-219 255-293L155 489zm25-18c63-70 127-141 236-270L180 471zm1 2l235-272-235 272zm25-17c68-80 132-155 219-253L206 456zm0 0c71-85 144-169 218-252L206 456zm24-17l202-230-202 230zm1-1l199-228-199 228zm26-16c55-63 107-125 181-208L257 422zm-1-1l181-208-181 208zm25-15l164-187-164 187zm1-1c36-43 71-84 162-187L282 405zm26-18c54-59 105-119 143-167L308 387zm-1 0c47-55 95-108 145-165L307 387zm26-16c45-54 90-108 126-146L333 371zm-1-1l127-143-127 143zm28-15c37-47 75-90 105-125L360 355zm-2-2c24-25 44-51 107-124L358 353zm24-16c21-20 39-44 91-101l-91 101zm2-1c23-23 45-49 89-102l-89 102zm24-16c20-25 41-48 73-81l-73 81zm0-1c15-18 31-33 70-80l-70 80zm26-19c12-10 23-21 51-59l-51 59zm0 2l51-59-51 59zm28-18l32-38-32 38zm-1 0l32-36-32 36zm25-18l14-14-14 14zm-1 3l14-17-14 17zM109 516l-6-4 6 4zm-1 0l-5-5 5 5zm8-5c-6-4-8-7-11-10l11 10zm-1 0l-11-9 11 9zm8-6c-7-1-14-9-17-12l17 12zm-1 3c-4-5-10-11-18-15l18 15zm6-7c-5-7-16-11-20-20l20 20zm2 0c-9-5-16-12-22-19l22 19zm5-2c-9-8-18-18-29-26l29 26zm1-2l-28-25 28 25zm9-4c-13-7-21-16-35-30l35 30zm-2 0l-35-29 35 29zm5-4c-8-11-18-19-40-38l40 38zm2-2l-40-33 40 33zm8-5c-15-11-31-26-45-37l45 37zm-2 2l-45-41 45 41zm8-4c-19-18-41-34-52-45l52 45zm0 0c-19-18-40-34-52-45l52 45zm5-5c-17-17-38-34-56-49l56 49zm3 0c-17-13-33-26-58-50l58 50zm5-7c-12-8-24-23-63-53l63 53zm0 2c-24-22-47-43-61-54l61 54zm9-4l-70-59 70 59zm-3-1l-66-59 66 59zm9-3l-76-66 76 66zm-1-1l-74-65 74 65zm8-5c-24-22-50-41-83-68l83 68zm0 0l-81-70 81 70zm6-3c-27-24-56-50-87-75l87 75zm-1-1c-26-24-54-49-86-75l86 75zm7-6l-91-78 91 78zm0 0l-90-79 90 79zm7-6c-25-19-51-41-96-80l96 80zm2 2c-39-32-73-63-98-84l98 84zm7-4c-28-27-59-49-103-91l103 91zm-2-1l-102-90 102 90zm7-6l-109-91 109 91zm1 1l-109-94 109 94zm6-5l-114-98 114 98zm0 2c-45-39-87-76-112-100l112 100zm9-3c-31-29-63-54-123-106l123 106zm-2-1L126 319l120 106zm8-6c-38-30-71-63-126-110l126 110zm-1 1c-29-25-58-49-126-110l126 110zm7-4L128 300l132 116zm0-2c-47-38-91-78-131-114l131 114zm6-4c-38-32-75-63-136-121l136 121zm1-1L130 290l137 119zm7-6c-31-27-64-57-142-120l142 120zm-2 2L132 282l140 123zm11-6c-38-28-71-61-150-128l150 128zm-3 2L132 272l148 129zm8-6L133 263l155 132zm-1 1c-38-37-80-72-153-133l153 133zm7-6c-40-32-81-70-159-138l159 138zm0 1L135 253l159 138zm7-4c-56-50-112-99-166-144l166 144zm0 0c-34-31-70-62-166-144l166 144zm8-4L137 233l172 150zm-1 0L138 234l170 149zm5-5c-64-57-134-116-174-156l174 156zm2-1c-66-59-134-119-176-154l176 154zm7-2c-43-39-88-75-184-159l184 159zm1-2L140 215l183 158zm6-4c-44-40-85-75-189-163l189 163zm0 0c-69-62-141-123-188-163l188 163zm5-7c-67-59-136-119-193-165l193 165zm2 3c-60-54-119-107-194-169l194 169zm7-5c-64-58-127-112-201-174l201 174zm-1-1c-73-65-147-129-198-172l198 172zm7-5L144 176l205 178zm0 0c-66-56-134-114-204-178l204 178zm7-5c-48-40-99-85-210-184l210 184zm0 0c-69-61-138-122-211-182l211 182zm8-3L148 157l216 189zm-1 0L147 157l216 189zm8-6c-61-49-117-101-223-194l223 194zm0 1c-90-76-177-153-223-193l223 193zm8-4c-79-66-155-131-231-199l231 199zm-2-1L149 138l228 198zm6-5c-45-43-94-84-233-201l233 201zm1 1c-71-59-139-119-234-204l234 204zm5-7c-93-82-187-164-239-205l239 205zm2 2L151 119l240 208zm5-4c-96-85-194-168-243-214l243 214zm1-1L153 110l244 212zm8-3c-72-66-141-126-252-220l252 220zm0-2c-67-60-134-117-251-217l251 217zm7-5c-71-61-145-123-257-221l257 221zm0 1L155 90l257 223zm6-4c-94-81-186-164-263-227l263 227zm1-1c-54-44-106-90-263-228l263 228zm6-4c-61-51-120-103-269-234l269 234zm1 0c-94-80-183-159-269-234l269 234zm5-6c-80-68-158-139-273-237l273 237zm1 0C330 212 228 122 158 62l274 236zm6-3L161 52l277 243zm1-1c-65-55-130-112-279-242l279 242zm7-3c-79-72-160-140-284-248l284 248zm0-1C337 194 227 98 162 43l284 247zm8-6L204 69l250 215zm0 1c-76-64-150-129-251-217l251 217zm6-3L244 94l216 188zm0-1c-44-39-87-77-216-187l216 187zm6-4L285 120l181 157zm0-2c-64-52-125-106-179-156l179 156zm8-4c-58-48-111-95-146-128l146 128zm-2-1c-54-47-108-96-144-125l144 125zm9-4c-26-20-49-41-114-96l114 96zm-2 0c-40-36-81-73-110-95l110 95zm8-2c-20-19-41-40-75-70l75 70zm0-1l-76-67 76 67zm7-7l-43-34 43 34zm-1 2l-41-38 41 38zm8-5l-8-7 8 7z"/>
      <path class="network" stroke-dasharray="1000" fill-rule="evenodd" stroke="#000" stroke-linecap="round" stroke-width="2" d="M161 44l-60 476 60-476zm0 0l-59 477 59-477zm-60 476c124-81 247-164 401-268L101 520zm0 0l400-268-400 268zm400-267L161 44l340 209zm1 0C401 189 300 127 161 44l341 209z" clip-rule="evenodd"/>
      <g class="lightning">
        <path class="lightning" fill="#FA5252" fill-rule="evenodd" d="M290 204l-69 82 43-6-41 64 92-82-50 3 23-61" clip-rule="evenodd"/>
        <path fill="#FA5252" fill-rule="evenodd" d="M291 204c-21 21-37 45-70 82l70-82zm-1 1l-67 80 67-80zm-67 79c8-2 20-2 39-1l-39 1zm-1 1c10-1 19-3 41-3l-41 3zm41-4l-37 63 37-63zm1 0l-40 64 40-64zm-41 62c22-17 42-37 92-82l-92 82zm2 2c34-33 66-64 89-84l-89 84zm89-83c-19 1-40 2-49 4l49-4zm0-2l-51 4 51-4zm-51 3l28-56-28 56zm1 1c8-18 18-40 25-60l-25 60z" clip-rule="evenodd"/>
        <path fill="#000" d="M221 286l-2 2 2-1v-1zm43-6l2-2-3 1 1 1zm-41 64h-1l2 1-1-1zm92-82l1 1 2-2h-3v1zm-50 3h-1l-1 1h2v-1zm26-61h1l-1-1v1zm-70 82l-1-1 2 2-1-1zm69-81h1l-2-1 1 1zm-67 80h-1l2 1-1-1zm0-1v-1 2-1zm39-1v1-2 1zm-40 2v-1l1 2-1-1zm41-3v1-2 1zm0-1l1 1-2-1h1zm-37 63h-1l2 1-1-1zm38-63v1l-1-2 1 1zm-40 64h-1l2 1-1-1zm-1-2h-1l2 1-1-1zm92-82v1l-1-2 1 1zm-90 84l-1-1 1 2v-1zm89-84h1l-2-1 1 1zm0 1v1-2 1zm-49 4v-1 2-1zm49-6v1-2 1zm-51 4l-1-1 1 2v-1zm0-1h-1l2 1-1-1zm28-56h1l-2-1 1 1zm-27 57h-1l1 1v-1zm25-60l1 1-1-1zm0-1l-68 83 1 1 69-83-2-1zm-68 84l43-6-1-2-42 6v2zm42-8l-41 65 2 1 40-65-1-1zm-39 66l92-82-2-2-92 83 2 1zm91-84l-51 3 1 2 50-3v-2zm-50 4l24-61-2-1-23 62h1zm26-62c-11 11-21 22-31 35-11 14-23 29-40 47l2 2 39-47c11-14 20-25 31-36l-1-1zm-69 84l70-83-2-1-70 82 2 2zm67-83l-67 81 2 1 67-81-2-1zm-65 82l67-81-2-1-67 81 2 1zm-1-1c8-2 20-2 39-1v-2c-19-1-31-1-39 1v2zm39-3l-39 1v2l39-1v-2zm-39 4c9-1 18-3 40-3v-2c-22 0-31 2-41 3l1 2zm40-5l-41 3 1 2 40-3v-2zm-1 0l-20 33-17 30 2 1 17-30 20-33-2-1zm-35 64l37-63-2-1-37 63 2 1zm36-65l-40 65 2 1 39-64-1-2zm-38 66l39-64-1-2-40 65 2 1zm-1-2l91-82-1-2c-50 45-70 65-92 83l2 1zm90-84l-92 83 2 1 91-82-1-2zm-89 86c34-33 66-64 90-85l-2-1-89 84 1 2zm88-86l-89 84 1 2 90-85-2-1zm1 1l-29 2-20 2v2l21-2 28-2v-2zm-49 6l49-4v-2l-49 4v2zm49-8l-52 4 1 2 51-4v-2zm-51 6l51-4v-2l-52 4 1 2zm1-1c9-18 17-37 28-57l-2-1c-11 20-19 39-28 57l2 1zm26-58l-28 57 2 1 28-57-2-1zm-26 59c9-19 19-40 26-60l-1-1c-7 20-18 41-26 60l1 1zm25-61l-26 60 1 1 26-60-1-1z"/>
      </g>
    </g>
  </g>
</svg>
