<svg class="sec" xmlns="http://www.w3.org/2000/svg" fill="none" viewBox="0 0 1783 787">
  <g class="security">
    <g class="shield" stroke-linecap="round" stroke-opacity=".9">
      <g class="shield-outer" stroke="#000" stroke-width="4">
        <path d="M607 466c-70 1-138 2-304-1l304 1zm-304-3c-1 91 1 177-1 244l1-244zm0 1c2 50 2 99 0 242V464zm1 242c42 23 86 44 156 79l-156-79zm-1 1c60 29 123 59 157 77l-157-77zm158 75c39-18 77-39 145-74l-145 74zm-1 2l147-78-147 78zm147-77l-1-240 1 240zm-1 0l1-241-1 241zm0-241c-117-2-231-3-303-1l303 1z"/>
        <path d="M543 405c13 14 27 29 62 61l-62-61zm-238 57c12-14 27-28 55-55l-55 55zm-1 3c23-23 43-45 58-58l-58 58zm56-57c53-5 105-3 182-5l-182 5zm1-3h182-182zm184-1c16 21 37 39 61 63l-61-63z"/>
      </g>
      <path class="shading-net" stroke="#228BE6" stroke-width="2" d="M580 702l15-17-15 17zM327 509c4-12 14-18 21-25l-21 25zm-3-1c6-6 13-13 22-25l-22 25zm0 23c10-11 21-19 43-48l-43 48zm2 1c15-18 30-36 41-47l-41 47zm0 24c19-23 41-48 63-71l-63 71zm-1 1c16-21 34-40 62-74l-62 74zm-2 24l87-97-87 97zm1 0c20-22 42-46 85-98l-85 98zm0 24l107-121-107 121zm1 1l105-122-105 122zm1 23l125-146-125 146zm-1 2l126-146-126 146zm-1 24c58-66 115-133 150-170L324 655zm0 0l149-170-149 170zm-1 24c56-60 110-125 172-193L323 679zm1 0c48-54 96-107 170-194L324 679zm4 20l186-213-186 213zm2 0l185-215-185 215zm15 7l190-223-190 223zm0-1l191-220-191 220zm13 8c56-66 116-134 198-227L358 713zm1 0c47-56 97-113 198-228L359 713zm15 7c52-62 105-122 205-235L374 720zm-1 0c80-92 158-182 206-235L373 720zm16 9c70-85 143-168 206-239L389 729zm-1-1c41-50 83-98 207-238L388 728zm17 6c38-46 77-90 192-220L405 734zm-2 0c39-42 78-86 193-221L403 734zm15 8l177-202-177 202zm0 0l177-203-177 203zm16 9c49-55 94-110 160-188L434 751zm-1-2c65-73 129-145 162-186L433 749zm14 6l149-167-149 167zm0 3l148-170-148 170zm18 6c45-55 95-111 130-151L465 764zm-1 0c33-41 68-79 131-152L464 764zm36-21c32-38 65-74 97-106l-97 106zm2-1l93-107-93 107zm38-19c16-15 27-32 57-62l-57 62zm1-1l55-61-55 61zm40-19c4-6 6-11 14-17l-14 17z"/>
      <path class="shield-inner" fill-rule="evenodd" stroke="#000" stroke-width="4" d="M324 485v209-209zm1-1c2 70 1 140 0 210V484zm0 208c37 23 77 42 136 69l-136-69zm0 2l136 68-136-68zm137 69c51-29 102-57 129-70l-129 70zm-2-1l129-67-129 67zm130-68c-2-80-2-161-2-208l2 208zm-1 0V485v209zm-1-209c-55 1-113 1-263-1l263 1zm1 0c-99-2-199-4-264-1l264 1z" clip-rule="evenodd"/>
    </g>
    <g class="server1">
      <g class="Vector">
        <path fill="#FE7F80" fill-rule="evenodd" d="M1243 42l-2 47 2 5 7 12 17 12 17 5 26 3 30 2 32 1 25-7 19-3 14-10 8-9 2-7 2-39-6-13-10-14-6-9-10-3-18-7-25-5-28-1h-32l-23 9-19 8-9 5-16 17" clip-rule="evenodd"/>
        <path fill="#FE7F80" d="M1243 43l-3 27c0 8 0 18 5 26 4 8 11 17 22 22 10 6 25 9 42 10 18 2 44 2 61 0 18-1 35-5 46-9 11-5 17-10 21-18s3-22 3-32 1-19-4-28c-4-9-12-20-24-26s-29-10-47-12c-17-2-41-3-57 0-17 2-33 7-44 14s-18 23-22 27l1-1zm-2 1v25c1 8-3 18 1 26s13 17 24 22c11 6 24 9 42 11 17 2 46 2 64 1 18-2 32-5 43-10 11-4 18-10 23-18 4-8 4-20 3-31 0-10 0-23-5-32s-13-18-24-24c-12-6-28-9-46-11-17-2-41-2-58 0-17 3-32 8-43 14-11 7-20 23-24 27z"/>
        <path fill="#000" d="M1241 89h-1 1zm2 5l-1 1 1-1zm7 12l-1 1 1-1zm17 12v1-1zm17 5v1-1zm26 3v1-1zm30 2v1-1zm32 1v1-1zm25-7v-1 1zm19-3v1h1l-1-1zm14-10l1 1-1-1zm8-9h1-1zm2-7h1-1zm2-39h1v-1l-1 1zm-6-13l1-1h-1v1zm-10-14l-1 1 1-1zm-6-9h1-1zm-10-3v1-1zm-18-7V7v1zm-25-5V2v1zm-28-1V1v1zm-32 0V1v1zm-23 9v-1 1zm-19 8v1-1zm-9 5l-1-1 1 1zm-13 19h1v-2l-2 1 1 1zm-3 27h1-1zm5 26h-1 1zm64 32v-1 1zm61 0v1-1zm46-9v1-1zm21-18h1-1zm3-32h1-1zm-4-28zm-24-26l1-1-1 1zm-47-12v1-1zm-57 0v1-1zm-44 14v-1 1zm-22 27h-1l1 1v-1zm-1 0l1-1-2 1h1zm0 25h-1 1zm1 26h1-1zm24 22l1-1-1 1zm42 11v-1 1zm64 1v1-1zm66-28h1-1zm3-31h1-1zm-5-32l1-1-1 1zm-24-24l-1 1 1-1zM1308 3v1-1zm-43 14h-1 1zm-24 27l-1 1 1 1 1-1-1-1zm1-3l-2 48h2l2-47-2-1zm-2 48l2 6 2-1-2-5h-2zm2 6l7 12 2-1-7-12-2 1zm7 12l18 12 1-2-18-12-1 2zm18 12l17 5 1-2-17-5-1 2zm17 5l26 3v-2l-26-3v2zm26 3l30 2v-2l-30-2v2zm30 2l32 1v-2l-32-1v2zm32 1l25-7v-2l-26 7 1 2zm25-7l19-3v-2l-19 3v2zm20-3l14-10-1-2-15 10 2 2zm14-10l8-10-1-1-8 9 1 2zm8-10l2-7h-2l-2 6 2 1zm2-7l2-39-2-1-2 40h2zm2-40l-6-13-2 1 6 13 2-1zm-7-13l-9-13-2 1 10 13 1-1zm-9-13l-6-9-1 1 5 9 2-1zm-6-9l-10-4-1 2 10 3 1-1zm-10-4l-19-7-1 2 19 7 1-2zm-19-7l-25-5v2l24 5 1-2zm-25-5l-28-1v2l28 1V2zm-28-1h-32v2h32V1zm-32 0l-23 9v1l24-8-1-2zm-23 9l-19 9v1l20-9-1-1zm-19 9l-10 4 1 2 9-5v-1zm-10 4l-16 18 2 1 15-17-1-2zm-13 20l-2 12-1 15h2l1-15 2-12h-2zm-3 27c0 8 0 18 5 26l2-1c-5-7-5-16-5-25h-2zm5 26c4 9 11 18 22 23l1-2c-10-5-17-14-21-22l-2 1zm22 23c11 6 26 9 43 10v-2c-17-1-31-4-42-10l-1 2zm43 10c18 2 44 2 61 0v-2c-17 2-43 2-61 0v2zm61 0c18-1 35-5 46-9l-1-2c-11 4-27 8-45 9v2zm46-9c11-5 17-10 22-19h-2c-4 8-10 12-21 17l1 2zm22-19c2-4 3-10 3-15V69h-2v17c0 5-1 11-3 15h2zm3-32c0-10 1-20-4-29l-1 1c4 9 3 18 3 28h2zm-4-29c-4-9-12-20-24-26l-1 2c11 6 19 16 24 25l1-1zm-24-26c-12-6-30-10-48-12v2c17 2 35 6 47 12l1-2zm-48-12c-17-2-41-3-58 0l1 2c16-3 40-2 57 0V2zm-58 0c-16 2-32 7-43 14l1 2c11-7 26-12 43-14l-1-2zm-43 14c-6 4-11 9-14 15l-6 8-3 5 1 1 4-5 5-8c4-5 9-11 14-14l-1-2zm-22 29l2-1-2-2-1 2 1 1zm-2-1v25h2V44h-2zm0 25v6l-1 7c0 5 0 9 2 14l2-1c-2-4-2-8-2-13l1-7v-6h-2zm1 27c5 8 14 17 25 22l1-2c-11-5-20-14-24-21l-2 1zm25 22c11 6 24 9 42 11v-2c-18-2-31-5-41-11l-1 2zm42 11c17 2 46 2 64 1v-2c-18 1-46 1-64-1v2zm64 1c18-2 32-5 43-10l-1-2c-10 5-24 8-42 10v2zm43-10c11-4 19-10 24-19l-2-1c-5 8-12 14-23 18l1 2zm24-19c2-4 3-9 3-15V70h-2v16c0 6-1 10-3 14l2 1zm3-31c0-10 0-23-5-33l-2 1c5 10 5 21 5 32h2zm-5-33c-5-9-13-18-25-24l-1 2c12 5 19 14 24 23l2-1zm-25-24c-12-6-28-9-46-11v2c17 2 34 5 45 11l1-2zm-46-11c-17-2-41-2-58 1v1c17-2 41-2 58 0V2zm-58 1c-17 2-33 7-44 14l1 1c11-6 26-11 43-14V3zm-44 14c-6 3-11 9-15 14a200 200 0 00-8 13l1 1 4-5 5-8 14-14-1-1zm-22 27v-1l-2 1v1l2-1z"/>
      </g>
      <path class="Vector_2" fill="#000" d="M1353 9V8v2-1zm37 6v1-1zm24 11v1-1zm-7 29v1-1zm-69 14v-1 1zm-40-4l1-1-1 1zm-39-26h1-1zm36-25v1-1zm37-7V6v1zm48 6v1h1l-1-1zm-15-3V9v1zm52 21h1-1zm2 16h-1 1zm-21 14v1-1zm-32 7v-1 1zm-39 2v1-1zm-38-7v1-1zm-31-27l1 1-1-1zm15-16l-1-1 1 1zm33-9v-1 1zm19-4v1-1zm-20 4l-1-1h-1l1 1h1zm76 1v1-1zm29 11v-1 1zm12 16h1-1zm-11 15v1-1zm-25 12v-1 1zm-40 4v-1 1zm-39-3v-1 1zm-32-8v1-1zm-16-17h1-1zm6-14v-1 1zm23-12l1 1-1-1zm16-6v1-1zm2 3h-1l1-1v1zm7-3V9v2-1zm39-2l-1 1 1-1zm38 7v1-1zm31 27l1 1-1-1zm-45 23l1 1-1-1zm-38 5v1-1zm-38-4l-1 1 1-1zm-30-11v-1 1zm-2-29l-1-1 1 1zm27-13v1-1zm24-5v1-1zm6 1v1l2-1-1-1-1 1zm28 1c12 0 27 3 37 6l1-2c-11-3-25-6-38-6v2zm37 6c10 3 19 7 24 11l1-2c-5-4-14-8-24-11l-1 2zm24 11c4 4 6 9 5 14h2c2-5-1-11-6-16l-1 2zm5 14c-1 4-6 9-13 14l1 1c7-4 13-10 14-15h-2zm-13 14c-7 4-17 8-29 10l1 2c11-2 22-6 29-11l-1-1zm-29 10c-11 3-25 3-39 3v2c14 0 28 0 40-3l-1-2zm-39 3c-13 0-28-2-39-4l-1 2c12 2 27 4 40 4v-2zm-39-4c-12-3-22-5-29-10l-1 2c7 4 18 7 29 10l1-2zm-29-10c-6-4-10-10-10-15h-2c0 6 4 13 11 17l1-2zm-10-15c-1-4 2-10 8-14l-1-2c-7 5-10 11-9 16h2zm8-14l12-6 15-4v-2l-16 4-12 6 1 2zm27-10c11-3 25-6 37-7V6c-12 1-27 4-37 7v2zm37-7c12-1 28 1 36 2V8c-8-1-24-3-36-2v2zm36 2l9 2 2 1v-1l2 2v-1-1h-1l-2-2-10-2v2zm12 2l-27-4v2l27 4v-2zm-56-2c13-1 29 0 41 1V9c-12-1-29-2-41-1v2zm41 1l32 8 1-2c-9-3-20-6-33-8v2zm32 8c9 4 16 8 20 13l1-1c-3-5-11-10-20-14l-1 2zm20 13c3 4 4 10 1 15l2 1c3-6 2-12-2-17l-1 1zm1 15l-8 7-12 6v2l13-7 9-7-2-1zm-20 13c-9 3-20 5-32 7v2c12-2 24-4 32-7v-2zm-32 7c-12 2-26 3-39 2v2c13 1 28 0 39-2v-2zm-39 2c-13 0-27-4-38-7v2c10 3 25 7 38 7v-2zm-38-7c-10-3-20-8-25-12l-1 1c5 5 15 9 26 13v-2zm-25-12l-5-7v-6l-2-1 1 8c1 3 2 5 5 7l1-1zm-5-13c2-5 6-12 14-16l-1-2c-8 5-13 12-15 17l2 1zm14-16l16-5 17-4v-2l-17 4-17 5 1 2zm33-9a523 523 0 0119-4V6l-8 2-11 2v2zm19-4h0c0-1 0 0 0 0l-1 1v1h2l1-1V8 7l-1-1h-1v2zm-20 4c10-3 25-3 38-2V8c-13-1-28-1-39 2l1 2zm38-2c13 0 27 0 38 3v-2c-11-3-25-3-38-3v2zm38 3c11 2 21 7 28 11l1-2c-7-4-18-9-29-11v2zm28 11l9 8c2 2 3 5 3 7h2c0-3-2-6-4-9l-9-8-1 2zm12 15c0 3-1 5-3 7l-8 7 1 2 8-7c3-3 4-6 4-9h-2zm-11 14c-6 5-14 9-24 12v2c11-3 19-7 25-12l-1-2zm-24 12c-11 3-27 4-40 4v2c13 0 29-1 40-4v-2zm-40 4c-13 1-27-1-39-3v2c11 2 26 4 39 3v-2zm-39-3c-12-1-24-4-31-8l-1 2c8 4 20 7 32 8v-2zm-31-8c-4-2-8-5-10-8l-6-8h-1c0 3 2 6 5 9l11 9 1-2zm-16-16c-1-5 1-9 6-14l-1-1c-5 4-8 10-6 15h1zm6-14l11-6 6-3 6-2-1-2-6 2a250 250 0 00-17 10l1 1zm23-11l15-6V9l-16 6 1 2zm15-6h1-1v1l1 1 1-1v-1-2h-2v2zm2 1v-2l-2 1 1 2 1-1zm7-1c11-2 26-3 38-2l1-2c-13-1-28 0-39 2v2zm38-2c13 1 28 4 39 7v-2c-10-3-25-6-38-7l-1 2zm39 7c10 3 19 8 24 12l1-1c-5-5-14-10-25-13v2zm24 12c5 4 7 10 6 14l2 1c1-6-1-12-7-16l-1 1zm6 14c-1 5-5 10-12 14l1 2c7-4 12-10 13-15l-2-1zm-12 14c-8 4-20 6-32 9l1 1 32-8-1-2zm-32 9c-11 2-25 4-38 4v2c13 0 27-2 39-5l-1-1zm-38 4c-12 0-27-2-38-4l-1 2c12 2 26 4 39 4v-2zm-38-4c-12-3-23-7-30-11l-1 1c7 5 19 9 30 12l1-2zm-30-11c-6-5-9-10-9-15h-2c0 5 3 12 10 16l1-1zm-9-15c-1-4 1-8 7-12l-1-2c-6 4-9 9-8 14h2zm7-12l13-7 14-6v-2a214 214 0 00-28 13l1 2zm27-13c9-3 19-4 24-5V7c-5 1-16 2-24 5v2zm24-5h5l2-1-1-1h-6v2zm6-1l-12 1v2l12-1V8z"/>
      <g class="Vector_3">
        <path fill="#FE7F80" fill-rule="evenodd" d="M1242 112l-1 40 7 16 7 9 16 7 18 6 24 6 32-2 30 2 22-5 16-4 13-6 10-9-1-4 3-37v-16l-7 6-7 6-14 4-16 5h-24l-41 4-36-3-22-7-10-5-20-12" clip-rule="evenodd"/>
        <path fill="#FE7F80" d="M1244 115v24c1 9-2 22 2 30s12 14 23 18 26 5 43 6c17 2 43 3 60 2s30-4 40-7c11-4 18-8 23-15 4-7 3-18 4-28v-29c-1-4-1 3-6 6l-23 8c-10 3-21 8-37 10-16 1-41 2-58 0-17-1-33-5-45-10-13-4-24-13-29-16l3 1zm-2-2v25c1 9 0 22 4 29 5 8 12 14 23 18 11 5 27 9 44 11 18 2 45 1 61 0 17-1 28-4 38-8 10-3 19-8 23-15 4-8 2-20 2-29 1-10 2-23 1-27s-1 1-6 4c-5 2-14 7-24 10s-21 5-36 6c-15 2-40 4-56 3-17-1-31-5-43-9-13-5-25-15-30-18h-1z"/>
        <path fill="#000" d="M1241 152h-1v1l1-1zm7 16l-1 1 1-1zm7 9v1-1zm16 7v1-1zm18 6l-1 1 1-1zm24 6l-1 1h1v-1zm32-2v-1 1zm30 2v1-1zm22-5v1-1zm16-4v1-1zm13-6v1-1zm10-9h1-1zm-1-4h-1 1zm3-37h1-1zm0-16h1v-3l-2 2 1 1zm-7 6l1 1-1-1zm-7 6v1-1zm-14 4v1-1zm-16 5v1-1zm-24 0v-1 1zm-41 4v1h1l-1-1zm-36-3v1-1zm-22-7v1-1zm-10-5l-1 1h1v-1zm-17-10h1-1zm2 54l1-1-1 1zm23 18v-1 1zm43 6v-1 1zm60 2v-1 1zm40-7v-1 1zm23-15zm4-28h1-1zm-6-23l1 1-1-1zm-23 8v1-1zm-37 10v1-1zm-58 0v1-1zm-45-10l-1 1 1-1zm-29-16v-1l-1 2 1-1zm1-1v-1h-1v1h1zm27 72v1-1zm44 11v1-1zm61 0v1-1zm38-8v1-1zm23-15l-1-1 1 1zm2-29h1-1zm1-27h1-1zm-6 4l1 1v-1h-1zm-24 10v1-1zm-92 9v-1 1zm-43-9v-1 1zm-30-18v-1 1zm-2-1l-1 40 2 1 1-41h-2zm-1 41l7 16 2-1-7-16-2 1zm7 16l8 8 1-1-8-8-1 1zm8 9l16 7 1-2-16-7-1 2zm16 7l17 6 1-2-17-6-1 2zm17 6l24 6 1-2-24-6-1 2zm25 6l32-2v-2l-32 2v2zm32-2l30 2v-2l-30-2v2zm30 2l22-5v-2l-22 5v2zm22-5l16-4-1-2-15 4v2zm16-4l13-6-1-2-13 6 1 2zm13-7l10-9-1-1-10 9 1 1zm11-9l-1-4h-2l1 4h2zm-1-4l3-37h-2l-3 37h2zm3-37v-16h-2v16h2zm-2-17l-7 7 2 1 7-7-2-1zm-7 6l-7 6 1 1 8-5-2-2zm-7 6l-13 5v1l14-4-1-2zm-13 5l-17 4 1 2 16-5v-1zm-16 4h-24v2h24v-2zm-24 0l-41 4 1 2 40-4v-2zm-40 4l-37-3v2l36 3 1-2zm-36-3l-23-7v2l22 7 1-2zm-23-7l-10-5v2l10 5v-2zm-9-5l-20-12-2 1 20 13 2-2zm-19-8v23h2v-13-11l-2 1zm0 23v15c0 6 0 11 2 15l2-1c-2-3-2-8-2-14v-7-8h-2zm2 30c4 8 12 14 24 19v-2c-11-4-18-10-22-18l-2 1zm24 19c11 4 26 5 43 6v-2c-17-1-32-2-43-6v2zm43 6c17 2 43 3 60 2v-2c-17 1-43 0-60-2v2zm60 2c17-1 30-4 41-8l-1-1c-10 3-23 6-40 7v2zm41-8c10-3 18-7 22-15l-1-1c-5 7-12 11-22 15l1 1zm22-15c3-3 4-8 4-13v-7l1-8h-2l-1 8v7c0 5-1 9-3 12l1 1zm5-28a310 310 0 000-29l-2 1 1 4a160 160 0 01-1 24h2zm0-29v-1l-1-1h-1v1h-1v1l-4 5 1 2c2-2 4-4 4-6l1-1a1 1 0 01-1 0v1l2-1zm-7 5l-23 8v2l24-8-1-2zm-23 8c-10 3-22 8-37 10v2c16-2 27-7 37-10v-2zm-37 10c-16 1-41 2-58 0v2c17 2 42 1 58 0v-2zm-58 0c-17-1-33-5-45-10l-1 2c13 5 29 9 46 10v-2zm-45-10l-17-8-7-5-5-3-1 2 5 3a298 298 0 0024 13l1-2zm-30-14l3 1 1-1-3-2-1 2zm1-2v25h2v-25h-2zm0 25v8l1 7c0 6 1 11 4 15l1-1c-2-4-3-9-3-14l-1-8v-7h-2zm5 30c4 8 12 14 23 18l1-1c-11-5-18-10-23-18l-1 1zm23 18c11 5 27 9 44 11v-2c-17-2-32-6-43-10l-1 1zm44 11c18 2 45 1 61 0v-2c-16 1-43 2-61 0v2zm61 0c17-1 28-4 38-8l-1-2c-10 4-21 7-37 8v2zm38-8c10-4 20-8 24-16l-2-1c-4 7-12 12-23 15l1 2zm24-16c2-4 3-9 3-14l-1-8v-7h-2v7l1 8c0 5-1 10-3 13l2 1zm2-29l1-16a142 142 0 000-11h-2v11l-1 16h2zm1-27v-2a1 1 0 00-2 0h-1v1l-4 4 1 1c3-1 4-3 5-4v-1h-1v1h2zm-7 3c-5 2-14 7-24 10v2c11-3 20-8 25-10l-1-2zm-24 10c-10 3-21 5-36 6v2c16-1 26-3 36-6v-2zm-36 6c-16 2-40 4-56 3v2c16 1 41-1 56-3v-2zm-56 3c-17-1-31-5-43-9l-1 2c12 4 27 8 44 9v-2zm-43-9c-6-2-12-6-17-9l-7-5-6-4-1 2 5 3 8 5 17 10 1-2zm-30-18h-1v2h1v-2z"/>
      </g>
      <g class="Vector_4">
        <path fill="#FE7F80" fill-rule="evenodd" d="M1241 180v42l6 11 8 12 14 6 19 6 26 5 28 1 33-1 19-4 17-4 14-6 9-11 4-5 3-35-4-15-4 7-9 5-14 6-17 1-24 4-39 3-37-5-22-6-30-16" clip-rule="evenodd"/>
        <path fill="#FE7F80" d="M1243 183l1 22c0 8-3 21 1 28 5 8 14 12 26 17 11 4 25 10 42 11 17 2 44-1 60-2 17-1 27-3 37-6s19-6 24-13 4-20 5-29v-26c-1-4-1 0-6 3-6 2-15 9-26 11-10 3-22 4-37 5a184 184 0 01-98-6c-12-4-26-12-30-15h1zm-2-2l1 26c0 8-1 18 4 26 5 7 13 14 24 19 12 4 26 7 44 9a500 500 0 0099-7c10-4 18-10 22-17s2-16 2-25c1-9 2-23 1-27s-1 0-6 2c-5 3-13 9-23 12s-23 5-39 6c-15 1-37 3-53 2s-33-4-45-8c-13-5-26-14-31-17v-1z"/>
        <path fill="#000" d="M1241 222h-1v1h1v-1zm6 11l-1 1 1-1zm8 12h-1v1l1-1zm14 6l-1 1 1-1zm19 6v1-1zm26 5v1-1zm28 1v1-1zm33-1v1-1zm19-4v1-1zm17-4l1 1-1-1zm14-6v1h1l-1-1zm9-11l-1-1 1 1zm4-5l1 1v-1h-1zm3-35h1-1zm-4-15v-3l-1 3h1zm-4 7v1h1l-1-1zm-9 5v1-1zm-14 6v1-1zm-17 1v-1 1zm-24 4v1-1zm-39 3v1-1zm-37-5v1-1zm-22-6h-1 1zm-28-14h1l-1-1v1zm1 22h1-1zm1 28h1-1zm68 28v-1 1zm97-8l1 1-1-1zm29-42h-1 1zm0-26h-1 1zm-6 3v1-1zm-26 11l1 1-1-1zm-90 8v-1 1zm-45-9v-1 1zm-30-15v-1l-1 2 1-1zm-1-2h1-2 1zm1 26h-1 1zm4 26h-1 1zm24 19l1-1-1 1zm44 9v-1 1zm121-24l1 1-1-1zm2-25h1-1zm1-27h-1 1zm-29 14v1-1zm-39 6v1-1zm-53 2v-1 1zm-45-8v-1 1zm-31-17h-1l1 1v-1zm-1-2v42h2v-42h-2zm1 43l5 11 2-1-6-11-1 1zm5 11l8 11 2-1-8-11-2 1zm8 12l14 6 1-2-14-6-1 2zm14 6l20 6 1-2-20-6-1 2zm20 6l26 5v-2l-26-5v2zm26 5l28 1v-2l-28-1v2zm28 1l33-1v-2l-33 1v2zm33-1l19-4v-2l-19 4v2zm19-4l18-4-1-2-17 4v2zm18-4l13-6-1-2-13 6 1 2zm14-6l9-12-2-1-9 12 2 1zm9-12l4-4-1-2-5 5 2 1zm4-5l3-35h-2l-3 35h2zm3-35l-5-15h-1l4 15h2zm-6-15l-4 7 2 1 3-8h-1zm-4 6l-9 5 1 2 9-5-1-2zm-9 5l-14 6 1 2 14-6-1-2zm-14 6l-16 1v2l17-1-1-2zm-16 1l-24 4v2l24-4v-2zm-24 4l-39 3v2l39-3v-2zm-39 3l-37-5v2l37 5v-2zm-37-5l-22-6v1l22 6v-1zm-22-6l-30-16-1 2 30 15 1-1zm-29-13l1 22h2l-1-22h-2zm1 22v7l-1 7c0 6 0 11 2 15l2-1c-2-4-2-8-2-13l1-8v-7h-2zm1 29c3 4 6 7 11 9 4 3 10 5 15 7l1-1-15-7-10-9-2 1zm26 16c12 5 25 11 43 12v-2c-17-1-31-7-42-11l-1 1zm43 12c17 2 44-1 61-2l-1-2c-16 1-43 4-60 2v2zm61-2c16-1 26-3 37-6l-1-2c-10 3-20 5-37 6l1 2zm37-6l14-5 10-8-2-2c-2 4-5 6-9 8l-14 5 1 2zm24-13c3-4 3-9 4-15v-7l1-8h-2l-1 7v8c-1 5-1 10-4 13l2 2zm5-30a206 206 0 000-26h-2v4a118 118 0 010 22h2zm0-26a10 10 0 00-1-2l-1-1-1 1h-1c0 1-1 3-4 4l1 2 5-4v-1h-1l1 1h2zm-8 2l-5 2-6 4-14 5 1 2c5-1 10-3 14-6l6-3 5-2-1-2zm-25 11c-10 3-22 4-37 5v2c15-1 27-2 38-5l-1-2zm-37 5c-15 2-37 4-53 3v2c16 1 38-1 53-3v-2zm-53 3c-16-1-32-4-45-9v2c12 4 28 8 45 9v-2zm-45-9c-12-4-25-12-30-15l-1 2c5 3 18 11 31 15v-2zm-30-13h1v-2h-1v2zm-2-3l1 26h2l-1-26h-2zm1 26v13l4 13 2-1c-3-3-3-8-4-12v-7-6h-2zm4 26c5 8 14 15 25 20l1-2c-11-5-20-12-24-19l-2 1zm25 20c12 4 26 7 44 9v-2c-18-2-32-5-43-9l-1 2zm44 9c17 1 45 0 61-1v-2c-16 1-44 2-61 1v2zm61-1c17-1 28-2 38-6l-1-2c-9 4-20 5-37 6v2zm38-6c10-4 18-10 23-17l-2-1c-4 6-12 12-22 16l1 2zm23-17c2-4 2-8 2-13v-6-7h-2v13c0 5 0 8-2 12l2 1zm2-26l1-15a151 151 0 000-12h-2v12l-1 15h2zm1-27l-1-2v-1h-1-1v1l-4 3 1 2 4-4c-1 0-1 0 0 0v1h2zm-7 1l-5 3-5 3c-4 2-8 5-13 6v2c5-1 10-4 14-6l5-3 5-3-1-2zm-23 12c-11 3-24 5-39 6v2c16-1 29-3 39-6v-2zm-39 6c-15 1-37 3-53 2v2c16 1 38-1 53-2v-2zm-53 2c-16-1-32-4-45-8l-1 2c13 4 29 7 46 8v-2zm-45-8a89 89 0 01-25-14l-5-3-1 2 5 3a287 287 0 0025 14l1-2zm-30-16v-1h-2v1h2z"/>
      </g>
    </g>
    <g class="server2">
      <g class="Vector_5">
        <path fill="#FE7F80" fill-rule="evenodd" d="M1581 261l-2 47 12 18 15 9 18 8 25 6 33-2 31 2 24-6 18-6 14-7 10-11-1-4 2-39-2-18-12-12-5-6-9-6-20-7-28-6-27 1-27 3-27 4-21 7-7 7-13 20" clip-rule="evenodd"/>
        <path fill="#FE7F80" d="M1582 264l-1 27c1 8-1 19 3 26 4 8 12 14 23 19 10 5 23 8 41 10 17 2 47 3 65 2 17-2 29-6 40-10 11-5 21-8 26-17 4-8 0-23 0-33s5-20 0-29-17-18-29-25c-12-6-28-12-44-13-17-2-41 0-58 3-16 3-33 8-44 14-10 7-18 22-21 27l-1-1zm-2-2l2 27c0 9-4 19 0 27s13 17 24 22c11 6 25 9 43 11s45 1 62-1c18-1 33-4 44-9s17-12 21-20c5-9 5-20 5-30s2-21-3-30-16-19-28-26c-12-6-27-10-44-11-17-2-41 0-58 3-17 2-32 7-43 13-11 7-19 20-23 24h-2z"/>
        <path fill="#000" d="M1579 308h-1v1l1-1zm12 18l-1 1h1v-1zm15 9v1-1zm18 8v1-1zm25 6l-1 1h1v-1zm33-2v-1 1zm31 2v1-1zm24-6v1-1zm18-6v1h1l-1-1zm14-7v1l1-1h-1zm10-11l1 1v-1h-1zm-1-4h-1 1zm2-39h1-1zm-2-18h1-1zm-12-12l-1 1 1-1zm-5-6v-1 1zm-9-6l1-1h-1v1zm-20-7v-1 1zm-28-6v-1 1zm-27 1v-1 1zm-27 3l-1-1 1 1zm-27 4v-1 1zm-21 7v-1 1h-1 1zm-7 7l-1-1 1 1zm-13 21h1l-2-4v4h1zm-1 27h-1 1zm3 26l-1 1 1-1zm23 19v-1 1zm41 10v-1 1zm65 2v1-1zm40-10l-1-1 1 1zm26-17h-1 1zm0-33h1-1zm-29-54l1-1-1 1zm-102-10v-1 1zm-44 14v-1 1zm-21 27h-1v1l1-1zm-3-3v-1h-1v1h1zm2 27h1-1zm0 27h-1 1zm129 32v-1 1zm44-9h1-1zm21-20h1-1zm5-30h-1 1zm-31-56h1-1zm-102-8v-1 1zm-43 13v1-1zm-23 24v1h1l-1-1zm-2-1l-2 47h2l2-47h-2zm11 66l15 9 1-2-15-8-1 1zm15 9l18 7v-1l-17-8-1 2zm18 8l24 6 1-2-25-6v2zm25 6l33-2v-2l-33 2v2zm33-2l31 2v-2l-31-2v2zm31 2l24-6v-2l-24 6v2zm24-6l18-6v-1l-18 5v2zm19-6l13-7-1-2-13 8 1 1zm14-8l10-10-2-1-10 10 2 1zm10-11l-1-4h-2l1 5 2-1zm-1-4l2-39h-2l-2 39h2zm2-39l-2-18h-2l2 18h2zm-2-18l-13-13-1 2 12 12 2-1zm-13-13l-5-6-1 2 5 6 1-2zm-5-6l-8-6-1 2 8 6 1-2zm-9-6l-20-7-1 2 21 7v-2zm-20-7l-28-6v2l28 6v-2zm-28-6l-27 1v2l27-1v-2zm-27 1l-28 3 1 2 27-3v-2zm-28 3l-26 4v2l27-4-1-2zm-26 4l-21 7v2l22-7-1-2zm-22 8l-7 6 1 1 8-6-2-1zm-7 6l-13 20 2 1 12-20-1-1zm-13 22v12l-1 15h2l1-15v-12h-2zm-1 27v13c0 5 1 10 3 14l2-1c-2-4-3-8-3-13v-6-7h-2zm3 27c5 8 12 14 23 19l1-2c-10-5-18-11-22-18l-2 1zm23 19c11 5 24 8 42 10v-2c-18-2-31-5-41-10l-1 2zm42 10c17 2 47 3 65 2v-2c-18 1-47 0-65-2v2zm65 2c18-2 29-6 40-11l-1-1c-11 4-22 9-39 10v2zm40-11l16-6c4-3 8-6 10-10l-1-1c-2 4-6 7-10 9l-16 7 1 1zm26-16c3-4 3-11 3-17l-1-9-1-8h-2l1 9 1 9c0 6 0 11-2 15l1 1zm1-34l1-8 1-7c0-5 0-10-2-15l-2 1c2 4 2 9 2 14l-1 7-1 8h2zm0-30c-5-9-17-18-29-25l-1 2c12 7 23 16 28 24l2-1zm-29-25c-13-6-28-12-45-13l-1 2c17 1 33 7 45 13l1-2zm-45-13c-17-2-41 0-58 3l1 2c16-3 40-5 56-3l1-2zm-58 3c-17 3-33 8-44 14l1 2c11-7 27-11 44-14l-1-2zm-44 14c-6 4-10 10-14 15l-5 7-3 5 1 1 4-5 5-7c3-5 8-11 13-14l-1-2zm-21 27l-2 1h1l1-1zm-4-2l2 27h2l-2-27h-2zm2 27l-1 14c-1 4-1 9 1 13h2c-2-4-2-9-1-13l1-14h-2zm0 27c4 9 13 17 25 23v-2c-11-5-19-14-23-22l-2 1zm25 23c11 5 25 9 43 11v-2c-17-2-31-5-43-11v2zm43 11c18 2 45 1 63-1l-1-2c-17 2-44 3-62 1v2zm63-1c17-1 33-5 44-10l-1-1c-11 5-26 8-44 9l1 2zm44-10c11-5 17-11 21-20l-1-1c-5 8-11 15-21 20l1 1zm21-20c3-4 4-9 4-14l1-16h-2l-1 16c0 5-1 9-3 13l1 1zm5-30v-15c0-5-1-11-3-15l-2 1c2 4 3 9 3 14v15h2zm-3-30c-6-10-16-20-28-26l-1 1c11 6 22 16 27 26l2-1zm-28-26c-12-7-27-11-45-12v2c17 1 32 5 44 11l1-1zm-45-12c-17-2-41 0-58 3v2c17-3 41-5 58-3v-2zm-58 3c-17 2-33 7-44 13l1 2c11-6 26-11 43-13v-2zm-44 13c-6 4-10 9-14 13l-5 7-4 4 2 2 3-5 5-6c4-5 9-10 14-13l-1-2zm-22 24h-2v2h2v-2zm-4 48l12 18 2-1-12-18-2 1z"/>
      </g>
      <g class="Vector_6">
        <path fill="#FE7F80" d="M1700 228c12 1 25 4 35 7 9 3 17 8 21 13 5 5 6 11 4 16s-8 10-17 14l-34 9a160 160 0 01-77-3c-11-4-21-9-26-13s-7-9-6-14c0-5 4-11 11-16 7-4 19-8 30-10 12-3 28-3 39-3l25 1 5 1-10-2zm9 3c11 1 24 4 32 8 9 4 16 10 19 15 2 5 0 10-4 15-4 4-11 8-20 12a141 141 0 01-76 8l-37-8c-9-3-17-7-21-11-5-5-6-13-3-18s10-9 19-13 20-9 32-10c12-2 30-1 40 0 10 0 16 1 19 2 3 0 1-1 0-1"/>
        <path fill="#FE7F80" d="M1671 227a168 168 0 0174 14c8 4 12 9 14 14s2 11-2 15c-4 5-14 9-24 12a193 193 0 01-76 7c-12-1-26-6-35-10-9-3-15-8-19-12-3-5-3-9-1-14 3-5 8-12 16-16 9-3 26-5 35-7l20-1c3-1 0 0 0 1l-2-3zm7 1c13 0 28 2 39 4 12 2 23 6 30 10 8 4 13 10 14 14 1 5-2 10-8 14-5 5-13 10-23 13a217 217 0 01-78 4c-13-1-24-5-32-9-9-3-17-7-19-12-3-5-2-11 2-16s11-11 20-14c9-4 24-6 35-8l27-1 6 1h-13z"/>
        <path fill="#000" d="M1700 228v-1 2-1zm60 36l1 1-1-1zm-17 14v-1 1zm-34 9v1-1zm-40 3v-1 1zm-63-19l1-1-1 1zm-6-14h-1 1zm11-16h-1 1zm30-10v-1 1zm64-2v1-1zm5 1v1h1l-1-1zm31 9v1-1zm15 30l-1-1 1 1zm-20 12l1 1-1-1zm-34 9v1-1zm-42-1v-1 1zm-37-8v1-1zm-24-29l1 1-1-1zm19-13zm72-10v1-1zm19 2v-1 1zm-38-4v-1h-2l1 2 1-1zm40 3v1-1zm48 25h-1 1zm-2 15l1 1-1-1zm-60 19v-1 1zm-40 0v-1 1zm-55-36h1-1zm51-23v-1 1zm20-1v-1 1zm0 1h-1l2-1-1 1zm5-2v-1 2-1zm39 4l1-1-1 1zm44 24h1-1zm-31 27v1-1zm-79 5v1-1zm-31-10v-1 1zm-19-12l-1 1 1-1zm22-30l1 1-1-1zm62-9v1-1zm6 1v1h1v-1h-1zm9 1c12 1 25 4 34 7l1-2c-10-3-23-6-35-7v2zm34 7c10 3 18 8 22 13l1-1c-4-6-12-11-22-14l-1 2zm22 13c4 5 5 11 3 15l2 1c2-6 1-12-4-17l-1 1zm3 15l-6 7-10 6v1c5-1 9-4 12-6l6-7-2-1zm-16 13c-9 3-22 7-34 9v2c13-3 26-6 34-10v-1zm-34 9c-12 2-27 4-40 3v2c13 1 28-1 40-3v-2zm-40 3c-13-1-26-4-37-7v2c10 3 24 6 37 7v-2zm-37-7c-10-3-20-8-25-12l-2 2c6 4 16 9 27 12v-2zm-25-12l-6-6v-6l-2-1c-1 3-1 5 1 8l5 7 2-2zm-6-12c0-5 4-11 11-16l-2-1c-7 4-11 11-11 16l2 1zm11-16c6-4 18-8 29-10v-2c-11 2-23 6-31 11l2 1zm29-10c12-3 28-3 39-3v-2c-11 0-27 0-39 3v2zm39-3l25 1v-2l-25-1v2zm25 1h3l2 1-1-1a1 1 0 010-1l2 2v-1-1h-1l-2-1h-3v2zm5-1l-10-2v2l10 2v-2zm-2 3c12 1 24 4 33 8l1-2c-9-4-22-7-33-8l-1 2zm33 8l11 7 7 7 1-1c-1-3-3-5-7-8l-11-7-1 2zm18 14c2 4 0 10-4 14l1 2c4-5 7-11 4-17l-1 1zm-4 14c-4 5-10 8-19 12l1 2c9-4 15-8 19-12l-1-2zm-19 12c-9 3-22 7-34 9v2c13-2 26-6 35-9l-1-2zm-34 9c-13 1-29 0-42-1v2c13 1 29 2 42 1v-2zm-42-1l-36-8-1 2 37 8v-2zm-36-8c-10-3-18-7-22-11l-1 1c4 5 12 9 22 12l1-2zm-22-11c-4-5-5-12-2-16l-2-1c-3 5-1 13 3 18l1-1zm-2-16c1-2 3-5 7-7l11-6v-1c-5 1-9 3-12 6-4 2-7 4-8 7l2 1zm18-13c9-4 21-9 32-10v-2c-12 1-24 7-32 11v1zm32-10a124 124 0 0131-1l9 1v-2l-9-1a489 489 0 00-31 1v2zm40 0c10 0 15 1 19 2v-2c-3-1-9-2-19-2v2zm19 2a14 14 0 002 0v-1-1a4 4 0 00-2-1v1l1 1v-1h-1v2zm-38-4c12-1 28 1 40 3v-2c-12-2-28-4-40-3v2zm40 3c12 2 25 6 33 11l1-2c-8-4-21-9-34-11v2zm33 11c8 4 12 8 14 13l2-1c-3-5-7-10-15-14l-1 2zm14 13c2 5 2 10-2 15l2 1c5-5 4-12 2-17l-2 1zm-2 15l-9 6-15 5 1 2 14-5 11-7-2-1zm-24 11c-9 4-22 6-35 7l1 2c12-1 25-4 35-7l-1-2zm-35 7c-12 1-27 2-40 0v2c13 2 28 1 41 0l-1-2zm-40 0c-12-1-25-6-34-9l-1 1c9 4 22 9 35 10v-2zm-34-9c-9-4-16-8-19-13l-2 2c4 4 11 9 20 12l1-1zm-19-13c-3-4-3-8-1-13l-2-1c-3 5-2 11 1 16l2-2zm-1-13c2-5 8-11 16-15l-1-1c-9 3-14 10-17 15l2 1zm16-15l17-4 17-3v-2l-18 3-17 5 1 1zm34-7l20-1v-2l-20 1v2zm20-1a9 9 0 011 0 1 1 0 01-1-1l1-1h-1l-1 1v1l2-1-1 1h2v-1a1 1 0 000-1h-1-1v2zm0-1l-1-2-2 1 2 2 1-1zm5 0c13 0 28 2 39 4l1-2c-12-2-27-4-40-4v2zm39 4c12 2 23 6 30 10l1-2c-8-4-19-8-30-10l-1 2zm30 10c3 2 7 4 9 7l5 7 1-1c0-2-2-5-5-8l-9-7-1 2zm14 14l-2 6-6 6 1 2 7-7c1-3 2-5 1-8l-1 1zm-8 12c-6 5-14 10-24 13l1 2c10-3 19-9 24-13l-1-2zm-24 13c-10 4-23 6-36 6v2c13 0 27-3 37-6l-1-2zm-36 6c-13 1-29 0-41-1l-1 2c12 1 29 2 42 1v-2zm-41-1c-13-2-24-6-32-10l-1 2c9 4 20 8 32 10l1-2zm-32-10l-12-5-7-6-1 1 7 7 12 5 1-2zm-19-11c-2-5-1-11 3-15l-2-2c-4 6-5 12-2 18l1-1zm3-15c3-5 11-11 20-14l-1-2c-9 3-17 9-21 14l2 2zm20-14c9-4 23-6 34-8l-1-2c-10 2-25 4-34 8l1 2zm34-8l27-1v-2l-28 1 1 2zm27-1h7l-1-1-1-1h-5v2zm6-1h-13v2h13v-2z"/>
      </g>
      <g class="Vector_7">
        <path fill="#FE7F80" fill-rule="evenodd" d="M1584 335l-2 38 5 13 8 10 15 10 21 3 23 7 31-2h29l21-3 18-4 10-4 10-9 4-9 1-36v-13l-5 5-9 5-16 3-16 7-20 3h-43l-39-5-20-5-7-3-20-14" clip-rule="evenodd"/>
        <path fill="#FE7F80" d="M1581 333l2 28c1 9-2 18 3 26 4 7 14 12 25 17s23 11 40 12a414 414 0 00100-8c10-4 18-9 23-16 4-8 3-19 3-28v-28c-1-4-2 1-7 4-5 2-13 9-23 12s-23 5-38 5h-53c-16-2-32-4-45-8-12-4-23-13-28-15l-2-1zm2 1l-2 25c1 9 0 21 5 29s13 14 24 18c12 5 25 8 42 10 18 1 46 1 63-1 16-2 26-5 36-9s19-7 23-14c5-7 4-18 5-27l-2-29c-1-4 0 1-4 3-5 3-14 10-24 13s-22 5-37 6a456 456 0 01-101-8c-12-4-24-14-29-17l1 1z"/>
        <path fill="#000" d="M1582 373h-1 1zm5 13h-1 1zm8 10l-1 1 1-1zm15 10v1-1zm21 3v-1 1zm23 7v1-1zm31-2v-1 1zm29 0v1-1zm21-3l1 1-1-1zm18-4v1-1zm10-4h1-1zm10-9l1 1v-1h-1zm4-9l1 1v-1h-1zm1-36h-1 1zm0-13h1v-2l-2 1 1 1zm-5 5zm-9 5v1-1zm-16 3l-1-1 1 1zm-16 7v1-1zm-20 3v1-1zm-43 0v1-1zm-39-5v1-1zm-20-5v1-1zm-7-3l-1 1h1v-1zm-22-13l1-1-2-1v2h1zm2 28h-1 1zm3 26h-1 1zm25 17l-1 1 1-1zm102 10v-1 1zm61-22l-1-1 1 1zm3-28h1-1zm-7-24l-1-1 1 1zm-23 12l1 1-1-1zm-38 5v1-1zm-53 0v1-1zm-73-23v-1 1zm0 0h1l-1-1v1zm-2 25h1-1zm5 29h1-1zm66 28l1-1-1 1zm99-10l-1-1 1 1zm23-14v-1 1zm5-27h-1 1zm-2-29h1-1zm-4 3l-1-1 1 1zm-24 13v1-1zm-37 6v-1 1zm-56 0v1-1zm-45-8v1-1zm-29-17v-1l-3-2 2 3h1zm1 2l-2 38h2l2-38h-2zm-2 38l5 13 2-1-5-13-2 1zm5 13l8 11 2-1-9-11-1 1zm8 11l16 10 1-1-15-10-2 1zm16 10l20 3 1-2-21-3v2zm20 3l24 7v-2l-23-7-1 2zm24 7l31-2v-2l-31 2v2zm31-2h29v-2h-29v2zm29 0l22-3-1-2-21 3v2zm22-3l17-4v-2l-18 4 1 2zm17-4l11-5-1-1-10 4v2zm11-5l10-8-1-2-10 9 1 1zm10-9l4-8-2-1-4 8 2 1zm4-9l1-35-2-1-1 36h2zm0-35l1-14h-2v13l1 1zm-1-15l-5 5 1 1 6-4-2-2zm-5 5l-9 5 1 2 9-6-1-1zm-8 5l-17 3 1 2 16-3v-2zm-17 3l-15 7v2l16-7-1-2zm-15 7l-20 3v2l20-3v-2zm-20 3h-43v2h43v-2zm-43 0l-39-5v2l39 5v-2zm-38-5l-21-5v2l20 5 1-2zm-21-5l-7-3v2l7 3v-2zm-6-2l-20-14-1 1 19 14 2-1zm-24-13l2 28h2l-2-28h-2zm2 28l1 6-1 7c0 5 1 9 3 13l2-1c-2-3-3-7-3-12l1-6-1-7h-2zm3 26c5 8 15 13 25 18l1-1c-11-5-20-11-24-18l-2 1zm25 18c11 5 24 11 41 12v-1c-17-2-29-7-40-12l-1 1zm41 12c17 2 45 0 62-2v-2c-17 2-45 4-62 3v1zm62-2c16-1 28-2 38-6l-1-2c-10 4-21 5-37 6v2zm38-6c10-4 19-9 24-17l-2-1c-4 7-13 12-23 16l1 2zm24-17c2-4 3-9 3-14v-7-7h-2v14c0 5-1 10-3 13l2 1zm3-28a283 283 0 000-29l-2 1 1 5v7l-1 16h2zm0-29l-1-1-1-1-1 1-1 1c-1 1-2 3-5 4l1 2 6-5v-1 1l2-1zm-9 4l-4 3-5 3c-4 2-8 5-13 6l1 2c5-1 9-4 13-6l5-4 4-2-1-2zm-22 12c-10 3-23 5-38 5v2c15 0 28-2 39-5l-1-2zm-38 5h-53v2h53v-2zm-53 0c-16-2-32-4-44-8l-1 2c12 4 29 6 45 8v-2zm-44-8l-17-8-7-4c-2-2-3-3-5-3l-1 1 5 3 7 5 17 8 1-2zm-29-15l-1-1-1 2h2v-1zm-1 1l-1 11-1 14h2l1-14 1-11h-2zm-2 25l1 15 4 15 2-1-4-14-1-15h-2zm5 30c5 8 14 14 25 18l1-2c-11-4-19-10-24-17l-2 1zm25 18c11 5 25 8 42 10l1-2c-18-2-31-5-42-10l-1 2zm42 10c18 1 46 1 63-1l-1-2c-16 2-44 2-61 1l-1 2zm63-1c16-2 26-5 36-9l-1-2c-10 4-19 8-36 9l1 2zm36-9l14-6c4-2 8-5 10-8l-1-2c-3 4-6 6-10 8-4 3-9 4-14 6l1 2zm24-14c3-4 4-9 4-14l1-14h-2l-1 14c0 5-1 9-3 12l1 2zm5-28a150 150 0 00-2-29l-2 1 1 12 1 16h2zm-2-29l-1-1a6 6 0 000-1 1 1 0 00-2 0v1l-3 3 1 2c3-1 4-3 4-5l-1 1v-1h-1l1 2 2-1zm-6 2l-4 3a196 196 0 01-20 10l1 2a68 68 0 0020-10l4-3-1-2zm-24 13c-10 3-21 5-36 6v2c15-1 27-3 37-6l-1-2zm-36 6h-56v2h56v-2zm-56 0c-16-2-32-4-45-8v2c12 4 28 6 45 8v-2zm-45-8c-6-2-12-6-17-9l-7-5-5-3-1 2c2 0 3 2 5 3l7 5 18 9v-2zm-30-16l1 1 1-1v-1l-2 1z"/>
      </g>
      <g class="Vector_8">
        <path fill="#FE7F80" fill-rule="evenodd" d="M1583 401l-1 40 2 12 10 10 17 10 16 5 27 4h28l31-2 22-1 16-8 16-5 9-7v-8l3-34-1-13-6 5-9 2-16 7-14 5-21 2h-43l-39-4-20-2-28-16" clip-rule="evenodd"/>
        <path fill="#FE7F80" d="M1581 403l1 22c1 8 0 19 5 27 4 8 11 15 22 20s26 9 43 10c18 2 44 1 60-1 17-2 29-5 39-9 10-3 18-7 22-13 5-7 3-17 4-26s2-24 1-28-3 1-7 4c-5 2-12 8-22 10a419 419 0 01-92 6c-17-1-33-4-46-8s-25-13-29-16l-1 2zm1-2l1 26c0 9-1 20 4 27s13 12 24 17c12 4 25 9 42 10 18 1 45-1 61-2 17-1 27-2 37-5 10-4 18-8 23-15s4-19 4-28c1-9 1-22-1-26-1-4-2 0-6 3-5 2-11 8-21 11s-23 6-39 7h-56c-17-2-32-4-44-8-12-5-25-15-30-17h1z"/>
        <path fill="#000" d="M1582 441h-1 1zm2 12h-1v1l1-1zm10 10v1-1zm17 10zm16 5v1-1zm27 4l-1 1h1v-1zm28 0v1-1zm31-2v1-1zm22-1v1-1zm16-8v-1 1zm16-5v1-1zm9-7l1 1v-1h-1zm0-8h-1 1zm3-34h1-1zm-1-13h1v-2l-2 1 1 1zm-6 5v1h1l-1-1zm-9 2v-1 1h-1 1zm-16 7v1-1zm-14 5v1-1zm-21 2v1-1zm-43 0l-1 1h1v-1zm-39-4v1-1zm-20-2h-1v1h1v-1zm-29-16l-1-1v1h1zm1 22h-1 1zm27 47l-1 1 1-1zm43 10v1-1zm60-1l1 1-1-1zm39-9v1-1zm22-13h1-1zm4-26h1-1zm1-28h-1 1zm-29 14v1-1zm-92 6v-1 1zm-46-8v-1 1zm-29-16v-1h-1v1h1zm0 0h1v-1h-1v1zm1 26h1-1zm4 27l1-1-1 1zm24 17l1-1-1 1zm42 10l1-1-1 1zm61-2v1-1zm37-5zm23-15h1-1zm3-54h1-1zm-27 14v1-1zm-39 7v1-1zm-56 0v1-1zm-44-8v1-1zm-30-17v-1 1zm1 0l-1 40h2l1-40h-2zm-1 40l2 12h2l-2-12h-2zm2 13l11 10 1-1-10-11-2 2zm11 10l17 9 1-1-17-10-1 2zm17 9l16 6 1-2-16-5-1 1zm16 6l26 4 1-2-26-4-1 2zm27 4h28v-2h-28v2zm28 0l31-2v-2l-31 2v2zm31-2l22-1v-2l-22 1v2zm22-1l17-8-1-2-17 8 1 2zm17-8l15-5-1-2-15 5 1 2zm15-5l10-7-2-2-9 7 1 2zm10-8v-8h-2v8h2zm0-8l3-34h-2l-3 34h2zm3-34l-1-13h-2l1 13h2zm-3-14l-6 6 2 1 6-5-2-2zm-5 5l-9 2v2l9-2v-2zm-10 3l-15 6v2l16-7-1-1zm-15 6l-14 5v2l14-5v-2zm-14 5l-21 2v2l21-2v-2zm-21 2h-43v2h43v-2zm-43 0l-39-3v1l38 4 1-2zm-39-3l-20-3v2l20 2v-1zm-20-3l-27-16-1 2 27 15 1-1zm-30-15l1 22h2l-1-22h-2zm1 22v7l1 7c0 4 1 9 4 13l1-1c-2-3-3-8-3-13l-1-7v-6h-2zm5 27c4 8 11 16 22 21l1-2c-11-5-17-12-22-20l-1 1zm22 21c11 5 27 9 44 10l1-2c-18-1-33-5-44-10l-1 2zm44 10c18 2 44 1 61-1l-1-2c-16 2-42 3-59 1l-1 2zm61-1c16-2 28-5 38-9l-1-1c-10 3-21 6-38 8l1 2zm38-9c10-3 18-7 23-14l-2-1c-4 6-11 10-22 14l1 1zm23-14c2-3 3-8 3-12l1-7v-7h-2v7l-1 6c0 5-1 9-3 12l2 1zm4-26a493 493 0 001-28h-2v12l-1 16h2zm1-28l-1-1-1-1h-1l-1 1-5 4 1 2 5-5h3zm-9 3l-4 2-5 3-12 5v2l13-5 5-3 4-2-1-2zm-21 10c-10 3-22 5-38 6v2c16-1 28-3 38-6v-2zm-38 6c-15 1-37 2-54 0v2c17 2 39 1 54 0v-2zm-54 0c-17-1-33-4-46-8v2c12 4 29 7 46 8v-2zm-46-8c-12-4-24-13-29-16l-1 2c5 3 17 12 30 16v-2zm-30-15l-1 1 1 1 1-1-1-1zm0 0v11l1 15h2l-1-15v-11h-2zm1 26v14c1 5 1 10 4 13l2-1c-3-3-3-7-4-12v-7-7h-2zm4 27c5 8 14 13 25 18l1-2c-11-5-20-10-24-17l-2 1zm25 18c11 4 25 9 42 10l1-2c-18-1-31-5-42-10l-1 2zm42 10c18 1 45-1 61-2v-2c-16 1-43 3-60 2l-1 2zm61-2c17-1 27-2 37-6l-1-1c-9 3-20 4-36 5v2zm37-6c10-3 19-7 24-15l-2-1c-4 7-13 11-23 15l1 1zm24-15l4-14v-7-7h-2v14c-1 5-2 10-4 13l2 1zm4-28a158 158 0 00-1-26h-2l1 5 1 6-1 15h2zm-1-26v-1l-1-1h-2l-5 4 1 2 5-4v-1 1h2zm-8 2l-4 2-4 3c-4 3-7 5-12 6v2c5-1 10-4 13-6l5-3 3-2-1-2zm-20 11c-10 3-23 6-39 7v2c16-1 29-4 39-7v-2zm-39 7h-56v2h56v-2zm-56 0c-17-2-32-4-44-8v2c12 4 27 6 44 8v-2zm-44-8c-6-2-12-6-17-9l-7-5-5-3-1 1 5 4 7 4c5 4 11 7 18 10v-2zm-30-15h1v-2h-1v2z"/>
      </g>
    </g>
    <g class="server3">
      <g class="Vector_9">
        <path fill="#FE7F80" fill-rule="evenodd" d="M1184 525l-2 45 3 6 7 12 14 12 21 4 24 6 32-1h30l24-4 20-6 11-6 10-10 4-9-1-38-2-14-10-15-7-6-11-8-20-4-23-4-31-3-29 1-25 6-18 11-7 4-17 19" clip-rule="evenodd"/>
        <path fill="#FE7F80" d="M1183 524v26c0 9-3 19 1 27s12 15 23 20c11 6 25 11 43 14 17 2 44 1 62-1s34-7 45-12c11-4 17-8 21-17 5-8 4-21 4-32 0-10 0-21-5-30s-13-19-25-25-28-9-45-10-39 0-56 2c-18 3-36 6-47 13-12 7-18 23-22 27l1-2zm-2 1l2 27c1 9-3 19 1 27s11 15 22 21c11 5 27 8 45 10a394 394 0 00105-10c11-5 19-10 23-18s2-21 2-31c0-11 3-22-2-31s-15-18-27-24-27-10-44-12-41-2-58 0c-17 3-34 9-46 15-11 7-18 21-22 25l-1 1z"/>
        <path fill="#000" d="M1182 570h-1v1l1-1zm3 6h-1 1zm7 12l-1 1 1-1zm14 12v1-1zm21 4v-1 1zm24 6v1-1zm32-1v-1 1zm30 0v1-1zm24-4v1-1zm20-6v1-1zm11-6v1h1l-1-1zm10-10l1 1-1-1zm4-9l1 1v-1h-1zm-1-38h1-1zm-2-14h1v-1l-1 1zm-10-15h1v-1h-1v1zm-7-6l1-1-1 1zm-11-8v-1 1zm-20-4l1-1h-1v1zm-23-4v-1 1zm-31-3v-1 1zm-29 1v-1 1zm-25 6v-1 1zm-18 11v-1 1zm-7 4l-1-1v1h1zm-15 20h1-2 1zm0 26h-1 1zm1 27h1-1zm23 20zm43 14v1-1zm62-1v-1 1zm45-12v1-1zm20-79l1-1-1 1zm-70-35v-1 1zm-56 2l-1-1 1 1zm-47 13v1-1zm-22 27h-1v3l2-2-1-1zm-1-1l-1-1v1h1zm2 27h-1 1zm1 27l1-1-1 1zm22 21l1-1-1 1zm45 10v-1 1zm128-28l-1-1 1 1zm0-62l1-1-1 1zm-27-24l-1 1 1-1zm-44-12l-1 1 1-1zm-58 0v-1 1zm-46 15v-1 1zm-22 25h1-1zm1 1l-2 45h2l2-45h-2zm-2 46l3 5 2-1-3-5-2 1zm3 5l7 13 2-2-7-12-2 1zm7 13l15 12 1-2-14-12-2 2zm15 12l21 4v-2l-21-4v2zm21 4l24 6v-2l-24-6v2zm24 6l32-1v-2l-32 1v2zm32-1h30v-2h-30v2zm30 0l24-4v-2l-24 4v2zm24-4l20-6-1-2-20 6 1 2zm20-6l11-6-1-1-11 5 1 2zm12-6l10-10-2-1-10 10 2 1zm10-10l4-9-2-1-4 9 2 1zm4-10l-1-38h-2l1 38h2zm-1-38l-2-14h-2l2 14h2zm-2-15l-10-14-2 1 11 14 1-1zm-11-15l-6-6-2 2 7 6 1-2zm-6-6l-12-7-1 1 11 8 2-2zm-12-8l-19-4-1 2 19 4 1-2zm-20-4l-23-4v2l23 4v-2zm-23-4l-31-3v2l31 3v-2zm-31-3l-29 1v2l29-1v-2zm-29 1l-25 6 1 2 24-6v-2zm-25 7l-18 10 1 2 18-11-1-1zm-18 10l-8 4 1 2 8-4-1-2zm-8 5l-17 18 2 2 17-19-2-1zm-15 20v26h2v-26h-2zm0 26l-1 7v7c-1 5 0 9 2 13h2c-2-4-3-8-2-13v-7l1-7h-2zm1 27c4 9 12 16 23 21l1-1c-11-6-19-13-22-20h-2zm23 21c11 6 26 11 44 14v-2c-18-3-32-8-43-13l-1 1zm44 14c17 2 45 1 62-1v-2c-18 2-45 3-62 1v2zm62-1c18-2 34-7 45-12l-1-2c-11 5-26 10-44 12v2zm45-12c11-5 18-9 22-17l-1-1c-5 8-11 12-22 16l1 2zm22-17c3-4 4-10 4-16v-17h-2v17c0 6-1 11-3 15l1 1zm4-33c0-10 0-21-5-31l-2 1c5 9 5 20 5 30h2zm-5-31c-6-9-14-19-25-25l-1 2c11 6 19 15 24 24l2-1zm-25-25c-12-6-29-9-46-10v2c17 1 33 4 45 10l1-2zm-46-10c-17-1-39 0-57 2l1 2c17-2 39-3 56-2v-2zm-57 2c-17 3-35 6-47 13l1 2c11-7 29-10 47-13l-1-2zm-47 13c-6 4-10 9-14 15l-4 8-3 4 1 2 4-5 4-8c3-5 8-11 13-14l-1-2zm-20 28l1-2h-2l-1 2h2zm-3-1l1 12 1 15h2l-1-15-1-12h-2zm2 27l-1 14c0 4 0 9 2 13l2-1c-2-3-2-8-2-12l1-14h-2zm1 27c4 8 12 16 23 21l1-1c-11-5-18-13-22-21l-2 1zm23 21c11 6 27 9 45 11v-2c-18-2-33-5-44-10l-1 1zm45 11c17 1 43 0 61-2l-1-2c-17 2-43 3-60 2v2zm61-2c17-2 33-4 44-8l-1-2c-11 4-26 6-44 8l1 2zm44-8c12-5 20-10 24-19l-2-1c-4 8-11 13-23 18l1 2zm24-19c2-4 3-10 2-15v-8-8h-2v16c1 5 0 10-2 14l2 1zm2-31v-8l1-8c0-6-1-11-3-16l-2 1c2 4 3 9 3 15l-1 8v8h2zm-2-32c-5-9-16-18-28-24l-1 2c12 6 23 14 27 23l2-1zm-28-24c-12-6-27-10-44-12l-1 2c17 2 33 6 44 12l1-2zm-44-12c-17-2-41-2-58 0v2c17-2 40-2 57 0l1-2zm-58 0c-18 3-35 9-46 15l1 2c11-6 28-12 45-15v-2zm-46 15c-6 4-11 9-14 14l-5 6-4 5 2 1 3-4 5-7c4-5 8-10 14-13l-1-2zm-23 25l-1 1 2 1 1-1-2-1z"/>
      </g>
      <g class="Vector_10">
        <path fill="#FE7F80" d="M1268 489a209 209 0 0175 10c8 4 14 9 17 14 2 5 2 12-2 17s-11 9-21 12c-9 3-22 6-35 7-12 2-26 3-39 2-12-1-27-5-37-8-9-4-17-9-21-13-4-5-6-9-4-14s8-11 16-15 22-8 32-10 21-2 28-2l9 1-18-1zm39 3c12 1 24 5 33 8 8 4 17 8 21 13 3 5 3 12 0 17-4 4-12 8-22 12l-35 8c-13 2-28 3-41 2s-27-5-36-9c-10-3-17-7-21-11-4-5-7-12-5-17s7-9 15-12c8-4 19-8 31-10l41-4 20 1c3 0 0 0 0 0"/>
        <path fill="#FE7F80" d="M1272 491a178 178 0 0173 11c8 4 13 8 15 13s2 11-2 15c-4 5-13 11-22 14-10 3-23 4-36 5-12 1-26 2-39 1-12-1-25-3-35-7-9-3-19-9-23-14s-4-9-1-14c3-4 9-10 18-14 8-4 23-6 32-8l20-5c3 0-2 1-2 2l2 1zm43 2c12 1 24 6 32 9 8 4 12 8 13 13 2 5 1 12-3 17-5 4-13 9-24 12a176 176 0 01-76 5c-12-1-26-3-35-6-9-4-15-10-19-15-3-5-3-11 0-16s10-10 18-13c9-4 22-7 34-9s28-2 40-1c11 1 25 4 31 6l7 2-18-4z"/>
        <path fill="#000" d="M1268 489v-1 2-1zm42 2l-1 1 1-1zm33 8v-1 1zm17 14l1-1-1 1zm-2 17l-1-1 1 1zm-21 12l1 1-1-1zm-35 7l1 1-1-1zm-39 2v1-1zm-58-21l1-1-1 1zm-4-14l-1-1 1 1zm16-15l-1-1 1 1zm60-12v-1 1zm9 1v1h2l-1-1h-1zm75 23h-1 1zm0 17zm-57 20l-1-1 1 1zm-41 2v1-1zm-57-20h-1 1zm-5-17l-1-1 1 1zm15-12l1 1-1-1zm31-10v-1 1zm41-4v1-1zm20 1v1-1zm-36 1v1-1zm38 2v-1 1zm48 37v1-1zm-22 14v1-1zm-36 5v-1 1zm-74-6v1-1zm-23-14l-1 1 1-1zm-1-14l1 1-1-1zm18-14v1-1zm32-8v-1 1zm20-5v-1 1zm-2 2h-1v1h1v-1zm45 3v-1 2-1zm32 9v1-1zm13 13v1-1zm-27 29l1 1-1-1zm-37 7v-1 1zm-39-2v-1 1zm-35-6v-1 1zm-19-15h1-1zm18-29l1 1-1-1zm74-10v-1 1zm31 6v1-1zm7 2v1h1l-1-1zm-65-7c13-1 29 0 41 2l1-2c-13-2-29-3-42-2v2zm41 2c13 2 25 4 33 8l1-2c-8-3-21-6-33-8l-1 2zm33 8c9 4 14 9 17 13l2-1c-3-5-9-10-18-14l-1 2zm17 13c2 5 2 12-2 16l2 1c4-5 4-12 2-18l-2 1zm-2 16c-3 5-11 9-20 12l1 2c9-3 17-8 21-13l-2-1zm-20 12c-9 3-22 6-35 7l1 2c12-1 25-4 35-7l-1-2zm-35 7c-12 2-26 3-39 2v2c13 1 27 0 40-2l-1-2zm-39 2c-12-1-27-5-36-8l-1 2c10 3 24 7 37 8v-2zm-36-8c-10-4-17-9-21-13l-2 1c5 5 12 10 22 14l1-2zm-21-13c-4-4-6-9-4-13l-2-1c-2 6 0 11 4 15l2-1zm-4-13c2-4 7-10 15-14l-1-2c-8 5-14 10-16 15l2 1zm15-14c8-4 22-8 32-10v-2c-10 2-25 6-33 10l1 2zm32-10c10-2 21-2 28-2v-2c-7 0-18 0-28 2v2zm28-2a48 48 0 019 1l1-1v-1h-1l-2-1h-7v2zm9-1l-18-1v2l18 1v-2zm21 4c12 1 23 5 32 8l1-2c-9-3-21-7-33-8v2zm32 8l13 6 8 6 1-1-8-7-13-6-1 2zm21 12c3 5 3 11 0 16l1 1c4-5 4-13 0-18l-1 1zm0 16l-8 6-13 6 1 2 13-6 8-7-1-1zm-21 12l-36 8 1 2 36-8-1-2zm-36 8c-12 2-27 3-40 2v2c13 1 28 0 41-2l-1-2zm-40 2c-12-1-26-5-36-9l-1 2c10 4 24 8 37 9v-2zm-36-9c-9-3-16-6-20-11l-2 1c5 5 12 9 21 12l1-2zm-20-11l-5-8v-8l-2-1v10l5 8 2-1zm-5-16c1-2 2-4 5-6l10-5-1-2-10 5-6 7 2 1zm15-11c7-4 18-8 30-10v-2c-12 2-24 6-31 10l1 2zm30-10l41-4v-2l-41 4v2zm41-4l20 1v-2l-20-1v2zm20 1a11 11 0 002 0v-1-1h-1-1-1l1 2h1v-1h-1l1-1h-1v2zm-36 1c12-1 26 0 38 2v-2c-12-2-26-3-38-2v2zm38 2c12 1 26 5 34 9l1-2c-8-4-23-8-35-9v2zm34 9c8 4 13 8 15 13l2-1c-3-5-8-10-16-14l-1 2zm15 13c2 4 2 9-2 14l1 1c5-5 5-11 3-16l-2 1zm-2 14c-4 4-12 10-22 13l1 2c10-3 18-9 22-14l-1-1zm-22 13c-9 3-22 4-35 5v2c13-1 26-2 36-5l-1-2zm-35 5c-12 1-26 2-39 1v2c13 1 27 0 39-1v-2zm-39 1c-12-1-25-3-34-7l-1 2c10 4 23 6 35 7v-2zm-34-7c-10-3-19-9-23-14l-2 2c5 4 14 11 24 14l1-2zm-23-14l-3-6 2-6-2-1-2 7c0 3 1 5 3 8l2-2zm-1-12c2-5 9-10 17-14l-1-2c-8 4-15 10-18 15l2 1zm17-14l16-5 9-2 7-1v-2l-8 1a511 511 0 00-25 7l1 2zm32-8l20-5v-2l-20 5v2zm20-5h0a1 1 0 010-1l-2 1-1 1h2v0h2a3 3 0 000-1h1a1 1 0 00-1-2h-1v2zm-2 2l2 1v-2l-2-1v2zm45 3c12 1 24 6 32 9v-2c-7-3-20-8-32-9v2zm32 9c7 4 11 8 13 13l1-1c-1-5-6-10-14-14v2zm13 13c1 4 0 10-4 15l2 1c4-5 5-12 3-17l-1 1zm-4 15c-4 5-13 9-23 12l1 2c10-3 19-8 24-13l-2-1zm-23 12c-10 3-24 6-37 7v2c13-1 28-4 38-7l-1-2zm-37 7l-39-2v2l39 2v-2zm-39-2c-12-1-26-3-35-6v1c9 4 23 6 35 7v-2zm-35-6c-8-4-15-9-18-14l-2 1c4 5 11 11 20 14v-1zm-18-14c-3-5-3-11 0-16l-2-1c-3 6-3 12 0 18l2-1zm0-16c2-4 9-9 18-12l-1-2c-9 4-16 8-19 13l2 1zm18-12c8-4 21-7 33-9v-2c-12 2-25 5-34 9l1 2zm33-9c12-2 28-2 40-1v-2c-12-1-28-1-40 1v2zm40-1c11 1 24 4 31 6v-2c-6-2-19-5-31-6v2zm31 6a52 52 0 017 1 1 1 0 010-1l1 2v-1-1l-1-1-7-1v2zm7 0l-18-4v2l18 4v-2z"/>
      </g>
      <g class="Vector_11">
        <path fill="#FE7F80" fill-rule="evenodd" d="M1184 594l-1 40 4 16 11 7 15 11 19 4 22 4 31 1 31-1 19-1 17-4 15-9 7-8 5-5 2-38-2-14-8 3-8 8-12 6-19 2-22 2-41 1-35-2-21-7-11-4-20-9" clip-rule="evenodd"/>
        <path fill="#FE7F80" d="M1183 596v24c1 9-2 21 3 28s15 13 27 17c11 5 24 8 41 10s43 1 59 0c17-1 31-3 41-7 11-4 18-8 23-15 4-7 2-17 2-26v-28c-1-4-3 2-8 4s-12 9-22 11c-9 3-21 3-37 4s-39 2-56 0c-17-1-33-4-45-8s-24-14-29-16l1 2zm1 1v25c0 9-2 20 3 28 4 7 14 13 25 17 11 5 23 7 40 8 18 2 46 2 63 1s28-3 38-7 17-8 21-16c5-7 5-19 6-28s-1-22-2-26 0 1-4 3c-5 2-13 7-24 9-10 3-23 7-38 8h-55c-17-1-34-4-46-8s-22-12-27-15v1z"/>
        <path fill="#000" d="M1183 634h-1 1zm4 16h-1v1l1-1zm11 7h1-1zm15 11l-1 1 1-1zm19 4v-1 1zm22 4v1-1zm31 1v1-1zm31-1v-1 1zm19-1v1-1zm17-4v1h1l-1-1zm15-9v1h1l-1-1zm7-8l1 1-1-1zm5-5h1-1zm2-38h1-1zm-2-14h1v-1h-1v1zm-8 3v-1 1zm-8 8l1 1-1-1zm-12 6v1-1zm-19 2l1 1-1-1zm-22 2v1h1l-1-1zm-41 1v1-1zm-35-2l-1 1h1v-1zm-21-7v1-1zm-11-4v1-1zm-19-10h1-1zm0 24h1-1zm3 28l-1 1 1-1zm27 17v-1 1zm100 10v-1 1zm41-7v-1 1zm23-15l-1-1 1 1zm2-26h-1 1zm0-28h1-1zm-8 4v1-1zm-22 11l1 1-1-1zm-37 4v1-1zm-101-8v1-1zm-29-16l1-1-2-1v2h1zm2 3l-1-1v1h1zm0 25h-1 1zm3 28l1-1-1 1zm128 26v1-1zm59-23l1 1-1-1zm4-54h-1 1zm-28 12v-1 1zm-38 8v1-1zm-101-8v1-1zm-27-15l1-1h-2l1 1zm-1-2l-1 40h2l1-40h-2zm-1 40l4 16h2l-4-16h-2zm4 17l11 7 2-1-12-8-1 2zm11 7l15 11 1-2-14-10-2 1zm15 11l20 3v-1l-19-4-1 2zm20 3l22 5v-2l-22-4v1zm22 5l31 1v-2l-31-1v2zm31 1l31-1v-2l-31 1v2zm31-1l19-1-1-2-18 1v2zm19-1l17-4v-2l-18 4 1 2zm18-4l14-9-1-2-14 9 1 2zm15-9l7-8-2-1-7 7 2 2zm7-8l5-6-2-1-5 6 2 1zm5-6l2-38h-2l-2 38h2zm2-38l-2-14h-2l2 14h2zm-3-15l-8 3 1 2 8-3-1-2zm-8 3l-8 8 1 2 8-8-1-2zm-8 8l-12 6v1l13-5-1-2zm-12 6l-19 2 1 2 18-2v-2zm-19 2l-22 2 1 2 22-2-1-2zm-22 2l-41 1v2l41-1v-2zm-41 1l-35-2v2l35 2v-2zm-35-2l-20-6-1 1 20 7 1-2zm-20-6l-12-5v2l11 4 1-1zm-12-5l-20-9-1 2 21 9v-2zm-20-9v24h2v-14-10h-2zm0 24v15c0 5 0 10 3 14l2-2c-3-3-3-8-3-12v-8-7h-2zm3 29l11 10 16 7 1-2-16-7c-4-3-8-6-10-10l-2 2zm27 17c12 5 25 8 42 10v-2c-16-2-30-5-41-10l-1 2zm42 10c17 2 43 1 59 0v-2c-17 1-42 2-59 0v2zm59 0c17-1 31-3 42-7l-1-2c-10 4-24 6-41 7v2zm42-7c10-4 18-8 22-16l-1-1c-4 7-12 11-22 15l1 2zm22-16c3-3 3-8 3-12v-7-7h-2v14c0 4 0 8-2 11l1 1zm3-26l1-16a105 105 0 00-1-12l-2 1 1 4v7l-1 16h2zm0-28l-1-1-1-1h-1l-1 1-5 4v2c3-1 5-3 6-5h1v1l2-1zm-9 3l-5 3-4 3-13 5 1 2c5-1 9-3 13-6l4-3 4-2v-2zm-22 11c-10 3-21 3-37 4v2c16-1 28-1 38-4l-1-2zm-37 4c-16 1-39 2-56 0v2c17 2 40 1 56 0v-2zm-56 0c-17-1-33-4-45-8v2c12 4 28 7 45 8v-2zm-45-8l-17-8-7-5-4-3-1 2 4 3 7 4c5 4 11 7 18 9v-2zm-30-15l1 2h1v-2h-2zm2 3v25h2v-14-11h-2zm0 25v14c0 5 0 10 3 14l2-1c-3-3-3-8-3-13v-7-7h-2zm3 28c5 8 15 14 26 18v-1c-10-5-20-10-24-18l-2 1zm26 18c11 5 23 7 40 8l1-2c-18-1-30-3-41-7v1zm40 8c18 2 46 2 63 1v-2c-17 1-45 1-62-1l-1 2zm63 1c17-1 29-3 39-7l-1-2c-10 4-21 6-38 7v2zm39-7c10-4 16-9 21-16l-2-1c-4 7-10 11-20 15l1 2zm21-16l5-14 1-15h-2l-1 15c-1 5-2 9-5 13l2 1zm6-29a104 104 0 00-2-26h-2l2 11v15h2zm-2-26a25 25 0 000-2h-1-1l-1 1-3 3 1 2a8 8 0 004-5v1a1 1 0 01-1 0v-1 1h2zm-6 2c-4 2-13 7-23 9l1 2 23-9-1-2zm-23 9c-10 3-23 7-38 8v2c16-1 28-5 39-8l-1-2zm-38 8h-55l-1 2h56v-2zm-55 0c-17-1-34-4-46-8v2c12 4 29 7 45 8l1-2zm-46-8l-16-8-6-4-4-3-1 2 4 3 6 4 17 8v-2zm-28-15v1l1 1h1l-2-2z"/>
      </g>
      <g class="Vector_12">
        <path fill="#FE7F80" fill-rule="evenodd" d="M1181 663l2 39 5 15 7 9 17 8 17 5 24 3 31 2 30-4 24-2 17-2 11-9 10-6 3-6 1-36-2-16-7 7-7 6-13 3-19 3-22 3-41 4-36-3-22-8-30-16" clip-rule="evenodd"/>
        <path fill="#FE7F80" d="M1183 663l1 26c1 9-1 18 3 25 5 7 14 13 25 18 12 5 25 10 42 11a462 462 0 00100-7c9-4 15-8 20-15 4-8 5-20 6-29 0-9-2-21-3-25s1-1-4 1c-4 2-12 8-22 11-11 3-24 5-39 7-16 1-37 4-54 3s-34-4-47-9c-12-4-22-13-26-16l-2-1zm1 1l1 24c0 8-2 21 3 28 4 7 13 11 24 16 11 4 23 9 40 10 18 2 46 2 63 0 17-1 28-5 38-8 10-4 18-7 22-13 4-7 3-19 3-28 1-9 3-22 2-26s-2 1-7 3-14 7-24 10l-37 7c-16 1-40 0-56-1-17-1-33-2-45-6-12-3-23-14-27-17v1z"/>
        <path fill="#000" d="M1183 702h-1 1zm5 15h-1 1zm7 9l-1 1 1-1zm17 8v1-1zm17 5v1-1zm24 3v1-1zm31 2v1-1zm30-4v-1 1zm24-2v1-1zm17-2v1-1zm11-9h-1 1zm10-6l1 1v-1h-1zm3-6h1-1zm1-36h1-1zm-2-16h1v-2l-1 1v1zm-7 7l-1-1 1 1zm-7 6l1 1v-1h-1zm-13 3v1-1zm-19 3v1-1zm-22 3v1-1zm-41 4l-1 1h1v-1zm-36-3h-1l1 1v-1zm-22-8l-1 1 1-1zm-28-15l1-1-2-1v2h1zm4 51v1-1zm25 18v1-1zm42 11v-1 1zm62-1v-1 1zm38-6v1-1zm20-15l-1-1 1 1zm6-29h-1 1zm-3-25h-1 1zm-26 12v1-1zm-39 7v1-1zm-54 3v1-1zm-73-25l-1 1 1-1zm-1 0h1v-1l-1 1zm1 24h-1 1zm27 44h-1 1zm40 10v1-1zm63 0v-1 1zm38-8v1-1zm22-13l-1-1 1 1zm5-54h1-1zm-7 3v1-1zm-24 10v-1 1zm-37 7v1-1zm-101-7l1-1-1 1zm-27-17v-1l-1 2 1-1zm-4 0l2 39h2l-2-39h-2zm2 39l5 15 2-1-5-14h-2zm5 15l7 10 2-1-7-10-2 1zm7 10l18 8 1-2-18-7-1 1zm18 8l17 5v-2l-16-5-1 2zm17 5l24 3v-2l-24-3v2zm24 3l31 2v-2l-31-2v2zm31 2l30-4v-2l-30 4v2zm30-4l24-2v-2l-24 2v2zm24-2l17-2v-2l-17 2v2zm17-3l11-8-1-1-11 8 1 1zm11-8l11-6-2-2-10 7 1 1zm11-7l3-6h-2l-3 6h2zm3-6l1-36h-2l-1 36h2zm1-36l-2-16h-2l2 16h2zm-3-17l-8 7 1 1 8-6-1-2zm-8 7l-6 6 1 1 6-6-1-1zm-6 6l-13 3v2l14-3-1-2zm-13 3l-19 3v2l19-3v-2zm-19 3l-22 3v2l22-3v-2zm-22 3l-42 4 1 2 41-4v-2zm-41 4l-36-3v2l35 3 1-2zm-36-3l-22-8-1 2 22 7 1-1zm-22-8l-29-16-1 2 29 16 1-2zm-29-14l1 26h2l-1-26h-2zm1 26l1 7-1 6c0 5 1 9 4 13l1-1c-2-4-3-7-3-12l1-6-1-7h-2zm4 26c4 7 14 13 25 18l1-2c-11-5-20-10-25-17l-1 1zm25 18c11 5 25 9 42 11v-2c-17-1-30-6-41-11l-1 2zm42 11c17 2 46 0 62-1v-2c-16 1-45 3-62 1v2zm62-1c17-2 28-3 38-6l-1-2c-9 3-20 4-37 6v2zm38-6c10-4 16-8 21-16l-2-1c-4 7-10 12-20 15l1 2zm21-16c2-3 3-9 4-14l2-15h-2l-2 15c-1 5-2 10-4 13l2 1zm6-29c0-9-2-21-3-25h-2c1 4 3 16 3 25h2zm-3-25v-1-1l-1-1h-1v1h-1l-2 2 1 2 2-2 1-1h-1v-1 2h2zm-5 0l-4 2-5 3c-4 2-9 5-14 6l1 2c5-1 10-4 14-6l5-3 4-2-1-2zm-23 11c-10 3-23 5-39 7l1 2c15-2 28-4 39-7l-1-2zm-39 7c-15 1-36 4-53 3v2c17 1 38-2 54-3l-1-2zm-53 3c-16-1-34-4-46-9l-1 2c12 5 30 8 47 9v-2zm-46-9l-16-8-6-5-5-3-1 2 5 3 6 5 16 8 1-2zm-26-16l-2-1-1 2 1 1 2-2zm-3 1v10l1 14h2l-1-14v-10h-2zm1 24v14c0 6 0 11 3 15l2-1c-3-4-3-8-3-14v-7-7h-2zm3 29c2 4 6 6 10 9l14 6 1-1-14-7c-4-2-7-5-9-8l-2 1zm24 15c11 5 24 10 41 11l1-2c-17-1-30-6-41-10l-1 1zm41 11c18 2 46 2 63 0v-2c-17 2-45 2-62 0l-1 2zm63 0c17-1 28-5 38-8v-2c-10 4-22 7-38 8v2zm38-8c10-4 18-7 23-14l-2-1c-4 7-11 9-21 13v2zm23-14c2-3 3-8 3-13v-8-7h-2v15c0 5-1 9-3 12l2 1zm3-28l2-15a112 112 0 000-11h-2v11l-2 15h2zm2-26l-1-2-1-1-1 1-1 1-5 3 1 2 6-4v-1h-1l1 1h2zm-9 2c-5 2-13 7-23 10v2c10-3 19-8 24-10l-1-2zm-23 10l-38 7 1 2 37-7v-2zm-38 7c-15 1-39 0-55-1v2c16 1 40 2 56 1l-1-2zm-55-1c-17-1-32-2-44-6l-1 2c12 4 28 5 45 6v-2zm-44-6c-6-1-12-5-17-8l-6-5-5-4-1 2 5 3 6 5c5 4 11 7 17 9l1-2zm-29-15l2-1-1-1-1 2z"/>
      </g>
    </g>
    <g class="apisix-logo">
      <path fill="#FA5252" fill-rule="evenodd" d="M444 597l-26 55 30-2 10-28 14 30 25 1-37-92-15 37" clip-rule="evenodd"/>
      <path fill="#FA5252" fill-rule="evenodd" d="M444 596c-4 12-11 25-25 56l25-56zm1 1l-26 55 26-55zm-27 56c10-3 17-1 32-1l-32 1zm1-3l30 1-30-1zm29-1c5-6 8-16 11-30l-11 30zm0 2l11-29-11 29zm11-29c3 4 4 12 13 30l-13-30zm0-1c5 12 8 23 12 30l-12-30zm12 29c10-1 22-1 25 2l-25-2zm0 2l26-2-26 2zm25-2c-10-30-23-65-36-89l36 89zm0 1c-10-23-19-46-34-89l34 89zm-35-87c-4 9-11 21-16 34l16-34zm0-2c-3 9-8 16-17 35l17-35z" clip-rule="evenodd"/>
      <path fill="#000" d="M418 652h-1v1h1v-1zm30-2v1h1v-1h-1zm10-28l1-1-1-2v3zm14 30l-1 1h1v-1zm25 1v1h1v-2l-1 1zm-37-92l1-1-1-2-1 2 1 1zm-16 35h1l-1-1v1zm-25 56h-1l2 1-1-1zm26-55l1 1-2-1h1zm-26 55l-1-1 2 1h-1zm-1 1v-1 2-1zm32-1v1-2 1zm-31-2v-1 2-1zm30 1v1-2 1zm-1-2h-1l1 1v-1zm11-30l1 1-2-1h1zm-11 32l-1-1 2 1h-1zm11-29h1l-2-1 1 1zm0 0l1-1-2 1h1zm13 30l1-1-1 1zm-13-31h1l-2 1 1-1zm12 30l1-1-1 1zm0-1v-1 2-1zm25 2l-1 1 3 1-2-2zm-25 0v-1 2-1zm26-2v1-2 1zm-1 0h-1l2-1-1 1zm-36-89h1l-2 1 1-1zm36 90h-1l2-1-1 1zm-34-89h1l-2 1 1-1zm-1 2h1l-1-1v1zm-16 34l-1-1 2 1h-1zm16-36h1l-2-1 1 1zm-17 35h-1l2 1-1-1zm-1-1l-26 56 2 1 26-56-2-1zm-25 57l30-2v-2l-30 2v2zm31-3l10-28-1-1-11 29h2zm9-28l13 31 2-1-14-31-1 1zm14 31l25 1v-2l-25-1v2zm26-1l-37-92-2 1 37 92 2-1zm-39-92l-15 38 2 1 15-38-2-1zm-16 35c-2 6-4 12-9 21l-16 36 2 1 16-36 9-21-2-1zm-23 58l25-57-1-1-26 57 2 1zm24-56c-11 20-20 41-26 54l2 1c5-13 15-34 26-54l-2-1zm-24 55l26-54-2-1-26 54 2 1zm-1 2c9-3 16-1 31-1v-2c-15 0-22-2-32 1l1 2zm31-3l-32 1v2l32-1v-2zm-31 0l30 1v-2l-30-1v2zm30-1l-30-1v2l30 1v-2zm-1 0c6-7 9-16 12-30l-2-1c-3 14-6 24-11 30l1 1zm10-31l-11 30 2 1 11-30-2-1zm-9 32l5-11 6-18-2-1-6 18-5 11 2 1zm9-30l-11 29 2 1 11-29-2-1zm0 1l4 10 10 20 1-1-9-20-4-10-2 1zm15 29l-13-30-2 1 13 30 2-1zm-15-29l6 16c2 5 4 10 7 13l1-1-6-13-6-16-2 1zm14 28l-12-29-2 1 12 29 2-1zm-1 1h21l3 2 1-1-4-2-6-1h-15v2zm25 0l-25-2v2l24 2 1-2zm-25 2l26-2v-2l-26 2v2zm26-4l-26 2v2l26-2v-2zm0 0c-10-29-23-64-36-88l-2 1c13 24 26 59 36 88l2-1zm-38-87l36 88 2-1-36-88-2 1zm38 88c-10-22-19-46-34-88l-2 1c15 42 24 66 34 88l2-1zm-36-87l34 88 2-1-34-88-2 1zm0 0l-17 34 2 1 16-34-1-1zm-15 35l16-34-1-1-17 34 2 1zm14-37l-6 14-11 22 2 1 10-22 7-14-2-1zm-15 37l17-36-2-1-17 36 2 1z"/>
    </g>
    <g>
      <path class="malWarn-square" fill="#FA5252" fill-rule="evenodd" d="M274 641l30 34-32 26-28-26" clip-rule="evenodd"/>
      <path fill="#FA5252" d="M243 673c5-7 12-14 30-29l-30 29zm30-32c13 13 24 26 27 32l-27-32zm0 1l30 33-30-33zm29 31c-11 11-17 19-31 29l31-29zm0 0c-7 9-16 17-30 30l30-30zm-30 29c-9-12-23-22-32-28l32 28zm1 1c-9-10-19-19-31-29l31 29zm-32-30c13-8 21-18 32-32l-32 32z"/>
      <path class="malWarn-path"  fill="#000" fill-opacity=".9" d="M304 675v1l1-1h-1zm-32 26l-1 1h1v-1zm-29-28h-1l1 1v-1zm30-29v-1 1zm0-3l1-1-1 1zm27 32h1-1zm-27-31l-1 1 1-1zm30 33h-1l1-1v1zm-1-2h1l-1-1v1zm-31 29l1 1-1-1zm31-29v1-1zm-30 30h1-1zm0-1l-1 1 1-1zm-32-28l1-1-1 1zm33 29v-1 1zm-31-29l-1 1 1-1zm-1-1v-1 1zm32-32h1-1zm1 1l30 34v-1l-30-34v1zm30 33l-33 26 1 1 32-26v-1zm-32 26l-28-26v1l27 26 1-1zm-29-27c5-7 12-14 30-30v-1c-18 16-25 23-31 30l1 1zm30-31l-31 30 1 1 30-30v-1zm0-2l27 32h1c-4-6-14-19-27-33l-1 1zm28 32l-27-33-1 1 27 32h1zm-29-30l30 32 1-1-30-32-1 1zm31 31l-30-32-1 1 30 32 1-1zm-1-2c-11 11-18 20-31 30l1 1c13-11 20-19 31-30l-1-1zm-30 31l31-30-1-1-31 30 1 1zm30-30l-30 30h1l29-29v-1zm-29 30l29-29v-1l-30 30h1zm-1-1c-9-12-23-22-31-29l-1 1c8 6 22 17 31 29l1-1zm-32-28l31 29 1-1-31-29-1 1zm33 28c-8-9-19-18-31-28l-1 1c13 10 23 18 32 28v-1zm-32-27l32 28v-1l-31-28-1 1zm0-2c13-7 21-18 33-32h-1c-12 13-20 24-32 31v1zm32-32l-32 31 1 1 32-32h-1z"/>
    </g>
      <path class="malWarn-alarm" fill="#000" fill-opacity=".9" d="M273 674h-3v-18h3v18zm-3 6v-1l2-1 1 1 1 1-1 1-1 1-2-1v-1z"/>
    <path class="malConn" fill="#000" fill-opacity=".9" d="M10 681l1-1c1-1 1-1 0 0l3-2a53 53 0 006-3l2-3 3-3 3-3 4-1h4l5 3a380 380 0 009 6l4-1 2-3 3-2 3-3 3-1 5 1 4 3a1058 1058 0 0010 8h3a107 107 0 0010-7l3-2 3-3 3-2 3-1 3 2a82 82 0 0016 11l3-2 4-3a320 320 0 0114-7l3 1 4 2a239 239 0 0115 9c1 1 2 0 3-1l4-3 4-4 4-3 4-2h3l5 2a73 73 0 018 7 294 294 0 009 6c1 1 2 0 3-1a75 75 0 004-6c0-2 1-3 2-3l4-3h3l4 2 2 3a30 30 0 006 4l3 2 1 2-2 2h-2l-2-3 1-2h3l2 1-1 3-2 1-2-1-1-1h-1l-2-1-3-3-3-2h-4l-3 3-2 3-2 3-3 4h-3l-4-2a61 61 0 01-5-5 195 195 0 00-9-8l-4-2-4 1a46 46 0 00-8 6l-4 4-4 2-4-1-4-2a20489 20489 0 00-12-7h-5l-4 1a178 178 0 01-18 9l-3-2a147 147 0 00-13-8l-4-1a19 19 0 00-6 5 35 35 0 01-7 5l-2 2-4 1h-5l-4-3a370 370 0 01-11-8h-3l-3 2a80 80 0 00-5 6l-3 2h-4a35 35 0 01-9-6l-3-3-4-1-3 2-3 2-3 4a94 94 0 01-8 5l-2 1-1 1h-2-1l-1-2 1-1v-1z"/>
    <g stroke="#000" stroke-linecap="round" stroke-opacity=".9" stroke-width="4">
      <path class="conn2" d="M3 583c92 2 185 3 299 2L3 583zm-2 1h302H1zM983 343c173 2 345 2 599-1l-599 1zM602 585c96-4 189-4 380-2l-380 2zm0-1l380-2-380 2zm381-3c-2-69-4-138 1-238l-1 238zm0 1c1-87 0-172-1-239l1 239zm0-239h599-599z"/>
    </g>
    <g stroke="#000" stroke-linecap="round" stroke-opacity=".9" stroke-width="4">
      <path class="conn1" d="M3 543c105 0 209 0 301 4L3 543zm-1-1c98 0 195 2 301 4L2 542zM858 124l386-4-386 4zM603 543c64-2 131-2 252 1l-252-1zm-1 0h255-255zm255-1c-1-97-2-195 1-419l-1 419zm-1 1l1-420-1 420zm1-420c155-2 308-4 387-2l-387 2z"/>
    </g>
    <g stroke="#000" stroke-linecap="round" stroke-opacity=".9" stroke-width="4">
      <path class="conn3" d="M2 622h301H2zm0 1c77 0 157-2 300-1L2 623zM602 622c130 2 261 2 582 2l-582-2zm0 0l583 2-583-2z"/>
    </g>
  </g>
</svg>
