<?xml version="1.0" standalone="no"?><!DOCTYPE svg PUBLIC "-//W3C//DTD SVG 1.1//EN" "http://www.w3.org/Graphics/SVG/1.1/DTD/svg11.dtd"><svg t="1629856036385" class="icon" viewBox="0 0 3840 1024" version="1.1" xmlns="http://www.w3.org/2000/svg" p-id="2084" xmlns:xlink="http://www.w3.org/1999/xlink" width="120" height="32"><defs><style type="text/css"></style></defs><path d="M3454.391223 291.712c341.668571 0 372.059429 279.222857 372.059428 364.544v2.614857c-0.64 88.265143-33.810286 361.929143-372.059428 361.929143h-328.758857c-341.650286 0-372.041143-279.222857-372.041143-364.544v-2.614857c0.64-88.246857 33.810286-361.929143 372.041143-361.929143z m-1729.097143 17.097143c45.641143 0 55.04 7.789714 72.649143 33.901714 17.590857 26.130286 322.377143 491.428571 322.377143 491.428572 9.709714 14.299429 20.041143 20.096 32.859428 20.096 12.836571 0 23.149714-5.796571 32.859429-20.114286 0 0 304.786286-465.28 322.377143-491.410286 17.609143-26.112 27.026286-33.901714 72.649143-33.901714h106.550857c24.539429 0 35.748571 19.181714 20.333714 42.605714l-363.995429 552.704c-56.502857 83.090286-97.956571 116.681143-190.774857 116.681143s-134.272-33.590857-190.756571-116.662857L1598.409509 351.378286c-15.414857-23.405714-4.205714-42.587429 20.333714-42.587429z m-327.222857 0c32.329143 0 45.165714 12.818286 45.165714 45.165714v621.677714c0 32.329143-12.836571 45.165714-45.165714 45.165715h-80.530286c-32.329143 0-45.147429-12.836571-45.147428-45.165715V353.956571c0-32.329143 12.8-45.147429 45.147428-45.147428h80.530286z m-1263.506286 0c45.622857 0 55.04 7.789714 72.630857 33.901714 17.590857 26.130286 322.377143 491.428571 322.377143 491.428572 9.728 14.299429 20.041143 20.096 32.859429 20.096 12.836571 0 23.149714-5.796571 32.877714-20.114286 0 0 304.768-465.28 322.377143-491.410286 17.590857-26.112 27.008-33.901714 72.649143-33.901714h106.550857c27.373714 0 35.748571 19.181714 20.315428 42.605714L753.207223 904.100571c-56.502857 83.090286-97.956571 116.681143-190.774857 116.681143-92.8 0-134.272-33.590857-190.738286-116.662857L7.680366 351.378286c-15.433143-23.405714-7.076571-42.587429 20.297143-42.587429z m3319.826286 149.577143h-328.758857c-184.795429 0-201.234286 151.570286-201.234286 197.869714s16.438857 197.851429 201.234286 197.851429h328.758857c184.813714 0 201.252571-151.552 201.252571-197.851429v-1.737143c-0.438857-48.237714-18.706286-196.132571-201.252571-196.132571zM1394.450651 37.010286l56.118858 56.100571c26.24 26.258286 26.24 47.067429 0 73.325714l-56.118858 56.082286c-26.24 26.258286-47.049143 26.258286-73.289142 0l-56.100572-56.100571c-26.258286-26.24-26.258286-47.049143 0-73.307429l56.100572-56.100571c26.24-26.24 47.049143-26.24 73.289142 0z" fill="#242933" p-id="2085"></path></svg>
