<svg fill="none" xmlns="http://www.w3.org/2000/svg" viewBox="0 0 1713 996"><g class="architecture"><path fill="#E2ECFF" stroke="#343A40" d="M732 137h993v866H732zm-719 0h700v866H13z"/><path d="m157 464 471-1v324l-469-1" fill="#FD7E14"/><path d="M159 463c163 2 328 2 467-1l-467 1zm0 0h468-468zm469-1c2 80 1 160-3 323l3-323zm-2 1c3 80 2 160 0 322V463zm1 323c-112 0-223 1-468-1l468 1zm0-1H159h468zm-468 0c-1-73-3-142-2-321l2 321zm0 0-1-322z" fill="#FD7E14"/><path d="M628 463v-1 1zm0 324v1h1v-1h-1zM159 463v1-1zm467-1v1-1zm-467 1v-1 1zm468 0v-1 1zm1-1h-1 1zm-3 323h1-1zm1-322h-1 1zm0 322h1-1zm1 1v1-1zm-468-1v-1 1zm468 0v1-1zm-468 0v1-1zm0 0h1-1zm-2-321h1-1zm1 321a1 1 0 0 0 1 0h-1zm0-322a1 1 0 0 0-1 0h1zm-1 2 471-2v-1l-471 2v1zm470-2 1 324h1l-1-324h-1zm1 324-469-2v1l469 2v-1zM159 464c163 1 328 1 467-1v-1c-139 2-304 2-467 1v1zm467-2-467 1v1l467-1v-1zm-467 1c163 2 328 2 468 0v-1c-140 2-305 2-468 0v1zm468-1H159v1h468v-1zm0 0c3 80 2 160-2 323h1c4-163 5-243 2-323h-1zm-1 323 2-323h-1l-2 323h1zm-1-322c3 80 3 160 1 322h1c2-162 2-242-1-322h-1zm2 322-1-322h-1l1 322h1zm0 1-468-2v1l468 2v-1zm-468-1 468 2v-1l-468-2v1zm468 0H159v1h468v-1zm-468 1h468v-1H159v1zm1-1c-2-73-3-142-2-321h-1c-1 179 0 248 2 321h1zm-3-321 2 321h1l-2-321h-1zm2 321-1-322h-1l1 322h1z" fill="#000" fill-opacity=".8"/><path d="m149 472 471-1v324l-469-1" fill="#FD7E14"/><path d="M151 471c163 2 328 2 467-1l-467 1zm0 0h468-468zm469-1c2 80 1 160-3 323l3-323zm-2 1c3 80 2 160 0 322V471zm1 323c-112 0-223 1-468-1l468 1zm0-1H151h468zm-468 0c-1-73-3-142-2-321l2 321zm0 0-1-322z" fill="#FD7E14"/><path d="M620 471v-1 1zm0 324v1h1v-1h-1zM151 471v1-1zm467-1v1-1zm-467 1v-1 1zm468 0v-1 1zm1-1h-1 1zm-3 323h1-1zm1-322h-1 1zm0 322h1-1zm1 1v1-1zm-468-1v-1 1zm468 0v1-1zm-468 0v1-1zm0 0h1-1zm-2-321h1-1zm1 321a1 1 0 0 0 1 0h-1zm0-322a1 1 0 0 0-1 0h1zm-1 2 471-2v-1l-471 2v1zm470-2 1 324h1l-1-324h-1zm1 324-469-2v1l469 2v-1zM151 472c163 1 328 1 467-1v-1c-139 2-304 2-467 1v1zm467-2-467 1v1l467-1v-1zm-467 1c163 2 328 2 468 0v-1c-140 2-305 2-468 0v1zm468-1H151v1h468v-1zm0 0c3 80 2 160-2 323h1c4-163 5-243 2-323h-1zm-1 323 2-323h-1l-2 323h1zm-1-322c3 80 3 160 1 322h1c2-162 2-242-1-322h-1zm2 322-1-322h-1l1 322h1zm0 1-468-2v1l468 2v-1zm-468-1 468 2v-1l-468-2v1zm468 0H151v1h468v-1zm-468 1h468v-1H151v1zm1-1c-2-73-3-142-2-321h-1c-1 179 0 248 2 321h1zm-3-321 2 321h1l-2-321h-1zm2 321-1-322h-1l1 322h1z" fill="#000" fill-opacity=".8"/><path d="m137 482 474-1v321l-472-1" fill="#FD7E14"/><path d="M139 481c164 1 331 2 470-1l-470 1zm0-1c164 2 330 2 471 0H139zm472 0c2 79 1 159-2 320l2-320zm-2 1c3 80 2 159 0 319V481zm1 320c-112 0-225 1-471-1l471 1zm0-1-471 1 471-1zm-471 0c-1-72-3-141-2-318l2 318zm0 1-1-320z" fill="#FD7E14"/><path d="M611 481h1v-1h-1v1zm0 321v1h1v-1h-1zM139 481v1-1zm470-1v-1 1zm-470 0v1-1zm471 0v1-1zm1 0h1-1zm-2 320h-1 1zm0-319h1-1zm0 319h1-1zm1 1v1-1zm-471-1v-1 1zm471 0v1-1zm-471 1v-1 1zm0-1h1-1zm-2-318h1-1zm1 319a1 1 0 0 0 1 0h-1zm0-320a1 1 0 0 0-1 0h1zm-1 2 474-2v-1l-474 2v1zm474-2v321h1V481h-1zm0 321-472-2v1l472 2v-1zM139 482c164 1 331 1 470-2v-1c-139 3-306 3-470 2v1zm470-3-470 2v1l470-2v-1zm-470 2c164 2 330 2 471 0v-1c-141 2-307 2-471 0v1zm471-1H139v1h471v-1zm1 0c2 79 1 159-3 320h1c4-161 5-241 3-320h-1zm-2 320 3-320h-1l-3 320h1zm0-319c3 80 2 159 0 319h1c2-160 3-239 0-319h-1zm1 319V481h-1v319h1zm0 1c-112 0-225 1-471-2v1c246 3 359 2 471 2v-1zm-471-1 471 2v-1l-471-2v1zm471 0H139v1h471v-1zm-471 1h471v-1H139v1zm1-1c-2-72-3-141-2-318h-1c-1 177 0 246 2 318h1zm-3-318 2 318h1l-2-318h-1zm2 319-1-320h-1l1 320h1z" fill="#000" fill-opacity=".8"/><text fill="#000" xml:space="preserve" style="white-space:pre" font-family="Roboto" font-size="36" letter-spacing="0em"><tspan x="258" y="529">Apache APISIX</tspan></text><path d="m180 554 183-2-1 67-181-2" fill="#fff"/><path d="m183 553 181 2-181-2zm-1 2 180-1-180 1zm180-2c-2 20 2 43 2 65l-2-65zm0 0v65-65zm1 66c-46-2-92-2-180 0h180zm-1-2c-45-1-91 0-181 1l181-1zm-181 2v-65 65zm1-1v-64 64z" fill="#fff"/><path d="M363 552zm-1 67zm-179-66v-1 1zm181 2v-1 1zm-182 0v-1 1zm180-1v1-1zm0-1h-1 1zm2 65h-1 1zm-2-65h-1 1zm0 65h1-1zm1 1v1-1zm-180 0v-1 1zm179-2v-1 1zm-181 1v-1 1zm0 1h-1 1zm0-65h-1 1zm0 64a1 1 0 0 0 1 0h-1zm2-64a1 1 0 0 0-1 0h1zm-3 1 183-2v-1l-183 2v1zm182-3-1 67h1l1-67h-1zm0 66-181-2v1l181 2v-1zm-179-65 181 2v-1l-181-2v1zm181 1-181-2v1l181 2v-1zm-182 1h180v-1H182v1zm180-1H182v1h180v-1zm-1-1c-1 10 0 21 1 32l1 33h1l-1-33c-1-11-2-22-1-32h-1zm3 65-2-65h-1l2 65h1zm-3-65 1 65h1l-1-65h-1zm2 65-1-65h-1l1 65h1zm0 1c-46-2-92-2-180-1v1c88-1 134-1 180 1v-1zm-180 0 180 1v-1l-180-1v1zm179-3c-45-1-91 0-181 1v1c90-1 136-2 181-1v-1zm-181 2 181-1v-1l-181 1v1zm0 1v-65h-1v65h1zm-1-65v65h1v-65h-1zm2 64 1-64h-1l-1 64h1z" fill="#000"/><text fill="#000" xml:space="preserve" style="white-space:pre" font-family="Roboto" font-size="24.4" letter-spacing="0em"><tspan x="224" y="598">Rate limit</tspan></text><path d="m382 552 180 3v61l-179 2" fill="#fff"/><path d="M383 554c65 2 136 1 177 1l-177-1zm-1-1c45-2 91-1 180 0H382zm178-1c4 26 4 49 2 65l-2-65zm2 2-1 62 1-62zm-1 64c-42 2-80 2-181-1l181 1zm2-1H382h181zm-183 1 3-64-3 64zm1 0v-64 64z" fill="#fff"/><path d="M562 555v-1 1zm0 61v1-1zm-179-62v-1 1zm177 1v1-1zm-178-2v1-1zm180 0v1-1zm-2-1h1-1zm2 65h-1 1zm0-63h1-1zm-1 62h1-1zm0 2v1-1zm-181-1v-1 1zm183 0v-1 1zm-181 0v-1 1zm-2 1h-1 1zm3-64-1-1 1 1zm-2 64a1 1 0 1 0 1 0h-1zm0-64a1 1 0 1 0-1 0h1zm1-1 180 2v-1l-180-2v1zm179 2v61h1v-61h-1zm1 61-179 2v1l179-2v-1zm-179-62c65 2 136 2 177 2v-1c-41 0-112 0-177-2v1zm177 1-177-2v1l177 2v-1zm-178-1c45-3 91-1 180 0v-1c-89-1-135-3-180 0v1zm180-1H382v1h180v-1zm-2-1c3 26 3 49 1 65h1c2-16 2-39-1-65h-1zm2 65-1-65h-1l1 65h1zm0-63-1 62h1l1-62h-1zm0 62 1-62h-1l-1 62h1zm-1 2c-42 2-80 1-181-2v1c101 3 139 4 181 2v-1zm-181-1 181 2v-1l-181-2v1zm183-1H382v1h181v-1zm-181 1h181v-1H382v1zm-2 1 2-30 1-34-1-1-1 35-2 30h1zm2-65-3 65h1l3-64-1-1zm0 65c0-25 1-47-1-64h-1c2 17 1 39 1 64h1z" fill="#000"/><text fill="#000" xml:space="preserve" style="white-space:pre" font-family="Roboto" font-size="24.5" letter-spacing="0em"><tspan x="442" y="593">Auth</tspan></text><path d="m180 626 181-2 1 66-181-3" fill="#fff"/><path d="M179 626c48-1 90 0 181 1l-181-1zm2-2c70 2 141 1 181 1l-181-1zm182 2c-1 16-3 32-3 62l3-62zm-2 0-1 63 1-63zm-2 64-180-2 180 2zm2-1c-40-1-79-2-181-1l181 1zm-181-1c0-22 3-45 2-63l-2 63zm1 0v-64 64z" fill="#fff"/><path d="M361 624v-1 1zm1 66h1-1zm-183-64v1-1zm181 1v-1 1zm-179-3v-1 1zm181 1v-1 1zm1 1h-1 1zm-3 62h1-1zm1-62h1-1zm-1 63h1-1zm-1 1v-1 1zm-180-2v-1 1zm182 1v1-1zm-181-1v1-1zm0 0h1-1zm2-63h-1 1zm-2 63a1 1 0 0 0 1 0h-1zm1-64a1 1 0 0 0-1 0h1zm-1 2 181-2v-1l-181 2v1zm180-2 2 66h1l-2-66h-1zm2 65-181-2v1l181 2v-1zm-183-62h181v-1H179v1zm181-1H179v1h181v-1zm-179-2c70 2 141 2 181 1v-1c-40 1-111 1-181-1v1zm181 0-181-1v1l181 1v-1zm0 2-2 62h1l2-62h-1zm-1 62 2-62h-1l-2 62h1zm0-62-1 63h1l1-63h-1zm0 63 1-63h-1l-1 63h1zm-2 0c-67 1-140-1-180-2v1c40 1 113 3 180 2v-1zm-180-1 180 2v-1l-180-2v1zm182 1c-40-1-79-3-181-1v1c102-2 141 0 181 1v-1zm-181 0 181 1v-1l-181-1v1zm1-1 1-33v-30h-1v30l-1 33h1zm0-63-1 63h1l1-63h-1zm0 63v-64h-1v64h1z" fill="#000"/><text fill="#000" xml:space="preserve" style="white-space:pre" font-family="Roboto" font-size="24" letter-spacing="0em"><tspan x="229" y="664">Security</tspan></text><path d="m382 625 183 2v61l-183 3" fill="#fff"/><path d="m384 627 182-1-182 1zm-1-1c48 1 96 1 180-1l-180 1zm183 0c-2 13-3 26-4 64l4-64zm-2 0c-1 18-1 39 1 63l-1-63zm1 64c-64 0-127-1-184 1l184-1zm-2 0-180-1 180 1zm-181-1c3-22 2-44 3-64l-3 64zm2 1c-2-25-1-51-1-64l1 64z" fill="#fff"/><path d="M565 627h1v-1h-1v1zm0 61zm-181-61v-1 1zm182-1v1-1zm-183 0v-1 1zm180-1v-1 1zm3 1h-1 1zm-4 64v-1l1 1h-1zm2-64h1-1zm1 63h-1 1zm0 1v1-1zm-184 1v-1 1zm182-1v-1 1zm-180-1v-1 1zm-1 0h1-1zm3-64h-1 1zm-2 65h1-1zm0-64a1 1 0 0 0-1 0h1zm-1-1 183 2v-1l-183-2v1zm183 2-1 61h1l1-61h-1zm0 60-183 3v1l183-3v-1zm-181-60h182v-1H384v1zm182-1H384v1h182v-1zm-183 0c48 1 96 1 180-1v-1c-84 2-132 2-180 1v1zm180-2-180 1v1l180-1v-1zm2 2c-2 13-2 26-3 63l1 1c1-38 1-51 3-64h-1zm-2 64 3-64h-1l-3 63 1 1zm1-64v63h1v-63h-1zm1 63v-63h-1v63h1zm0 1H381v1h184v-1zm-184 1h184v-1H381v1zm182-2c-43 0-88 1-180-1v1c92 2 137 1 180 1v-1zm-180 0 180 1v-1l-180-1v1zm0 0c2-22 2-44 2-64h-1c0 20 0 42-2 64h1zm1-64-2 64h1l2-64h-1zm0 65c-2-25-1-51-1-64h-1c0 13-1 39 1 64h1z" fill="#000"/><text fill="#000" xml:space="preserve" style="white-space:pre" font-family="Roboto" font-size="23.3" letter-spacing="0em"><tspan x="428" y="664">Logging</tspan></text><path d="m182 699 180 2-1 63H182" fill="#fff"/><path d="M183 702c39 0 82-3 180 0H183zm-2-1c64-2 125-2 180 0H181zm182-1c-1 20-2 44 0 66v-66zm-1 0c-1 21 0 42 1 64l-1-64zm-1 65c-64-3-132-4-179 0h179zm0-1-179-1 179 1zm-180-1v-63 63zm1 1-1-63 1 63z" fill="#fff"/><path d="M362 701h1v-1h-1v1zm-1 63zm-178-62v1-1zm180 0v-1 1zm-182-1v1-1zm180 0v-1 1zm2-1h1-1zm0 66h1-1zm-1-66h-1 1zm1 64h-1 1zm-2 1v1-1zm-179 0v1-1zm179-1v-1 1zm-179-1v1-1zm-1 0h1-1zm0-63h-1 1zm0 64a1 1 0 0 0 1 0h-1zm0-63a1 1 0 0 0-1 0h1zm1-1 180 1v-1l-180-1v1zm180 1-2 63h1l2-63h-1zm-1 62H182v1h179v-1zm-178-60c39-1 82-4 180-1v-1c-98-3-141 0-180 1v1zm180-2-180 1v1l180-1v-1zm-182 1c64-3 125-3 180-1v-1c-55-2-116-2-180 1v1zm180-2-180 1v1l180-1v-1zm2 0c-2 20-3 44 0 66h1c-3-22-2-46 0-66h-1zm1 66v-66h-1v66h1zm-3-66 1 64h1l-1-64h-1zm2 64-1-64h-1l1 64h1zm-2 1c-64-4-132-5-179 0v1c47-5 115-4 179 0v-1zm-179 1h179v-1H182v1zm179-3H182v1h179v-1zm-179 1h179v-1H182v1zm0-1-1-63h-1l1 63h1zm-2-63 1 63h1l-1-63h-1zm2 64-1-63h-1l1 63h1z" fill="#000"/><text fill="#000" xml:space="preserve" style="white-space:pre" font-family="Roboto" font-size="23" letter-spacing="0em"><tspan x="197" y="741">Custom plugin</tspan></text><path d="m384 698 179-2 3 67-183-4" fill="#fff"/><path d="M385 696c67 5 133 2 180 0H385zm-2 2c58-1 116-2 182 0H383zm181-2v67-67zm-1 1c2 23 1 44 0 65v-65zm1 63c-67-1-130-1-180 2l180-2zm-1 1c-41 2-83 2-180 0h180zm-180 1 2-66-2 66zm0-1v-63 63z" fill="#fff"/><path d="M563 696zm3 67zm-181-67v1-1zm180 0v-1 1zm-182 2v1-1zm182 0v-1 1zm-1-2h-1 1zm0 67h1-1zm-1-66h1-1zm0 65h1-1zm1-2v-1 1zm-180 2v1-1zm179-1v1-1zm-180 0v-1 1zm0 1h1-1zm2-66h-1 1zm-2 66a1 1 0 0 0 1-1l-1 1zm0-64a1 1 0 0 0-1 0h1zm1 1 179-2v-1l-179 2v1zm178-3 3 67h1l-3-67h-1zm4 66-183-3v1l183 3v-1zm-181-65c67 4 133 2 180-1v-1c-47 3-113 5-180 1v1zm180-2-180 1v1l180-1v-1zm-182 4c58-2 116-2 182-1v-1c-66-1-124-1-182 1v1zm182-2-182 1v1l182-1v-1zm-2-1v37l1 30h1l-1-30v-37h-1zm2 67-1-67h-1l1 67h1zm-2-66c2 23 1 44 0 65h1c1-21 2-42 0-65h-1zm1 65v-65h-1v65h1zm0-3c-67-1-130 0-180 3v1c50-3 113-4 180-3v-1zm-180 4 180-3v-1l-180 3v1zm179-2c-41 2-83 2-180-1v1c97 3 139 3 180 1v-1zm-180 0 180 1v-1l-180-1v1zm1 1 1-66h-1l-1 66h1zm0-66-1 66h1l1-66h-1zm0 65v-36l-1-27h-1l1 27v37l1-1z" fill="#000"/><text fill="#000" xml:space="preserve" style="white-space:pre" font-family="Roboto" font-size="20" letter-spacing="0em"><tspan x="458" y="735">... ...</tspan></text><path d="m189 162 368-3-2 101-364 3" fill="#FEFFBF"/><path d="M189 160h367-367zm0 0 366 1-366-1zm367-1-2 104 2-104zm-1 1 1 102-1-102zm0 101c-136 2-271 1-364 1l364-1zm1 0c-105 2-211 2-367 1l367-1zm-365 0c-3-21-3-44-2-100l2 100zm-2 1c0-22 2-43 0-101v101z" fill="#FEFFBF"/><path d="M557 159h1-1zm-2 101v1-1zM189 160v-1 1zm367 0v1-1zm-367 0v1-1zm366 1v-1 1zm1-2h1-1zm-2 104h1-1zm1-103h-1 1zm1 102h-1 1zm-1-1v-1 1zm-364 1v1-1zm365-1v-1 1zm-367 1v-1 1zm2-1h1-1zm-2-100h-1 1zm-1 101a1 1 0 0 0 1 0h-1zm2-101a1 1 0 0 0-1 0h1zm-1 1 368-2v-1l-368 2v1zm368-3-3 101h1l3-101h-1zm-2 101-364 2v1l364-2v-1zM189 160c90-1 178 1 367 1v-1c-189 0-277-2-367-1v1zm367 0-367-1v1l367 1v-1zm-367 1h366v-1H189v1zm366-1H189v1h366v-1zm1-1-1 43-1 61h1l1-61 1-43h-1zm-1 104 2-104h-1l-2 104h1zm-1-103 1 102h1l-1-102h-1zm2 102-1-102h-1l1 102h1zm-1-2c-136 2-271 2-364 2v1c93 0 228 0 364-2v-1zm-364 3 364-2v-1l-364 2v1zm365-3c-105 2-211 2-367 1v1c156 1 262 1 367-1v-1zm-367 2 367-1v-1l-367 1v1zm3-1c-4-21-4-44-3-100h-1c-1 56-1 79 3 100h1zm-4-100 3 100h1l-3-100h-1zm1 101c1-22 3-43 1-101h-1c2 58 0 79-1 101h1z" fill="#000"/><text fill="#000" xml:space="preserve" style="white-space:pre" font-family="Maison Neue" font-size="28" font-weight="300" letter-spacing="0em"><tspan x="286" y="219">Client/Service</tspan></text><path d="m375 262-2 204m1 0-10-29 10 29zm0 0 10-29-10 29zm-12-29c6 12 9 22 11 29 4-7 8-17 10-29m-7-174-2 205 2-205z" stroke="#000" stroke-linecap="round"/><path d="m838 173 270 2 2 302-275 1" fill="#FE7F80"/><path d="M836 174c107-1 217-1 274 1l-274-1zm0 0c75 2 150 1 274-1l-274 1zm274 0-1 304 1-304zm0-1c2 107 2 212 0 305V173zm-1 306c-65 0-132 3-274 0h274zm1 0c-71-2-141-1-274 0h274zm-272 1c-5-100-3-202-1-306l1 306zm-2-2V174v304z" fill="#FE7F80"/><path d="M1108 175h1-1zm2 302v1-1zM836 174v1-1zm274 1v-1 1zm-274-1v1-1zm274-1v1-1zm0 1h1-1zm-1 304h-1 1zm1-305h1-1zm0 305h-1 1zm-1 1v1-1zm-274 0v-1 1zm275 0v-1 1zm-274 0v1-1zm2 1h-1 1zm-1-306h-1 1zm-1 304a1 1 0 0 0 1 0h-1zm1-304h-1 1zm1 0 270 2v-1l-270-2v1zm270 1 1 302h1l-1-302h-1zm2 302-275 1v1l275-1v-1zM836 175h274v-1H836v1zm274-1H836v1h274v-1zm-274 1c75 2 150 1 274-1v-1c-124 2-199 3-274 1v1zm274-2-274 1v1l274-1v-1zm0 1-2 304h1l2-304h-1zm-1 304 2-304h-1l-2 304h1zm1-305c2 107 2 212-1 305h1c3-93 3-198 1-305h-1zm0 305 1-305h-1l-1 305h1zm-1 1c-65 0-132 2-274-1v1c142 3 209 1 274 1v-1zm-274 0 274 1v-1l-274-1v1zm275-1c-71-2-141-1-274 1v1c133-2 203-3 274-1v-1zm-274 2 274-1v-1l-274 1v1zm2 0c-4-100-3-202-1-306h-1c-2 104-3 206 1 306h1zm-2-306 1 306h1l-1-306h-1zm1 304V174h-1v304h1z" fill="#000"/><path d="m864 197 223 1-4 64-219 1" fill="#fff"/><path d="M865 197c86 3 173 2 221 1l-221-1zm0 2c59 2 116 1 220 0H865zm220 2c1 14-1 25-1 63l1-63zm-1-2v63-63zm1 65c-50-2-96-4-221-2l221 2zm0-1H865h220zm-219-2c1-23-3-48-1-64l1 64zm-2 2c1-18-1-38 1-63l-1 63z" fill="#fff"/><path d="M1087 198v1-1zm-4 64h1-1zm-218-65v1-1zm221 1v1-1zm-221 1v1-1zm220 0v-1 1zm0 2h1-1zm-1 63h-1 1zm0-65h1-1zm0 63h1-1zm1 2v-1 1zm-221-2v1-1zm221 1v-1 1zm-220 0v-1 1zm1-2h-1 1zm-1-64h1-1zm-1 66a1 1 0 0 0 1 0h-1zm2-63a1 1 0 0 0-1 0h1zm-2-2 223 1v-1l-223-1v1zm222 0-3 64h1l3-63-1-1zm-3 63-219 2v1l219-2v-1zm-218-63c86 3 173 2 221 1v-1c-48 1-135 2-221-1v1zm221 0-221-1v1l221 1v-1zm-221 2c59 1 116 1 220-1v-1c-104 2-161 2-220 1v1zm220-2-220 1v1l220-1v-1zm0 3-1 22-1 41h1a1083 1083 0 0 1 2-63h-1zm-1 63 2-63h-1l-2 63h1zm0-65v63h1v-63h-1zm1 63v-63h-1v63h1zm0 1c-50-1-96-3-221-1v1c125-2 171 0 221 1v-1zm-221 0 221 1v-1l-221-1v1zm221-1H865v1h220v-1zm-220 1h220v-1H865v1zm1-2v-63l-1-1v64h1zm-1-64v64h1v-64h-1zm0 66v-29l1-34h-1l-1 34v29h1z" fill="#000"/><text fill="#000" xml:space="preserve" style="white-space:pre" font-family="Roboto" font-size="22.5" letter-spacing="0em"><tspan x="878" y="238">Apache Skywalking </tspan></text><path d="m860 387 220-1 1 67-222-1" fill="#fff"/><path d="M858 388c60 1 119 1 223-2l-223 2zm1 0c47-1 95-2 222 0H859zm223 1c-1 17-2 39 1 63l-1-63zm0-1c-1 22-2 44-1 66l1-66zm-2 65-221-2 221 2zm1 0H859h222zm-221 0c-4-25-2-52-2-64l2 64zm-1 0-1-66 1 66z" fill="#fff"/><path d="M1080 386zm1 67v1-1zm-223-65v1-1zm223-2v1-1zm-222 2v-1 1zm222 0v-1 1zm1 1h1-1zm1 63h1-1zm-1-64h1-1zm-1 66h-1 1zm-1-1v1-1zm-221-2v1-1zm222 2v-1 1zm-222 0v-1 1zm1 0h1-1zm-2-64h-1 1zm0 64a1 1 0 0 0 1 0h-1zm0-66h-1 1zm2 1 220-1v-1l-220 1v1zm219-2 1 67h1l-1-67h-1zm2 67-222-2v1l222 2v-1zm-223-64c60 0 119 0 223-2v-1c-104 2-163 2-223 2v1zm223-3-223 2v1l223-2v-1zm-222 2h222v-1H859v1zm222-1H859v1h222v-1zm1 2c-2 17-2 39 1 63h1c-3-24-3-46-1-63h-1zm2 63-1-63h-1l1 63h1zm-2-64c-2 22-2 44-2 66h1c0-22 0-44 2-66h-1zm-1 66 2-66h-1l-2 66h1zm-1-1-221-2v1l221 2v-1zm-221-1 221 2v-1l-221-2v1zm222 0H859v1h222v-1zm-222 1h222v-1H859v1zm2 0c-4-25-2-52-3-64h-1c1 12-1 39 3 64h1zm-4-64 3 64h1l-3-64h-1zm2 64v-28l-1-38h-1l1 37v29h1z" fill="#000"/><text fill="#000" xml:space="preserve" style="white-space:pre" font-family="Roboto" font-size="23.3" letter-spacing="0em"><tspan x="924" y="428">Grafana...</tspan></text><g><path d="m856 290 225 2 1 66H859" fill="#fff"/><path d="M859 291c48 0 95-2 221 2l-221-2zm-1 0 224 1-224-1zm222-1c0 29 4 53 2 67l-2-67zm1 1v68-68zm2 67-224 1 224-1zm-1 1-223 1 223-1zm-225 0 1-68-1 68zm0 0c1-24 0-51 2-68l-2 68z" fill="#fff"/><path d="M1081 292zm1 66v1h1v-1h-1zm-223-67v1-1zm221 2v1-1zm-222-2v1-1zm224 1v-1 1zm-2-2h1-1zm2 67h1-1zm-1-66h1-1zm0 68h1-1zm2-1v-1 1zm-224 1v-1 1zm223 0v1-1zm-223 1v-1 1zm-2-1h-1 1zm1-68h-1 1zm-1 68a1 1 0 0 0 1 0h-1zm2-68c1 0 0 0 0 0zm-3 0 225 2v-1l-225-2v1zm224 1 2 66h1l-2-66h-1zm2 66H859v1h223v-1zm-223-66c48-1 95-2 221 2v-1c-126-4-173-3-221-2v1zm221 1-221-2v1l221 2v-1zm-222-1h224v-1H858v1zm224-1H858v1h224v-1zm-2-1 1 39c1 11 2 21 1 28h1c1-7 0-17-1-28l-1-39h-1zm3 67-2-67h-1l2 67h1zm-2-66v68h1v-68h-1zm1 68v-68h-1v68h1zm1-2c-83 2-164 1-224 1v1c60 0 141 1 224-1v-1zm-224 2 224-1v-1l-224 1v1zm223 0H859v1h223v-1zm-223 1h223v-1H859v1zm-2-1c2-16 1-29 1-68h-1c0 39 1 52-1 68h1zm0-68-1 68h1l1-68h-1zm1 68 1-37v-31l-1 31-1 37h1z" fill="#000"/><text fill="#000" xml:space="preserve" style="white-space:pre" font-family="Roboto" font-size="23.3" letter-spacing="0em"><tspan x="911" y="333">Prometheus</tspan></text></g><path d="M1242 348h-113m0 0c10-3 20-6 27-12l-27 12zm0 0c10 3 20 7 27 8l-27-8zm29-10-29 9c15 7 21 9 29 11m82-12-113 3 113-3zM615 622c10-5 46 17 58-28 12-44-11-196 14-241 26-45 116-25 139-30M617 624c9-5 43 14 55-31s-10-194 15-239c26-44 116-25 139-30m0-1c-12 6-19 11-29 13l29-13zm0 0c-12-4-19-4-30-7l30 7zm-28 12 28-12-28-9" stroke="#000" stroke-linecap="round"/><g><path d="m49 916 183-2v63l-180-1" fill="#FEFFBF"/><path d="m52 912 179 3-179-3zm-1 2h181H51zm179-1c2 24 0 53 3 63l-3-63zm1 2c2 12 1 27 1 62l-1-62zm-1 65c-36-3-72-1-180-2l180 2zm2-1c-40 2-79 1-180-2l180 2zm-183-3c3-13 4-31 2-63l-2 63zm2 2v-63 63z" fill="#FEFFBF"/><path d="M232 914h1-1zm0 63h1-1zM52 912v1-1zm179 3v1-1zm-180-1v-1 1zm181 0v-1 1zm-2-1h1-1zm3 63h-1 1zm-2-61v-1l-1 1h1zm1 62h-1 1zm-2 3v-1 1zm-180-2v1-1zm182 1v-1 1zm-180-2v1-1zm-3-1h-1 1zm2-63h1-1zm0 65a1 1 0 1 0 1 0h-1zm1-63a1 1 0 0 0-1 0h1zm-3 1 183-1v-1l-183 1v1zm183-2v63h1v-63h-1zm0 62H52v1h180v-1zM52 913c50 1 101 0 179 3v-1c-78-3-129-2-179-3v1zm179 2-179-3v1l179 3v-1zm-180-1h181v-1H51v1zm181-1H51v1h181v-1zm-2 0 1 37a382 382 0 0 0 1 26h1l-1-11v-15l-1-37h-1zm3 63-2-63h-1l2 63h1zm-3-61c2 12 1 27 1 62h1c0-35 1-50-1-63l-1 1zm2 62-1-63-1 1 1 62h1zm-2 2c-36-3-72 0-180-1v1c108 1 144-2 180 1v-1zm-180 0 180 1v-1l-180-1v1zm182-1c-40 2-79 1-180-1v1c101 2 140 3 180 1v-1zm-180 0 180 1v-1l-180-1v1zm-3-2c4-13 4-31 3-63h-1c1 32 1 50-3 63h1zm2-63-3 63h1l3-63h-1zm1 65v-63h-1v63h1z" fill="#000"/><text fill="#000" xml:space="preserve" style="white-space:pre" font-family="Roboto" font-size="23.3" letter-spacing="0em"><tspan x="92" y="952">PARTNER</tspan></text></g><g><path d="m292 914 181-2 1 66H291" fill="#FEFFBF"/><path d="M291 913c55 3 105 1 181-2l-181 2zm0 1h181-181zm183-2c-4 24-3 51-4 64l4-64zm-3 2c1 24 2 50 1 63l-1-63zm-1 64c-67-4-133-4-179-2l179 2zm1-1H292h179zm-181-1c2-21-1-38 3-61l-3 61zm1 1 1-64-1 64z" fill="#FEFFBF"/><path d="M473 912h1v-1h-1v1zm1 66zm-183-65v1-1zm181-2v1-1zm-181 3v-1 1zm181 0v-1 1zm2-2h-1 1zm-4 64h1-1zm1-62h1-1zm1 63h-1 1zm-2 1v1-1zm-179-2v-1 1zm180 1v-1 1zm-179 0v1-1zm-2-1h1-1zm3-61h-1 1zm-3 62h1-1zm2-64h-1 1zm0 2 181-3v-1l-181 3v1zm181-3v66h1v-66h-1zm1 65H291v1h183v-1zm-183-63c55 2 105 0 181-2v-1c-76 2-126 4-181 2v1zm181-3-181 2v1l181-2v-1zm-181 3h181v-1H291v1zm181-1H291v1h181v-1zm1-1-2 36-1 28h1l1-28 2-36h-1zm-2 64 3-64h-1l-3 64h1zm0-62v63h1v-63h-1zm1 63v-63h-1v63h1zm-2 1c-67-4-133-4-179-3v1c46-1 112-1 179 3v-1zm-179-2 179 3v-1l-179-3v1zm180 0-179 1v1l179-1v-1zm-179 2 179-1v-1l-179 1v1zm-1-2v-30c0-10 0-20 2-31h-1c-2 11-2 21-2 31v30h1zm1-61-2 61h1l2-61h-1zm-1 62 1-64h-1l-1 64h1z" fill="#000"/><text fill="#000" xml:space="preserve" style="white-space:pre" font-family="Roboto" font-size="23.3" letter-spacing="0em"><tspan x="334" y="953">PRIVATE</tspan></text></g><g><path d="m515 911 180-1v65l-179-3" fill="#FEFFBF"/><path d="M516 909c49 1 96 4 182 0H516zm1 1c62 0 124-2 179-1l-179 1zm182 1c-5 18-2 41-4 63l4-63zm-1-1c-2 21-1 45-2 64l2-64zm1 62c-40-1-80 2-183 3l183-3zm-2 2c-45-1-89 1-182-1l182 1zm-182 0c-1-24-1-45 2-64l-2 64zm1 0v-64 64z" fill="#FEFFBF"/><path d="M695 910h1-1zm0 65h1-1zm-179-66v-1 1zm182 0v-1 1zm-181 1v-1 1zm179-1v1-1zm3 2h-1 1zm-4 63h1-1zm3-64h-1 1zm-2 64h-1 1zm3-2v1-1zm-183 3v1-1zm181-1v1-1zm-182-1v-1 1zm0 1h-1 1zm2-64h-1 1zm-1 64h1-1zm1-64-1-1v1h1zm-2 1h180v-1H515v1zm180-1v65h1v-65h-1zm0 64-179-3v1l179 3v-1zm-179-65c48 2 96 5 182 0v-1c-86 5-133 2-182 0v1zm182-1H516v1h182v-1zm-181 2c62 0 124-2 179 0v-1c-54-2-117 0-179 0v1zm179-1H517v1h179v-1zm2 2c-2 9-2 19-2 30l-1 33h1l1-33c0-11 0-21 2-30h-1zm-2 63 3-63h-1l-3 63h1zm1-64-1 33-1 31h1l1-31 1-33h-1zm-1 64 2-64h-1l-2 64h1zm3-2c-40-2-81 2-183 3v1c103-1 143-5 183-3v-1zm-183 4 183-3v-1l-183 3v1zm181-2-73-1-109-1v1l109 1 73 1v-1zm-182-1 182 2v-1l-182-2v1zm0 1c0-24 0-45 2-64h-1c-2 19-2 40-2 64h1zm1-64-2 64h1l2-64h-1zm1 64v-64h-1v64h1z" fill="#000"/><text fill="#000" xml:space="preserve" style="white-space:pre" font-family="Roboto" font-size="23.3" letter-spacing="0em"><tspan x="567" y="952">PUBLIC</tspan></text></g><path d="M370 805c-4 9 13 51-24 60s-161-14-198-6-21 45-25 54m246-109c-4 10 13 53-24 62s-161-14-198-6-19 46-24 54m1 0c-5-8-8-19-11-28l11 28zm0 0c1-8 5-19 9-28l-9 28zm-11-28c3 12 9 21 11 27 3-5 5-15 9-27" stroke="#000" stroke-linecap="round"/><path d="M369 804c5 9-8 50 31 59 38 9 165-12 202-4 37 7 17 41 20 50M367 802c5 10-4 52 35 62 40 10 165-12 202-4s15 41 18 50m0 1-6-28 6 28zm0 0 12-26-12 26zm-6-28 6 27c4-8 9-15 12-25m-265-73v99m2 1c-5-11-10-20-13-30l13 30zm0 0 7-30-7 30zm-13-29c6 10 9 20 12 28l9-28m-8-73v100-100zm977-424 5 303m-1 1c-3-15-9-32-9-44l9 44zm0 0c6-15 6-32 12-44l-12 44zm-10-43 11 41 10-42m-13-259v300-300z" stroke="#000" stroke-linecap="round"/><g><path d="m1152 707 519 1-2 103h-520" fill="#FE7F80"/><path d="M1150 709h520-520zm1-1c198 1 397 2 519 0h-519zm517 2c2 37 4 80 2 100l-2-100zm1-1c1 37 2 76 1 101l-1-101zm0 101h-518 518zm1 0c-166-2-332-1-519 1l519-1zm-520-1c2-23 1-48 2-101l-2 101zm0 2 1-103-1 103z" fill="#FE7F80"/><path d="M1671 708h1-1zm-2 103v1-1zm-519-102v1-1zm520 0v1-1zm-519-1v1-1zm519 0v1-1zm-2 2h1-1zm2 100h-1 1zm-1-101h1-1zm1 101h-1 1zm-1 0v-1 1zm-518 0v1-1zm519 0v1-1zm-519 1v-1 1zm-1-2h-1 1zm2-101h1-1zm-3 103 1 1v-1h-1zm3-103-1-1v1h1zm0 0 519 1v-1l-519-1v1zm519 0-3 103h1l3-103h-1zm-2 103h-520v1h520v-1zm-519-101c151-1 300-2 520 0v-1c-220-2-369-1-520 0v1zm520-1h-520v1h520v-1zm-519 0h519v-1h-519v1zm519-1h-519v1h519v-1zm-2 2c1 37 3 80 1 100h1c2-20 0-63-1-100h-1zm2 100-1-100h-1l1 100h1zm-1-101c1 37 2 76 0 101h1c2-25 1-64 0-101h-1zm1 101V709h-1v101h1zm-1-1-518 1v1l518-1v-1zm-518 2 518-1v-1l-518 1v1zm519-1c-166-2-332-2-519 0v1c187-2 353-2 519 0v-1zm-519 1h519v-1h-519v1zm-1-2c2-23 2-48 3-101h-1c-1 53-1 78-3 101h1zm2-101-3 101h1l3-101h-1zm-2 103 2-103h-1l-2 103h1z" fill="#000"/><path d="M1174 728h136v62l-135-1" fill="#fff"/><path d="M1176 729h134-134zm-2 0c53 1 105 3 136 0h-136zm133 2c3 11 2 26 3 58l-3-58zm1 0v60-60zm1 61c-30 2-58 0-133-3l133 3zm-1-2c-32 2-66 1-133 0h133zm-133 1v-60 60zm-1 0v-61 61z" fill="#fff"/><path d="M1310 728zm0 62h1-1zm-134-61v-1 1zm134 0v-1 1zm-136 0v1-1zm136 0v-1 1zm-3 2h1-1zm3 58h-1 1zm-2-58h1-1zm0 60h1-1zm1 1v1-1zm-133-3v-1 1zm132 1v-1 1zm-133 0v-1 1zm0 1h1-1zm0-60h1-1zm-1 60h1-1zm0-61h-1 1zm0-1h136v-1h-136v1zm135-1 1 62h1l-1-62h-1zm1 61-135-1v1l135 1v-1zm-134-60c31 1 63 2 134 0v-1c-71 2-103 1-134 0v1zm134-1h-134v1h134v-1zm-136 2c53 1 105 2 136-1v-1c-31 3-83 2-136 1v1zm136-2-136 1v1l136-1v-1zm-3 3 2 21v37h1v-37l-2-21h-1zm3 58-2-58h-1l2 58h1zm-2-58v60h1v-60h-1zm1 60v-60h-1v60h1zm0 1c-30 1-58 0-133-4v1c75 4 103 5 133 4v-1zm-133-3 133 4v-1l-133-4v1zm132 0c-32 3-66 2-133 0v1c67 2 101 3 133 0v-1zm-133 1h133v-1h-133v1zm1 1v-60h-1v60h1zm-1-60v60h1v-60h-1zm0 60-1-61h-1l1 61h1z" fill="#000"/><text fill="#000" xml:space="preserve" style="white-space:pre" font-family="Roboto" font-size="24.4" letter-spacing="0em"><tspan x="1216" y="769">etcd</tspan></text><path d="m1340 731 135-1v59h-131" fill="#fff"/><path d="M1342 731c50-1 97 0 133-3l-133 3zm-1-2h136-136zm135 1c2 14-1 24 1 60l-1-60zm0-1c2 13 1 26 0 63v-63zm2 62c-41 1-82-2-137 1l137-1zm-1 0h-136 136zm-134-1v-60 60zm-1 0-1-60 1 60z" fill="#fff"/><path d="M1475 730h1-1zm0 59v1-1zm-133-58v1-1zm133-3v1-1zm-134 1v1-1zm136 0v1-1zm-1 1h-1 1zm1 60h1-1zm-1-61h1-1zm0 63h-1 1zm2-1v1-1zm-137 1v1-1zm136-1v1-1zm-136 0v1-1zm2-1h-1 1zm0-60h1-1zm-1 60h1-1zm-1-60h-1 1zm-1 2 135-1v-1l-135 1v1zm135-2-1 59h1l1-59h-1zm0 59h-131v1h131v-1zm-133-57c50-2 97 0 133-3v-1c-37 3-83 1-133 3v1zm133-4-133 3v1l133-3v-1zm-134 2h136v-1h-136v1zm136-1h-136v1h136v-1zm-2 1 1 22 1 38h1l-1-38-1-22h-1zm3 60-2-60h-1l2 60h1zm-2-61c1 13 1 26-1 63h1c2-37 2-50 1-63h-1zm0 63 1-63h-1l-1 63h1zm2-1c-41 0-82-3-137 1v1c55-4 96-1 137-1v-1zm-137 2 137-1v-1l-137 1v1zm136-2h-136v1h136v-1zm-136 1h136v-1h-136v1zm2-2 1-60h-1l-1 60h1zm0-60-1 60h1l1-60h-1zm0 60c-1-19 0-37-2-60h-1c2 23 1 41 2 60h1z" fill="#000"/><text fill="#000" xml:space="preserve" style="white-space:pre" font-family="Roboto" font-size="24" letter-spacing="0em"><tspan x="1388" y="768">etcd</tspan></text><g><path d="m1512 728 133 4v60l-135-1" fill="#fff"/><path d="M1512 729c46-2 88-2 133 2l-133-2zm0 0c26 0 54-1 135 1l-135-1zm135-1c-3 19-1 33 1 61l-1-61zm-1 2c-1 16 1 34 1 60l-1-60zm2 59c-56 1-106 0-138 3l138-3zm-1 1c-52-1-103 0-135 1l135-1zm-134 2c-3-22-1-46-1-63l1 63zm-2-1 1-62-1 62z" fill="#fff"/><path d="M1645 732v-1 1zm0 60zm-133-63v-1 1zm133 2v-1 1zm-133-2v-1 1zm135 1v1-1zm0-2h-1 1zm1 61h1-1zm-2-59h-1 1zm1 60h1-1zm1-1v-1 1zm-138 3v-1 1zm137-2v-1 1zm-135 1v1-1zm1 1h-1 1zm-1-63h1-1zm-2 62 1 1v-1h-1zm3-62h-1 1zm-1 0 133 3v-1l-133-3v1zm132 3v60h1v-60h-1zm1 59-135-1v1l135 1v-1zm-133-62c46-1 88-1 133 2v-1c-45-3-87-3-133-2v1zm133 1-133-2v1l133 2v-1zm-133-1c26 1 54-1 135 2v-1c-81-3-109-1-135-2v1zm135 1-135-2v1l135 2v-1zm-1-2c-2 19-1 33 2 61h1c-3-28-4-42-2-61h-1zm3 61-2-61h-1l2 61h1zm-4-59 1 26 1 34h1l-1-34-1-26h-1zm3 60-2-60h-1l2 60h1zm0-2c-56 1-106 0-138 3v1c32-3 82-2 138-3v-1zm-138 4 138-3v-1l-138 3v1zm137-3-135 2v1l135-2v-1zm-135 3 135-2v-1l-135 2v1zm1 0c-3-22 0-46 0-63h-1c0 17-3 41 0 63h1zm-1-63v63h1v-63h-1zm-1 62 2-62h-1l-2 62h1z" fill="#000"/><text fill="#000" xml:space="preserve" style="white-space:pre" font-family="Roboto" font-size="22.3" letter-spacing="0em"><tspan x="1557" y="767">etcd</tspan></text></g></g><path d="m1138 765-513-1m1-2c7 4 15 9 26 11l-26-11zm0 0c8-1 15-3 26-10l-26 10zm27 12c-11-4-21-6-28-10 8-2 18-7 28-11m486 10H623h516z" stroke="#000" stroke-linecap="round"/><g><g fill="#2864A7"><path d="M1015 9h364l2 77-365-3"/><path d="M1013 11h367-367zm1-1h366-366zm366-1c1 24 1 50-1 75l1-75zm0 1c1 22 1 45-1 75l1-75zm0 73c-119 2-237 1-365 2l365-2zm0 2c-128-2-254-2-367-1l367 1zm-367 0c0-21 0-41 2-73l-2 73zm1-1c0-27 1-54-1-74l1 74z"/><path d="M1379 9h1-1zm2 77zm-368-75v-1 1zm367 0v-1 1zm-366-1V9v1zm366 0V9v1zm0-1h-1 1zm-1 75h1-1zm1-74h1-1zm-1 75h-1 1zm1-2v1-1zm-365 2v-1 1zm365 0v-1 1zm-367-1v-1 1zm0 1h-1 1zm2-73h1-1zm-1 72h1-1zm0-74-1-1v1h1zm1-1 364 1V9l-364-1v1zm364 0 1 77h1l-1-77h-1zm2 76-365-3v1l365 3v-1zm-368-74h367v-1h-367v1zm367-1h-367v1h367v-1zm-366 0c128 2 258 1 366 0V9c-108 1-238 2-366 0v1zm366-1h-366v1h366V9zm-1 0c2 24 2 50 0 75h1c2-25 2-51 0-75h-1zm1 75V9h-1v75h1zm0-74c1 22 1 44-2 75h1c3-30 3-53 2-75h-1zm-1 75 2-75h-1l-2 75h1zm1-2c-119 2-237 0-365 1v1c128-1 246 1 365-1v-1zm-365 2 365-1v-1l-365 1v1zm365-1c-128-2-254-1-367-1v1c113 0 239-1 367 1v-1zm-367 0 367 1v-1l-367-1v1zm0 1c0-21 0-41 3-73h-1c-3 32-3 52-3 73h1zm2-73-3 73h1l3-73h-1zm0 72V44l-1-34h-1l1 34v40h1z"/></g><text fill="#fff" xml:space="preserve" style="white-space:pre" font-family="Roboto" font-size="28" letter-spacing="0em"><tspan x="1082" y="56">Control Plane (CP)</tspan></text></g><g><path d="m1252 268 225-2v105l-226-1" fill="#FE7F80"/><path d="M1254 267c72-1 145 4 223 3l-223-3zm-2 0 225 1-225-1zm223 2c2 36 2 74 2 105l-2-105zm0-2c0 39 0 75 2 104l-2-104zm1 104c-73-3-148-1-224 0h224zm1 1-225 1 225-1zm-224-2c0-30-1-67 1-101l-1 101zm0 3c0-39 1-74-1-106l1 106z" fill="#FE7F80"/><path d="M1477 266v-1 1zm0 105zm-223-104v-1 1zm223 3v1-1zm-225-3v1-1zm225 1v1-1zm-2 1h-1 1zm2 105h1-1zm-2-107h1-1zm2 104h-1 1zm-1 0v-1 1zm-224 0v1-1zm225 1v1-1zm-225 1v1-1zm1-3h1-1zm1-101h-1 1zm-1 104v1l1-1h-1zm-1-106v-1l-1 1h1zm0 2 225-2v-1l-225 2v1zm224-3v105h1V266h-1zm1 104h-226v1h226v-1zm-223-103 109 2 114 2v-1l-114-2-109-2v1zm223 3-223-4v1l223 4v-1zm-225-2 225 1v-1l-225-1v1zm225 0-225-1v1l225 1v-1zm-3 1c3 36 2 74 3 105h1c-1-31 0-69-3-105h-1zm4 105-3-105h-1l3 105h1zm-3-107c-1 39 0 75 1 104h1c-1-29-2-65-1-104h-1zm2 104-1-104h-1l1 104h1zm-1-1c-73-3-148-1-224 1v1c76-2 151-4 224-1v-1zm-224 2 224-1v-1l-224 1v1zm225 0c-66-1-132 1-225 1v1c93 0 159-2 225-1v-1zm-225 2 225-1v-1l-225 1v1zm2-4V269h-1v101h1zm-1-101v101h1V269h-1zm1 104c-1-39 0-74-2-106h-1c2 32 1 67 2 106h1z" fill="#000"/><path d="m1284 322 162-1 4 39-165-1" fill="#fff"/><path d="M1284 319c42 4 82 2 166 3l-166-3zm1 1 164 1-164-1zm163-1c2 9 0 18 2 39l-2-39zm1 2v39-39zm1 37c-39 2-73 2-165 2l165-2zm-1 2c-41-1-81-2-163 0h163zm-163 0 1-41-1 41zm0-1-1-37 1 37z" fill="#fff"/><path d="M1446 321h1v-1h-1v1zm4 39v1h1v-1h-1zm-166-41v1-1zm166 3v-1 1zm-165-2v-1 1zm164 1v1-1zm-1-2h-1 1zm2 39h1-1zm-1-37h1-1zm0 39h-1 1zm1-2v-1 1zm-165 2v-1 1zm164 0v-1 1zm-163 0v-1 1zm0 0h1-1zm1-41h-1 1zm-1 40h1-1zm0-37-1-1v1h1zm-2 0 162-1v-1l-162 1v1zm162-1 4 39h1l-4-39h-1zm4 39-165-1v1l165 1v-1zm-166-40c42 3 82 1 166 2v-1c-84-1-124 1-166-2v1zm166 1-166-2v1l166 2v-1zm-165-1 164 2v-1l-164-2v1zm164 1-164-2v1l164 2v-1zm-2-2 1 15 2 24h1l-2-24-1-15h-1zm4 39-3-39h-1l3 39h1zm-2-37v19l-1 20h1l1-20v-19h-1zm0 39 1-39h-1l-1 39h1zm1-3c-39 2-73 2-165 2v1c92 0 126 0 165-2v-1zm-165 3 165-2v-1l-165 2v1zm164-1h-163v1h163v-1zm-163 1h163v-1h-163v1zm1 0v-41h-1v41h1zm-1-41v41h1v-41h-1zm1 40-1-37h-1l1 37h1z" fill="#000"/><text fill="#000" xml:space="preserve" style="white-space:pre" font-family="Roboto" font-size="22.3" letter-spacing="0em"><tspan x="1303" y="347">Manager API</tspan></text><text fill="#000" xml:space="preserve" style="white-space:pre" font-family="Roboto" font-size="22.3" letter-spacing="0em"><tspan x="1310" y="306">Dashboard</tspan></text></g><path d="m1352 217 4 41m0 0c-3-2-9-4-9-6l9 6zm0 0 11-6-11 6zm-10-6 11 6c4-4 7-5 10-6m-13-35v41-41z" stroke="#000" stroke-linecap="round"/><g><path d="m1358 168 3 2 2 3v6l-1 3-2 2-3 2a11 11 0 0 1-6 0l-3-2-2-2-2-3a10 10 0 0 1 1-6l2-3 2-2a9 9 0 0 1 6-1l3 1v1-1zm-2-1 3 2 2 2 2 2a10 10 0 0 1 0 7 9 9 0 0 1-4 5l-3 1h-3l-3-1-3-1-2-3-1-3a9 9 0 0 1 1-6 10 10 0 0 1 5-4l3-1h3v1" fill="#fff"/><path fill-rule="evenodd" clip-rule="evenodd" d="M1354 192h17v1l-1 3-1 2v2l-1 1-1 2-1 1-2 2-1 1h-2l-2 1-1 1h-6l-4-1h-1l-2-1-1-1-2-1-2-3-1-3-1-2v-1l-1-3v-1h17" fill="#fff"/><path fill-rule="evenodd" clip-rule="evenodd" d="M1354 192h17v1l-1 3a22 22 0 0 1-3 7l-3 2-3 2a14 14 0 0 1-7 2h-4l-3-1-3-2-3-3-2-3-1-3-1-3v-2h17zm0 0h17v1a21 21 0 0 1-4 10l-3 3-3 1-3 2h-4a23 23 0 0 1-7-2l-3-1-3-3-2-3-1-3-1-3v-2h17" fill="#fff"/><path d="m1358 168-1-1 1 1zm3 2zm2 3v-1 1zm0 3h1-1zm0 3h1-1zm-1 3zm-2 2v1-1zm-3 2zm-3 0v1-1zm-3 0zm-3-2zm-2-2h-1 1zm-2-3zm1-6zm2-3v1-1zm2-2v1-1zm3-1v1-1zm3 0h1-1zm3 1zm0 1h1-1zm-2-2h-1l1 1v-1zm3 2v-1 1zm2 2zm2 2zm0 4h1-1zm0 3h-1 1zm-2 3h1-1zm-2 2zm-3 1zm-3 0v1-1zm-3-1zm-3-1zm-2-3v1-1zm-1-3h1-1zm0-3h1-1zm1-3zm2-2h1-1zm3-2v-1 1zm3-1zm3 0v1-1zm-1 0 1 1-1-1zm-1 24-1 1h1v-1zm8 1v1-1zm9 0v1-1zm0 0h-1 1zm0 0zm0 1v1-1zm-1 3zm-1 2h1-1zm0 2zm-1 1zm-1 2zm-1 1v1-1zm-2 2zm-1 1zm-2 0v1-1zm-2 1zm-1 1zm-2 0v1-1zm-2 0zm-2 0zm-4-1zm-1 0zm-2-1zm-1-1v-1 1zm-2-1zm-2-3zm-1-3zm-1-2v1-1zm0-1h-1 1zm-1-3h1-1zm0-1h-1l1 1v-1zm0 0v1l1-1h-1zm0 0h-1l1 1v-1zm17 0v-1 1zm0 0v-1h-1v1h1zm8 0zm8 0zm1 0h-1 1zm0 1zm-1 3zm-1 3v1-1zm-2 4-1-1 1 1zm-6 4zm-3 1v1-1zm-4 1v-1 1zm-4 0zm-3-1zm-3-2v-1 1zm-3-3v1-1zm-2-3h1-1zm-1-3h1-1zm-1-3h1-1zm0-1zm0-1v1-1zm1 0zm8 0zm8 0zm0-1-1 1h1v-1zm8 1v1-1zm8 0v1-1zm1 0h-1 1zm0 1h-1 1zm-1 3zm-1 4zm-2 3zm-3 3v-1 1zm-3 1v1-1zm-3 2zm-4 0zm-4-1v1-1zm-3-1v1-1zm-3-1v-1 1zm-3-3zm-2-3v1-1zm-1-3h1-1zm-1-3zm0-1zm0-1zm1 0v1-1zm8 0zm8 0v-1 1zm4-24 1 1 1 1h1l-1-2h-2zm2 2 2 3 1-1-2-2h-1zm2 3 1 3h1l-1-4-1 1zm1 3v3h1v-3h-1zm0 3-1 3 2-3h-1zm-1 3-2 2v1l2-3zm-2 2-3 1v1l3-1v-1zm-3 1-3 1v1l3-1v-1zm-3 1-3-1v1l3 1v-1zm-3-1-3-1v1l3 1v-1zm-3-1-2-2h-1l3 3v-1zm-2-2-1-3h-1l1 3h1zm-1-3v-3h-1v3h1zm0-3v-3h-1v3h1zm0-3 2-2-1-1-2 3h1zm2-2 2-2v-1l-3 2 1 1zm2-2 3-1v-1l-3 1v1zm3-1h3l1-1h-4v1zm3 0 3 1v-1l-2-1-1 1zm3 1v-1l1 1v-1h-1v1zm1-1h-1v1l1-1zm-3 0h1l2 1v-1l-1-1h-2v1zm3 1 2 2 1-1-3-2v1zm2 2 1 3 1-1-1-3-1 1zm1 3 1 3h1l-1-4-1 1zm1 3-1 3h1l1-3h-1zm-1 3-1 2 1 1 1-3h-1zm-1 2-2 2v1l3-2-1-1zm-2 2-3 2v1l3-2v-1zm-3 2h-3v1h3v-1zm-3 0-3-1v1l3 1v-1zm-3-1-3-2v1l3 2v-1zm-3-2-1-2-1 1 2 2v-1zm-1-2-1-3h-1l1 4 1-1zm-1-3v-3h-1v3h1zm0-3 1-3h-1l-1 3h1zm1-3 2-2-1-1-2 3h1zm2-2 2-2v-1l-3 2 1 1zm2-2h3v-1h-3v1zm3 0h3v-1h-3v1zm3 0v-1h-1l1 1h1v-1h-1v1zm-2 24 8 1v-1l-8-1v1zm8 1h9v-1h-9v1zm9-1v1-1zm-1 0h1-1zm0 0v1h1v-1h-1zm0 1-1 3h1l1-2-1-1zm-1 3v2h1v-2h-1zm0 2-1 1 1 1 1-2h-1zm-1 1-1 2h1l1-1-1-1zm-1 2-1 1 1 1 1-2h-1zm-1 1-1 2 1 1 1-2-1-1zm-1 2-1 1v1l2-1-1-1zm-1 1-2 1 1 1 1-1v-1zm-2 1-1 1v1l2-1-1-1zm-1 1-2 1 1 1 1-1v-1zm-2 1h-1v1h2l-1-1zm-1 0-2 1h2v-1zm-2 1-2-1v1l2 1v-1zm-2-1h-2v1h2v-1zm-2 0h-4l4 1v-1zm-3 0-2-1v1h2zm-2-1-1-1-1 1 2 1v-1zm-1-1-2-1v1l1 1 1-1zm-2-1-1-1-1 1 2 1v-1zm-1-1-3-2 2 3 1-1zm-2-2-2-3h-1l2 3h1zm-2-3-1-2v2h1zm-1-2v-1h-1l1 2v-1zm0-1v-3h-1v3h1zm0-3v-1l-1 1h1zm-1 0v-1 1zm1-1h-1v1l1-1zm-1 1 17-1v-1l-17 1v1zm17-1h8v-1h-8v1zm8 0h8v-1h-8v1zm8 0a17 17 0 0 1 1 1l-1-1h1v1-1l-1-1v1zm0 0v1-1 1h1v-1h-1zm0 1v3h1v-3h-1zm0 3-2 3 1 1 2-4h-1zm-2 3-2 3 1 1 2-3-1-1zm-2 3-2 3 1 1 2-3-1-1zm-2 3-3 2v1l4-2-1-1zm-3 2-3 1v1l3-1v-1zm-3 1h-4v1h4v-1zm-4 0h-4v1h4v-1zm-4 0-3-1v1l3 1v-1zm-3-1-3-2v1l3 2v-1zm-3-2-2-2-1 1 3 2v-1zm-2-2-2-3-1 1 2 3 1-1zm-2-3-1-3h-1l1 4 1-1zm-1-3-1-2v-1h-1v2l1 1h1zm-1-3v-1h-1v1h1zm0-1v-1l-1 1v-1 1h1zm-1 0 1-1h-1v1h1v-1a24 24 0 0 1-1 0h1-1v1-1 1zm1 0 8-1v-1l-8 1v1zm8-1h8v-1h-8v1zm8 0h-1 1zm0 0 8 1v-1l-8-1v1zm8 1h8v-1h-8v1zm8 0a10 10 0 0 0 1 0v-1h-1 1v1-1h-1 1-1v1zm0-1v1-1 1h1v-1h-1zm0 1v3h1v-3h-1zm0 3-2 3 1 1 2-4h-1zm-2 3-1 3v1l2-3-1-1zm-1 3-3 3v1l3-3v-1zm-3 3-3 2v1l3-2v-1zm-3 2-3 1v1l3-1v-1zm-3 1h-4v1h4v-1zm-4 0h-4v1h4v-1zm-4 0-3-1v1l3 1v-1zm-3-1-3-2v1l3 2v-1zm-3-2-3-2 3 3v-1zm-3-2-1-3-1 1 2 2zm-1-3-1-3h-1l1 4 1-1zm-1-3-1-3h-1l1 3h1zm-1-3v-1h-1v1h1zm0-1v-1l-1 1v-1 1h1zm-1 0 1-1h-1v1h1v-1h-1c1 0 1 0 0 0v1-1 1zm1 0 8-1v-1l-8 1v1zm8-1h8v-1h-8v1z" fill="#000"/></g><g><g fill="#2864A7"><path d="m184 12 366 2-3 74-364-2"/><path d="M182 14h367-367zm1-1h366-366zm366 1c-2 25-2 48-2 72l2-72zm0-1v75-75zm0 74c-113 1-223 3-367 1l367-1zm0 1H183h366zm-366 1c-2-25-2-47-2-74l2 74zm0 0V14v75z"/><path d="M550 14h1-1zm-3 74v1h1v-1h-1zM182 14v1-1zm367 0v-1 1zm-366-1v1-1zm366 0v1-1zm0 1h1-1zm-2 72h-1 1zm2-73h-1 1zm0 75h-1 1zm0-1v1-1zm-367 1v1-1zm367 0v-1 1zm-366 0v-1 1zm0 1v1l1-1h-1zm-2-74h1-1zm1 74a1 1 0 0 0 1 0h-1zm1-75h-1 1zm1-1 366 2v-1l-366-2v1zm366 1-3 74h1l3-74h-1zm-3 74-364-2v1l364 2v-1zM182 15c111 1 222-1 367-1v-1c-145 0-256 2-367 1v1zm367-2-367 1v1l367-1v-1zm-366 1c83-2 166-1 366 0v-1c-200-1-283-2-366 0v1zm366-1H183v1h366v-1zm0 1-3 72h1l3-72h-1zm-2 72 3-72h-1l-3 72h1zm1-73v75h1V13h-1zm1 75V13h-1v75h1zm0-1c-113 0-223 2-367 1v1c144 1 254-1 367-1v-1zm-367 2 367-1v-1l-367 1v1zm367-2H183v1h366v-1zm-366 1h366v-1H183v1zm1 1c-3-25-2-47-2-74h-1c0 27-1 49 2 75l1-1zm-3-74 2 74h1l-2-74h-1zm2 74V14h-1v75h1z"/></g><text fill="#fff" xml:space="preserve" style="white-space:pre" font-family="Roboto" font-size="28" letter-spacing="0em"><tspan x="272" y="60">Data Plane (DP)</tspan></text></g></g></svg>